<svg width="56" height="91" viewBox="0 0 56 91" fill="none" xmlns="http://www.w3.org/2000/svg">
<path d="M44.468 0.622532L51.596 4.76453C49.918 3.78953 47.593 3.92654 45.028 5.40754C43.953 6.02854 42.92 6.83951 41.963 7.78351L34.835 3.64151C35.793 2.69851 36.825 1.88654 37.901 1.26554C40.465 -0.214462 42.79 -0.352468 44.468 0.622532Z" fill="url(#paint0_linear_71_24179)"/>
<mask id="mask0_71_24179" style="mask-type:luminance" maskUnits="userSpaceOnUse" x="34" y="0" width="18" height="8">
<path d="M44.468 0.622532L51.596 4.76453C49.918 3.78953 47.593 3.92654 45.028 5.40754C43.953 6.02854 42.92 6.83951 41.963 7.78351L34.835 3.64151C35.793 2.69851 36.825 1.88654 37.901 1.26554C40.465 -0.214462 42.79 -0.352468 44.468 0.622532Z" fill="white"/>
</mask>
<g mask="url(#mask0_71_24179)">
<path d="M44.468 0.62254C44.451 0.61254 44.434 0.603518 44.417 0.593518C44.268 0.509518 44.113 0.433528 43.954 0.366528C43.796 0.300528 43.633 0.243531 43.466 0.194531C43.298 0.145531 43.125 0.105536 42.948 0.0745361C42.766 0.0435361 42.58 0.0215337 42.39 0.0095337C42.191 -0.0034663 41.987 -0.00447118 41.779 0.00452882C41.554 0.0145288 41.325 0.0375291 41.091 0.0735291C40.826 0.114529 40.555 0.172533 40.279 0.246533C39.925 0.342533 39.562 0.467533 39.192 0.621533C38.769 0.797533 38.338 1.01154 37.9 1.26454C36.825 1.88554 35.792 2.69655 34.834 3.64055L41.962 7.78254C42.92 6.83954 43.952 6.02754 45.027 5.40654C45.466 5.15354 45.897 4.93953 46.32 4.76353C46.69 4.60953 47.052 4.48453 47.407 4.38853C47.683 4.31353 47.954 4.25553 48.219 4.21553C48.453 4.17953 48.683 4.15653 48.907 4.14653C49.115 4.13753 49.319 4.13853 49.518 4.15153C49.708 4.16353 49.894 4.18553 50.076 4.21653C50.253 4.24753 50.426 4.28752 50.594 4.33552C50.761 4.38452 50.924 4.44152 51.082 4.50752C51.241 4.57452 51.396 4.64954 51.545 4.73454C51.562 4.74354 51.579 4.75353 51.596 4.76353L44.468 0.62254Z" fill="url(#paint1_linear_71_24179)"/>
</g>
<path d="M9.82105 43.8335L2.69305 39.6915C1.03605 38.7285 0.00805243 36.6825 5.24332e-05 33.7725C-0.0169476 27.9145 4.10205 20.7795 9.20105 17.8365C10.2761 17.2155 11.3101 16.8345 12.2701 16.6705L19.3981 20.8125C18.4381 20.9765 17.4041 21.3585 16.3291 21.9785C11.2311 24.9215 7.11205 32.0565 7.12805 37.9145C7.13605 40.8235 8.16405 42.8705 9.82105 43.8335Z" fill="url(#paint2_linear_71_24179)"/>
<mask id="mask1_71_24179" style="mask-type:luminance" maskUnits="userSpaceOnUse" x="0" y="16" width="20" height="28">
<path d="M9.82105 43.8335L2.69305 39.6915C1.03605 38.7285 0.00805243 36.6825 5.24332e-05 33.7725C-0.0169476 27.9145 4.10205 20.7795 9.20105 17.8365C10.2761 17.2155 11.3101 16.8345 12.2701 16.6705L19.3981 20.8125C18.4381 20.9765 17.4041 21.3585 16.3291 21.9785C11.2311 24.9215 7.11205 32.0565 7.12805 37.9145C7.13605 40.8235 8.16405 42.8705 9.82105 43.8335Z" fill="white"/>
</mask>
<g mask="url(#mask1_71_24179)">
<path d="M12.2691 16.6695C12.0411 16.7085 11.8101 16.7595 11.5741 16.8235C11.2241 16.9185 10.8651 17.0405 10.5001 17.1915C10.0751 17.3665 9.64109 17.5815 9.20009 17.8355C8.11809 18.4605 7.08009 19.2735 6.11609 20.2245C5.77009 20.5655 5.43309 20.9245 5.10809 21.2985C4.85109 21.5935 4.60109 21.8985 4.35909 22.2105C4.14809 22.4825 3.94309 22.7605 3.74509 23.0435C3.56209 23.3045 3.38309 23.5705 3.21109 23.8415C3.04709 24.0985 2.88809 24.3585 2.73409 24.6225C2.58409 24.8785 2.44009 25.1385 2.30109 25.3995C2.16309 25.6585 2.03009 25.9205 1.90309 26.1845C1.77509 26.4495 1.65309 26.7175 1.53609 26.9855C1.41709 27.2605 1.30409 27.5365 1.19709 27.8135C1.08609 28.1035 0.982094 28.3935 0.884094 28.6845C0.780094 28.9975 0.684093 29.3115 0.597093 29.6255C0.499093 29.9795 0.412093 30.3325 0.337093 30.6845C0.246093 31.1135 0.172093 31.5405 0.117093 31.9645C0.0380933 32.5755 -0.00290673 33.1795 -0.000906732 33.7715C0.00709327 36.6805 1.03509 38.7275 2.69209 39.6905L9.82009 43.8325C8.16309 42.8695 7.13509 40.8235 7.12709 37.9135C7.12509 37.3225 7.16609 36.7185 7.24509 36.1075C7.30009 35.6835 7.37409 35.2565 7.46509 34.8275C7.54009 34.4755 7.62709 34.1215 7.72509 33.7685C7.81209 33.4545 7.90809 33.1405 8.01209 32.8275C8.10909 32.5365 8.21309 32.2455 8.32509 31.9565C8.43109 31.6795 8.54509 31.4035 8.66409 31.1285C8.78109 30.8595 8.90309 30.5925 9.03109 30.3275C9.15809 30.0635 9.29109 29.8015 9.42909 29.5425C9.56809 29.2805 9.71309 29.0215 9.86209 28.7655C10.0161 28.5015 10.1751 28.2415 10.3391 27.9845C10.5121 27.7145 10.6901 27.4485 10.8731 27.1865C11.0721 26.9025 11.2771 26.6255 11.4871 26.3535C11.7291 26.0405 11.9791 25.7365 12.2361 25.4415C12.5621 25.0675 12.8981 24.7085 13.2441 24.3665C14.2081 23.4165 15.2461 22.6025 16.3281 21.9775C16.7691 21.7235 17.2031 21.5085 17.6271 21.3335C17.9921 21.1825 18.3511 21.0605 18.7021 20.9655C18.9371 20.9015 19.1691 20.8505 19.3971 20.8115L12.2691 16.6695Z" fill="url(#paint3_linear_71_24179)"/>
</g>
<path d="M30.659 6.1465C35.625 3.2795 39.928 4.1285 41.963 7.7845C42.921 6.8415 43.953 6.02949 45.028 5.40849C50.126 2.46549 54.272 4.8275 54.289 10.6855C54.306 16.5435 50.186 23.6785 45.088 26.6215L16.095 43.3605C11.132 46.0365 7.14398 43.6565 7.12798 37.9135C7.11098 32.0555 11.231 24.9205 16.329 21.9775C17.404 21.3565 18.438 20.9755 19.398 20.8115C21.405 14.8225 25.69 9.0155 30.659 6.1465Z" fill="url(#paint4_linear_71_24179)"/>
<path d="M32.4345 1.13351C32.4115 1.12051 32.3895 1.10751 32.3665 1.09451C32.1635 0.98051 31.9535 0.877527 31.7375 0.786527C31.5235 0.696527 31.3025 0.618525 31.0765 0.553525C30.8485 0.487525 30.6145 0.433508 30.3755 0.391508C30.1295 0.348508 29.8785 0.319525 29.6215 0.303525C29.3515 0.286525 29.0755 0.283506 28.7935 0.296506C28.4905 0.309506 28.1815 0.340517 27.8655 0.388517C27.5045 0.443517 27.1345 0.522509 26.7585 0.624509C26.2805 0.754509 25.7925 0.921507 25.2945 1.12851C24.7185 1.36751 24.1295 1.65951 23.5315 2.00451C22.0565 2.85651 20.6415 3.96652 19.3295 5.26352C18.8635 5.72452 18.4095 6.20851 17.9705 6.71451C17.6275 7.10851 17.2945 7.51552 16.9705 7.93252C16.6835 8.30152 16.4055 8.67952 16.1345 9.06552C15.8855 9.41952 15.6445 9.78051 15.4105 10.1465C15.1875 10.4955 14.9715 10.8485 14.7625 11.2065C14.5595 11.5555 14.3625 11.9075 14.1735 12.2635C13.9865 12.6145 13.8075 12.9695 13.6345 13.3265C13.4615 13.6855 13.2955 14.0475 13.1375 14.4105C12.9765 14.7825 12.8235 15.1555 12.6795 15.5305C12.5335 15.9095 12.3975 16.2885 12.2695 16.6695L19.3975 20.8115C19.5245 20.4315 19.6615 20.0515 19.8075 19.6725C19.9515 19.2975 20.1045 18.9235 20.2655 18.5525C20.4235 18.1885 20.5885 17.8275 20.7615 17.4675C20.9335 17.1105 21.1135 16.7555 21.3005 16.4045C21.4895 16.0485 21.6865 15.6955 21.8895 15.3475C22.0985 14.9895 22.3145 14.6355 22.5375 14.2865C22.7715 13.9205 23.0125 13.5595 23.2615 13.2055C23.5315 12.8205 23.8105 12.4425 24.0975 12.0725C24.4215 11.6545 24.7545 11.2485 25.0975 10.8535C25.5365 10.3485 25.9895 9.86352 26.4565 9.40252C27.7695 8.10552 29.1835 6.99452 30.6585 6.14352C31.2565 5.79852 31.8455 5.50651 32.4215 5.26751C32.9195 5.06151 33.4075 4.89352 33.8855 4.76452C34.2615 4.66252 34.6315 4.58353 34.9925 4.52853C35.3075 4.48053 35.6175 4.44952 35.9205 4.43652C36.2025 4.42352 36.4785 4.42651 36.7485 4.44351C37.0055 4.45951 37.2575 4.48953 37.5025 4.53253C37.7415 4.57453 37.9755 4.62752 38.2035 4.69452C38.4295 4.76052 38.6505 4.83852 38.8645 4.92752C39.0805 5.01752 39.2905 5.12053 39.4935 5.23453C39.5165 5.24753 39.5395 5.26053 39.5615 5.27353L32.4345 1.13351Z" fill="url(#paint5_linear_71_24179)"/>
<path d="M55.7491 68.6455C55.7431 68.6655 55.7391 68.6845 55.7321 68.7045C55.6731 68.8735 55.5861 69.0385 55.4781 69.2005C55.4581 69.2305 55.4391 69.2605 55.4181 69.2895C55.3011 69.4505 55.1611 69.6065 54.9951 69.7565C54.8861 69.8545 54.7471 69.9445 54.6171 70.0365C54.5071 70.1145 54.4141 70.1975 54.2891 70.2695L38.3611 79.5255C38.1291 79.6605 37.8761 79.7745 37.6161 79.8785C37.5481 79.9055 37.4781 79.9315 37.4091 79.9575C37.2471 80.0165 37.0771 80.0625 36.9081 80.1105C36.7321 80.1595 36.5551 80.2065 36.3721 80.2435C36.1591 80.2875 35.9441 80.3275 35.7251 80.3545C35.6711 80.3615 35.6181 80.3715 35.5641 80.3765C35.2671 80.4085 34.9671 80.4235 34.6661 80.4265C34.6181 80.4265 34.5711 80.4275 34.5231 80.4275C34.2261 80.4255 33.9291 80.4095 33.6351 80.3785C33.5911 80.3735 33.5471 80.3695 33.5031 80.3635C33.2111 80.3285 32.9241 80.2795 32.6441 80.2165C32.5931 80.2045 32.5431 80.1915 32.4921 80.1795C32.2381 80.1165 31.9911 80.0415 31.7521 79.9545C31.7081 79.9385 31.6611 79.9255 31.6181 79.9095C31.3321 79.7985 31.0581 79.6715 30.8051 79.5255L14.7731 70.2695C13.7171 69.6605 13.1901 68.8605 13.1931 68.0625L13.1641 78.4585C13.1621 79.2565 13.6891 80.0555 14.7441 80.6655L30.7761 89.9215C31.0171 90.0605 31.2751 90.1835 31.5461 90.2905C31.5601 90.2955 31.5751 90.2995 31.5891 90.3055C31.6331 90.3225 31.6791 90.3345 31.7241 90.3505C31.8791 90.4065 32.0331 90.4635 32.1951 90.5095C32.2821 90.5345 32.3731 90.5535 32.4621 90.5745C32.5131 90.5875 32.5641 90.6005 32.6151 90.6125C32.6611 90.6225 32.7051 90.6365 32.7521 90.6465C32.9261 90.6825 33.1031 90.7135 33.2821 90.7385C33.3451 90.7475 33.4091 90.7525 33.4731 90.7595C33.5181 90.7645 33.5631 90.7695 33.6081 90.7745C33.6731 90.7815 33.7371 90.7905 33.8021 90.7965C33.9771 90.8105 34.1531 90.8205 34.3291 90.8245C34.3841 90.8255 34.4401 90.8235 34.4951 90.8235C34.5431 90.8235 34.5901 90.8235 34.6371 90.8225C34.7171 90.8215 34.7971 90.8245 34.8761 90.8215C35.0751 90.8145 35.2721 90.8015 35.4691 90.7815C35.4911 90.7795 35.5131 90.7745 35.5351 90.7725C35.5891 90.7665 35.6421 90.7565 35.6961 90.7505C35.8491 90.7315 36.0021 90.7145 36.1511 90.6875C36.2171 90.6755 36.2781 90.6535 36.3431 90.6395C36.5261 90.6025 36.7021 90.5555 36.8791 90.5065C36.9721 90.4805 37.0721 90.4655 37.1631 90.4355C37.2381 90.4115 37.3071 90.3795 37.3801 90.3535C37.4501 90.3285 37.5191 90.3025 37.5871 90.2745C37.8481 90.1695 38.1001 90.0555 38.3321 89.9215L54.2601 80.6645C54.2821 80.6515 54.3041 80.6385 54.3251 80.6255C54.4281 80.5635 54.5001 80.4925 54.5921 80.4275C54.7211 80.3365 54.8581 80.2485 54.9661 80.1505C54.9761 80.1415 54.9911 80.1335 55.0011 80.1245C55.1261 80.0095 55.2361 79.8905 55.3321 79.7685C55.3541 79.7405 55.3691 79.7115 55.3891 79.6835C55.4101 79.6545 55.4291 79.6255 55.4481 79.5955C55.4801 79.5465 55.5181 79.4985 55.5461 79.4495C55.6031 79.3495 55.6501 79.2475 55.6881 79.1455C55.6941 79.1295 55.6961 79.1135 55.7011 79.0985C55.7081 79.0795 55.7121 79.0595 55.7181 79.0405C55.7381 78.9755 55.7611 78.9105 55.7741 78.8455C55.7941 78.7435 55.8061 78.6415 55.8091 78.5385C55.8091 78.5225 55.8101 78.5075 55.8101 78.4915L55.8391 68.0955C55.8411 68.2805 55.8061 68.4645 55.7491 68.6455Z" fill="url(#paint6_linear_71_24179)"/>
<path d="M34.5881 79.7125C33.2851 79.7125 32.0701 79.4245 31.1651 78.9025L15.1331 69.6465C14.3581 69.1985 13.9131 68.6245 13.9131 68.0695C13.9121 67.5135 14.3361 66.9605 15.1071 66.5125L31.0351 57.2565C31.9321 56.7345 33.1431 56.4475 34.4451 56.4475C35.7491 56.4475 36.9671 56.7355 37.8741 57.2585L53.9061 66.5145C54.6791 66.9605 55.1221 67.5345 55.1231 68.0885C55.1241 68.6445 54.7001 69.1985 53.9291 69.6465L38.0011 78.9025C37.1021 79.4265 35.8901 79.7125 34.5881 79.7125Z" fill="url(#paint7_linear_71_24179)"/>
<path d="M34.4439 57.1685C35.6069 57.1685 36.7249 57.4295 37.5129 57.8835L53.5449 67.1395C54.1769 67.5045 54.4019 67.8805 54.4019 68.0915C54.4019 68.3635 54.0739 68.7305 53.5659 69.0265L37.6379 78.2825C36.8599 78.7345 35.7489 78.9935 34.5879 78.9935C33.4259 78.9935 32.3099 78.7335 31.5249 78.2805L15.4929 69.0245C14.8579 68.6585 14.6319 68.2815 14.6319 68.0695C14.6319 67.7975 14.9599 67.4315 15.4679 67.1355L31.3959 57.8795C32.1729 57.4275 33.2839 57.1685 34.4439 57.1685ZM34.4429 55.7295C33.0759 55.7295 31.7109 56.0315 30.6719 56.6355L14.7439 65.8915C12.6649 67.0995 12.6759 69.0595 14.7729 70.2705L30.8049 79.5265C31.8509 80.1305 33.2199 80.4325 34.5879 80.4325C35.9549 80.4325 37.3219 80.1305 38.3609 79.5265L54.2889 70.2695C56.3679 69.0615 56.3569 67.1005 54.2639 65.8925L38.2319 56.6365C37.1829 56.0315 35.8119 55.7295 34.4429 55.7295Z" fill="url(#paint8_linear_71_24179)"/>
<path d="M46.9688 67.8755L34.7988 74.9485L22.5488 67.8765L34.7188 60.8035L46.9688 67.8755Z" fill="#FFD438"/>
<path d="M34.7188 61.9675L45.9648 68.4595L46.9688 67.8755L34.7188 60.8035L22.5488 67.8765L23.5538 68.4565L34.7188 61.9675Z" fill="#7437BD"/>
<g opacity="0.01">
<path opacity="0.9974" d="M52.0692 40.0845L34.8152 50.1115L17.4492 40.0855L34.7032 30.0585L52.0692 40.0845Z" fill="#FFFFFE"/>
</g>
<g opacity="0.0132">
<path opacity="0.9947" d="M52.0354 40.2705L34.8154 50.2775L17.4834 40.2705L34.7034 30.2635L52.0354 40.2705Z" fill="#FFFEFC"/>
</g>
<g opacity="0.0199">
<path opacity="0.9921" d="M52.0006 40.4555L34.8146 50.4425L17.5166 40.4555L34.7026 30.4685L52.0006 40.4555Z" fill="#FFFEFB"/>
</g>
<g opacity="0.0265">
<path opacity="0.9894" d="M51.9668 40.6405L34.8148 50.6085L17.5508 40.6405L34.7028 30.6735L51.9668 40.6405Z" fill="#FFFEFA"/>
</g>
<g opacity="0.0331">
<path opacity="0.9868" d="M51.933 40.8255L34.815 50.7735L17.585 40.8265L34.703 30.8785L51.933 40.8255Z" fill="#FFFEF8"/>
</g>
<g opacity="0.0397">
<path opacity="0.9841" d="M51.8991 41.0115L34.8151 50.9395L17.6191 41.0115L34.7031 31.0835L51.8991 41.0115Z" fill="#FFFDF7"/>
</g>
<g opacity="0.0464">
<path opacity="0.9815" d="M51.8653 41.1965L34.8153 51.1045L17.6533 41.1965L34.7033 31.2885L51.8653 41.1965Z" fill="#FFFDF6"/>
</g>
<g opacity="0.053">
<path opacity="0.9788" d="M51.8315 41.3815L34.8155 51.2705L17.6875 41.3815L34.7035 31.4935L51.8315 41.3815Z" fill="#FFFDF4"/>
</g>
<g opacity="0.0596">
<path opacity="0.9762" d="M51.7967 41.5665L34.8147 51.4365L17.7207 41.5675L34.7037 31.6985L51.7967 41.5665Z" fill="#FFFCF3"/>
</g>
<g opacity="0.0662">
<path opacity="0.9735" d="M51.7629 41.7525L34.8139 51.6015L17.7549 41.7525L34.7039 31.9035L51.7629 41.7525Z" fill="#FFFCF2"/>
</g>
<g opacity="0.0728">
<path opacity="0.9709" d="M51.7291 41.9375L34.8141 51.7675L17.7891 41.9375L34.7041 32.1085L51.7291 41.9375Z" fill="#FFFCF1"/>
</g>
<g opacity="0.0795">
<path opacity="0.9682" d="M51.6952 42.1225L34.8142 51.9325L17.8232 42.1235L34.7042 32.3125L51.6952 42.1225Z" fill="#FFFCEF"/>
</g>
<g opacity="0.0861">
<path opacity="0.9656" d="M51.6614 42.3085L34.8144 52.0985L17.8574 42.3085L34.7044 32.5175L51.6614 42.3085Z" fill="#FFFBEE"/>
</g>
<g opacity="0.0927">
<path opacity="0.9629" d="M51.6266 42.4935L34.8136 52.2645L17.8906 42.4935L34.7036 32.7235L51.6266 42.4935Z" fill="#FFFBED"/>
</g>
<g opacity="0.0993">
<path opacity="0.9603" d="M51.5928 42.6785L34.8138 52.4295L17.9248 42.6785L34.7038 32.9275L51.5928 42.6785Z" fill="#FFFBEB"/>
</g>
<g opacity="0.106">
<path opacity="0.9576" d="M51.559 42.8635L34.814 52.5955L17.959 42.8645L34.704 33.1325L51.559 42.8635Z" fill="#FFFAEA"/>
</g>
<g opacity="0.1126">
<path opacity="0.955" d="M51.5252 43.0495L34.8142 52.7605L17.9932 43.0495L34.7042 33.3375L51.5252 43.0495Z" fill="#FFFAE9"/>
</g>
<g opacity="0.1192">
<path opacity="0.9523" d="M51.4913 43.2345L34.8143 52.9265L18.0273 43.2345L34.7053 33.5425L51.4913 43.2345Z" fill="#FFFAE7"/>
</g>
<g opacity="0.1258">
<path opacity="0.9497" d="M51.4575 43.4195L34.8135 53.0915L18.0615 43.4195L34.7055 33.7475L51.4575 43.4195Z" fill="#FFFAE6"/>
</g>
<g opacity="0.1324">
<path opacity="0.947" d="M51.4227 43.6055L34.8127 53.2575L18.0947 43.6055L34.7047 33.9525L51.4227 43.6055Z" fill="#FFF9E5"/>
</g>
<g opacity="0.1391">
<path opacity="0.9444" d="M51.3889 43.7905L34.8129 53.4235L18.1289 43.7905L34.7049 34.1575L51.3889 43.7905Z" fill="#FFF9E3"/>
</g>
<g opacity="0.1457">
<path opacity="0.9417" d="M51.3551 43.9755L34.8131 53.5885L18.1631 43.9755L34.7051 34.3625L51.3551 43.9755Z" fill="#FFF9E2"/>
</g>
<g opacity="0.1523">
<path opacity="0.9391" d="M51.3213 44.1605L34.8133 53.7545L18.1973 44.1615L34.7053 34.5675L51.3213 44.1605Z" fill="#FFF8E1"/>
</g>
<g opacity="0.1589">
<path opacity="0.9364" d="M51.2874 44.3465L34.8134 53.9195L18.2314 44.3465L34.7054 34.7725L51.2874 44.3465Z" fill="#FFF8DF"/>
</g>
<g opacity="0.1656">
<path opacity="0.9338" d="M51.2526 44.5315L34.8126 54.0855L18.2646 44.5315L34.7046 34.9775L51.2526 44.5315Z" fill="#FFF8DE"/>
</g>
<g opacity="0.1722">
<path opacity="0.9311" d="M51.2188 44.7165L34.8128 54.2505L18.2988 44.7165L34.7048 35.1825L51.2188 44.7165Z" fill="#FFF8DD"/>
</g>
<g opacity="0.1788">
<path opacity="0.9285" d="M51.185 44.9015L34.813 54.4165L18.333 44.9025L34.705 35.3875L51.185 44.9015Z" fill="#FFF7DB"/>
</g>
<g opacity="0.1854">
<path opacity="0.9258" d="M51.1512 45.0875L34.8132 54.5825L18.3672 45.0875L34.7062 35.5925L51.1512 45.0875Z" fill="#FFF7DA"/>
</g>
<g opacity="0.1921">
<path opacity="0.9232" d="M51.1174 45.2725L34.8124 54.7475L18.4014 45.2725L34.7064 35.7975L51.1174 45.2725Z" fill="#FFF7D9"/>
</g>
<g opacity="0.1987">
<path opacity="0.9205" d="M51.0826 45.4575L34.8116 54.9135L18.4346 45.4575L34.7056 36.0025L51.0826 45.4575Z" fill="#FFF6D7"/>
</g>
<g opacity="0.2053">
<path opacity="0.9179" d="M51.0487 45.6435L34.8117 55.0785L18.4688 45.6435L34.7057 36.2075L51.0487 45.6435Z" fill="#FFF6D6"/>
</g>
<g opacity="0.2119">
<path opacity="0.9152" d="M51.0149 45.8285L34.8119 55.2445L18.5029 45.8285L34.7059 36.4125L51.0149 45.8285Z" fill="#FFF6D5"/>
</g>
<g opacity="0.2185">
<path opacity="0.9126" d="M50.9811 46.0135L34.8121 55.4105L18.5371 46.0135L34.7061 36.6175L50.9811 46.0135Z" fill="#FFF6D4"/>
</g>
<g opacity="0.2252">
<path opacity="0.9099" d="M50.9473 46.1985L34.8123 55.5755L18.5713 46.1995L34.7063 36.8225L50.9473 46.1985Z" fill="#FFF5D2"/>
</g>
<g opacity="0.2318">
<path opacity="0.9073" d="M50.9135 46.3845L34.8125 55.7415L18.6055 46.3845L34.7065 37.0275L50.9135 46.3845Z" fill="#FFF5D1"/>
</g>
<g opacity="0.2384">
<path opacity="0.9046" d="M50.8787 46.5695L34.8117 55.9065L18.6387 46.5695L34.7057 37.2325L50.8787 46.5695Z" fill="#FFF5D0"/>
</g>
<g opacity="0.245">
<path opacity="0.902" d="M50.8449 46.7545L34.8109 56.0725L18.6729 46.7545L34.7069 37.4375L50.8449 46.7545Z" fill="#FFF4CE"/>
</g>
<g opacity="0.2517">
<path opacity="0.8993" d="M50.811 46.9405L34.811 56.2375L18.707 46.9405L34.707 37.6425L50.811 46.9405Z" fill="#FFF4CD"/>
</g>
<g opacity="0.2583">
<path opacity="0.8967" d="M50.7772 47.1255L34.8112 56.4035L18.7412 47.1255L34.7072 37.8475L50.7772 47.1255Z" fill="#FFF4CC"/>
</g>
<g opacity="0.2649">
<path opacity="0.894" d="M50.7434 47.3105L34.8114 56.5695L18.7754 47.3105L34.7074 38.0525L50.7434 47.3105Z" fill="#FFF4CA"/>
</g>
<g opacity="0.2715">
<path opacity="0.8914" d="M50.7086 47.4955L34.8106 56.7345L18.8086 47.4965L34.7066 38.2575L50.7086 47.4955Z" fill="#FFF3C9"/>
</g>
<g opacity="0.2781">
<path opacity="0.8887" d="M50.6748 47.6815L34.8108 56.9005L18.8428 47.6815L34.7068 38.4625L50.6748 47.6815Z" fill="#FFF3C8"/>
</g>
<g opacity="0.2848">
<path opacity="0.8861" d="M50.641 47.8665L34.811 57.0655L18.877 47.8665L34.707 38.6675L50.641 47.8665Z" fill="#FFF3C6"/>
</g>
<g opacity="0.2914">
<path opacity="0.8834" d="M50.6071 48.0515L34.8111 57.2315L18.9111 48.0515L34.7071 38.8715L50.6071 48.0515Z" fill="#FFF2C5"/>
</g>
<g opacity="0.298">
<path opacity="0.8808" d="M50.5733 48.2365L34.8113 57.3975L18.9453 48.2375L34.7073 39.0775L50.5733 48.2365Z" fill="#FFF2C4"/>
</g>
<g opacity="0.3046">
<path opacity="0.8781" d="M50.5395 48.4225L34.8105 57.5625L18.9795 48.4225L34.7085 39.2815L50.5395 48.4225Z" fill="#FFF2C2"/>
</g>
<g opacity="0.3113">
<path opacity="0.8755" d="M50.5047 48.6075L34.8097 57.7285L19.0127 48.6075L34.7077 39.4865L50.5047 48.6075Z" fill="#FFF2C1"/>
</g>
<g opacity="0.3179">
<path opacity="0.8728" d="M50.4709 48.7925L34.8099 57.8935L19.0469 48.7925L34.7079 39.6915L50.4709 48.7925Z" fill="#FFF1C0"/>
</g>
<g opacity="0.3245">
<path opacity="0.8702" d="M50.4371 48.9785L34.8101 58.0595L19.0811 48.9785L34.7081 39.8965L50.4371 48.9785Z" fill="#FFF1BE"/>
</g>
<g opacity="0.3311">
<path opacity="0.8676" d="M50.4032 49.1635L34.8102 58.2245L19.1152 49.1635L34.7082 40.1015L50.4032 49.1635Z" fill="#FFF1BD"/>
</g>
<g opacity="0.3377">
<path opacity="0.8649" d="M50.3694 49.3485L34.8104 58.3905L19.1494 49.3485L34.7084 40.3065L50.3694 49.3485Z" fill="#FFF0BC"/>
</g>
<g opacity="0.3444">
<path opacity="0.8623" d="M50.3346 49.5335L34.8096 58.5565L19.1826 49.5345L34.7076 40.5115L50.3346 49.5335Z" fill="#FFF0BA"/>
</g>
<g opacity="0.351">
<path opacity="0.8596" d="M50.3008 49.7195L34.8098 58.7215L19.2168 49.7195L34.7078 40.7165L50.3008 49.7195Z" fill="#FFF0B9"/>
</g>
<g opacity="0.3576">
<path opacity="0.857" d="M50.267 49.9045L34.81 58.8875L19.251 49.9045L34.709 40.9215L50.267 49.9045Z" fill="#FFF0B8"/>
</g>
<g opacity="0.3642">
<path opacity="0.8543" d="M50.2332 50.0895L34.8092 59.0525L19.2852 50.0895L34.7092 41.1265L50.2332 50.0895Z" fill="#FFEFB7"/>
</g>
<g opacity="0.3709">
<path opacity="0.8517" d="M50.1993 50.2745L34.8093 59.2185L19.3193 50.2755L34.7093 41.3315L50.1993 50.2745Z" fill="#FFEFB5"/>
</g>
<g opacity="0.3775">
<path opacity="0.849" d="M50.1655 50.4605L34.8095 59.3845L19.3535 50.4605L34.7095 41.5365L50.1655 50.4605Z" fill="#FFEFB4"/>
</g>
<g opacity="0.3841">
<path opacity="0.8464" d="M50.1307 50.6455L34.8087 59.5495L19.3867 50.6455L34.7087 41.7415L50.1307 50.6455Z" fill="#FFEEB3"/>
</g>
<g opacity="0.3907">
<path opacity="0.8437" d="M50.0969 50.8305L34.8089 59.7155L19.4209 50.8305L34.7089 41.9465L50.0969 50.8305Z" fill="#FFEEB1"/>
</g>
<g opacity="0.3974">
<path opacity="0.8411" d="M50.0631 51.0165L34.8091 59.8805L19.4551 51.0165L34.7091 42.1515L50.0631 51.0165Z" fill="#FFEEB0"/>
</g>
<g opacity="0.404">
<path opacity="0.8384" d="M50.0293 51.2015L34.8093 60.0465L19.4893 51.2015L34.7093 42.3565L50.0293 51.2015Z" fill="#FFEEAF"/>
</g>
<g opacity="0.4106">
<path opacity="0.8358" d="M49.9954 51.3865L34.8094 60.2115L19.5234 51.3865L34.7094 42.5615L49.9954 51.3865Z" fill="#FFEDAD"/>
</g>
<g opacity="0.4172">
<path opacity="0.8331" d="M49.9606 51.5715L34.8086 60.3775L19.5566 51.5725L34.7096 42.7665L49.9606 51.5715Z" fill="#FFEDAC"/>
</g>
<g opacity="0.4238">
<path opacity="0.8305" d="M49.9268 51.7575L34.8088 60.5435L19.5908 51.7575L34.7098 42.9715L49.9268 51.7575Z" fill="#FFEDAB"/>
</g>
<g opacity="0.4305">
<path opacity="0.8278" d="M49.893 51.9425L34.808 60.7085L19.625 51.9425L34.71 43.1765L49.893 51.9425Z" fill="#FFECA9"/>
</g>
<g opacity="0.4371">
<path opacity="0.8252" d="M49.8592 52.1275L34.8082 60.8745L19.6592 52.1275L34.7102 43.3815L49.8592 52.1275Z" fill="#FFECA8"/>
</g>
<g opacity="0.4437">
<path opacity="0.8225" d="M49.8254 52.3125L34.8084 61.0395L19.6934 52.3135L34.7104 43.5865L49.8254 52.3125Z" fill="#FFECA7"/>
</g>
<g opacity="0.4503">
<path opacity="0.8199" d="M49.7906 52.4985L34.8076 61.2055L19.7266 52.4985L34.7096 43.7915L49.7906 52.4985Z" fill="#FFECA5"/>
</g>
<g opacity="0.457">
<path opacity="0.8172" d="M49.7567 52.6835L34.8077 61.3705L19.7607 52.6835L34.7097 43.9965L49.7567 52.6835Z" fill="#FFEBA4"/>
</g>
<g opacity="0.4636">
<path opacity="0.8146" d="M49.7229 52.8685L34.8079 61.5365L19.7949 52.8685L34.7099 44.2015L49.7229 52.8685Z" fill="#FFEBA3"/>
</g>
<g opacity="0.4702">
<path opacity="0.8119" d="M49.6891 53.0535L34.8081 61.7025L19.8291 53.0545L34.7101 44.4065L49.6891 53.0535Z" fill="#FFEBA1"/>
</g>
<g opacity="0.4768">
<path opacity="0.8093" d="M49.6553 53.2395L34.8083 61.8675L19.8633 53.2395L34.7113 44.6115L49.6553 53.2395Z" fill="#FFEAA0"/>
</g>
<g opacity="0.4834">
<path opacity="0.8066" d="M49.6215 53.4245L34.8085 62.0335L19.8975 53.4245L34.7115 44.8165L49.6215 53.4245Z" fill="#FFEA9F"/>
</g>
<g opacity="0.4901">
<path opacity="0.804" d="M49.5867 53.6095L34.8067 62.1985L19.9307 53.6105L34.7107 45.0215L49.5867 53.6095Z" fill="#FFEA9D"/>
</g>
<g opacity="0.4967">
<path opacity="0.8013" d="M49.5528 53.7955L34.8068 62.3645L19.9648 53.7955L34.7108 45.2255L49.5528 53.7955Z" fill="#FFEA9C"/>
</g>
<g opacity="0.5033">
<path opacity="0.7987" d="M49.519 53.9805L34.807 62.5305L19.999 53.9805L34.711 45.4315L49.519 53.9805Z" fill="#FFE99B"/>
</g>
<g opacity="0.5099">
<path opacity="0.796" d="M49.4852 54.1655L34.8072 62.6955L20.0332 54.1655L34.7112 45.6355L49.4852 54.1655Z" fill="#FFE99A"/>
</g>
<g opacity="0.5166">
<path opacity="0.7934" d="M49.4514 54.3505L34.8074 62.8615L20.0674 54.3515L34.7114 45.8405L49.4514 54.3505Z" fill="#FFE998"/>
</g>
<g opacity="0.5232">
<path opacity="0.7907" d="M49.4166 54.5365L34.8066 63.0265L20.1006 54.5365L34.7106 46.0455L49.4166 54.5365Z" fill="#FFE997"/>
</g>
<g opacity="0.5298">
<path opacity="0.7881" d="M49.3828 54.7215L34.8068 63.1925L20.1348 54.7215L34.7108 46.2505L49.3828 54.7215Z" fill="#FFE896"/>
</g>
<g opacity="0.5364">
<path opacity="0.7854" d="M49.3489 54.9065L34.8069 63.3575L20.1689 54.9065L34.7109 46.4555L49.3489 54.9065Z" fill="#FFE894"/>
</g>
<g opacity="0.543">
<path opacity="0.7828" d="M49.3151 55.0925L34.8071 63.5235L20.2031 55.0925L34.7121 46.6605L49.3151 55.0925Z" fill="#FFE893"/>
</g>
<g opacity="0.5497">
<path opacity="0.7801" d="M49.2813 55.2775L34.8063 63.6895L20.2373 55.2775L34.7123 46.8655L49.2813 55.2775Z" fill="#FFE792"/>
</g>
<g opacity="0.5563">
<path opacity="0.7775" d="M49.2475 55.4625L34.8065 63.8545L20.2715 55.4625L34.7125 47.0705L49.2475 55.4625Z" fill="#FFE790"/>
</g>
<g opacity="0.5629">
<path opacity="0.7748" d="M49.2127 55.6475L34.8057 64.0205L20.3047 55.6485L34.7117 47.2755L49.2127 55.6475Z" fill="#FFE78F"/>
</g>
<g opacity="0.5695">
<path opacity="0.7722" d="M49.1789 55.8335L34.8059 64.1855L20.3389 55.8335L34.7119 47.4805L49.1789 55.8335Z" fill="#FFE78E"/>
</g>
<g opacity="0.5762">
<path opacity="0.7695" d="M49.145 56.0185L34.806 64.3515L20.373 56.0185L34.712 47.6855L49.145 56.0185Z" fill="#FFE68C"/>
</g>
<g opacity="0.5828">
<path opacity="0.7669" d="M49.1112 56.2035L34.8062 64.5175L20.4072 56.2035L34.7122 47.8905L49.1112 56.2035Z" fill="#FFE68B"/>
</g>
<g opacity="0.5894">
<path opacity="0.7642" d="M49.0774 56.3885L34.8064 64.6825L20.4414 56.3895L34.7124 48.0955L49.0774 56.3885Z" fill="#FFE68A"/>
</g>
<g opacity="0.596">
<path opacity="0.7616" d="M49.0426 56.5745L34.8056 64.8485L20.4746 56.5745L34.7116 48.3005L49.0426 56.5745Z" fill="#FFE588"/>
</g>
<g opacity="0.6026">
<path opacity="0.7589" d="M49.0088 56.7595L34.8058 65.0135L20.5088 56.7595L34.7128 48.5055L49.0088 56.7595Z" fill="#FFE587"/>
</g>
<g opacity="0.6093">
<path opacity="0.7563" d="M48.975 56.9445L34.805 65.1795L20.543 56.9445L34.713 48.7105L48.975 56.9445Z" fill="#FFE586"/>
</g>
<g opacity="0.6159">
<path opacity="0.7536" d="M48.9412 57.1305L34.8051 65.3445L20.5771 57.1305L34.7131 48.9155L48.9412 57.1305Z" fill="#FFE584"/>
</g>
<g opacity="0.6225">
<path opacity="0.751" d="M48.9073 57.3155L34.8053 65.5105L20.6113 57.3155L34.7133 49.1205L48.9073 57.3155Z" fill="#FFE483"/>
</g>
<g opacity="0.6291">
<path opacity="0.7483" d="M48.8735 57.5005L34.8055 65.6765L20.6455 57.5005L34.7135 49.3255L48.8735 57.5005Z" fill="#FFE482"/>
</g>
<g opacity="0.6358">
<path opacity="0.7457" d="M48.8387 57.6855L34.8047 65.8415L20.6787 57.6865L34.7127 49.5305L48.8387 57.6855Z" fill="#FFE480"/>
</g>
<g opacity="0.6424">
<path opacity="0.743" d="M48.8049 57.8715L34.8049 66.0075L20.7129 57.8715L34.7129 49.7355L48.8049 57.8715Z" fill="#FFE37F"/>
</g>
<g opacity="0.649">
<path opacity="0.7404" d="M48.7711 58.0565L34.8051 66.1725L20.7471 58.0565L34.7131 49.9405L48.7711 58.0565Z" fill="#FFE37E"/>
</g>
<g opacity="0.6556">
<path opacity="0.7377" d="M48.7373 58.2415L34.8052 66.3385L20.7812 58.2415L34.7132 50.1455L48.7373 58.2415Z" fill="#FFE37D"/>
</g>
<g opacity="0.6623">
<path opacity="0.7351" d="M48.7034 58.4275L34.8044 66.5035L20.8154 58.4275L34.7144 50.3505L48.7034 58.4275Z" fill="#FFE37B"/>
</g>
<g opacity="0.6689">
<path opacity="0.7325" d="M48.6686 58.6125L34.8036 66.6695L20.8486 58.6125L34.7136 50.5555L48.6686 58.6125Z" fill="#FFE27A"/>
</g>
<g opacity="0.6755">
<path opacity="0.7298" d="M48.6348 58.7975L34.8038 66.8355L20.8828 58.7975L34.7138 50.7605L48.6348 58.7975Z" fill="#FFE279"/>
</g>
<g opacity="0.6821">
<path opacity="0.7272" d="M48.601 58.9825L34.804 67.0005L20.917 58.9835L34.714 50.9655L48.601 58.9825Z" fill="#FFE277"/>
</g>
<g opacity="0.6887">
<path opacity="0.7245" d="M48.5672 59.1685L34.8042 67.1665L20.9512 59.1685L34.7142 51.1705L48.5672 59.1685Z" fill="#FFE176"/>
</g>
<g opacity="0.6954">
<path opacity="0.7219" d="M48.5334 59.3535L34.8044 67.3315L20.9854 59.3535L34.7144 51.3755L48.5334 59.3535Z" fill="#FFE175"/>
</g>
<g opacity="0.702">
<path opacity="0.7192" d="M48.4986 59.5385L34.8036 67.4975L21.0186 59.5385L34.7136 51.5805L48.4986 59.5385Z" fill="#FFE173"/>
</g>
<g opacity="0.7086">
<path opacity="0.7166" d="M48.4647 59.7235L34.8037 67.6635L21.0527 59.7245L34.7137 51.7855L48.4647 59.7235Z" fill="#FFE172"/>
</g>
<g opacity="0.7152">
<path opacity="0.7139" d="M48.4309 59.9095L34.8039 67.8285L21.0869 59.9095L34.7139 51.9905L48.4309 59.9095Z" fill="#FFE071"/>
</g>
<g opacity="0.7219">
<path opacity="0.7113" d="M48.3971 60.0945L34.8031 67.9945L21.1211 60.0945L34.7151 52.1945L48.3971 60.0945Z" fill="#FFE06F"/>
</g>
<g opacity="0.7285">
<path opacity="0.7086" d="M48.3633 60.2795L34.8033 68.1595L21.1553 60.2795L34.7153 52.3995L48.3633 60.2795Z" fill="#FFE06E"/>
</g>
<g opacity="0.7351">
<path opacity="0.706" d="M48.3294 60.4655L34.8035 68.3255L21.1895 60.4655L34.7155 52.6045L48.3294 60.4655Z" fill="#FFDF6D"/>
</g>
<g opacity="0.7417">
<path opacity="0.7033" d="M48.2947 60.6505L34.8027 68.4905L21.2227 60.6505L34.7147 52.8095L48.2947 60.6505Z" fill="#FFDF6B"/>
</g>
<g opacity="0.7483">
<path opacity="0.7007" d="M48.2608 60.8355L34.8028 68.6565L21.2568 60.8355L34.7148 53.0145L48.2608 60.8355Z" fill="#FFDF6A"/>
</g>
<g opacity="0.755">
<path opacity="0.698" d="M48.227 61.0205L34.803 68.8225L21.291 61.0215L34.715 53.2195L48.227 61.0205Z" fill="#FFDF69"/>
</g>
<g opacity="0.7616">
<path opacity="0.6954" d="M48.1932 61.2065L34.8032 68.9875L21.3252 61.2065L34.7152 53.4245L48.1932 61.2065Z" fill="#FFDE67"/>
</g>
<g opacity="0.7682">
<path opacity="0.6927" d="M48.1594 61.3915L34.8034 69.1535L21.3594 61.3915L34.7154 53.6295L48.1594 61.3915Z" fill="#FFDE66"/>
</g>
<g opacity="0.7748">
<path opacity="0.6901" d="M48.1246 61.5765L34.8026 69.3185L21.3926 61.5765L34.7156 53.8345L48.1246 61.5765Z" fill="#FFDE65"/>
</g>
<g opacity="0.7815">
<path opacity="0.6874" d="M48.0908 61.7615L34.8018 69.4845L21.4268 61.7625L34.7158 54.0395L48.0908 61.7615Z" fill="#FFDD63"/>
</g>
<g opacity="0.7881">
<path opacity="0.6848" d="M48.0569 61.9475L34.8019 69.6495L21.4609 61.9475L34.7159 54.2445L48.0569 61.9475Z" fill="#FFDD62"/>
</g>
<g opacity="0.7947">
<path opacity="0.6821" d="M48.0231 62.1325L34.8021 69.8155L21.4951 62.1325L34.7161 54.4495L48.0231 62.1325Z" fill="#FFDD61"/>
</g>
<g opacity="0.8013">
<path opacity="0.6795" d="M47.9893 62.3175L34.8023 69.9815L21.5293 62.3175L34.7163 54.6545L47.9893 62.3175Z" fill="#FFDD60"/>
</g>
<g opacity="0.8079">
<path opacity="0.6768" d="M47.9555 62.5035L34.8025 70.1465L21.5635 62.5035L34.7165 54.8595L47.9555 62.5035Z" fill="#FFDC5E"/>
</g>
<g opacity="0.8146">
<path opacity="0.6742" d="M47.9207 62.6885L34.8017 70.3125L21.5967 62.6885L34.7157 55.0645L47.9207 62.6885Z" fill="#FFDC5D"/>
</g>
<g opacity="0.8212">
<path opacity="0.6715" d="M47.8869 62.8735L34.8019 70.4775L21.6309 62.8735L34.7159 55.2695L47.8869 62.8735Z" fill="#FFDC5C"/>
</g>
<g opacity="0.8278">
<path opacity="0.6689" d="M47.853 63.0585L34.802 70.6435L21.665 63.0595L34.716 55.4745L47.853 63.0585Z" fill="#FFDB5A"/>
</g>
<g opacity="0.8344">
<path opacity="0.6662" d="M47.8192 63.2445L34.8022 70.8095L21.6992 63.2445L34.7172 55.6795L47.8192 63.2445Z" fill="#FFDB59"/>
</g>
<g opacity="0.8411">
<path opacity="0.6636" d="M47.7854 63.4295L34.8024 70.9745L21.7334 63.4295L34.7174 55.8845L47.7854 63.4295Z" fill="#FFDB58"/>
</g>
<g opacity="0.8477">
<path opacity="0.6609" d="M47.7506 63.6145L34.8006 71.1405L21.7666 63.6145L34.7166 56.0895L47.7506 63.6145Z" fill="#FFDB56"/>
</g>
<g opacity="0.8543">
<path opacity="0.6583" d="M47.7168 63.7995L34.8008 71.3055L21.8008 63.8005L34.7168 56.2945L47.7168 63.7995Z" fill="#FFDA55"/>
</g>
<g opacity="0.8609">
<path opacity="0.6556" d="M47.683 63.9855L34.801 71.4715L21.835 63.9855L34.717 56.4995L47.683 63.9855Z" fill="#FFDA54"/>
</g>
<g opacity="0.8676">
<path opacity="0.653" d="M47.6491 64.1705L34.8011 71.6365L21.8691 64.1705L34.7171 56.7045L47.6491 64.1705Z" fill="#FFDA52"/>
</g>
<g opacity="0.8742">
<path opacity="0.6503" d="M47.6153 64.3555L34.8013 71.8025L21.9033 64.3555L34.7173 56.9095L47.6153 64.3555Z" fill="#FFD951"/>
</g>
<g opacity="0.8808">
<path opacity="0.6477" d="M47.5815 64.5405L34.8015 71.9675L21.9375 64.5415L34.7175 57.1145L47.5815 64.5405Z" fill="#FFD950"/>
</g>
<g opacity="0.8874">
<path opacity="0.645" d="M47.5467 64.7265L34.8007 72.1335L21.9707 64.7265L34.7167 57.3195L47.5467 64.7265Z" fill="#FFD94E"/>
</g>
<g opacity="0.894">
<path opacity="0.6424" d="M47.5129 64.9115L34.8009 72.2995L22.0049 64.9115L34.7169 57.5245L47.5129 64.9115Z" fill="#FFD94D"/>
</g>
<g opacity="0.9007">
<path opacity="0.6397" d="M47.4791 65.0965L34.8011 72.4645L22.0391 65.0975L34.7181 57.7295L47.4791 65.0965Z" fill="#FFD84C"/>
</g>
<g opacity="0.9073">
<path opacity="0.6371" d="M47.4452 65.2825L34.8002 72.6305L22.0732 65.2825L34.7182 57.9345L47.4452 65.2825Z" fill="#FFD84A"/>
</g>
<g opacity="0.9139">
<path opacity="0.6344" d="M47.4114 65.4675L34.8004 72.7955L22.1074 65.4675L34.7184 58.1395L47.4114 65.4675Z" fill="#FFD849"/>
</g>
<g opacity="0.9205">
<path opacity="0.6318" d="M47.3766 65.6525L34.7996 72.9615L22.1406 65.6525L34.7176 58.3445L47.3766 65.6525Z" fill="#FFD748"/>
</g>
<g opacity="0.9272">
<path opacity="0.6291" d="M47.3428 65.8375L34.7998 73.1275L22.1748 65.8385L34.7178 58.5485L47.3428 65.8375Z" fill="#FFD746"/>
</g>
<g opacity="0.9338">
<path opacity="0.6265" d="M47.309 66.0235L34.8 73.2925L22.209 66.0235L34.718 58.7545L47.309 66.0235Z" fill="#FFD745"/>
</g>
<g opacity="0.9404">
<path opacity="0.6238" d="M47.2752 66.2085L34.8002 73.4585L22.2432 66.2085L34.7182 58.9585L47.2752 66.2085Z" fill="#FFD744"/>
</g>
<g opacity="0.947">
<path opacity="0.6212" d="M47.2413 66.3935L34.8003 73.6235L22.2773 66.3935L34.7183 59.1635L47.2413 66.3935Z" fill="#FFD643"/>
</g>
<g opacity="0.9536">
<path opacity="0.6185" d="M47.2075 66.5785L34.8005 73.7895L22.3115 66.5795L34.7185 59.3685L47.2075 66.5785Z" fill="#FFD641"/>
</g>
<g opacity="0.9603">
<path opacity="0.6159" d="M47.1727 66.7645L34.7997 73.9545L22.3447 66.7645L34.7187 59.5735L47.1727 66.7645Z" fill="#FFD640"/>
</g>
<g opacity="0.9669">
<path opacity="0.6132" d="M47.1389 66.9495L34.7989 74.1205L22.3789 66.9495L34.7189 59.7785L47.1389 66.9495Z" fill="#FFD53F"/>
</g>
<g opacity="0.9735">
<path opacity="0.6106" d="M47.1051 67.1345L34.7991 74.2865L22.4131 67.1355L34.7191 59.9835L47.1051 67.1345Z" fill="#FFD53D"/>
</g>
<g opacity="0.9801">
<path opacity="0.6079" d="M47.0713 67.3205L34.7993 74.4515L22.4473 67.3205L34.7193 60.1885L47.0713 67.3205Z" fill="#FFD53C"/>
</g>
<g opacity="0.9868">
<path opacity="0.6053" d="M47.0374 67.5055L34.7994 74.6175L22.4814 67.5055L34.7194 60.3935L47.0374 67.5055Z" fill="#FFD53B"/>
</g>
<g opacity="0.9934">
<path opacity="0.6026" d="M47.0026 67.6905L34.7986 74.7825L22.5146 67.6905L34.7186 60.5985L47.0026 67.6905Z" fill="#FFD439"/>
</g>
<path opacity="0.6" d="M46.9688 67.8755L34.7988 74.9485L22.5488 67.8765L34.7188 60.8035L46.9688 67.8755Z" fill="#FFD438"/>
<defs>
<linearGradient id="paint0_linear_71_24179" x1="45.18" y1="0.873632" x2="41.6699" y2="6.82302" gradientUnits="userSpaceOnUse">
<stop stop-color="#7437BD"/>
<stop offset="1" stop-color="#B862D6"/>
</linearGradient>
<linearGradient id="paint1_linear_71_24179" x1="50.067" y1="3.89214" x2="34.7281" y2="3.89214" gradientUnits="userSpaceOnUse">
<stop stop-color="#7437BD"/>
<stop offset="1" stop-color="#B862D6"/>
</linearGradient>
<linearGradient id="paint2_linear_71_24179" x1="17.5866" y1="19.5927" x2="-0.618343" y2="42.8842" gradientUnits="userSpaceOnUse">
<stop stop-color="#7437BD"/>
<stop offset="1" stop-color="#B862D6"/>
</linearGradient>
<linearGradient id="paint3_linear_71_24179" x1="17.628" y1="30.2514" x2="-0.123207" y2="30.2514" gradientUnits="userSpaceOnUse">
<stop stop-color="#7437BD"/>
<stop offset="1" stop-color="#B862D6"/>
</linearGradient>
<linearGradient id="paint4_linear_71_24179" x1="23.0156" y1="19.8577" x2="46.9228" y2="33.6606" gradientUnits="userSpaceOnUse">
<stop stop-color="#7437BD"/>
<stop offset="1" stop-color="#2E0AA3"/>
</linearGradient>
<linearGradient id="paint5_linear_71_24179" x1="37.0721" y1="10.5503" x2="12.0967" y2="10.5503" gradientUnits="userSpaceOnUse">
<stop stop-color="#7437BD"/>
<stop offset="1" stop-color="#B862D6"/>
</linearGradient>
<linearGradient id="paint6_linear_71_24179" x1="13.1631" y1="79.4448" x2="55.8411" y2="79.4448" gradientUnits="userSpaceOnUse">
<stop stop-color="#7437BD"/>
<stop offset="1" stop-color="#2E0AA3"/>
</linearGradient>
<linearGradient id="paint7_linear_71_24179" x1="51.3615" y1="68.0809" x2="13.6507" y2="68.0809" gradientUnits="userSpaceOnUse">
<stop stop-color="#B862D6"/>
<stop offset="1" stop-color="#7437BD"/>
</linearGradient>
<linearGradient id="paint8_linear_71_24179" x1="51.9497" y1="68.081" x2="12.9217" y2="68.081" gradientUnits="userSpaceOnUse">
<stop stop-color="#7437BD"/>
<stop offset="1" stop-color="#B862D6"/>
</linearGradient>
</defs>
</svg>
