<svg width="61" height="89" viewBox="0 0 61 89" fill="none" xmlns="http://www.w3.org/2000/svg">
<path d="M11.5569 67.782C10.0089 68.676 10.0009 70.123 11.5389 71.016L23.2419 77.817C24.7769 78.709 27.2759 78.709 28.8229 77.816L40.6019 71.015C42.1469 70.123 42.1549 68.676 40.6199 67.784L28.9169 60.983C27.3789 60.09 24.8809 60.09 23.3359 60.981L11.5569 67.782Z" fill="url(#paint0_linear_71_22615)"/>
<path d="M15.1689 69.658L26.0039 75.955L36.9089 69.658L26.0749 63.362L15.1689 69.658Z" fill="#FFD438"/>
<path d="M26.0749 64.398L16.0639 70.178L15.1689 69.658L26.0749 63.362L36.9089 69.658L36.0149 70.175L26.0749 64.398Z" fill="#2E0AA3"/>
<path d="M41.7656 69.388C41.7676 69.977 41.3786 70.566 40.6016 71.015L28.8226 77.816C27.2746 78.709 24.7766 78.709 23.2416 77.817L11.5386 71.016C11.4456 70.962 11.3756 70.9 11.2946 70.842C11.1986 70.774 11.0966 70.708 11.0166 70.636C10.8936 70.525 10.7896 70.41 10.7036 70.291C10.6876 70.27 10.6746 70.248 10.6596 70.226C10.5796 70.106 10.5146 69.983 10.4716 69.858C10.4666 69.844 10.4636 69.829 10.4596 69.815C10.4176 69.681 10.3916 69.545 10.3916 69.409L10.4056 74.349C10.4056 74.36 10.4056 74.372 10.4066 74.384C10.4086 74.46 10.4176 74.535 10.4326 74.61C10.4426 74.659 10.4596 74.707 10.4746 74.755C10.4796 74.769 10.4816 74.783 10.4866 74.798C10.4906 74.81 10.4926 74.821 10.4966 74.833C10.5246 74.909 10.5596 74.984 10.6016 75.058C10.6226 75.095 10.6506 75.13 10.6746 75.166C10.6896 75.188 10.7026 75.21 10.7186 75.231C10.7336 75.252 10.7446 75.273 10.7606 75.293C10.8316 75.383 10.9136 75.471 11.0056 75.556C11.0126 75.563 11.0246 75.569 11.0316 75.576C11.1116 75.648 11.2136 75.714 11.3096 75.782C11.3776 75.83 11.4306 75.882 11.5056 75.927C11.5216 75.937 11.5376 75.946 11.5536 75.956L23.2566 82.757C24.7916 83.649 27.2906 83.649 28.8376 82.755L40.6166 75.954C41.3946 75.505 41.7826 74.916 41.7806 74.327L41.7656 69.388Z" fill="url(#paint1_linear_71_22615)"/>
<g opacity="0.01">
<path opacity="0.9974" d="M0.100586 15.444L25.9546 30.469L51.9776 15.445L26.1236 0.419998L0.100586 15.444Z" fill="#FFFFFE"/>
</g>
<g opacity="0.0132">
<path opacity="0.9947" d="M0.201172 15.806L25.9552 30.772L51.8782 15.806L26.1242 0.839005L0.201172 15.806Z" fill="#FFFEFC"/>
</g>
<g opacity="0.0199">
<path opacity="0.9921" d="M0.301758 16.167L25.9558 31.075L51.7768 16.167L26.1228 1.259L0.301758 16.167Z" fill="#FFFEFB"/>
</g>
<g opacity="0.0265">
<path opacity="0.9894" d="M0.402344 16.529L25.9563 31.379L51.6773 16.529L26.1233 1.67799L0.402344 16.529Z" fill="#FFFEFA"/>
</g>
<g opacity="0.0331">
<path opacity="0.9868" d="M0.50293 16.89L25.9559 31.682L51.5759 16.89L26.1229 2.09799L0.50293 16.89Z" fill="#FFFEF8"/>
</g>
<g opacity="0.0397">
<path opacity="0.9841" d="M0.602539 17.251L25.9565 31.985L51.4755 17.252L26.1215 2.51801L0.602539 17.251Z" fill="#FFFDF7"/>
</g>
<g opacity="0.0464">
<path opacity="0.9815" d="M0.704102 17.613L25.9571 32.288L51.3751 17.613L26.1221 2.937L0.704102 17.613Z" fill="#FFFDF6"/>
</g>
<g opacity="0.053">
<path opacity="0.9788" d="M0.803711 17.974L25.9567 32.592L51.2747 17.975L26.1217 3.35699L0.803711 17.974Z" fill="#FFFDF4"/>
</g>
<g opacity="0.0596">
<path opacity="0.9762" d="M0.904297 18.336L25.9583 32.895L51.1743 18.336L26.1213 3.77701L0.904297 18.336Z" fill="#FFFCF3"/>
</g>
<g opacity="0.0662">
<path opacity="0.9735" d="M1.00488 18.697L25.9579 33.198L51.0739 18.697L26.1209 4.196L1.00488 18.697Z" fill="#FFFCF2"/>
</g>
<g opacity="0.0728">
<path opacity="0.9709" d="M1.10547 19.059L25.9585 33.501L50.9735 19.059L26.1215 4.616L1.10547 19.059Z" fill="#FFFCF1"/>
</g>
<g opacity="0.0795">
<path opacity="0.9682" d="M1.20605 19.42L25.9591 33.805L50.8731 19.42L26.1201 5.035L1.20605 19.42Z" fill="#FFFCEF"/>
</g>
<g opacity="0.0861">
<path opacity="0.9656" d="M1.30566 19.781L25.9587 34.108L50.7727 19.782L26.1197 5.455L1.30566 19.781Z" fill="#FFFBEE"/>
</g>
<g opacity="0.0927">
<path opacity="0.9629" d="M1.40723 20.143L25.9592 34.411L50.6722 20.143L26.1202 5.875L1.40723 20.143Z" fill="#FFFBED"/>
</g>
<g opacity="0.0993">
<path opacity="0.9603" d="M1.50684 20.504L25.9588 34.714L50.5718 20.504L26.1188 6.29401L1.50684 20.504Z" fill="#FFFBEB"/>
</g>
<g opacity="0.106">
<path opacity="0.9576" d="M1.6084 20.866L25.9604 35.018L50.4714 20.866L26.1194 6.714L1.6084 20.866Z" fill="#FFFAEA"/>
</g>
<g opacity="0.1126">
<path opacity="0.955" d="M1.70801 21.227L25.96 35.321L50.371 21.227L26.119 7.133L1.70801 21.227Z" fill="#FFFAE9"/>
</g>
<g opacity="0.1192">
<path opacity="0.9523" d="M1.80859 21.588L25.9596 35.624L50.2696 21.589L26.1176 7.55299L1.80859 21.588Z" fill="#FFFAE7"/>
</g>
<g opacity="0.1258">
<path opacity="0.9497" d="M1.90918 21.95L25.9612 35.927L50.1702 21.95L26.1182 7.97299L1.90918 21.95Z" fill="#FFFAE6"/>
</g>
<g opacity="0.1324">
<path opacity="0.947" d="M2.00977 22.311L25.9608 36.231L50.0688 22.312L26.1178 8.392L2.00977 22.311Z" fill="#FFF9E5"/>
</g>
<g opacity="0.1391">
<path opacity="0.9444" d="M2.11035 22.673L25.9613 36.534L49.9693 22.673L26.1184 8.812L2.11035 22.673Z" fill="#FFF9E3"/>
</g>
<g opacity="0.1457">
<path opacity="0.9417" d="M2.20996 23.034L25.962 36.837L49.868 23.034L26.117 9.23199L2.20996 23.034Z" fill="#FFF9E2"/>
</g>
<g opacity="0.1523">
<path opacity="0.9391" d="M2.31055 23.396L25.9615 37.14L49.7675 23.396L26.1165 9.651L2.31055 23.396Z" fill="#FFF8E1"/>
</g>
<g opacity="0.1589">
<path opacity="0.9364" d="M2.41113 23.757L25.9621 37.443L49.6671 23.757L26.1171 10.071L2.41113 23.757Z" fill="#FFF8DF"/>
</g>
<g opacity="0.1656">
<path opacity="0.9338" d="M2.51172 24.119L25.9627 37.747L49.5667 24.119L26.1157 10.49L2.51172 24.119Z" fill="#FFF8DE"/>
</g>
<g opacity="0.1722">
<path opacity="0.9311" d="M2.6123 24.48L25.9633 38.05L49.4673 24.48L26.1163 10.91L2.6123 24.48Z" fill="#FFF8DD"/>
</g>
<g opacity="0.1788">
<path opacity="0.9285" d="M2.71289 24.841L25.9629 38.353L49.3659 24.842L26.1159 11.33L2.71289 24.841Z" fill="#FFF7DB"/>
</g>
<g opacity="0.1854">
<path opacity="0.9258" d="M2.81348 25.203L25.9645 38.656L49.2665 25.203L26.1155 11.749L2.81348 25.203Z" fill="#FFF7DA"/>
</g>
<g opacity="0.1921">
<path opacity="0.9232" d="M2.91406 25.564L25.9641 38.96L49.1651 25.564L26.1151 12.169L2.91406 25.564Z" fill="#FFF7D9"/>
</g>
<g opacity="0.1987">
<path opacity="0.9205" d="M3.01367 25.926L25.9637 39.263L49.0647 25.926L26.1147 12.588L3.01367 25.926Z" fill="#FFF6D7"/>
</g>
<g opacity="0.2053">
<path opacity="0.9179" d="M3.11523 26.287L25.9652 39.566L48.9642 26.287L26.1142 13.008L3.11523 26.287Z" fill="#FFF6D6"/>
</g>
<g opacity="0.2119">
<path opacity="0.9152" d="M3.21484 26.649L25.9648 39.869L48.8638 26.649L26.1138 13.428L3.21484 26.649Z" fill="#FFF6D5"/>
</g>
<g opacity="0.2185">
<path opacity="0.9126" d="M3.31543 27.01L25.9654 40.173L48.7634 27.01L26.1144 13.847L3.31543 27.01Z" fill="#FFF6D4"/>
</g>
<g opacity="0.2252">
<path opacity="0.9099" d="M3.41602 27.371L25.966 40.476L48.663 27.372L26.113 14.267L3.41602 27.371Z" fill="#FFF5D2"/>
</g>
<g opacity="0.2318">
<path opacity="0.9073" d="M3.51562 27.733L25.9656 40.779L48.5616 27.733L26.1126 14.687L3.51562 27.733Z" fill="#FFF5D1"/>
</g>
<g opacity="0.2384">
<path opacity="0.9046" d="M3.61719 28.094L25.9662 41.082L48.4622 28.094L26.1132 15.106L3.61719 28.094Z" fill="#FFF5D0"/>
</g>
<g opacity="0.245">
<path opacity="0.902" d="M3.7168 28.456L25.9668 41.386L48.3618 28.456L26.1118 15.526L3.7168 28.456Z" fill="#FFF4CE"/>
</g>
<g opacity="0.2517">
<path opacity="0.8993" d="M3.81836 28.817L25.9674 41.689L48.2614 28.817L26.1124 15.945L3.81836 28.817Z" fill="#FFF4CD"/>
</g>
<g opacity="0.2583">
<path opacity="0.8967" d="M3.91797 29.178L25.967 41.992L48.161 29.179L26.112 16.365L3.91797 29.178Z" fill="#FFF4CC"/>
</g>
<g opacity="0.2649">
<path opacity="0.894" d="M4.01855 29.54L25.9676 42.295L48.0596 29.54L26.1106 16.785L4.01855 29.54Z" fill="#FFF4CA"/>
</g>
<g opacity="0.2715">
<path opacity="0.8914" d="M4.11914 29.901L25.9681 42.599L47.9601 29.901L26.1111 17.204L4.11914 29.901Z" fill="#FFF3C9"/>
</g>
<g opacity="0.2781">
<path opacity="0.8887" d="M4.21875 30.263L25.9677 42.902L47.8587 30.263L26.1108 17.624L4.21875 30.263Z" fill="#FFF3C8"/>
</g>
<g opacity="0.2848">
<path opacity="0.8861" d="M4.32031 30.624L25.9693 43.205L47.7593 30.624L26.1103 18.044L4.32031 30.624Z" fill="#FFF3C6"/>
</g>
<g opacity="0.2914">
<path opacity="0.8834" d="M4.41992 30.986L25.9689 43.508L47.6579 30.986L26.1099 18.463L4.41992 30.986Z" fill="#FFF2C5"/>
</g>
<g opacity="0.298">
<path opacity="0.8808" d="M4.52148 31.347L25.9695 43.811L47.5585 31.347L26.1105 18.883L4.52148 31.347Z" fill="#FFF2C4"/>
</g>
<g opacity="0.3046">
<path opacity="0.8781" d="M4.62109 31.708L25.9701 44.115L47.4571 31.709L26.1091 19.302L4.62109 31.708Z" fill="#FFF2C2"/>
</g>
<g opacity="0.3113">
<path opacity="0.8755" d="M4.72168 32.07L25.9697 44.418L47.3567 32.07L26.1087 19.722L4.72168 32.07Z" fill="#FFF2C1"/>
</g>
<g opacity="0.3179">
<path opacity="0.8728" d="M4.82227 32.431L25.9703 44.721L47.2563 32.432L26.1093 20.142L4.82227 32.431Z" fill="#FFF1C0"/>
</g>
<g opacity="0.3245">
<path opacity="0.8702" d="M4.92285 32.793L25.9709 45.024L47.1559 32.793L26.1079 20.561L4.92285 32.793Z" fill="#FFF1BE"/>
</g>
<g opacity="0.3311">
<path opacity="0.8676" d="M5.02344 33.154L25.9714 45.328L47.0564 33.154L26.1084 20.981L5.02344 33.154Z" fill="#FFF1BD"/>
</g>
<g opacity="0.3377">
<path opacity="0.8649" d="M5.12402 33.516L25.971 45.631L46.955 33.516L26.108 21.4L5.12402 33.516Z" fill="#FFF0BC"/>
</g>
<g opacity="0.3444">
<path opacity="0.8623" d="M5.22363 33.877L25.9716 45.934L46.8546 33.877L26.1066 21.82L5.22363 33.877Z" fill="#FFF0BA"/>
</g>
<g opacity="0.351">
<path opacity="0.8596" d="M5.3252 34.238L25.9722 46.237L46.7542 34.239L26.1072 22.24L5.3252 34.238Z" fill="#FFF0B9"/>
</g>
<g opacity="0.3576">
<path opacity="0.857" d="M5.4248 34.6L25.9718 46.541L46.6538 34.6L26.1068 22.659L5.4248 34.6Z" fill="#FFF0B8"/>
</g>
<g opacity="0.3642">
<path opacity="0.8543" d="M5.52539 34.961L25.9734 46.844L46.5534 34.962L26.1064 23.079L5.52539 34.961Z" fill="#FFEFB7"/>
</g>
<g opacity="0.3709">
<path opacity="0.8517" d="M5.62598 35.323L25.973 47.147L46.453 35.323L26.106 23.499L5.62598 35.323Z" fill="#FFEFB5"/>
</g>
<g opacity="0.3775">
<path opacity="0.849" d="M5.72559 35.684L25.9726 47.45L46.3516 35.684L26.1056 23.918L5.72559 35.684Z" fill="#FFEFB4"/>
</g>
<g opacity="0.3841">
<path opacity="0.8464" d="M5.82715 36.046L25.9731 47.754L46.2522 36.046L26.1051 24.338L5.82715 36.046Z" fill="#FFEEB3"/>
</g>
<g opacity="0.3907">
<path opacity="0.8437" d="M5.92676 36.407L25.9738 48.057L46.1518 36.407L26.1048 24.757L5.92676 36.407Z" fill="#FFEEB1"/>
</g>
<g opacity="0.3974">
<path opacity="0.8411" d="M6.02832 36.768L25.9743 48.36L46.0513 36.769L26.1053 25.177L6.02832 36.768Z" fill="#FFEEB0"/>
</g>
<g opacity="0.404">
<path opacity="0.8384" d="M6.12793 37.13L25.9739 48.663L45.9509 37.13L26.1039 25.597L6.12793 37.13Z" fill="#FFEEAF"/>
</g>
<g opacity="0.4106">
<path opacity="0.8358" d="M6.22852 37.491L25.9745 48.966L45.8495 37.491L26.1035 26.016L6.22852 37.491Z" fill="#FFEDAD"/>
</g>
<g opacity="0.4172">
<path opacity="0.8331" d="M6.3291 37.853L25.9751 49.27L45.7501 37.853L26.1041 26.436L6.3291 37.853Z" fill="#FFEDAC"/>
</g>
<g opacity="0.4238">
<path opacity="0.8305" d="M6.42969 38.214L25.9747 49.573L45.6487 38.214L26.1027 26.856L6.42969 38.214Z" fill="#FFEDAB"/>
</g>
<g opacity="0.4305">
<path opacity="0.8278" d="M6.53027 38.575L25.9763 49.876L45.5493 38.576L26.1033 27.275L6.53027 38.575Z" fill="#FFECA9"/>
</g>
<g opacity="0.4371">
<path opacity="0.8252" d="M6.63086 38.937L25.9759 50.179L45.4479 38.937L26.1029 27.695L6.63086 38.937Z" fill="#FFECA8"/>
</g>
<g opacity="0.4437">
<path opacity="0.8225" d="M6.73145 39.298L25.9774 50.483L45.3484 39.299L26.1024 28.114L6.73145 39.298Z" fill="#FFECA7"/>
</g>
<g opacity="0.4503">
<path opacity="0.8199" d="M6.83105 39.66L25.9771 50.786L45.2471 39.66L26.1021 28.534L6.83105 39.66Z" fill="#FFECA5"/>
</g>
<g opacity="0.457">
<path opacity="0.8172" d="M6.93164 40.021L25.9766 51.089L45.1466 40.021L26.1016 28.954L6.93164 40.021Z" fill="#FFEBA4"/>
</g>
<g opacity="0.4636">
<path opacity="0.8146" d="M7.03223 40.383L25.9782 51.392L45.0462 40.383L26.1022 29.373L7.03223 40.383Z" fill="#FFEBA3"/>
</g>
<g opacity="0.4702">
<path opacity="0.8119" d="M7.13281 40.744L25.9778 51.696L44.9458 40.744L26.1008 29.793L7.13281 40.744Z" fill="#FFEBA1"/>
</g>
<g opacity="0.4768">
<path opacity="0.8093" d="M7.2334 41.106L25.9784 51.999L44.8464 41.106L26.1014 30.212L7.2334 41.106Z" fill="#FFEAA0"/>
</g>
<g opacity="0.4834">
<path opacity="0.8066" d="M7.33398 41.467L25.978 52.302L44.745 41.467L26.1 30.632L7.33398 41.467Z" fill="#FFEA9F"/>
</g>
<g opacity="0.4901">
<path opacity="0.804" d="M7.43359 41.828L25.9786 52.605L44.6446 41.829L26.0996 31.052L7.43359 41.828Z" fill="#FFEA9D"/>
</g>
<g opacity="0.4967">
<path opacity="0.8013" d="M7.53516 42.19L25.9792 52.908L44.5442 42.19L26.1002 31.471L7.53516 42.19Z" fill="#FFEA9C"/>
</g>
<g opacity="0.5033">
<path opacity="0.7987" d="M7.63477 42.551L25.9788 53.212L44.4438 42.551L26.0988 31.891L7.63477 42.551Z" fill="#FFE99B"/>
</g>
<g opacity="0.5099">
<path opacity="0.796" d="M7.73633 42.913L25.9803 53.515L44.3433 42.913L26.0993 32.31L7.73633 42.913Z" fill="#FFE99A"/>
</g>
<g opacity="0.5166">
<path opacity="0.7934" d="M7.83594 43.274L25.9799 53.818L44.2429 43.274L26.0989 32.73L7.83594 43.274Z" fill="#FFE998"/>
</g>
<g opacity="0.5232">
<path opacity="0.7907" d="M7.93652 43.636L25.9795 54.121L44.1415 43.636L26.0975 33.15L7.93652 43.636Z" fill="#FFE997"/>
</g>
<g opacity="0.5298">
<path opacity="0.7881" d="M8.03711 43.997L25.9811 54.425L44.0421 43.997L26.0981 33.569L8.03711 43.997Z" fill="#FFE896"/>
</g>
<g opacity="0.5364">
<path opacity="0.7854" d="M8.13672 44.358L25.9807 54.728L43.9407 44.358L26.0977 33.989L8.13672 44.358Z" fill="#FFE894"/>
</g>
<g opacity="0.543">
<path opacity="0.7828" d="M8.23828 44.72L25.9813 55.031L43.8413 44.72L26.0983 34.409L8.23828 44.72Z" fill="#FFE893"/>
</g>
<g opacity="0.5497">
<path opacity="0.7801" d="M8.33789 45.081L25.9819 55.334L43.7399 45.081L26.0969 34.828L8.33789 45.081Z" fill="#FFE792"/>
</g>
<g opacity="0.5563">
<path opacity="0.7775" d="M8.43945 45.443L25.9825 55.638L43.6405 45.443L26.0975 35.248L8.43945 45.443Z" fill="#FFE790"/>
</g>
<g opacity="0.5629">
<path opacity="0.7748" d="M8.53906 45.804L25.9821 55.941L43.5401 45.804L26.0971 35.667L8.53906 45.804Z" fill="#FFE78F"/>
</g>
<g opacity="0.5695">
<path opacity="0.7722" d="M8.63965 46.165L25.9827 56.244L43.4386 46.166L26.0956 36.087L8.63965 46.165Z" fill="#FFE78E"/>
</g>
<g opacity="0.5762">
<path opacity="0.7695" d="M8.74023 46.527L25.9832 56.547L43.3392 46.527L26.0962 36.507L8.74023 46.527Z" fill="#FFE68C"/>
</g>
<g opacity="0.5828">
<path opacity="0.7669" d="M8.84082 46.888L25.9828 56.851L43.2378 46.888L26.0958 36.926L8.84082 46.888Z" fill="#FFE68B"/>
</g>
<g opacity="0.5894">
<path opacity="0.7642" d="M8.94141 47.25L25.9844 57.154L43.1384 47.25L26.0954 37.346L8.94141 47.25Z" fill="#FFE68A"/>
</g>
<g opacity="0.596">
<path opacity="0.7616" d="M9.04199 47.611L25.984 57.457L43.037 47.611L26.095 37.766L9.04199 47.611Z" fill="#FFE588"/>
</g>
<g opacity="0.6026">
<path opacity="0.7589" d="M9.1416 47.973L25.9836 57.76L42.9366 47.973L26.0946 38.185L9.1416 47.973Z" fill="#FFE587"/>
</g>
<g opacity="0.6093">
<path opacity="0.7563" d="M9.24316 48.334L25.9852 58.064L42.8362 48.334L26.0942 38.605L9.24316 48.334Z" fill="#FFE586"/>
</g>
<g opacity="0.6159">
<path opacity="0.7536" d="M9.34277 48.696L25.9848 58.367L42.7358 48.696L26.0938 39.024L9.34277 48.696Z" fill="#FFE584"/>
</g>
<g opacity="0.6225">
<path opacity="0.751" d="M9.44336 49.057L25.9854 58.67L42.6364 49.057L26.0944 39.444L9.44336 49.057Z" fill="#FFE483"/>
</g>
<g opacity="0.6291">
<path opacity="0.7483" d="M9.54395 49.418L25.9859 58.973L42.5349 49.419L26.0929 39.864L9.54395 49.418Z" fill="#FFE482"/>
</g>
<g opacity="0.6358">
<path opacity="0.7457" d="M9.64355 49.78L25.9856 59.277L42.4346 49.78L26.0926 40.283L9.64355 49.78Z" fill="#FFE480"/>
</g>
<g opacity="0.6424">
<path opacity="0.743" d="M9.74512 50.141L25.9861 59.58L42.3341 50.141L26.0931 40.703L9.74512 50.141Z" fill="#FFE37F"/>
</g>
<g opacity="0.649">
<path opacity="0.7404" d="M9.84473 50.503L25.9867 59.883L42.2337 50.503L26.0917 41.122L9.84473 50.503Z" fill="#FFE37E"/>
</g>
<g opacity="0.6556">
<path opacity="0.7377" d="M9.94629 50.864L25.9873 60.186L42.1333 50.864L26.0923 41.542L9.94629 50.864Z" fill="#FFE37D"/>
</g>
<g opacity="0.6623">
<path opacity="0.7351" d="M10.0459 51.226L25.9869 60.49L42.0329 51.226L26.0919 41.962L10.0459 51.226Z" fill="#FFE37B"/>
</g>
<g opacity="0.6689">
<path opacity="0.7325" d="M10.1475 51.587L25.9885 60.793L41.9325 51.587L26.0915 42.381L10.1475 51.587Z" fill="#FFE27A"/>
</g>
<g opacity="0.6755">
<path opacity="0.7298" d="M10.2471 51.948L25.9881 61.096L41.8321 51.948L26.0911 42.801L10.2471 51.948Z" fill="#FFE279"/>
</g>
<g opacity="0.6821">
<path opacity="0.7272" d="M10.3477 52.31L25.9877 61.399L41.7307 52.31L26.0907 43.22L10.3477 52.31Z" fill="#FFE277"/>
</g>
<g opacity="0.6887">
<path opacity="0.7245" d="M10.4482 52.671L25.9892 61.702L41.6312 52.671L26.0902 43.64L10.4482 52.671Z" fill="#FFE176"/>
</g>
<g opacity="0.6954">
<path opacity="0.7219" d="M10.5479 53.033L25.9888 62.006L41.5299 53.033L26.0899 44.06L10.5479 53.033Z" fill="#FFE175"/>
</g>
<g opacity="0.702">
<path opacity="0.7192" d="M10.6494 53.394L25.9894 62.309L41.4304 53.394L26.0904 44.479L10.6494 53.394Z" fill="#FFE173"/>
</g>
<g opacity="0.7086">
<path opacity="0.7166" d="M10.749 53.755L25.99 62.612L41.33 53.756L26.089 44.899L10.749 53.755Z" fill="#FFE172"/>
</g>
<g opacity="0.7152">
<path opacity="0.7139" d="M10.8496 54.117L25.9896 62.915L41.2286 54.117L26.0886 45.319L10.8496 54.117Z" fill="#FFE071"/>
</g>
<g opacity="0.7219">
<path opacity="0.7113" d="M10.9502 54.478L25.9902 63.219L41.1292 54.478L26.0892 45.738L10.9502 54.478Z" fill="#FFE06F"/>
</g>
<g opacity="0.7285">
<path opacity="0.7086" d="M11.0508 54.84L25.9908 63.522L41.0278 54.84L26.0878 46.158L11.0508 54.84Z" fill="#FFE06E"/>
</g>
<g opacity="0.7351">
<path opacity="0.706" d="M11.1514 55.201L25.9914 63.825L40.9284 55.201L26.0884 46.578L11.1514 55.201Z" fill="#FFDF6D"/>
</g>
<g opacity="0.7417">
<path opacity="0.7033" d="M11.252 55.563L25.991 64.128L40.827 55.563L26.088 46.997L11.252 55.563Z" fill="#FFDF6B"/>
</g>
<g opacity="0.7483">
<path opacity="0.7007" d="M11.3516 55.924L25.9916 64.432L40.7266 55.924L26.0866 47.417L11.3516 55.924Z" fill="#FFDF6A"/>
</g>
<g opacity="0.755">
<path opacity="0.698" d="M11.4521 56.285L25.9921 64.735L40.6261 56.286L26.0871 47.836L11.4521 56.285Z" fill="#FFDF69"/>
</g>
<g opacity="0.7616">
<path opacity="0.6954" d="M11.5527 56.647L25.9917 65.038L40.5257 56.647L26.0867 48.256L11.5527 56.647Z" fill="#FFDE67"/>
</g>
<g opacity="0.7682">
<path opacity="0.6927" d="M11.6533 57.008L25.9933 65.341L40.4253 57.008L26.0863 48.675L11.6533 57.008Z" fill="#FFDE66"/>
</g>
<g opacity="0.7748">
<path opacity="0.6901" d="M11.7539 57.37L25.9929 65.644L40.3249 57.37L26.0859 49.095L11.7539 57.37Z" fill="#FFDE65"/>
</g>
<g opacity="0.7815">
<path opacity="0.6874" d="M11.8535 57.731L25.9925 65.948L40.2235 57.731L26.0855 49.515L11.8535 57.731Z" fill="#FFDD63"/>
</g>
<g opacity="0.7881">
<path opacity="0.6848" d="M11.9551 58.093L25.9931 66.251L40.1241 58.093L26.0851 49.934L11.9551 58.093Z" fill="#FFDD62"/>
</g>
<g opacity="0.7947">
<path opacity="0.6821" d="M12.0547 58.454L25.9937 66.554L40.0237 58.454L26.0847 50.354L12.0547 58.454Z" fill="#FFDD61"/>
</g>
<g opacity="0.8013">
<path opacity="0.6795" d="M12.1562 58.815L25.9943 66.857L39.9233 58.815L26.0853 50.774L12.1562 58.815Z" fill="#FFDD60"/>
</g>
<g opacity="0.8079">
<path opacity="0.6768" d="M12.2559 59.177L25.9939 67.161L39.8229 59.177L26.0839 51.193L12.2559 59.177Z" fill="#FFDC5E"/>
</g>
<g opacity="0.8146">
<path opacity="0.6742" d="M12.3574 59.538L25.9954 67.464L39.7224 59.538L26.0844 51.613L12.3574 59.538Z" fill="#FFDC5D"/>
</g>
<g opacity="0.8212">
<path opacity="0.6715" d="M12.457 59.9L25.995 67.767L39.622 59.9L26.084 52.032L12.457 59.9Z" fill="#FFDC5C"/>
</g>
<g opacity="0.8278">
<path opacity="0.6689" d="M12.5576 60.261L25.9946 68.07L39.5206 60.261L26.0826 52.452L12.5576 60.261Z" fill="#FFDB5A"/>
</g>
<g opacity="0.8344">
<path opacity="0.6662" d="M12.6582 60.623L25.9962 68.374L39.4212 60.623L26.0832 52.872L12.6582 60.623Z" fill="#FFDB59"/>
</g>
<g opacity="0.8411">
<path opacity="0.6636" d="M12.7578 60.984L25.9958 68.677L39.3198 60.984L26.0828 53.291L12.7578 60.984Z" fill="#FFDB58"/>
</g>
<g opacity="0.8477">
<path opacity="0.6609" d="M12.8594 61.345L25.9964 68.98L39.2204 61.346L26.0824 53.711L12.8594 61.345Z" fill="#FFDB56"/>
</g>
<g opacity="0.8543">
<path opacity="0.6583" d="M12.959 61.707L25.997 69.283L39.119 61.707L26.082 54.13L12.959 61.707Z" fill="#FFDA55"/>
</g>
<g opacity="0.8609">
<path opacity="0.6556" d="M13.0596 62.068L25.9966 69.587L39.0186 62.068L26.0816 54.55L13.0596 62.068Z" fill="#FFDA54"/>
</g>
<g opacity="0.8676">
<path opacity="0.653" d="M13.1602 62.43L25.9972 69.89L38.9192 62.43L26.0822 54.97L13.1602 62.43Z" fill="#FFDA52"/>
</g>
<g opacity="0.8742">
<path opacity="0.6503" d="M13.2607 62.791L25.9977 70.193L38.8177 62.791L26.0807 55.389L13.2607 62.791Z" fill="#FFD951"/>
</g>
<g opacity="0.8808">
<path opacity="0.6477" d="M13.3613 63.153L25.9983 70.496L38.7183 63.153L26.0813 55.809L13.3613 63.153Z" fill="#FFD950"/>
</g>
<g opacity="0.8874">
<path opacity="0.645" d="M13.4619 63.514L25.9979 70.799L38.6169 63.514L26.0809 56.229L13.4619 63.514Z" fill="#FFD94E"/>
</g>
<g opacity="0.894">
<path opacity="0.6424" d="M13.5615 63.875L25.9985 71.103L38.5165 63.876L26.0795 56.648L13.5615 63.875Z" fill="#FFD94D"/>
</g>
<g opacity="0.9007">
<path opacity="0.6397" d="M13.6631 64.237L25.9991 71.406L38.4161 64.237L26.0801 57.068L13.6631 64.237Z" fill="#FFD84C"/>
</g>
<g opacity="0.9073">
<path opacity="0.6371" d="M13.7627 64.598L25.9987 71.709L38.3157 64.598L26.0787 57.488L13.7627 64.598Z" fill="#FFD84A"/>
</g>
<g opacity="0.9139">
<path opacity="0.6344" d="M13.8633 64.96L26.0003 72.013L38.2153 64.96L26.0793 57.907L13.8633 64.96Z" fill="#FFD849"/>
</g>
<g opacity="0.9205">
<path opacity="0.6318" d="M13.9639 65.321L25.9999 72.316L38.1149 65.321L26.0789 58.327L13.9639 65.321Z" fill="#FFD748"/>
</g>
<g opacity="0.9272">
<path opacity="0.6291" d="M14.0645 65.683L26.0005 72.619L38.0145 65.683L26.0785 58.746L14.0645 65.683Z" fill="#FFD746"/>
</g>
<g opacity="0.9338">
<path opacity="0.6265" d="M14.165 66.044L26.001 72.922L37.914 66.044L26.078 59.166L14.165 66.044Z" fill="#FFD745"/>
</g>
<g opacity="0.9404">
<path opacity="0.6238" d="M14.2646 66.405L26.0006 73.225L37.8126 66.406L26.0776 59.586L14.2646 66.405Z" fill="#FFD744"/>
</g>
<g opacity="0.947">
<path opacity="0.6212" d="M14.3662 66.767L26.0012 73.529L37.7132 66.767L26.0772 60.005L14.3662 66.767Z" fill="#FFD643"/>
</g>
<g opacity="0.9536">
<path opacity="0.6185" d="M14.4658 67.128L26.0018 73.832L37.6128 67.128L26.0768 60.425L14.4658 67.128Z" fill="#FFD641"/>
</g>
<g opacity="0.9603">
<path opacity="0.6159" d="M14.5674 67.49L26.0024 74.135L37.5124 67.49L26.0774 60.844L14.5674 67.49Z" fill="#FFD640"/>
</g>
<g opacity="0.9669">
<path opacity="0.6132" d="M14.667 67.851L26.002 74.438L37.412 67.851L26.077 61.264L14.667 67.851Z" fill="#FFD53F"/>
</g>
<g opacity="0.9735">
<path opacity="0.6106" d="M14.7676 68.212L26.0026 74.742L37.3106 68.213L26.0756 61.684L14.7676 68.212Z" fill="#FFD53D"/>
</g>
<g opacity="0.9801">
<path opacity="0.6079" d="M14.8682 68.574L26.0032 75.045L37.2112 68.574L26.0762 62.103L14.8682 68.574Z" fill="#FFD53C"/>
</g>
<g opacity="0.9868">
<path opacity="0.6053" d="M14.9688 68.935L26.0028 75.348L37.1098 68.935L26.0758 62.523L14.9688 68.935Z" fill="#FFD53B"/>
</g>
<g opacity="0.9934">
<path opacity="0.6026" d="M15.0693 69.297L26.0043 75.651L37.0103 69.297L26.0753 62.943L15.0693 69.297Z" fill="#FFD439"/>
</g>
<path opacity="0.6" d="M15.1689 69.658L26.0039 75.955L36.9089 69.658L26.0749 63.362L15.1689 69.658Z" fill="#FFD438"/>
<path opacity="0.8" d="M9.7412 47.152L9.6582 17.901L40.1762 0.281998L40.2592 29.533L9.7412 47.152Z" fill="url(#paint2_linear_71_22615)"/>
<g opacity="0.5">
<path d="M19.3123 17.465C20.5853 16.73 21.5223 28.787 23.0043 28.08C24.4823 27.229 24.5103 21.426 26.4943 20.148C27.3843 19.633 27.9283 21.066 28.4683 22.506C29.0063 23.945 29.5383 25.387 30.3653 24.91C30.6073 24.771 30.8743 24.467 31.1733 23.951C31.5643 23.28 31.8923 22.905 32.1773 22.741C33.2493 22.122 33.7003 24.487 34.5283 25.258C36.3393 26.941 38.1973 23.585 40.0153 27.868C34.5893 31.05 29.4333 34.043 24.9733 36.619C16.0503 41.771 10.2103 45.08 9.90332 45.254C12.0253 38.557 13.2053 39.543 15.6163 36.622C17.8343 33.928 17.9273 18.279 19.3123 17.465Z" fill="#2E0AA3"/>
<path d="M29.2213 24.342C31.0563 23.282 31.7903 28.416 34.8733 27.096C38.1303 25.708 39.9213 27.755 40.0153 27.869L9.90234 45.254C9.98434 44.903 11.5473 38.227 13.1963 37.275C13.3943 37.161 13.5923 37.134 13.7873 37.217C14.3193 37.445 14.7823 37.395 15.1963 37.157C16.0993 36.636 16.7663 35.213 17.4103 33.803C18.0603 32.385 18.6903 30.983 19.5183 30.505C21.4503 29.492 21.7883 33.328 24.5073 31.759C24.6473 31.678 24.7943 31.583 24.9473 31.471C28.0753 29.205 27.4263 25.378 29.2213 24.342Z" fill="#B862D6"/>
<path d="M33.3423 23.324C34.5523 22.622 34.5333 28.721 36.9543 27.846C38.9133 27.142 39.9603 27.803 40.0153 27.837L9.90234 45.254C10.0223 45.019 12.4033 40.554 15.3873 38.823C15.5333 38.738 15.6803 38.661 15.8283 38.592C18.2433 37.463 18.7283 38.784 20.4523 37.783C20.4793 37.768 20.5053 37.752 20.5323 37.735C22.1923 36.73 22.7233 35.221 24.2673 34.325C24.4113 34.242 24.5633 34.164 24.7263 34.092C26.0623 33.503 28.6123 33.654 30.0533 32.819C30.4323 32.599 30.7343 32.311 30.9183 31.923C31.7993 30.055 32.5663 23.775 33.3423 23.324Z" fill="#FA3A8C"/>
</g>
<path d="M52.0833 51.94C54.6233 51.846 55.3763 55.609 54.9053 58.902C54.4353 62.195 53.4023 68.399 53.9333 70.379C54.5763 72.778 54.4923 78.185 53.9643 81.527C53.4003 85.102 55.1083 86.221 54.0353 87.407C53.1413 88.395 47.2383 86.019 47.2383 86.019L47.7793 84.443C47.7793 84.443 50.1663 85.113 50.7663 84.584C51.7763 83.693 49.4173 76.462 49.3553 71.978C49.2933 67.573 49.3553 62.477 49.9193 59.278C50.4843 56.08 52.0833 51.94 52.0833 51.94Z" fill="#E2B7A1"/>
<path d="M54.153 85.29C53.785 85.296 53.585 85.735 52.687 86.035C52.076 86.239 49.943 86.239 49.128 85.894C48.313 85.549 47.398 84.749 47.985 84.497C48.019 84.507 48.063 84.516 48.123 84.531C47.79 84.288 45.603 84.064 45.45 84.244C45.183 84.558 45.858 86.215 46.932 86.592C47.729 86.871 48.533 86.808 50.421 87.188C51.707 87.447 52.169 88.034 53.51 87.925C54.577 87.838 54.553 86.929 54.498 86.201C54.436 85.377 54.283 85.287 54.153 85.29Z" fill="url(#paint3_linear_71_22615)"/>
<path d="M47.2859 52.646C49.8259 52.552 50.5789 56.315 50.1079 59.607C49.6379 62.9 48.6049 69.104 49.1359 71.084C49.7789 73.483 49.6949 78.89 49.1669 82.232C48.6019 85.807 50.3099 86.926 49.2369 88.112C48.3429 89.1 42.4399 86.724 42.4399 86.724L42.3789 85.605L42.9809 85.148C42.9809 85.148 45.3679 85.818 45.9679 85.289C46.9779 84.398 44.6199 77.167 44.5569 72.683C44.4949 68.278 44.5569 63.181 45.1219 59.983C45.6859 56.785 47.2859 52.646 47.2859 52.646Z" fill="#F9C3AF"/>
<path d="M49.3552 85.995C48.9862 86.001 48.7872 86.441 47.8892 86.74C47.2772 86.944 45.1932 86.796 44.3302 86.599C42.6332 86.246 42.5512 85.168 43.1872 85.207C43.2182 85.209 43.2662 85.222 43.3262 85.237C42.9932 84.994 40.8572 84.922 40.7572 85.134C40.4992 85.683 41.1242 86.825 42.1972 87.202C42.9942 87.481 43.7362 87.512 45.6232 87.892C46.9092 88.151 47.3712 88.739 48.7122 88.629C49.7792 88.542 49.7552 87.633 49.7002 86.904C49.6382 86.083 49.4852 85.993 49.3552 85.995Z" fill="url(#paint4_linear_71_22615)"/>
<path d="M45.3318 16.819C44.0868 17.227 43.5848 18.419 43.5848 19.108C43.5848 19.798 43.7258 20.519 43.6628 21.021C43.5998 21.523 43.4938 22.278 43.4278 23.044C43.3648 23.765 43.7878 26.264 45.3878 26.274C46.6378 26.282 45.7978 28.945 45.7978 28.945C45.7978 28.945 47.0418 30.279 48.4848 30.279C49.9278 30.279 51.2998 29.143 51.2998 29.143C51.2998 29.143 49.9878 26.327 50.3298 24.662C50.6718 22.997 50.2958 17.98 50.2958 17.98L45.3318 16.819Z" fill="#FFC4B0"/>
<path d="M50.4397 23.696L47.1747 21.652C47.1747 21.652 46.7227 20.942 46.3047 21.587C46.0417 21.993 45.2167 22.047 45.2407 22.716C45.2987 24.345 46.0827 23.943 46.3257 26.18C46.4267 27.109 46.2407 28.4 45.9127 29.059C46.2497 29.381 47.2997 30.28 48.4847 30.28C49.9277 30.28 51.2997 29.144 51.2997 29.144C51.2997 29.144 49.9877 26.328 50.3297 24.663C50.3817 24.408 50.4167 24.076 50.4397 23.696Z" fill="#F4AD9A"/>
<path d="M45.7574 28.763C46.4214 29.055 47.9224 29.14 48.9324 28.951C50.4184 28.673 49.6814 27.097 51.0174 27.121C51.9424 27.137 54.9214 28.955 54.4514 36.858C54.2644 39.991 53.5574 42.785 53.9344 46.077C54.3104 49.37 56.1664 50.788 56.3804 55.547C56.5994 60.439 56.4334 66.785 55.7924 68.067C55.3534 68.945 44.3384 69.502 42.7084 68.341C41.6034 67.554 43.4924 52.85 44.0094 47.676C44.7624 42.408 42.4574 41.373 42.4414 38.723C42.4334 37.359 42.0474 31.947 42.6144 31.012C43.2734 29.924 45.2974 28.561 45.7574 28.763Z" fill="#FFB700"/>
<path d="M33.3682 35.555C33.3682 35.555 31.9852 34.32 31.8412 33.935C31.6972 33.551 29.8512 30.134 29.5172 30.276C29.2752 30.379 29.8722 31.544 29.7702 31.652C29.6672 31.759 29.0122 29.952 28.5362 30.294C28.1562 30.566 29.5382 32.095 29.3692 32.146C29.2002 32.197 28.4782 30.775 28.1322 31.027C27.7622 31.296 29.1782 32.668 29.0352 32.798C28.8902 32.929 28.4152 32.015 28.2222 32.127C27.9512 32.283 28.2252 33.071 29.6972 34.627C31.0722 36.08 31.6832 37.338 31.6832 37.338L33.3682 35.555Z" fill="#FFC4B0"/>
<path d="M44.5139 30.378C42.7679 29.295 41.5319 32.026 41.2449 34.684C41.1349 35.703 41.4889 37.418 40.6809 39.947C40.4839 40.563 36.1639 37.444 32.7069 34.607C32.3419 34.804 30.7419 36.203 30.6299 36.454C32.4049 38.288 36.7899 42.026 40.1919 44.099C41.6579 44.992 44.8159 44.679 45.1489 41.988C45.7069 37.478 47.2679 32.086 44.5139 30.378Z" fill="#FFDB58"/>
<path d="M46.3201 24.134C46.2901 23.526 45.7931 23.445 45.6361 23.081C45.6211 23.047 45.6141 23.028 45.6101 23.019C45.4361 22.584 45.4111 22.194 45.6851 22.048C46.4711 21.623 46.6851 20.479 46.0361 20.312C45.5321 20.182 45.2691 20.853 44.3251 20.706C42.6991 20.454 42.6611 18.774 42.8291 18.276C43.1791 17.241 43.8671 17.459 44.3721 16.646C44.8341 15.905 46.1461 15.708 47.1661 16.041C48.2551 16.397 49.0441 16.667 49.9401 16.53C51.6731 16.266 54.5121 18.908 52.3991 22.271C50.2861 25.634 54.0941 26.404 55.9111 28.686C57.7281 30.968 57.9881 31.92 57.7281 34.17C57.4681 36.42 58.5071 36.94 59.7191 38.541C60.9311 40.142 61.1391 42.302 60.4111 43.863C60.0931 44.546 59.8771 44.829 59.9781 46.301C60.0651 47.572 58.8341 49.177 57.3241 48.58C54.6991 47.542 54.9011 48.709 52.7081 48.06C51.7811 47.785 48.3811 45.984 49.8521 41.138C51.3231 36.292 47.9801 35.28 47.3581 32.973C46.7361 30.666 47.8501 29.411 47.3581 27.81C46.8691 26.208 46.4211 26.214 46.3201 24.134Z" fill="#FA3A8C"/>
<defs>
<linearGradient id="paint0_linear_71_22615" x1="13.2537" y1="69.3993" x2="41.9656" y2="69.3993" gradientUnits="userSpaceOnUse">
<stop stop-color="#B862D6"/>
<stop offset="1" stop-color="#7437BD"/>
</linearGradient>
<linearGradient id="paint1_linear_71_22615" x1="26.0855" y1="75.6214" x2="26.0855" y2="86.9184" gradientUnits="userSpaceOnUse">
<stop stop-color="#7437BD"/>
<stop offset="1" stop-color="#2E0AA3"/>
</linearGradient>
<linearGradient id="paint2_linear_71_22615" x1="18.8703" y1="13.1712" x2="34.9701" y2="41.0569" gradientUnits="userSpaceOnUse">
<stop stop-color="#FCFCFC"/>
<stop offset="1" stop-color="#BABDE8"/>
</linearGradient>
<linearGradient id="paint3_linear_71_22615" x1="41.7019" y1="75.4486" x2="55.8948" y2="92.5263" gradientUnits="userSpaceOnUse">
<stop stop-color="#7437BD"/>
<stop offset="1" stop-color="#2E0AA3"/>
</linearGradient>
<linearGradient id="paint4_linear_71_22615" x1="38.5289" y1="78.0858" x2="52.7218" y2="95.1635" gradientUnits="userSpaceOnUse">
<stop stop-color="#7437BD"/>
<stop offset="1" stop-color="#2E0AA3"/>
</linearGradient>
</defs>
</svg>
