<svg width="76" height="99" viewBox="0 0 76 99" fill="none" xmlns="http://www.w3.org/2000/svg">
<path d="M73.9987 66.36C75.9357 67.478 75.9457 69.29 74.0247 70.406L53.8537 82.128C51.9297 83.246 48.8017 83.246 46.8647 82.128L1.49065 55.931C-0.446351 54.813 -0.456346 53.001 1.46765 51.883L21.6387 40.161C23.5587 39.045 26.6867 39.045 28.6237 40.163L73.9987 66.36Z" fill="url(#paint0_linear_71_23598)"/>
<path d="M75.374 68.905C75.368 68.923 75.365 68.941 75.358 68.96C75.304 69.116 75.222 69.27 75.123 69.42C75.105 69.447 75.088 69.473 75.069 69.5C74.961 69.649 74.831 69.794 74.677 69.932C74.577 70.022 74.45 70.104 74.331 70.188C74.229 70.261 74.142 70.338 74.025 70.406L53.854 82.128C53.558 82.3 53.225 82.437 52.881 82.556C52.76 82.598 52.635 82.634 52.509 82.67C52.346 82.716 52.182 82.759 52.014 82.793C51.817 82.834 51.617 82.87 51.414 82.896C51.365 82.902 51.317 82.911 51.267 82.916C50.993 82.945 50.715 82.96 50.437 82.962C50.393 82.962 50.349 82.963 50.304 82.963C50.029 82.961 49.755 82.946 49.484 82.917C49.443 82.913 49.401 82.908 49.36 82.903C49.091 82.871 48.826 82.825 48.568 82.767C48.519 82.756 48.472 82.744 48.424 82.732C48.189 82.674 47.961 82.604 47.74 82.524C47.7 82.51 47.658 82.498 47.619 82.483C47.354 82.38 47.1 82.263 46.865 82.127L1.491 55.93C0.516003 55.367 0.0300038 54.629 0.0320038 53.892L6.14754e-06 65.275C-0.00199385 66.012 0.484006 66.751 1.45901 67.313L46.833 93.51C47.055 93.638 47.296 93.748 47.546 93.847V93.852C47.559 93.857 47.573 93.861 47.586 93.866C47.625 93.881 47.667 93.892 47.707 93.907C47.851 93.959 47.995 94.012 48.146 94.055C48.227 94.078 48.311 94.095 48.393 94.116C48.44 94.128 48.486 94.14 48.533 94.15C48.576 94.16 48.618 94.172 48.661 94.181C48.822 94.214 48.986 94.243 49.151 94.266C49.209 94.274 49.268 94.279 49.327 94.286C49.369 94.291 49.41 94.295 49.452 94.3C49.512 94.306 49.571 94.315 49.632 94.32C49.794 94.333 49.956 94.342 50.119 94.346C50.17 94.347 50.221 94.345 50.271 94.345C50.316 94.345 50.359 94.345 50.404 94.344C50.478 94.343 50.551 94.345 50.625 94.343C50.809 94.337 50.991 94.325 51.173 94.307C51.194 94.305 51.215 94.3 51.236 94.298C51.284 94.293 51.33 94.284 51.378 94.278C51.52 94.26 51.663 94.244 51.803 94.219C51.865 94.208 51.921 94.187 51.983 94.174C52.151 94.139 52.314 94.097 52.476 94.051C52.562 94.027 52.655 94.013 52.739 93.986C52.778 93.973 52.81 93.951 52.849 93.938C53.194 93.819 53.526 93.682 53.822 93.51L73.993 81.788C74.013 81.776 74.033 81.764 74.053 81.753C74.148 81.696 74.216 81.63 74.301 81.569C74.419 81.485 74.545 81.404 74.645 81.315C74.654 81.306 74.668 81.299 74.678 81.291C74.793 81.184 74.895 81.075 74.984 80.962C75.004 80.936 75.018 80.909 75.037 80.883C75.056 80.856 75.073 80.83 75.091 80.803C75.121 80.758 75.156 80.713 75.182 80.668C75.234 80.576 75.278 80.482 75.314 80.387C75.319 80.373 75.322 80.358 75.327 80.343C75.333 80.325 75.337 80.307 75.342 80.289C75.361 80.229 75.382 80.169 75.394 80.108C75.413 80.014 75.424 79.919 75.426 79.825C75.426 79.811 75.427 79.796 75.427 79.781L75.459 68.398C75.458 68.568 75.426 68.738 75.374 68.905Z" fill="url(#paint1_linear_71_23598)"/>
<path d="M61.6988 64.443L43.8778 74.799L15.3828 58.348L33.2038 47.991L61.6988 64.443Z" fill="#FFD438"/>
<path d="M33.2038 51.385L58.7698 66.145L61.6988 64.443L33.2038 47.991L15.3828 58.348L18.3128 60.039L33.2038 51.385Z" fill="#230A99"/>
<g opacity="0.01">
<path opacity="0.9974" d="M64.9057 19.047L44.6177 30.837L12.1777 12.108L32.4657 0.318008L64.9057 19.047Z" fill="#FFFFFE"/>
</g>
<g opacity="0.0132">
<path opacity="0.9947" d="M64.8842 19.35L44.6122 31.131L12.1992 12.417L32.4702 0.636002L64.8842 19.35Z" fill="#FFFEFC"/>
</g>
<g opacity="0.0199">
<path opacity="0.9921" d="M64.8637 19.653L44.6077 31.424L12.2207 12.725L32.4757 0.95401L64.8637 19.653Z" fill="#FFFEFB"/>
</g>
<g opacity="0.0265">
<path opacity="0.9894" d="M64.8412 19.955L44.6032 31.717L12.2412 13.033L32.4802 1.271L64.8412 19.955Z" fill="#FFFEFA"/>
</g>
<g opacity="0.0331">
<path opacity="0.9868" d="M64.8207 20.258L44.5987 32.01L12.2637 13.341L32.4857 1.589L64.8207 20.258Z" fill="#FFFEF8"/>
</g>
<g opacity="0.0397">
<path opacity="0.9841" d="M64.7982 20.561L44.5932 32.303L12.2842 13.65L32.4902 1.907L64.7982 20.561Z" fill="#FFFDF7"/>
</g>
<g opacity="0.0464">
<path opacity="0.9815" d="M64.7777 20.863L44.5887 32.596L12.3057 13.958L32.4957 2.22501L64.7777 20.863Z" fill="#FFFDF6"/>
</g>
<g opacity="0.053">
<path opacity="0.9788" d="M64.7561 21.166L44.5832 32.889L12.3271 14.266L32.5002 2.543L64.7561 21.166Z" fill="#FFFDF4"/>
</g>
<g opacity="0.0596">
<path opacity="0.9762" d="M64.7346 21.469L44.5786 33.182L12.3486 14.574L32.5056 2.86101L64.7346 21.469Z" fill="#FFFCF3"/>
</g>
<g opacity="0.0662">
<path opacity="0.9735" d="M64.7131 21.771L44.5731 33.475L12.3701 14.883L32.5101 3.17801L64.7131 21.771Z" fill="#FFFCF2"/>
</g>
<g opacity="0.0728">
<path opacity="0.9709" d="M64.6916 22.074L44.5686 33.768L12.3916 15.191L32.5156 3.496L64.6916 22.074Z" fill="#FFFCF1"/>
</g>
<g opacity="0.0795">
<path opacity="0.9682" d="M64.6701 22.376L44.5631 34.061L12.4121 15.499L32.5191 3.814L64.6701 22.376Z" fill="#FFFCEF"/>
</g>
<g opacity="0.0861">
<path opacity="0.9656" d="M64.6496 22.679L44.5586 34.354L12.4346 15.807L32.5246 4.132L64.6496 22.679Z" fill="#FFFBEE"/>
</g>
<g opacity="0.0927">
<path opacity="0.9629" d="M64.6271 22.982L44.5531 34.647L12.4551 16.116L32.5291 4.45L64.6271 22.982Z" fill="#FFFBED"/>
</g>
<g opacity="0.0993">
<path opacity="0.9603" d="M64.6066 23.284L44.5486 34.94L12.4766 16.424L32.5346 4.767L64.6066 23.284Z" fill="#FFFBEB"/>
</g>
<g opacity="0.106">
<path opacity="0.9576" d="M64.5851 23.587L44.543 35.234L12.498 16.732L32.539 5.08501L64.5851 23.587Z" fill="#FFFAEA"/>
</g>
<g opacity="0.1126">
<path opacity="0.955" d="M64.5635 23.89L44.5385 35.527L12.5195 17.04L32.5445 5.403L64.5635 23.89Z" fill="#FFFAE9"/>
</g>
<g opacity="0.1192">
<path opacity="0.9523" d="M64.542 24.192L44.534 35.82L12.541 17.349L32.549 5.72101L64.542 24.192Z" fill="#FFFAE7"/>
</g>
<g opacity="0.1258">
<path opacity="0.9497" d="M64.5205 24.495L44.5295 36.113L12.5625 17.657L32.5545 6.039L64.5205 24.495Z" fill="#FFFAE6"/>
</g>
<g opacity="0.1324">
<path opacity="0.947" d="M64.499 24.797L44.524 36.406L12.583 17.965L32.559 6.35701L64.499 24.797Z" fill="#FFF9E5"/>
</g>
<g opacity="0.1391">
<path opacity="0.9444" d="M64.4785 25.1L44.5195 36.699L12.6055 18.273L32.5645 6.674L64.4785 25.1Z" fill="#FFF9E3"/>
</g>
<g opacity="0.1457">
<path opacity="0.9417" d="M64.456 25.403L44.514 36.992L12.626 18.582L32.569 6.992L64.456 25.403Z" fill="#FFF9E2"/>
</g>
<g opacity="0.1523">
<path opacity="0.9391" d="M64.4355 25.705L44.5095 37.285L12.6475 18.89L32.5745 7.31L64.4355 25.705Z" fill="#FFF8E1"/>
</g>
<g opacity="0.1589">
<path opacity="0.9364" d="M64.4139 26.008L44.5039 37.578L12.6689 19.198L32.5789 7.62801L64.4139 26.008Z" fill="#FFF8DF"/>
</g>
<g opacity="0.1656">
<path opacity="0.9338" d="M64.3924 26.311L44.4994 37.871L12.6904 19.506L32.5844 7.946L64.3924 26.311Z" fill="#FFF8DE"/>
</g>
<g opacity="0.1722">
<path opacity="0.9311" d="M64.3709 26.613L44.4939 38.164L12.7109 19.815L32.5879 8.26401L64.3709 26.613Z" fill="#FFF8DD"/>
</g>
<g opacity="0.1788">
<path opacity="0.9285" d="M64.3504 26.916L44.4894 38.457L12.7334 20.123L32.5934 8.58101L64.3504 26.916Z" fill="#FFF7DB"/>
</g>
<g opacity="0.1854">
<path opacity="0.9258" d="M64.3279 27.219L44.4839 38.751L12.7539 20.431L32.5979 8.899L64.3279 27.219Z" fill="#FFF7DA"/>
</g>
<g opacity="0.1921">
<path opacity="0.9232" d="M64.3074 27.521L44.4794 39.044L12.7764 20.74L32.6034 9.217L64.3074 27.521Z" fill="#FFF7D9"/>
</g>
<g opacity="0.1987">
<path opacity="0.9205" d="M64.2849 27.824L44.4749 39.337L12.7969 21.048L32.6079 9.535L64.2849 27.824Z" fill="#FFF6D7"/>
</g>
<g opacity="0.2053">
<path opacity="0.9179" d="M64.2644 28.126L44.4694 39.63L12.8184 21.356L32.6134 9.853L64.2644 28.126Z" fill="#FFF6D6"/>
</g>
<g opacity="0.2119">
<path opacity="0.9152" d="M64.2428 28.429L44.4648 39.923L12.8398 21.664L32.6178 10.17L64.2428 28.429Z" fill="#FFF6D5"/>
</g>
<g opacity="0.2185">
<path opacity="0.9126" d="M64.2213 28.732L44.4603 40.216L12.8613 21.973L32.6233 10.488L64.2213 28.732Z" fill="#FFF6D4"/>
</g>
<g opacity="0.2252">
<path opacity="0.9099" d="M64.1998 29.034L44.4548 40.509L12.8818 22.281L32.6278 10.806L64.1998 29.034Z" fill="#FFF5D2"/>
</g>
<g opacity="0.2318">
<path opacity="0.9073" d="M64.1783 29.337L44.4503 40.802L12.9043 22.589L32.6333 11.124L64.1783 29.337Z" fill="#FFF5D1"/>
</g>
<g opacity="0.2384">
<path opacity="0.9046" d="M64.1568 29.64L44.4448 41.095L12.9248 22.897L32.6378 11.442L64.1568 29.64Z" fill="#FFF5D0"/>
</g>
<g opacity="0.245">
<path opacity="0.902" d="M64.1363 29.942L44.4403 41.388L12.9473 23.206L32.6433 11.76L64.1363 29.942Z" fill="#FFF4CE"/>
</g>
<g opacity="0.2517">
<path opacity="0.8993" d="M64.1138 30.245L44.4348 41.681L12.9678 23.514L32.6478 12.077L64.1138 30.245Z" fill="#FFF4CD"/>
</g>
<g opacity="0.2583">
<path opacity="0.8967" d="M64.0933 30.548L44.4303 41.974L12.9893 23.822L32.6523 12.395L64.0933 30.548Z" fill="#FFF4CC"/>
</g>
<g opacity="0.2649">
<path opacity="0.894" d="M64.0727 30.85L44.4257 42.268L13.0117 24.13L32.6577 12.713L64.0727 30.85Z" fill="#FFF4CA"/>
</g>
<g opacity="0.2715">
<path opacity="0.8914" d="M64.0502 31.153L44.4202 42.561L13.0322 24.439L32.6622 13.031L64.0502 31.153Z" fill="#FFF3C9"/>
</g>
<g opacity="0.2781">
<path opacity="0.8887" d="M64.0297 31.456L44.4157 42.854L13.0537 24.747L32.6677 13.349L64.0297 31.456Z" fill="#FFF3C8"/>
</g>
<g opacity="0.2848">
<path opacity="0.8861" d="M64.0072 31.758L44.4102 43.147L13.0752 25.055L32.6722 13.667L64.0072 31.758Z" fill="#FFF3C6"/>
</g>
<g opacity="0.2914">
<path opacity="0.8834" d="M63.9867 32.061L44.4057 43.44L13.0967 25.364L32.6777 13.984L63.9867 32.061Z" fill="#FFF2C5"/>
</g>
<g opacity="0.298">
<path opacity="0.8808" d="M63.9652 32.363L44.4012 43.733L13.1182 25.672L32.6822 14.302L63.9652 32.363Z" fill="#FFF2C4"/>
</g>
<g opacity="0.3046">
<path opacity="0.8781" d="M63.9436 32.666L44.3966 44.026L13.1396 25.98L32.6876 14.62L63.9436 32.666Z" fill="#FFF2C2"/>
</g>
<g opacity="0.3113">
<path opacity="0.8755" d="M63.9221 32.969L44.3912 44.319L13.1602 26.288L32.6922 14.938L63.9221 32.969Z" fill="#FFF2C1"/>
</g>
<g opacity="0.3179">
<path opacity="0.8728" d="M63.9016 33.271L44.3866 44.612L13.1826 26.596L32.6976 15.256L63.9016 33.271Z" fill="#FFF1C0"/>
</g>
<g opacity="0.3245">
<path opacity="0.8702" d="M63.8791 33.574L44.3811 44.905L13.2031 26.905L32.7021 15.573L63.8791 33.574Z" fill="#FFF1BE"/>
</g>
<g opacity="0.3311">
<path opacity="0.8676" d="M63.8586 33.877L44.3766 45.198L13.2256 27.213L32.7076 15.891L63.8586 33.877Z" fill="#FFF1BD"/>
</g>
<g opacity="0.3377">
<path opacity="0.8649" d="M63.8361 34.179L44.3711 45.491L13.2461 27.521L32.7121 16.209L63.8361 34.179Z" fill="#FFF0BC"/>
</g>
<g opacity="0.3444">
<path opacity="0.8623" d="M63.8156 34.482L44.3666 45.785L13.2676 27.83L32.7176 16.527L63.8156 34.482Z" fill="#FFF0BA"/>
</g>
<g opacity="0.351">
<path opacity="0.8596" d="M63.7941 34.785L44.3611 46.078L13.2891 28.138L32.7211 16.845L63.7941 34.785Z" fill="#FFF0B9"/>
</g>
<g opacity="0.3576">
<path opacity="0.857" d="M63.7726 35.087L44.3566 46.371L13.3105 28.446L32.7265 17.163L63.7726 35.087Z" fill="#FFF0B8"/>
</g>
<g opacity="0.3642">
<path opacity="0.8543" d="M63.7511 35.39L44.351 46.664L13.3311 28.754L32.731 17.48L63.7511 35.39Z" fill="#FFEFB7"/>
</g>
<g opacity="0.3709">
<path opacity="0.8517" d="M63.7305 35.692L44.3465 46.957L13.3535 29.063L32.7365 17.798L63.7305 35.692Z" fill="#FFEFB5"/>
</g>
<g opacity="0.3775">
<path opacity="0.849" d="M63.708 35.995L44.341 47.25L13.374 29.371L32.741 18.116L63.708 35.995Z" fill="#FFEFB4"/>
</g>
<g opacity="0.3841">
<path opacity="0.8464" d="M63.6875 36.298L44.3365 47.543L13.3955 29.679L32.7465 18.434L63.6875 36.298Z" fill="#FFEEB3"/>
</g>
<g opacity="0.3907">
<path opacity="0.8437" d="M63.666 36.6L44.332 47.836L13.417 29.987L32.751 18.752L63.666 36.6Z" fill="#FFEEB1"/>
</g>
<g opacity="0.3974">
<path opacity="0.8411" d="M63.6445 36.903L44.3275 48.129L13.4385 30.296L32.7565 19.07L63.6445 36.903Z" fill="#FFEEB0"/>
</g>
<g opacity="0.404">
<path opacity="0.8384" d="M63.623 37.206L44.322 48.422L13.46 30.604L32.761 19.387L63.623 37.206Z" fill="#FFEEAF"/>
</g>
<g opacity="0.4106">
<path opacity="0.8358" d="M63.6014 37.508L44.3174 48.715L13.4814 30.912L32.7664 19.705L63.6014 37.508Z" fill="#FFEDAD"/>
</g>
<g opacity="0.4172">
<path opacity="0.8331" d="M63.58 37.811L44.312 49.008L13.502 31.221L32.771 20.023L63.58 37.811Z" fill="#FFEDAC"/>
</g>
<g opacity="0.4238">
<path opacity="0.8305" d="M63.5594 38.113L44.3074 49.301L13.5244 31.529L32.7764 20.341L63.5594 38.113Z" fill="#FFEDAB"/>
</g>
<g opacity="0.4305">
<path opacity="0.8278" d="M63.5369 38.416L44.3019 49.595L13.5449 31.837L32.7809 20.659L63.5369 38.416Z" fill="#FFECA9"/>
</g>
<g opacity="0.4371">
<path opacity="0.8252" d="M63.5164 38.719L44.2974 49.888L13.5664 32.145L32.7854 20.976L63.5164 38.719Z" fill="#FFECA8"/>
</g>
<g opacity="0.4437">
<path opacity="0.8225" d="M63.4949 39.021L44.2919 50.181L13.5879 32.454L32.7899 21.294L63.4949 39.021Z" fill="#FFECA7"/>
</g>
<g opacity="0.4503">
<path opacity="0.8199" d="M63.4734 39.324L44.2874 50.474L13.6094 32.762L32.7954 21.612L63.4734 39.324Z" fill="#FFECA5"/>
</g>
<g opacity="0.457">
<path opacity="0.8172" d="M63.4519 39.627L44.2819 50.767L13.6309 33.07L32.7999 21.93L63.4519 39.627Z" fill="#FFEBA4"/>
</g>
<g opacity="0.4636">
<path opacity="0.8146" d="M63.4303 39.929L44.2773 51.06L13.6523 33.378L32.8053 22.248L63.4303 39.929Z" fill="#FFEBA3"/>
</g>
<g opacity="0.4702">
<path opacity="0.8119" d="M63.4088 40.232L44.2719 51.353L13.6729 33.687L32.8098 22.566L63.4088 40.232Z" fill="#FFEBA1"/>
</g>
<g opacity="0.4768">
<path opacity="0.8093" d="M63.3883 40.535L44.2683 51.646L13.6953 33.995L32.8153 22.883L63.3883 40.535Z" fill="#FFEAA0"/>
</g>
<g opacity="0.4834">
<path opacity="0.8066" d="M63.3658 40.837L44.2628 51.939L13.7158 34.303L32.8198 23.201L63.3658 40.837Z" fill="#FFEA9F"/>
</g>
<g opacity="0.4901">
<path opacity="0.804" d="M63.3453 41.14L44.2583 52.232L13.7383 34.611L32.8253 23.519L63.3453 41.14Z" fill="#FFEA9D"/>
</g>
<g opacity="0.4967">
<path opacity="0.8013" d="M63.3238 41.443L44.2528 52.525L13.7588 34.92L32.8298 23.837L63.3238 41.443Z" fill="#FFEA9C"/>
</g>
<g opacity="0.5033">
<path opacity="0.7987" d="M63.3023 41.745L44.2483 52.818L13.7803 35.228L32.8353 24.155L63.3023 41.745Z" fill="#FFE99B"/>
</g>
<g opacity="0.5099">
<path opacity="0.796" d="M63.2817 42.048L44.2437 53.111L13.8027 35.536L32.8407 24.473L63.2817 42.048Z" fill="#FFE99A"/>
</g>
<g opacity="0.5166">
<path opacity="0.7934" d="M63.2592 42.35L44.2383 53.405L13.8232 35.844L32.8452 24.79L63.2592 42.35Z" fill="#FFE998"/>
</g>
<g opacity="0.5232">
<path opacity="0.7907" d="M63.2387 42.653L44.2337 53.698L13.8447 36.153L32.8507 25.108L63.2387 42.653Z" fill="#FFE997"/>
</g>
<g opacity="0.5298">
<path opacity="0.7881" d="M63.2172 42.956L44.2282 53.991L13.8662 36.461L32.8542 25.426L63.2172 42.956Z" fill="#FFE896"/>
</g>
<g opacity="0.5364">
<path opacity="0.7854" d="M63.1957 43.258L44.2237 54.284L13.8877 36.769L32.8597 25.744L63.1957 43.258Z" fill="#FFE894"/>
</g>
<g opacity="0.543">
<path opacity="0.7828" d="M63.1742 43.561L44.2182 54.577L13.9082 37.078L32.8642 26.062L63.1742 43.561Z" fill="#FFE893"/>
</g>
<g opacity="0.5497">
<path opacity="0.7801" d="M63.1537 43.864L44.2137 54.87L13.9307 37.386L32.8697 26.379L63.1537 43.864Z" fill="#FFE792"/>
</g>
<g opacity="0.5563">
<path opacity="0.7775" d="M63.1312 44.166L44.2082 55.163L13.9512 37.694L32.8742 26.697L63.1312 44.166Z" fill="#FFE790"/>
</g>
<g opacity="0.5629">
<path opacity="0.7748" d="M63.1106 44.469L44.2036 55.456L13.9736 38.002L32.8796 27.015L63.1106 44.469Z" fill="#FFE78F"/>
</g>
<g opacity="0.5695">
<path opacity="0.7722" d="M63.0881 44.772L44.1991 55.749L13.9941 38.311L32.8841 27.333L63.0881 44.772Z" fill="#FFE78E"/>
</g>
<g opacity="0.5762">
<path opacity="0.7695" d="M63.0676 45.074L44.1946 56.042L14.0156 38.619L32.8896 27.651L63.0676 45.074Z" fill="#FFE68C"/>
</g>
<g opacity="0.5828">
<path opacity="0.7669" d="M63.0461 45.377L44.1891 56.335L14.0371 38.927L32.8941 27.969L63.0461 45.377Z" fill="#FFE68B"/>
</g>
<g opacity="0.5894">
<path opacity="0.7642" d="M63.0246 45.679L44.1846 56.628L14.0586 39.235L32.8996 28.286L63.0246 45.679Z" fill="#FFE68A"/>
</g>
<g opacity="0.596">
<path opacity="0.7616" d="M63.0031 45.982L44.1791 56.922L14.0791 39.544L32.9041 28.604L63.0031 45.982Z" fill="#FFE588"/>
</g>
<g opacity="0.6026">
<path opacity="0.7589" d="M62.9826 46.285L44.1746 57.215L14.1016 39.852L32.9096 28.922L62.9826 46.285Z" fill="#FFE587"/>
</g>
<g opacity="0.6093">
<path opacity="0.7563" d="M62.9601 46.587L44.1691 57.508L14.1221 40.16L32.9141 29.24L62.9601 46.587Z" fill="#FFE586"/>
</g>
<g opacity="0.6159">
<path opacity="0.7536" d="M62.9395 46.89L44.1645 57.801L14.1445 40.468L32.9195 29.558L62.9395 46.89Z" fill="#FFE584"/>
</g>
<g opacity="0.6225">
<path opacity="0.751" d="M62.917 47.193L44.159 58.094L14.165 40.777L32.923 29.876L62.917 47.193Z" fill="#FFE483"/>
</g>
<g opacity="0.6291">
<path opacity="0.7483" d="M62.8965 47.495L44.1545 58.387L14.1865 41.085L32.9285 30.193L62.8965 47.495Z" fill="#FFE482"/>
</g>
<g opacity="0.6358">
<path opacity="0.7457" d="M62.875 47.798L44.149 58.68L14.208 41.393L32.933 30.511L62.875 47.798Z" fill="#FFE480"/>
</g>
<g opacity="0.6424">
<path opacity="0.743" d="M62.8535 48.1L44.1445 58.973L14.2295 41.701L32.9385 30.829L62.8535 48.1Z" fill="#FFE37F"/>
</g>
<g opacity="0.649">
<path opacity="0.7404" d="M62.832 48.403L44.139 59.266L14.251 42.01L32.943 31.147L62.832 48.403Z" fill="#FFE37E"/>
</g>
<g opacity="0.6556">
<path opacity="0.7377" d="M62.8115 48.706L44.1355 59.559L14.2725 42.318L32.9485 31.465L62.8115 48.706Z" fill="#FFE37D"/>
</g>
<g opacity="0.6623">
<path opacity="0.7351" d="M62.789 49.008L44.13 59.852L14.293 42.626L32.953 31.782L62.789 49.008Z" fill="#FFE37B"/>
</g>
<g opacity="0.6689">
<path opacity="0.7325" d="M62.7684 49.311L44.1254 60.145L14.3154 42.935L32.9584 32.1L62.7684 49.311Z" fill="#FFE27A"/>
</g>
<g opacity="0.6755">
<path opacity="0.7298" d="M62.7459 49.614L44.1199 60.438L14.3359 43.243L32.9629 32.418L62.7459 49.614Z" fill="#FFE279"/>
</g>
<g opacity="0.6821">
<path opacity="0.7272" d="M62.7254 49.916L44.1154 60.732L14.3574 43.551L32.9684 32.736L62.7254 49.916Z" fill="#FFE277"/>
</g>
<g opacity="0.6887">
<path opacity="0.7245" d="M62.7039 50.219L44.1099 61.025L14.3789 43.859L32.9729 33.054L62.7039 50.219Z" fill="#FFE176"/>
</g>
<g opacity="0.6954">
<path opacity="0.7219" d="M62.6824 50.522L44.1054 61.318L14.4004 44.168L32.9784 33.372L62.6824 50.522Z" fill="#FFE175"/>
</g>
<g opacity="0.702">
<path opacity="0.7192" d="M62.6609 50.824L44.0999 61.611L14.4209 44.476L32.9829 33.689L62.6609 50.824Z" fill="#FFE173"/>
</g>
<g opacity="0.7086">
<path opacity="0.7166" d="M62.6404 51.127L44.0954 61.904L14.4434 44.784L32.9884 34.007L62.6404 51.127Z" fill="#FFE172"/>
</g>
<g opacity="0.7152">
<path opacity="0.7139" d="M62.6179 51.43L44.0899 62.197L14.4639 45.092L32.9919 34.325L62.6179 51.43Z" fill="#FFE071"/>
</g>
<g opacity="0.7219">
<path opacity="0.7113" d="M62.5973 51.732L44.0853 62.49L14.4863 45.401L32.9973 34.643L62.5973 51.732Z" fill="#FFE06F"/>
</g>
<g opacity="0.7285">
<path opacity="0.7086" d="M62.5748 52.035L44.0798 62.783L14.5068 45.709L33.0018 34.961L62.5748 52.035Z" fill="#FFE06E"/>
</g>
<g opacity="0.7351">
<path opacity="0.706" d="M62.5543 52.337L44.0753 63.076L14.5283 46.017L33.0073 35.279L62.5543 52.337Z" fill="#FFDF6D"/>
</g>
<g opacity="0.7417">
<path opacity="0.7033" d="M62.5328 52.64L44.0698 63.369L14.5498 46.325L33.0118 35.596L62.5328 52.64Z" fill="#FFDF6B"/>
</g>
<g opacity="0.7483">
<path opacity="0.7007" d="M62.5113 52.943L44.0663 63.662L14.5713 46.634L33.0173 35.914L62.5113 52.943Z" fill="#FFDF6A"/>
</g>
<g opacity="0.755">
<path opacity="0.698" d="M62.4898 53.245L44.0608 63.955L14.5918 46.942L33.0218 36.232L62.4898 53.245Z" fill="#FFDF69"/>
</g>
<g opacity="0.7616">
<path opacity="0.6954" d="M62.4693 53.548L44.0563 64.248L14.6143 47.25L33.0273 36.55L62.4693 53.548Z" fill="#FFDE67"/>
</g>
<g opacity="0.7682">
<path opacity="0.6927" d="M62.4468 53.851L44.0508 64.542L14.6348 47.558L33.0318 36.868L62.4468 53.851Z" fill="#FFDE66"/>
</g>
<g opacity="0.7748">
<path opacity="0.6901" d="M62.4262 54.153L44.0462 64.835L14.6572 47.867L33.0372 37.185L62.4262 54.153Z" fill="#FFDE65"/>
</g>
<g opacity="0.7815">
<path opacity="0.6874" d="M62.4047 54.456L44.0417 65.128L14.6787 48.175L33.0427 37.503L62.4047 54.456Z" fill="#FFDD63"/>
</g>
<g opacity="0.7881">
<path opacity="0.6848" d="M62.3832 54.759L44.0362 65.421L14.6992 48.483L33.0472 37.821L62.3832 54.759Z" fill="#FFDD62"/>
</g>
<g opacity="0.7947">
<path opacity="0.6821" d="M62.3627 55.061L44.0317 65.714L14.7217 48.792L33.0517 38.139L62.3627 55.061Z" fill="#FFDD61"/>
</g>
<g opacity="0.8013">
<path opacity="0.6795" d="M62.3402 55.364L44.0262 66.007L14.7422 49.1L33.0562 38.457L62.3402 55.364Z" fill="#FFDD60"/>
</g>
<g opacity="0.8079">
<path opacity="0.6768" d="M62.3196 55.667L44.0216 66.3L14.7646 49.408L33.0616 38.775L62.3196 55.667Z" fill="#FFDC5E"/>
</g>
<g opacity="0.8146">
<path opacity="0.6742" d="M62.2982 55.969L44.0162 66.593L14.7852 49.716L33.0662 39.092L62.2982 55.969Z" fill="#FFDC5D"/>
</g>
<g opacity="0.8212">
<path opacity="0.6715" d="M62.2766 56.272L44.0116 66.886L14.8066 50.025L33.0716 39.41L62.2766 56.272Z" fill="#FFDC5C"/>
</g>
<g opacity="0.8278">
<path opacity="0.6689" d="M62.2551 56.574L44.0061 67.179L14.8281 50.333L33.0761 39.728L62.2551 56.574Z" fill="#FFDB5A"/>
</g>
<g opacity="0.8344">
<path opacity="0.6662" d="M62.2336 56.877L44.0026 67.472L14.8496 50.641L33.0816 40.046L62.2336 56.877Z" fill="#FFDB59"/>
</g>
<g opacity="0.8411">
<path opacity="0.6636" d="M62.2121 57.18L43.9971 67.765L14.8701 50.949L33.0861 40.364L62.2121 57.18Z" fill="#FFDB58"/>
</g>
<g opacity="0.8477">
<path opacity="0.6609" d="M62.1916 57.482L43.9926 68.058L14.8926 51.258L33.0916 40.681L62.1916 57.482Z" fill="#FFDB56"/>
</g>
<g opacity="0.8543">
<path opacity="0.6583" d="M62.1691 57.785L43.9871 68.351L14.9131 51.566L33.0961 40.999L62.1691 57.785Z" fill="#FFDA55"/>
</g>
<g opacity="0.8609">
<path opacity="0.6556" d="M62.1486 58.087L43.9826 68.645L14.9346 51.874L33.1016 41.317L62.1486 58.087Z" fill="#FFDA54"/>
</g>
<g opacity="0.8676">
<path opacity="0.653" d="M62.127 58.39L43.9771 68.938L14.9561 52.182L33.106 41.635L62.127 58.39Z" fill="#FFDA52"/>
</g>
<g opacity="0.8742">
<path opacity="0.6503" d="M62.1055 58.693L43.9725 69.231L14.9775 52.491L33.1115 41.953L62.1055 58.693Z" fill="#FFD951"/>
</g>
<g opacity="0.8808">
<path opacity="0.6477" d="M62.084 58.996L43.967 69.524L14.999 52.799L33.116 42.271L62.084 58.996Z" fill="#FFD950"/>
</g>
<g opacity="0.8874">
<path opacity="0.645" d="M62.0625 59.298L43.9625 69.817L15.0205 53.107L33.1205 42.588L62.0625 59.298Z" fill="#FFD94E"/>
</g>
<g opacity="0.894">
<path opacity="0.6424" d="M62.041 59.601L43.957 70.11L15.041 53.415L33.125 42.906L62.041 59.601Z" fill="#FFD94D"/>
</g>
<g opacity="0.9007">
<path opacity="0.6397" d="M62.0205 59.903L43.9525 70.403L15.0635 53.724L33.1305 43.224L62.0205 59.903Z" fill="#FFD84C"/>
</g>
<g opacity="0.9073">
<path opacity="0.6371" d="M61.998 60.206L43.947 70.696L15.084 54.032L33.135 43.542L61.998 60.206Z" fill="#FFD84A"/>
</g>
<g opacity="0.9139">
<path opacity="0.6344" d="M61.9775 60.509L43.9435 70.989L15.1055 54.34L33.1405 43.86L61.9775 60.509Z" fill="#FFD849"/>
</g>
<g opacity="0.9205">
<path opacity="0.6318" d="M61.956 60.811L43.937 71.282L15.127 54.648L33.145 44.177L61.956 60.811Z" fill="#FFD748"/>
</g>
<g opacity="0.9272">
<path opacity="0.6291" d="M61.9344 61.114L43.9334 71.575L15.1484 54.957L33.1505 44.495L61.9344 61.114Z" fill="#FFD746"/>
</g>
<g opacity="0.9338">
<path opacity="0.6265" d="M61.9129 61.417L43.9279 71.868L15.1699 55.265L33.1549 44.813L61.9129 61.417Z" fill="#FFD745"/>
</g>
<g opacity="0.9404">
<path opacity="0.6238" d="M61.8914 61.719L43.9234 72.162L15.1914 55.573L33.1604 45.131L61.8914 61.719Z" fill="#FFD744"/>
</g>
<g opacity="0.947">
<path opacity="0.6212" d="M61.8699 62.022L43.9179 72.455L15.2119 55.881L33.1649 45.449L61.8699 62.022Z" fill="#FFD643"/>
</g>
<g opacity="0.9536">
<path opacity="0.6185" d="M61.8494 62.324L43.9134 72.748L15.2344 56.19L33.1704 45.767L61.8494 62.324Z" fill="#FFD641"/>
</g>
<g opacity="0.9603">
<path opacity="0.6159" d="M61.8269 62.627L43.9079 73.041L15.2549 56.498L33.1749 46.084L61.8269 62.627Z" fill="#FFD640"/>
</g>
<g opacity="0.9669">
<path opacity="0.6132" d="M61.8064 62.93L43.9034 73.334L15.2764 56.806L33.1804 46.402L61.8064 62.93Z" fill="#FFD53F"/>
</g>
<g opacity="0.9735">
<path opacity="0.6106" d="M61.7849 63.232L43.8978 73.627L15.2979 57.115L33.1839 46.72L61.7849 63.232Z" fill="#FFD53D"/>
</g>
<g opacity="0.9801">
<path opacity="0.6079" d="M61.7633 63.535L43.8933 73.92L15.3193 57.423L33.1893 47.038L61.7633 63.535Z" fill="#FFD53C"/>
</g>
<g opacity="0.9868">
<path opacity="0.6053" d="M61.7418 63.838L43.8878 74.213L15.3408 57.731L33.1938 47.356L61.7418 63.838Z" fill="#FFD53B"/>
</g>
<g opacity="0.9934">
<path opacity="0.6026" d="M61.7213 64.14L43.8833 74.506L15.3623 58.039L33.1993 47.673L61.7213 64.14Z" fill="#FFD439"/>
</g>
<path opacity="0.6" d="M61.6988 64.443L43.8778 74.799L15.3828 58.348L33.2038 47.991L61.6988 64.443Z" fill="#FFD438"/>
<path d="M53.5684 60.719L46.9414 64.571C47.6204 64.176 48.0424 63.337 48.0454 62.142L54.6734 58.291C54.6694 59.485 54.2484 60.324 53.5684 60.719Z" fill="url(#paint2_linear_71_23598)"/>
<mask id="mask0_71_23598" style="mask-type:luminance" maskUnits="userSpaceOnUse" x="46" y="58" width="9" height="7">
<path d="M53.5684 60.719L46.9414 64.571C47.6204 64.176 48.0424 63.337 48.0454 62.142L54.6734 58.291C54.6694 59.485 54.2484 60.324 53.5684 60.719Z" fill="white"/>
</mask>
<g mask="url(#mask0_71_23598)">
<path d="M48.0459 62.142L54.6729 58.291V58.302L48.0459 62.153V62.142Z" fill="url(#paint3_linear_71_23598)"/>
<path d="M48.045 62.153L54.673 58.301C54.673 58.363 54.671 58.424 54.669 58.484L48.042 62.335C48.043 62.276 48.045 62.215 48.045 62.153Z" fill="url(#paint4_linear_71_23598)"/>
<path d="M48.0413 62.336L54.6683 58.485C54.6653 58.545 54.6623 58.605 54.6573 58.664L48.0293 62.516C48.0343 62.456 48.0383 62.397 48.0413 62.336Z" fill="url(#paint5_linear_71_23598)"/>
<path d="M48.0307 62.515L54.6587 58.663C54.6537 58.725 54.6467 58.786 54.6397 58.846L48.0127 62.697C48.0187 62.638 48.0247 62.577 48.0307 62.515Z" fill="url(#paint6_linear_71_23598)"/>
<path d="M48.0114 62.697L54.6384 58.846C54.6304 58.907 54.6214 58.968 54.6114 59.027L47.9834 62.878C47.9944 62.819 48.0034 62.759 48.0114 62.697Z" fill="url(#paint7_linear_71_23598)"/>
<path d="M47.9843 62.878L54.6123 59.027C54.6013 59.09 54.5893 59.152 54.5753 59.212L47.9473 63.064C47.9603 63.003 47.9733 62.941 47.9843 62.878Z" fill="url(#paint8_linear_71_23598)"/>
<path d="M47.9465 63.064L54.5745 59.212C54.5595 59.278 54.5425 59.343 54.5245 59.405L47.8975 63.257C47.9155 63.194 47.9315 63.13 47.9465 63.064Z" fill="url(#paint9_linear_71_23598)"/>
<path d="M47.8961 63.257L54.5231 59.405C54.5031 59.474 54.4811 59.54 54.4571 59.604L47.8291 63.456C47.8541 63.392 47.8761 63.325 47.8961 63.257Z" fill="url(#paint10_linear_71_23598)"/>
<path d="M47.8303 63.456L54.4583 59.604C54.4303 59.679 54.4003 59.75 54.3673 59.819L47.7393 63.671C47.7723 63.602 47.8023 63.531 47.8303 63.456Z" fill="url(#paint11_linear_71_23598)"/>
<path d="M47.7397 63.671L54.3677 59.819C54.3247 59.911 54.2767 59.997 54.2247 60.078L47.5977 63.93C47.6487 63.849 47.6967 63.763 47.7397 63.671Z" fill="url(#paint12_linear_71_23598)"/>
<path d="M47.5964 63.93L54.2234 60.078C54.0484 60.353 53.8264 60.568 53.5674 60.718L46.9404 64.57C47.2004 64.42 47.4214 64.205 47.5964 63.93Z" fill="url(#paint13_linear_71_23598)"/>
</g>
<path d="M27.8301 31.529L34.4571 27.678C35.1451 27.278 36.0981 27.334 37.1511 27.942L30.5231 31.794C29.4711 31.185 28.5181 31.129 27.8301 31.529Z" fill="url(#paint14_linear_71_23598)"/>
<mask id="mask1_71_23598" style="mask-type:luminance" maskUnits="userSpaceOnUse" x="27" y="27" width="11" height="5">
<path d="M27.8301 31.529L34.4571 27.678C35.1451 27.278 36.0981 27.334 37.1511 27.942L30.5231 31.794C29.4711 31.185 28.5181 31.129 27.8301 31.529Z" fill="white"/>
</mask>
<g mask="url(#mask1_71_23598)">
<path d="M27.8301 31.529L34.4571 27.678C34.5541 27.622 34.6561 27.574 34.7631 27.536L28.1361 31.388C28.0301 31.426 27.9271 31.473 27.8301 31.529Z" fill="url(#paint15_linear_71_23598)"/>
<path d="M28.1367 31.388L34.7637 27.536C34.8487 27.506 34.9367 27.481 35.0287 27.463L28.4007 31.315C28.3097 31.333 28.2217 31.357 28.1367 31.388Z" fill="url(#paint16_linear_71_23598)"/>
<path d="M28.4014 31.315L35.0294 27.463C35.1004 27.449 35.1734 27.438 35.2474 27.431L28.6204 31.282C28.5454 31.29 28.4724 31.301 28.4014 31.315Z" fill="url(#paint17_linear_71_23598)"/>
<path d="M28.6191 31.283L35.2461 27.432C35.3101 27.426 35.3762 27.423 35.4422 27.423L28.8151 31.275C28.7491 31.274 28.6841 31.277 28.6191 31.283Z" fill="url(#paint18_linear_71_23598)"/>
<path d="M28.8154 31.274L35.4424 27.422C35.5014 27.422 35.5604 27.424 35.6204 27.428L28.9934 31.28C28.9334 31.275 28.8744 31.274 28.8154 31.274Z" fill="url(#paint19_linear_71_23598)"/>
<path d="M28.9932 31.28L35.6202 27.428C35.6762 27.432 35.7322 27.437 35.7892 27.445L29.1612 31.296C29.1052 31.289 29.0492 31.284 28.9932 31.28Z" fill="url(#paint20_linear_71_23598)"/>
<path d="M29.1621 31.297L35.7901 27.446C35.8451 27.453 35.9001 27.462 35.9561 27.473L29.3291 31.325C29.2721 31.313 29.2161 31.304 29.1621 31.297Z" fill="url(#paint21_linear_71_23598)"/>
<path d="M29.3271 31.324L35.9541 27.472C36.0051 27.482 36.0571 27.494 36.1091 27.507L29.4811 31.359C29.4301 31.346 29.3791 31.334 29.3271 31.324Z" fill="url(#paint22_linear_71_23598)"/>
<path d="M29.4824 31.359L36.1104 27.507C36.1624 27.52 36.2144 27.534 36.2664 27.55L29.6384 31.401C29.5864 31.386 29.5344 31.372 29.4824 31.359Z" fill="url(#paint23_linear_71_23598)"/>
<path d="M29.6387 31.402L36.2667 27.551C36.3167 27.566 36.3677 27.583 36.4187 27.601L29.7917 31.452C29.7397 31.433 29.6887 31.417 29.6387 31.402Z" fill="url(#paint24_linear_71_23598)"/>
<path d="M29.791 31.451L36.418 27.6C36.469 27.618 36.52 27.637 36.571 27.657L29.944 31.509C29.892 31.488 29.841 31.469 29.791 31.451Z" fill="url(#paint25_linear_71_23598)"/>
<path d="M29.9443 31.509L36.5713 27.658C36.6213 27.678 36.6723 27.7 36.7233 27.722L30.0953 31.573C30.0443 31.551 29.9943 31.529 29.9443 31.509Z" fill="url(#paint26_linear_71_23598)"/>
<path d="M30.0947 31.573L36.7227 27.722C36.7737 27.745 36.8247 27.769 36.8757 27.794L30.2477 31.646C30.1967 31.62 30.1457 31.596 30.0947 31.573Z" fill="url(#paint27_linear_71_23598)"/>
<path d="M30.248 31.646L36.876 27.794C36.927 27.82 36.979 27.846 37.031 27.875L30.403 31.726C30.352 31.698 30.3 31.671 30.248 31.646Z" fill="url(#paint28_linear_71_23598)"/>
<path d="M30.4043 31.726L37.0323 27.875C37.0723 27.897 37.1123 27.919 37.1523 27.942L30.5243 31.794C30.4843 31.77 30.4443 31.748 30.4043 31.726Z" fill="url(#paint29_linear_71_23598)"/>
</g>
<path d="M48.0909 46.293L54.7179 42.442L54.6729 58.291L48.0459 62.142L48.0909 46.293Z" fill="url(#paint30_linear_71_23598)"/>
<path d="M30.5234 31.793L37.1514 27.942L50.9435 35.905L44.3165 39.756L30.5234 31.793Z" fill="url(#paint31_linear_71_23598)"/>
<path d="M44.3164 39.756L50.9434 35.904C53.0324 37.11 54.7244 40.04 54.7174 42.441L48.0904 46.292C48.0974 43.893 46.4054 40.963 44.3164 39.756Z" fill="url(#paint32_linear_71_23598)"/>
<mask id="mask2_71_23598" style="mask-type:luminance" maskUnits="userSpaceOnUse" x="44" y="35" width="11" height="12">
<path d="M44.3164 39.756L50.9434 35.904C53.0324 37.11 54.7244 40.04 54.7174 42.441L48.0904 46.292C48.0974 43.893 46.4054 40.963 44.3164 39.756Z" fill="white"/>
</mask>
<g mask="url(#mask2_71_23598)">
<path d="M44.3164 39.756L50.9434 35.904C50.9554 35.911 50.9684 35.918 50.9804 35.926L44.3534 39.777C44.3414 39.771 44.3284 39.764 44.3164 39.756Z" fill="url(#paint33_linear_71_23598)"/>
<path d="M44.3535 39.778L50.9805 35.927C51.0345 35.958 51.0875 35.991 51.1405 36.025L44.5125 39.877C44.4605 39.842 44.4065 39.81 44.3535 39.778Z" fill="url(#paint34_linear_71_23598)"/>
<path d="M44.5137 39.876L51.1417 36.024C51.1957 36.058 51.2487 36.094 51.3017 36.13L44.6737 39.982C44.6207 39.946 44.5677 39.91 44.5137 39.876Z" fill="url(#paint35_linear_71_23598)"/>
<path d="M44.6738 39.982L51.3018 36.13C51.3568 36.168 51.4118 36.207 51.4658 36.247L44.8378 40.099C44.7838 40.059 44.7288 40.02 44.6738 39.982Z" fill="url(#paint36_linear_71_23598)"/>
<path d="M44.8389 40.099L51.4669 36.247C51.5229 36.288 51.5779 36.33 51.6329 36.374L45.0049 40.225C44.9499 40.182 44.8939 40.14 44.8389 40.099Z" fill="url(#paint37_linear_71_23598)"/>
<path d="M45.0029 40.225L51.6309 36.374C51.6879 36.419 51.7439 36.464 51.7989 36.511L45.1719 40.362C45.1159 40.316 45.0599 40.27 45.0029 40.225Z" fill="url(#paint38_linear_71_23598)"/>
<path d="M45.1729 40.363L51.7999 36.512C51.8569 36.56 51.9128 36.609 51.9678 36.659L45.3409 40.509C45.2849 40.459 45.2289 40.41 45.1729 40.363Z" fill="url(#paint39_linear_71_23598)"/>
<path d="M45.3408 40.509L51.9678 36.658C52.0238 36.708 52.0788 36.76 52.1338 36.812L45.5058 40.664C45.4518 40.611 45.3968 40.56 45.3408 40.509Z" fill="url(#paint40_linear_71_23598)"/>
<path d="M45.5068 40.664L52.1348 36.812C52.1888 36.864 52.2418 36.916 52.2948 36.97L45.6678 40.822C45.6138 40.768 45.5608 40.716 45.5068 40.664Z" fill="url(#paint41_linear_71_23598)"/>
<path d="M45.666 40.822L52.293 36.97C52.345 37.023 52.397 37.077 52.448 37.132L45.821 40.984C45.77 40.929 45.718 40.875 45.666 40.822Z" fill="url(#paint42_linear_71_23598)"/>
<path d="M45.8213 40.984L52.4483 37.132C52.4983 37.186 52.5473 37.24 52.5963 37.296L45.9683 41.148C45.9203 41.093 45.8713 41.038 45.8213 40.984Z" fill="url(#paint43_linear_71_23598)"/>
<path d="M45.9688 41.148L52.5968 37.296C52.6458 37.352 52.6948 37.409 52.7428 37.467L46.1147 41.318C46.0677 41.261 46.0188 41.204 45.9688 41.148Z" fill="url(#paint44_linear_71_23598)"/>
<path d="M46.1152 41.319L52.7432 37.468C52.7922 37.527 52.8402 37.587 52.8882 37.648L46.2612 41.499C46.2122 41.438 46.1642 41.378 46.1152 41.319Z" fill="url(#paint45_linear_71_23598)"/>
<path d="M46.2607 41.499L52.8877 37.648C52.9447 37.721 53.0017 37.794 53.0567 37.869L46.4297 41.72C46.3747 41.645 46.3177 41.571 46.2607 41.499Z" fill="url(#paint46_linear_71_23598)"/>
<path d="M46.4297 41.72L53.0567 37.869C53.1397 37.981 53.2197 38.096 53.2977 38.212L46.6697 42.064C46.5927 41.947 46.5117 41.832 46.4297 41.72Z" fill="url(#paint47_linear_71_23598)"/>
<path d="M46.6689 42.063L53.2969 38.211C53.3949 38.357 53.4879 38.507 53.5779 38.659L46.9499 42.51C46.8609 42.359 46.7669 42.21 46.6689 42.063Z" fill="url(#paint48_linear_71_23598)"/>
<path d="M46.9502 42.511L53.5782 38.66C53.6432 38.77 53.7052 38.881 53.7652 38.993L47.1372 42.845C47.0772 42.732 47.0152 42.621 46.9502 42.511Z" fill="url(#paint49_linear_71_23598)"/>
<path d="M47.1377 42.844L53.7657 38.992C53.8057 39.067 53.8447 39.143 53.8827 39.219L47.2547 43.071C47.2177 42.995 47.1777 42.919 47.1377 42.844Z" fill="url(#paint50_linear_71_23598)"/>
<path d="M47.2559 43.071L53.8839 39.219C53.9169 39.285 53.9489 39.352 53.9809 39.419L47.3529 43.271C47.3209 43.204 47.2889 43.138 47.2559 43.071Z" fill="url(#paint51_linear_71_23598)"/>
<path d="M47.3516 43.271L53.9796 39.419C54.0076 39.48 54.0356 39.541 54.0626 39.602L47.4346 43.454C47.4086 43.393 47.3806 43.332 47.3516 43.271Z" fill="url(#paint52_linear_71_23598)"/>
<path d="M47.4355 43.455L54.0636 39.603C54.0906 39.663 54.1166 39.724 54.1416 39.784L47.5146 43.636C47.4876 43.575 47.4625 43.515 47.4355 43.455Z" fill="url(#paint53_linear_71_23598)"/>
<path d="M47.5137 43.636L54.1407 39.784C54.1657 39.845 54.1907 39.906 54.2147 39.968L47.5867 43.82C47.5637 43.758 47.5387 43.697 47.5137 43.636Z" fill="url(#paint54_linear_71_23598)"/>
<path d="M47.5879 43.82L54.2159 39.968C54.2399 40.03 54.2629 40.091 54.2859 40.153L47.6589 44.005C47.6349 43.943 47.6119 43.881 47.5879 43.82Z" fill="url(#paint55_linear_71_23598)"/>
<path d="M47.6562 44.005L54.2832 40.153C54.3062 40.217 54.3293 40.282 54.3503 40.346L47.7222 44.198C47.7022 44.134 47.6803 44.069 47.6562 44.005Z" fill="url(#paint56_linear_71_23598)"/>
<path d="M47.7236 44.198L54.3516 40.346C54.3736 40.411 54.3946 40.477 54.4146 40.542L47.7866 44.393C47.7666 44.329 47.7456 44.263 47.7236 44.198Z" fill="url(#paint57_linear_71_23598)"/>
<path d="M47.7861 44.394L54.4141 40.543C54.4341 40.61 54.4541 40.676 54.4721 40.743L47.8441 44.595C47.8261 44.527 47.8071 44.461 47.7861 44.394Z" fill="url(#paint58_linear_71_23598)"/>
<path d="M47.8457 44.594L54.4737 40.742C54.4917 40.809 54.5097 40.876 54.5267 40.943L47.8987 44.794C47.8817 44.728 47.8637 44.661 47.8457 44.594Z" fill="url(#paint59_linear_71_23598)"/>
<path d="M47.8975 44.795L54.5255 40.944C54.5415 41.01 54.5575 41.076 54.5715 41.142L47.9445 44.993C47.9295 44.927 47.9145 44.861 47.8975 44.795Z" fill="url(#paint60_linear_71_23598)"/>
<path d="M47.9443 44.993L54.5713 41.142C54.5853 41.208 54.5993 41.274 54.6113 41.339L47.9843 45.191C47.9713 45.125 47.9583 45.059 47.9443 44.993Z" fill="url(#paint61_linear_71_23598)"/>
<path d="M47.9844 45.19L54.6114 41.338C54.6234 41.402 54.6344 41.466 54.6444 41.529L48.0174 45.38C48.0074 45.318 47.9964 45.254 47.9844 45.19Z" fill="url(#paint62_linear_71_23598)"/>
<path d="M48.0176 45.381L54.6446 41.53C54.6546 41.593 54.6636 41.657 54.6716 41.72L48.0436 45.572C48.0366 45.508 48.0276 45.445 48.0176 45.381Z" fill="url(#paint63_linear_71_23598)"/>
<path d="M48.0439 45.571L54.6719 41.719C54.6799 41.781 54.6869 41.843 54.6929 41.904L48.0649 45.756C48.0579 45.695 48.0519 45.633 48.0439 45.571Z" fill="url(#paint64_linear_71_23598)"/>
<path d="M48.0645 45.756L54.6925 41.904C54.6985 41.966 54.7035 42.027 54.7075 42.088L48.0805 45.939C48.0755 45.879 48.0705 45.818 48.0645 45.756Z" fill="url(#paint65_linear_71_23598)"/>
<path d="M48.0791 45.94L54.7061 42.089C54.7101 42.15 54.7131 42.211 54.7141 42.272L48.0861 46.124C48.0861 46.062 48.0831 46.001 48.0791 45.94Z" fill="url(#paint66_linear_71_23598)"/>
<path d="M48.0879 46.123L54.7159 42.271C54.7179 42.328 54.7189 42.385 54.7179 42.441L48.0909 46.292C48.0909 46.237 48.0899 46.18 48.0879 46.123Z" fill="url(#paint67_linear_71_23598)"/>
</g>
<path d="M44.3167 39.756C46.4057 40.962 48.0977 43.892 48.0907 46.293L48.0457 62.142C48.0387 64.547 46.3367 65.513 44.2467 64.307L30.4537 56.344C28.3607 55.136 26.6727 52.212 26.6797 49.807L26.7247 33.958C26.7317 31.557 28.4297 30.585 30.5237 31.793L44.3167 39.756Z" fill="url(#paint68_linear_71_23598)"/>
<path d="M34.4958 20.833L36.3288 19.767L36.2988 30.235L34.4658 31.301L34.4958 20.833Z" fill="url(#paint69_linear_71_23598)"/>
<path d="M36.1431 17.219L37.9761 16.154C36.9631 16.743 36.3341 17.993 36.3291 19.767L34.4961 20.832C34.5011 19.058 35.1301 17.808 36.1431 17.219Z" fill="url(#paint70_linear_71_23598)"/>
<mask id="mask3_71_23598" style="mask-type:luminance" maskUnits="userSpaceOnUse" x="34" y="16" width="4" height="5">
<path d="M36.1431 17.219L37.9761 16.154C36.9631 16.743 36.3341 17.993 36.3291 19.767L34.4961 20.832C34.5011 19.058 35.1301 17.808 36.1431 17.219Z" fill="white"/>
</mask>
<g mask="url(#mask3_71_23598)">
<path d="M36.1431 17.219L37.9761 16.154C37.5891 16.379 37.2581 16.701 36.9961 17.111L35.1631 18.176C35.4251 17.766 35.7561 17.444 36.1431 17.219Z" fill="url(#paint71_linear_71_23598)"/>
<path d="M35.1632 18.176L36.9962 17.111C36.9192 17.232 36.8482 17.361 36.7832 17.497L34.9502 18.562C35.0152 18.426 35.0862 18.297 35.1632 18.176Z" fill="url(#paint72_linear_71_23598)"/>
<path d="M34.9504 18.563L36.7834 17.498C36.7344 17.601 36.6894 17.707 36.6484 17.818L34.8154 18.883C34.8574 18.772 34.9024 18.665 34.9504 18.563Z" fill="url(#paint73_linear_71_23598)"/>
<path d="M34.8148 18.883L36.6478 17.818C36.6118 17.914 36.5798 18.013 36.5498 18.114L34.7168 19.179C34.7468 19.077 34.7798 18.979 34.8148 18.883Z" fill="url(#paint74_linear_71_23598)"/>
<path d="M34.7176 19.179L36.5506 18.114C36.5236 18.207 36.4986 18.303 36.4756 18.401L34.6426 19.466C34.6656 19.368 34.6896 19.272 34.7176 19.179Z" fill="url(#paint75_linear_71_23598)"/>
<path d="M34.6419 19.467L36.4749 18.402C36.4549 18.492 36.4359 18.584 36.4199 18.677L34.5869 19.742C34.6029 19.648 34.6219 19.556 34.6419 19.467Z" fill="url(#paint76_linear_71_23598)"/>
<path d="M34.5869 19.742L36.4199 18.677C36.4049 18.765 36.3909 18.854 36.3799 18.945L34.5469 20.01C34.5579 19.919 34.5709 19.829 34.5869 19.742Z" fill="url(#paint77_linear_71_23598)"/>
<path d="M34.5475 20.01L36.3805 18.945C36.3695 19.034 36.3595 19.124 36.3525 19.215L34.5195 20.28C34.5265 20.189 34.5365 20.099 34.5475 20.01Z" fill="url(#paint78_linear_71_23598)"/>
<path d="M34.5189 20.281L36.3519 19.216C36.3449 19.303 36.3399 19.391 36.3359 19.481L34.5029 20.546C34.5059 20.456 34.5119 20.368 34.5189 20.281Z" fill="url(#paint79_linear_71_23598)"/>
<path d="M34.5021 20.545L36.3351 19.48C36.3311 19.569 36.3291 19.659 36.3291 19.751L34.4961 20.816C34.4961 20.725 34.4991 20.634 34.5021 20.545Z" fill="url(#paint80_linear_71_23598)"/>
<path d="M34.4961 20.816L36.3291 19.751C36.3291 19.756 36.3291 19.762 36.3291 19.767L34.4961 20.832C34.4961 20.827 34.4961 20.822 34.4961 20.816Z" fill="url(#paint81_linear_71_23598)"/>
</g>
<path d="M46.8806 27.983L48.7136 26.918L48.6836 37.386L46.8506 38.451L46.8806 27.983Z" fill="url(#paint82_linear_71_23598)"/>
<path d="M35.3594 15.871L37.1924 14.806C38.4194 14.093 40.1184 14.191 41.9904 15.272L40.1574 16.337C38.2844 15.257 36.5864 15.158 35.3594 15.871Z" fill="url(#paint83_linear_71_23598)"/>
<mask id="mask4_71_23598" style="mask-type:luminance" maskUnits="userSpaceOnUse" x="35" y="14" width="7" height="3">
<path d="M35.3594 15.871L37.1924 14.806C38.4194 14.093 40.1184 14.191 41.9904 15.272L40.1574 16.337C38.2844 15.257 36.5864 15.158 35.3594 15.871Z" fill="white"/>
</mask>
<g mask="url(#mask4_71_23598)">
<path d="M35.3594 15.871L37.1924 14.806C37.3654 14.705 37.5484 14.621 37.7404 14.553L35.9074 15.618C35.7154 15.686 35.5324 15.771 35.3594 15.871Z" fill="url(#paint84_linear_71_23598)"/>
<path d="M35.9062 15.618L37.7392 14.553C37.8912 14.499 38.0492 14.456 38.2112 14.423L36.3783 15.488C36.2163 15.521 36.0582 15.564 35.9062 15.618Z" fill="url(#paint85_linear_71_23598)"/>
<path d="M36.3789 15.488L38.2119 14.423C38.3389 14.398 38.4689 14.379 38.6009 14.366L36.7679 15.431C36.6349 15.444 36.5049 15.463 36.3789 15.488Z" fill="url(#paint86_linear_71_23598)"/>
<path d="M36.7686 15.432L38.6015 14.367C38.7165 14.357 38.8326 14.351 38.9516 14.35L37.1185 15.415C36.9995 15.415 36.8826 15.421 36.7686 15.432Z" fill="url(#paint87_linear_71_23598)"/>
<path d="M37.1182 15.415L38.9512 14.35C39.0552 14.35 39.1612 14.353 39.2682 14.36L37.4352 15.425C37.3282 15.418 37.2222 15.415 37.1182 15.415Z" fill="url(#paint88_linear_71_23598)"/>
<path d="M37.4355 15.426L39.2686 14.361C39.3676 14.368 39.4676 14.378 39.5686 14.392L37.7355 15.457C37.6345 15.443 37.5345 15.432 37.4355 15.426Z" fill="url(#paint89_linear_71_23598)"/>
<path d="M37.7354 15.456L39.5684 14.391C39.6654 14.404 39.7644 14.42 39.8634 14.44L38.0303 15.505C37.9313 15.485 37.8334 15.469 37.7354 15.456Z" fill="url(#paint90_linear_71_23598)"/>
<path d="M38.0303 15.505L39.8633 14.44C39.9543 14.458 40.0463 14.478 40.1393 14.501L38.3063 15.566C38.2143 15.543 38.1223 15.523 38.0303 15.505Z" fill="url(#paint91_linear_71_23598)"/>
<path d="M38.3076 15.566L40.1406 14.501C40.2326 14.524 40.3256 14.549 40.4186 14.578L38.5856 15.643C38.4926 15.615 38.3996 15.589 38.3076 15.566Z" fill="url(#paint92_linear_71_23598)"/>
<path d="M38.585 15.643L40.418 14.578C40.507 14.605 40.597 14.634 40.688 14.666L38.8549 15.731C38.7639 15.699 38.674 15.67 38.585 15.643Z" fill="url(#paint93_linear_71_23598)"/>
<path d="M38.8555 15.731L40.6885 14.666C40.7785 14.698 40.8685 14.732 40.9605 14.768L39.1275 15.833C39.0355 15.797 38.9455 15.763 38.8555 15.731Z" fill="url(#paint94_linear_71_23598)"/>
<path d="M39.126 15.833L40.959 14.768C41.048 14.804 41.138 14.842 41.228 14.882L39.395 15.947C39.305 15.907 39.215 15.869 39.126 15.833Z" fill="url(#paint95_linear_71_23598)"/>
<path d="M39.3955 15.947L41.2285 14.882C41.3185 14.922 41.4095 14.965 41.5005 15.01L39.6675 16.075C39.5765 16.03 39.4865 15.988 39.3955 15.947Z" fill="url(#paint96_linear_71_23598)"/>
<path d="M39.668 16.076L41.501 15.011C41.592 15.056 41.684 15.104 41.776 15.154L39.943 16.219C39.85 16.168 39.759 16.121 39.668 16.076Z" fill="url(#paint97_linear_71_23598)"/>
<path d="M39.9434 16.218L41.7764 15.153C41.8474 15.191 41.9184 15.231 41.9904 15.272L40.1573 16.337C40.0853 16.296 40.0144 16.256 39.9434 16.218Z" fill="url(#paint98_linear_71_23598)"/>
</g>
<path d="M40.1562 16.338L41.9892 15.273C45.7092 17.421 48.7242 22.644 48.7122 26.918L46.8792 27.983C46.8922 23.709 43.8763 18.485 40.1562 16.338Z" fill="url(#paint99_linear_71_23598)"/>
<mask id="mask5_71_23598" style="mask-type:luminance" maskUnits="userSpaceOnUse" x="40" y="15" width="9" height="13">
<path d="M40.1562 16.338L41.9892 15.273C45.7092 17.421 48.7242 22.644 48.7122 26.918L46.8792 27.983C46.8922 23.709 43.8763 18.485 40.1562 16.338Z" fill="white"/>
</mask>
<g mask="url(#mask5_71_23598)">
<path d="M40.1562 16.338L41.9892 15.273C42.0112 15.286 42.0333 15.299 42.0553 15.311L40.2222 16.376C40.2002 16.363 40.1782 16.35 40.1562 16.338Z" fill="url(#paint100_linear_71_23598)"/>
<path d="M40.2227 16.376L42.0557 15.311C42.1507 15.367 42.2457 15.425 42.3397 15.485L40.5067 16.55C40.4127 16.49 40.3177 16.432 40.2227 16.376Z" fill="url(#paint101_linear_71_23598)"/>
<path d="M40.5059 16.55L42.3389 15.485C42.4349 15.546 42.5299 15.609 42.6239 15.673L40.7909 16.738C40.6969 16.674 40.6019 16.611 40.5059 16.55Z" fill="url(#paint102_linear_71_23598)"/>
<path d="M40.792 16.739L42.625 15.674C42.723 15.741 42.82 15.811 42.917 15.882L41.084 16.947C40.987 16.875 40.89 16.806 40.792 16.739Z" fill="url(#paint103_linear_71_23598)"/>
<path d="M41.084 16.947L42.917 15.882C43.016 15.955 43.114 16.03 43.212 16.107L41.379 17.172C41.282 17.095 41.183 17.019 41.084 16.947Z" fill="url(#paint104_linear_71_23598)"/>
<path d="M41.3789 17.172L43.2119 16.107C43.3129 16.186 43.4129 16.268 43.5119 16.352L41.6789 17.417C41.5799 17.333 41.4799 17.251 41.3789 17.172Z" fill="url(#paint105_linear_71_23598)"/>
<path d="M41.6797 17.416L43.5127 16.351C43.6137 16.436 43.7137 16.523 43.8127 16.612L41.9797 17.677C41.8797 17.588 41.7807 17.501 41.6797 17.416Z" fill="url(#paint106_linear_71_23598)"/>
<path d="M41.9785 17.678L43.8115 16.613C43.9115 16.703 44.0105 16.795 44.1075 16.888L42.2745 17.953C42.1775 17.859 42.0785 17.767 41.9785 17.678Z" fill="url(#paint107_linear_71_23598)"/>
<path d="M42.2754 17.953L44.1084 16.888C44.2044 16.98 44.2984 17.074 44.3924 17.169L42.5594 18.234C42.4654 18.139 42.3704 18.045 42.2754 17.953Z" fill="url(#paint108_linear_71_23598)"/>
<path d="M42.5596 18.234L44.3926 17.169C44.4856 17.264 44.5776 17.36 44.6686 17.458L42.8356 18.523C42.7446 18.426 42.6526 18.329 42.5596 18.234Z" fill="url(#paint109_linear_71_23598)"/>
<path d="M42.835 18.524L44.668 17.459C44.757 17.554 44.844 17.651 44.93 17.75L43.097 18.815C43.011 18.716 42.924 18.619 42.835 18.524Z" fill="url(#paint110_linear_71_23598)"/>
<path d="M43.0977 18.814L44.9307 17.749C45.0187 17.849 45.1057 17.951 45.1907 18.054L43.3577 19.119C43.2727 19.016 43.1857 18.914 43.0977 18.814Z" fill="url(#paint111_linear_71_23598)"/>
<path d="M43.3584 19.119L45.1914 18.054C45.2794 18.159 45.3664 18.267 45.4514 18.375L43.6184 19.44C43.5324 19.332 43.4464 19.225 43.3584 19.119Z" fill="url(#paint112_linear_71_23598)"/>
<path d="M43.6182 19.44L45.4512 18.375C45.5522 18.504 45.6522 18.635 45.7502 18.767L43.9172 19.832C43.8192 19.7 43.7192 19.569 43.6182 19.44Z" fill="url(#paint113_linear_71_23598)"/>
<path d="M43.917 19.833L45.75 18.768C45.897 18.967 46.039 19.17 46.177 19.376L44.344 20.441C44.206 20.234 44.063 20.031 43.917 19.833Z" fill="url(#paint114_linear_71_23598)"/>
<path d="M44.3447 20.441L46.1777 19.376C46.3537 19.639 46.5217 19.907 46.6827 20.18L44.8497 21.245C44.6887 20.972 44.5197 20.703 44.3447 20.441Z" fill="url(#paint115_linear_71_23598)"/>
<path d="M44.8496 21.245L46.6826 20.18C46.7976 20.376 46.9086 20.574 47.0156 20.774L45.1826 21.839C45.0756 21.639 44.9646 21.441 44.8496 21.245Z" fill="url(#paint116_linear_71_23598)"/>
<path d="M45.1826 21.839L47.0156 20.774C47.0876 20.908 47.1576 21.043 47.2246 21.179L45.3916 22.244C45.3236 22.108 45.2536 21.973 45.1826 21.839Z" fill="url(#paint117_linear_71_23598)"/>
<path d="M45.3916 22.244L47.2246 21.179C47.2836 21.297 47.3416 21.416 47.3976 21.536L45.5646 22.601C45.5086 22.481 45.4506 22.362 45.3916 22.244Z" fill="url(#paint118_linear_71_23598)"/>
<path d="M45.5645 22.601L47.3975 21.536C47.4485 21.644 47.4985 21.753 47.5465 21.863L45.7135 22.928C45.6645 22.818 45.6155 22.709 45.5645 22.601Z" fill="url(#paint119_linear_71_23598)"/>
<path d="M45.7129 22.927L47.5459 21.862C47.5939 21.969 47.6399 22.077 47.6849 22.185L45.8519 23.25C45.8059 23.142 45.7599 23.035 45.7129 22.927Z" fill="url(#paint120_linear_71_23598)"/>
<path d="M45.8516 23.25L47.6846 22.185C47.7296 22.294 47.7736 22.403 47.8166 22.513L45.9836 23.578C45.9406 23.469 45.8966 23.359 45.8516 23.25Z" fill="url(#paint121_linear_71_23598)"/>
<path d="M45.9834 23.578L47.8164 22.513C47.8594 22.623 47.9004 22.733 47.9404 22.843L46.1074 23.908C46.0674 23.798 46.0264 23.688 45.9834 23.578Z" fill="url(#paint122_linear_71_23598)"/>
<path d="M46.1074 23.909L47.9404 22.844C47.9824 22.959 48.0214 23.073 48.0604 23.188L46.2274 24.253C46.1894 24.138 46.1494 24.023 46.1074 23.909Z" fill="url(#paint123_linear_71_23598)"/>
<path d="M46.2275 24.253L48.0605 23.188C48.0995 23.304 48.1365 23.421 48.1725 23.537L46.3395 24.602C46.3035 24.486 46.2665 24.369 46.2275 24.253Z" fill="url(#paint124_linear_71_23598)"/>
<path d="M46.3389 24.602L48.1719 23.537C48.2079 23.656 48.2429 23.774 48.2759 23.893L46.4429 24.958C46.4099 24.84 46.3749 24.721 46.3389 24.602Z" fill="url(#paint125_linear_71_23598)"/>
<path d="M46.4434 24.958L48.2764 23.893C48.3094 24.012 48.3403 24.131 48.3703 24.251L46.5374 25.316C46.5084 25.197 46.4764 25.078 46.4434 24.958Z" fill="url(#paint126_linear_71_23598)"/>
<path d="M46.5371 25.316L48.3701 24.251C48.3991 24.369 48.4271 24.487 48.4521 24.604L46.6191 25.669C46.5941 25.552 46.5661 25.434 46.5371 25.316Z" fill="url(#paint127_linear_71_23598)"/>
<path d="M46.6191 25.669L48.4521 24.604C48.4771 24.721 48.5011 24.838 48.5231 24.955L46.6901 26.02C46.6691 25.904 46.6451 25.786 46.6191 25.669Z" fill="url(#paint128_linear_71_23598)"/>
<path d="M46.6914 26.021L48.5244 24.956C48.5454 25.07 48.5654 25.183 48.5834 25.296L46.7504 26.361C46.7324 26.248 46.7124 26.134 46.6914 26.021Z" fill="url(#paint129_linear_71_23598)"/>
<path d="M46.749 26.361L48.582 25.296C48.6 25.409 48.616 25.522 48.63 25.634L46.797 26.699C46.783 26.586 46.767 26.474 46.749 26.361Z" fill="url(#paint130_linear_71_23598)"/>
<path d="M46.7969 26.699L48.6299 25.634C48.6439 25.744 48.6559 25.854 48.6669 25.963L46.8339 27.028C46.8239 26.919 46.8119 26.809 46.7969 26.699Z" fill="url(#paint131_linear_71_23598)"/>
<path d="M46.834 27.028L48.667 25.963C48.677 26.072 48.686 26.182 48.693 26.29L46.86 27.355C46.853 27.247 46.845 27.138 46.834 27.028Z" fill="url(#paint132_linear_71_23598)"/>
<path d="M46.8604 27.355L48.6934 26.29C48.7004 26.399 48.7054 26.507 48.7084 26.615L46.8754 27.68C46.8724 27.572 46.8674 27.464 46.8604 27.355Z" fill="url(#paint133_linear_71_23598)"/>
<path d="M46.876 27.68L48.709 26.615C48.712 26.717 48.713 26.817 48.713 26.918L46.88 27.983C46.88 27.882 46.878 27.781 46.876 27.68Z" fill="url(#paint134_linear_71_23598)"/>
</g>
<path d="M40.1564 16.338C43.8764 18.485 46.8914 23.709 46.8794 27.983L46.8494 38.451L45.7434 37.813L45.7734 27.345C45.7834 23.773 43.2614 19.404 40.1524 17.609C37.0434 15.814 34.5044 17.261 34.4944 20.833L34.4644 31.301L33.3584 30.662L33.3884 20.194C33.4014 15.92 36.4364 14.19 40.1564 16.338Z" fill="url(#paint135_linear_71_23598)"/>
<path d="M37.165 42.312C39.258 43.52 40.95 46.452 40.943 48.856C40.939 50.295 40.326 51.213 39.388 51.466L39.379 54.732C39.378 55.15 39.084 55.321 38.72 55.11L35.54 53.274C35.176 53.064 34.882 52.554 34.883 52.136L34.892 48.87C33.464 46.828 32.803 44.102 33.928 42.405C34.199 42 34.611 41.771 35.105 41.753C35.805 41.721 36.505 41.931 37.165 42.312Z" fill="#FFD438"/>
<path d="M36.591 52.624C36.227 52.414 35.933 51.904 35.934 51.486L35.943 48.22C34.52 46.186 33.86 43.472 34.968 41.774C34.536 41.827 34.172 42.04 33.928 42.406C32.803 44.103 33.464 46.829 34.892 48.871L34.883 52.137C34.882 52.555 35.176 53.065 35.54 53.275L38.72 55.111C39.084 55.321 39.378 55.151 39.379 54.732L39.38 54.234L36.591 52.624Z" fill="url(#paint136_linear_71_23598)"/>
<path d="M9.37021 41.088C5.66721 40.692 4.75821 47.803 3.92021 51.707C3.12921 55.394 7.52421 56.308 9.76521 56.44C12.0072 56.572 9.37021 41.088 9.37021 41.088Z" fill="#F2F2F2"/>
<path d="M13.4763 95.586C13.2333 96.621 13.1203 98.709 14.4053 98.692C16.7193 98.662 16.0603 97.419 17.5573 97.139C20.8913 96.515 21.4393 94.155 20.7393 93.515C20.0073 92.847 19.0223 93.468 18.1203 93.881C17.5873 94.124 15.4253 94.916 15.4253 94.916L13.4763 95.586Z" fill="#2A2A66"/>
<path d="M8.80537 94.036C8.56237 95.072 8.44937 97.159 9.73437 97.142C12.0484 97.111 11.3894 95.869 12.8864 95.589C16.2214 94.965 16.7694 92.605 16.0684 91.965C15.3364 91.297 14.3514 91.918 13.4494 92.331C12.9164 92.574 10.7544 93.366 10.7544 93.366L8.80537 94.036Z" fill="#15154F"/>
<path d="M16.7867 32.134C18.1597 32.178 18.2737 33.51 18.2807 34.112C18.2877 34.714 18.0037 35.513 18.0637 35.95C18.1227 36.387 18.3007 37.311 18.1737 37.969C18.0377 38.671 18.1547 40.548 16.4707 40.471C15.2337 40.414 16.1407 42.805 16.1407 42.805C16.1407 42.805 15.0697 43.981 13.8117 43.996C12.5537 44.011 11.3457 43.033 11.3457 43.033C11.3457 43.033 12.4607 40.564 12.1457 39.116C11.8297 37.667 12.1067 33.288 12.1067 33.288L16.7867 32.134Z" fill="#FFCBB6"/>
<path d="M12.1446 39.115C12.1036 38.925 12.0726 38.684 12.0496 38.409L13.4156 38.273C13.4156 38.273 13.7706 40.115 15.8746 40.883C15.6696 41.553 16.1396 42.803 16.1396 42.803C16.1396 42.803 15.9506 43.009 15.6406 43.25C14.8756 43.273 11.9976 43.355 11.9206 43.304C11.8946 43.287 11.7136 43.048 11.4736 42.724C11.7576 42.02 12.3926 40.254 12.1446 39.115Z" fill="#EFB8A5"/>
<path d="M14.5461 37.628C14.9211 36.916 13.9061 36.12 14.2961 35.598C14.6861 35.076 15.237 35.595 15.237 35.595L15.278 37.095C15.278 37.095 15.685 37.167 15.838 37.046C15.938 36.967 15.8831 36.343 15.9041 36.065C15.9571 35.364 16.447 35.718 17.217 35.11C18.275 34.274 17.6941 34.028 18.6651 33.294C19.6351 32.56 19.2061 31.38 18.2811 31.34C17.3901 31.302 17.3 31.599 17.013 31.143C16.665 30.592 15.6031 30.474 15.0531 31.005C14.7861 31.262 14.3911 31.484 13.9191 31.248C13.4471 31.012 12.6811 30.813 12.1491 31.392C11.7751 31.799 11.8931 32.349 11.3461 32.585C10.7991 32.821 10.2611 33.227 10.4841 34.054C10.6491 34.666 10.961 35.182 10.67 35.575C10.379 35.968 10.056 37.117 11.166 37.752C12.276 38.387 11.5591 38.917 11.8741 39.378C12.1891 39.84 12.53 39.556 13.002 39.257C13.472 38.958 14.3351 38.029 14.5461 37.628Z" fill="url(#paint137_linear_71_23598)"/>
<path d="M7.70996 59.908C7.70996 59.908 5.81895 62.305 6.70695 67.868C7.59395 73.431 8.17796 76.53 7.75496 79.367C7.33096 82.204 8.78495 88.814 8.53495 91.418C8.28395 94.032 8.89195 94.636 9.71495 94.717C10.5379 94.799 12.857 94.991 12.844 93.895C12.831 92.799 12.966 87.559 13.192 86.034C13.418 84.509 13.678 81.547 13.468 78.356C13.32 76.104 13.494 74.031 13.326 71.353C13.125 68.148 12.361 63.494 12.75 61.127C13.389 57.238 7.70996 59.908 7.70996 59.908Z" fill="#51228A"/>
<path d="M10.3085 60.047C10.3085 60.047 9.13253 61.794 9.62053 66.706C9.93053 69.832 12.1395 74.048 12.0465 76.486C11.9535 78.923 11.5365 82.4 12.1855 85.742C12.8335 89.084 12.5875 93.112 13.2645 96.301C15.0955 96.599 16.8525 95.821 16.9495 95.464C17.1405 94.754 17.1435 90.404 17.8355 87.108C18.5275 83.811 19.1535 76.138 18.7685 71.794C18.5405 69.224 19.1425 66.651 18.6425 61.038C18.2685 56.844 10.3085 60.047 10.3085 60.047Z" fill="#7437BD"/>
<path d="M8.75584 41.108C9.76984 40.802 11.1028 41.335 11.9438 41.694C13.2468 42.25 14.1458 42.387 15.2408 42.402C16.8658 42.423 20.5518 42.722 21.4628 44.492C22.5848 46.672 19.6258 52.766 19.0998 54.722C18.5749 56.677 18.8698 61.105 18.8788 61.835C18.8878 62.566 13.6179 62.521 10.3849 62.071C7.15185 61.621 6.70484 61.335 6.55084 58.415C6.49184 57.304 6.49284 54.716 6.05384 51.036C5.65284 47.676 6.48684 41.793 8.75584 41.108Z" fill="#D1D7E2"/>
<path d="M29.6227 42.904C29.6227 42.904 29.9747 42.307 29.9487 41.65C29.9237 40.992 29.1367 38.962 29.9217 38.76C30.4477 38.625 30.3067 39.995 30.5927 39.961C31.1917 39.889 30.5977 36.437 31.2737 36.366C31.8217 36.309 31.4357 38.169 31.6697 38.142C31.9037 38.114 32.2127 38.262 32.2637 38.467C32.3147 38.672 32.4587 38.549 32.6597 38.684C32.8607 38.819 32.6897 39.016 32.8237 39.061C32.9407 39.1 33.1397 39.204 33.1447 39.485C33.1507 39.815 33.0037 41.351 32.3767 41.967C31.4287 42.9 31.6227 43.51 31.6227 43.51L29.6227 42.904Z" fill="#FFCBB6"/>
<path d="M18.8508 43.2C16.6348 44.025 17.7528 48.24 20.0278 51.491C22.0228 54.344 23.9868 55.274 25.5148 55.191C29.1738 54.993 32.1478 42.752 32.1478 42.752L29.5668 41.75L25.2678 50.077C25.2678 50.077 21.5238 42.205 18.8508 43.2Z" fill="#F2F2F2"/>
<defs>
<linearGradient id="paint0_linear_71_23598" x1="68.5762" y1="61.1452" x2="-0.446148" y2="61.1452" gradientUnits="userSpaceOnUse">
<stop stop-color="#7437BD"/>
<stop offset="1" stop-color="#B862D6"/>
</linearGradient>
<linearGradient id="paint1_linear_71_23598" x1="18.4931" y1="56.3291" x2="77.7769" y2="90.5566" gradientUnits="userSpaceOnUse">
<stop stop-color="#7437BD"/>
<stop offset="1" stop-color="#2E0AA3"/>
</linearGradient>
<linearGradient id="paint2_linear_71_23598" x1="55.273" y1="23.6908" x2="52.5074" y2="47.1438" gradientUnits="userSpaceOnUse">
<stop stop-color="#7437BD"/>
<stop offset="1" stop-color="#2E0AA3"/>
</linearGradient>
<linearGradient id="paint3_linear_71_23598" x1="55.6621" y1="23.7361" x2="52.8964" y2="47.1894" gradientUnits="userSpaceOnUse">
<stop stop-color="#7437BD"/>
<stop offset="1" stop-color="#2E0AA3"/>
</linearGradient>
<linearGradient id="paint4_linear_71_23598" x1="55.6704" y1="23.7371" x2="52.9047" y2="47.1905" gradientUnits="userSpaceOnUse">
<stop stop-color="#7437BD"/>
<stop offset="1" stop-color="#2E0AA3"/>
</linearGradient>
<linearGradient id="paint5_linear_71_23598" x1="55.684" y1="23.7402" x2="52.9184" y2="47.1926" gradientUnits="userSpaceOnUse">
<stop stop-color="#7437BD"/>
<stop offset="1" stop-color="#2E0AA3"/>
</linearGradient>
<linearGradient id="paint6_linear_71_23598" x1="55.6908" y1="23.7399" x2="52.9251" y2="47.1929" gradientUnits="userSpaceOnUse">
<stop stop-color="#7437BD"/>
<stop offset="1" stop-color="#2E0AA3"/>
</linearGradient>
<linearGradient id="paint7_linear_71_23598" x1="55.6888" y1="23.7408" x2="52.9231" y2="47.1932" gradientUnits="userSpaceOnUse">
<stop stop-color="#7437BD"/>
<stop offset="1" stop-color="#2E0AA3"/>
</linearGradient>
<linearGradient id="paint8_linear_71_23598" x1="55.6785" y1="23.7381" x2="52.9127" y2="47.1914" gradientUnits="userSpaceOnUse">
<stop stop-color="#7437BD"/>
<stop offset="1" stop-color="#2E0AA3"/>
</linearGradient>
<linearGradient id="paint9_linear_71_23598" x1="55.6576" y1="23.7359" x2="52.8919" y2="47.1891" gradientUnits="userSpaceOnUse">
<stop stop-color="#7437BD"/>
<stop offset="1" stop-color="#2E0AA3"/>
</linearGradient>
<linearGradient id="paint10_linear_71_23598" x1="55.6225" y1="23.7311" x2="52.8568" y2="47.1847" gradientUnits="userSpaceOnUse">
<stop stop-color="#7437BD"/>
<stop offset="1" stop-color="#2E0AA3"/>
</linearGradient>
<linearGradient id="paint11_linear_71_23598" x1="55.5695" y1="23.725" x2="52.8037" y2="47.1784" gradientUnits="userSpaceOnUse">
<stop stop-color="#7437BD"/>
<stop offset="1" stop-color="#2E0AA3"/>
</linearGradient>
<linearGradient id="paint12_linear_71_23598" x1="55.4823" y1="23.7147" x2="52.7166" y2="47.1681" gradientUnits="userSpaceOnUse">
<stop stop-color="#7437BD"/>
<stop offset="1" stop-color="#2E0AA3"/>
</linearGradient>
<linearGradient id="paint13_linear_71_23598" x1="55.1404" y1="23.6754" x2="52.3747" y2="47.1282" gradientUnits="userSpaceOnUse">
<stop stop-color="#7437BD"/>
<stop offset="1" stop-color="#2E0AA3"/>
</linearGradient>
<linearGradient id="paint14_linear_71_23598" x1="33.5066" y1="21.1237" x2="30.741" y2="44.5766" gradientUnits="userSpaceOnUse">
<stop stop-color="#7437BD"/>
<stop offset="1" stop-color="#B862D6"/>
</linearGradient>
<linearGradient id="paint15_linear_71_23598" x1="32.3056" y1="20.9821" x2="29.5399" y2="44.435" gradientUnits="userSpaceOnUse">
<stop stop-color="#7437BD"/>
<stop offset="1" stop-color="#B862D6"/>
</linearGradient>
<linearGradient id="paint16_linear_71_23598" x1="32.5743" y1="21.0135" x2="29.8085" y2="44.4673" gradientUnits="userSpaceOnUse">
<stop stop-color="#7437BD"/>
<stop offset="1" stop-color="#B862D6"/>
</linearGradient>
<linearGradient id="paint17_linear_71_23598" x1="32.8069" y1="21.041" x2="30.0412" y2="44.4945" gradientUnits="userSpaceOnUse">
<stop stop-color="#7437BD"/>
<stop offset="1" stop-color="#B862D6"/>
</linearGradient>
<linearGradient id="paint18_linear_71_23598" x1="33.0087" y1="21.0646" x2="30.2429" y2="44.5185" gradientUnits="userSpaceOnUse">
<stop stop-color="#7437BD"/>
<stop offset="1" stop-color="#B862D6"/>
</linearGradient>
<linearGradient id="paint19_linear_71_23598" x1="33.1931" y1="21.0867" x2="30.4274" y2="44.5398" gradientUnits="userSpaceOnUse">
<stop stop-color="#7437BD"/>
<stop offset="1" stop-color="#B862D6"/>
</linearGradient>
<linearGradient id="paint20_linear_71_23598" x1="33.3651" y1="21.107" x2="30.5994" y2="44.5601" gradientUnits="userSpaceOnUse">
<stop stop-color="#7437BD"/>
<stop offset="1" stop-color="#B862D6"/>
</linearGradient>
<linearGradient id="paint21_linear_71_23598" x1="33.5322" y1="21.1269" x2="30.7665" y2="44.5796" gradientUnits="userSpaceOnUse">
<stop stop-color="#7437BD"/>
<stop offset="1" stop-color="#B862D6"/>
</linearGradient>
<linearGradient id="paint22_linear_71_23598" x1="33.6942" y1="21.1455" x2="30.9284" y2="44.5994" gradientUnits="userSpaceOnUse">
<stop stop-color="#7437BD"/>
<stop offset="1" stop-color="#B862D6"/>
</linearGradient>
<linearGradient id="paint23_linear_71_23598" x1="33.8525" y1="21.1645" x2="31.0869" y2="44.6175" gradientUnits="userSpaceOnUse">
<stop stop-color="#7437BD"/>
<stop offset="1" stop-color="#B862D6"/>
</linearGradient>
<linearGradient id="paint24_linear_71_23598" x1="34.0092" y1="21.1831" x2="31.2436" y2="44.6359" gradientUnits="userSpaceOnUse">
<stop stop-color="#7437BD"/>
<stop offset="1" stop-color="#B862D6"/>
</linearGradient>
<linearGradient id="paint25_linear_71_23598" x1="34.1658" y1="21.2016" x2="31.4001" y2="44.6544" gradientUnits="userSpaceOnUse">
<stop stop-color="#7437BD"/>
<stop offset="1" stop-color="#B862D6"/>
</linearGradient>
<linearGradient id="paint26_linear_71_23598" x1="34.3234" y1="21.2198" x2="31.5577" y2="44.6732" gradientUnits="userSpaceOnUse">
<stop stop-color="#7437BD"/>
<stop offset="1" stop-color="#B862D6"/>
</linearGradient>
<linearGradient id="paint27_linear_71_23598" x1="34.4811" y1="21.2385" x2="31.7154" y2="44.692" gradientUnits="userSpaceOnUse">
<stop stop-color="#7437BD"/>
<stop offset="1" stop-color="#B862D6"/>
</linearGradient>
<linearGradient id="paint28_linear_71_23598" x1="34.6425" y1="21.2573" x2="31.8767" y2="44.7111" gradientUnits="userSpaceOnUse">
<stop stop-color="#7437BD"/>
<stop offset="1" stop-color="#B862D6"/>
</linearGradient>
<linearGradient id="paint29_linear_71_23598" x1="34.7873" y1="21.2748" x2="32.0217" y2="44.7276" gradientUnits="userSpaceOnUse">
<stop stop-color="#7437BD"/>
<stop offset="1" stop-color="#B862D6"/>
</linearGradient>
<linearGradient id="paint30_linear_71_23598" x1="54.7619" y1="23.6303" x2="51.9963" y2="47.0834" gradientUnits="userSpaceOnUse">
<stop stop-color="#7437BD"/>
<stop offset="1" stop-color="#2E0AA3"/>
</linearGradient>
<linearGradient id="paint31_linear_71_23598" x1="42.1146" y1="22.1387" x2="39.3489" y2="45.592" gradientUnits="userSpaceOnUse">
<stop stop-color="#7437BD"/>
<stop offset="1" stop-color="#B862D6"/>
</linearGradient>
<linearGradient id="paint32_linear_71_23598" x1="51.6207" y1="23.2599" x2="48.855" y2="46.7129" gradientUnits="userSpaceOnUse">
<stop stop-color="#7437BD"/>
<stop offset="1" stop-color="#B862D6"/>
</linearGradient>
<linearGradient id="paint33_linear_71_23598" x1="49.399" y1="22.998" x2="46.6333" y2="46.4507" gradientUnits="userSpaceOnUse">
<stop stop-color="#7437BD"/>
<stop offset="1" stop-color="#B862D6"/>
</linearGradient>
<linearGradient id="paint34_linear_71_23598" x1="49.5032" y1="23.0101" x2="46.7375" y2="46.4635" gradientUnits="userSpaceOnUse">
<stop stop-color="#7437BD"/>
<stop offset="1" stop-color="#B862D6"/>
</linearGradient>
<linearGradient id="paint35_linear_71_23598" x1="49.6731" y1="23.0303" x2="46.9074" y2="46.4834" gradientUnits="userSpaceOnUse">
<stop stop-color="#7437BD"/>
<stop offset="1" stop-color="#B862D6"/>
</linearGradient>
<linearGradient id="paint36_linear_71_23598" x1="49.8464" y1="23.0502" x2="47.0807" y2="46.5039" gradientUnits="userSpaceOnUse">
<stop stop-color="#7437BD"/>
<stop offset="1" stop-color="#B862D6"/>
</linearGradient>
<linearGradient id="paint37_linear_71_23598" x1="50.0235" y1="23.0717" x2="47.2579" y2="46.5244" gradientUnits="userSpaceOnUse">
<stop stop-color="#7437BD"/>
<stop offset="1" stop-color="#B862D6"/>
</linearGradient>
<linearGradient id="paint38_linear_71_23598" x1="50.2026" y1="23.093" x2="47.4369" y2="46.5457" gradientUnits="userSpaceOnUse">
<stop stop-color="#7437BD"/>
<stop offset="1" stop-color="#B862D6"/>
</linearGradient>
<linearGradient id="paint39_linear_71_23598" x1="50.386" y1="23.1143" x2="47.6204" y2="46.5673" gradientUnits="userSpaceOnUse">
<stop stop-color="#7437BD"/>
<stop offset="1" stop-color="#B862D6"/>
</linearGradient>
<linearGradient id="paint40_linear_71_23598" x1="50.5684" y1="23.1359" x2="47.8027" y2="46.5888" gradientUnits="userSpaceOnUse">
<stop stop-color="#7437BD"/>
<stop offset="1" stop-color="#B862D6"/>
</linearGradient>
<linearGradient id="paint41_linear_71_23598" x1="50.7473" y1="23.1567" x2="47.9816" y2="46.61" gradientUnits="userSpaceOnUse">
<stop stop-color="#7437BD"/>
<stop offset="1" stop-color="#B862D6"/>
</linearGradient>
<linearGradient id="paint42_linear_71_23598" x1="50.9202" y1="23.177" x2="48.1545" y2="46.6305" gradientUnits="userSpaceOnUse">
<stop stop-color="#7437BD"/>
<stop offset="1" stop-color="#B862D6"/>
</linearGradient>
<linearGradient id="paint43_linear_71_23598" x1="51.0888" y1="23.1965" x2="48.323" y2="46.6505" gradientUnits="userSpaceOnUse">
<stop stop-color="#7437BD"/>
<stop offset="1" stop-color="#B862D6"/>
</linearGradient>
<linearGradient id="paint44_linear_71_23598" x1="51.2537" y1="23.2164" x2="48.4879" y2="46.6696" gradientUnits="userSpaceOnUse">
<stop stop-color="#7437BD"/>
<stop offset="1" stop-color="#B862D6"/>
</linearGradient>
<linearGradient id="paint45_linear_71_23598" x1="51.4172" y1="23.236" x2="48.6516" y2="46.689" gradientUnits="userSpaceOnUse">
<stop stop-color="#7437BD"/>
<stop offset="1" stop-color="#B862D6"/>
</linearGradient>
<linearGradient id="paint46_linear_71_23598" x1="51.5958" y1="23.2569" x2="48.8301" y2="46.7099" gradientUnits="userSpaceOnUse">
<stop stop-color="#7437BD"/>
<stop offset="1" stop-color="#B862D6"/>
</linearGradient>
<linearGradient id="paint47_linear_71_23598" x1="51.8307" y1="23.2843" x2="49.0649" y2="46.7379" gradientUnits="userSpaceOnUse">
<stop stop-color="#7437BD"/>
<stop offset="1" stop-color="#B862D6"/>
</linearGradient>
<linearGradient id="paint48_linear_71_23598" x1="52.1331" y1="23.3202" x2="49.3674" y2="46.7735" gradientUnits="userSpaceOnUse">
<stop stop-color="#7437BD"/>
<stop offset="1" stop-color="#B862D6"/>
</linearGradient>
<linearGradient id="paint49_linear_71_23598" x1="52.4095" y1="23.3526" x2="49.6437" y2="46.8062" gradientUnits="userSpaceOnUse">
<stop stop-color="#7437BD"/>
<stop offset="1" stop-color="#B862D6"/>
</linearGradient>
<linearGradient id="paint50_linear_71_23598" x1="52.5926" y1="23.3743" x2="49.8269" y2="46.8276" gradientUnits="userSpaceOnUse">
<stop stop-color="#7437BD"/>
<stop offset="1" stop-color="#B862D6"/>
</linearGradient>
<linearGradient id="paint51_linear_71_23598" x1="52.7233" y1="23.3899" x2="49.9575" y2="46.8429" gradientUnits="userSpaceOnUse">
<stop stop-color="#7437BD"/>
<stop offset="1" stop-color="#B862D6"/>
</linearGradient>
<linearGradient id="paint52_linear_71_23598" x1="52.8343" y1="23.4024" x2="50.0685" y2="46.8562" gradientUnits="userSpaceOnUse">
<stop stop-color="#7437BD"/>
<stop offset="1" stop-color="#B862D6"/>
</linearGradient>
<linearGradient id="paint53_linear_71_23598" x1="52.9349" y1="23.4143" x2="50.1691" y2="46.8681" gradientUnits="userSpaceOnUse">
<stop stop-color="#7437BD"/>
<stop offset="1" stop-color="#B862D6"/>
</linearGradient>
<linearGradient id="paint54_linear_71_23598" x1="53.0311" y1="23.4256" x2="50.2653" y2="46.8794" gradientUnits="userSpaceOnUse">
<stop stop-color="#7437BD"/>
<stop offset="1" stop-color="#B862D6"/>
</linearGradient>
<linearGradient id="paint55_linear_71_23598" x1="53.1235" y1="23.437" x2="50.3578" y2="46.8901" gradientUnits="userSpaceOnUse">
<stop stop-color="#7437BD"/>
<stop offset="1" stop-color="#B862D6"/>
</linearGradient>
<linearGradient id="paint56_linear_71_23598" x1="53.2124" y1="23.4476" x2="50.4468" y2="46.9007" gradientUnits="userSpaceOnUse">
<stop stop-color="#7437BD"/>
<stop offset="1" stop-color="#B862D6"/>
</linearGradient>
<linearGradient id="paint57_linear_71_23598" x1="53.2995" y1="23.4577" x2="50.5338" y2="46.9108" gradientUnits="userSpaceOnUse">
<stop stop-color="#7437BD"/>
<stop offset="1" stop-color="#B862D6"/>
</linearGradient>
<linearGradient id="paint58_linear_71_23598" x1="53.3817" y1="23.4676" x2="50.616" y2="46.9207" gradientUnits="userSpaceOnUse">
<stop stop-color="#7437BD"/>
<stop offset="1" stop-color="#B862D6"/>
</linearGradient>
<linearGradient id="paint59_linear_71_23598" x1="53.4606" y1="23.4764" x2="50.6949" y2="46.9299" gradientUnits="userSpaceOnUse">
<stop stop-color="#7437BD"/>
<stop offset="1" stop-color="#B862D6"/>
</linearGradient>
<linearGradient id="paint60_linear_71_23598" x1="53.5322" y1="23.4855" x2="50.7665" y2="46.9383" gradientUnits="userSpaceOnUse">
<stop stop-color="#7437BD"/>
<stop offset="1" stop-color="#B862D6"/>
</linearGradient>
<linearGradient id="paint61_linear_71_23598" x1="53.5977" y1="23.4929" x2="50.832" y2="46.9461" gradientUnits="userSpaceOnUse">
<stop stop-color="#7437BD"/>
<stop offset="1" stop-color="#B862D6"/>
</linearGradient>
<linearGradient id="paint62_linear_71_23598" x1="53.6564" y1="23.4998" x2="50.8907" y2="46.9529" gradientUnits="userSpaceOnUse">
<stop stop-color="#7437BD"/>
<stop offset="1" stop-color="#B862D6"/>
</linearGradient>
<linearGradient id="paint63_linear_71_23598" x1="53.7084" y1="23.5063" x2="50.9427" y2="46.9591" gradientUnits="userSpaceOnUse">
<stop stop-color="#7437BD"/>
<stop offset="1" stop-color="#B862D6"/>
</linearGradient>
<linearGradient id="paint64_linear_71_23598" x1="53.753" y1="23.5111" x2="50.9873" y2="46.9645" gradientUnits="userSpaceOnUse">
<stop stop-color="#7437BD"/>
<stop offset="1" stop-color="#B862D6"/>
</linearGradient>
<linearGradient id="paint65_linear_71_23598" x1="53.7924" y1="23.5157" x2="51.0267" y2="46.9691" gradientUnits="userSpaceOnUse">
<stop stop-color="#7437BD"/>
<stop offset="1" stop-color="#B862D6"/>
</linearGradient>
<linearGradient id="paint66_linear_71_23598" x1="53.8247" y1="23.5199" x2="51.059" y2="46.973" gradientUnits="userSpaceOnUse">
<stop stop-color="#7437BD"/>
<stop offset="1" stop-color="#B862D6"/>
</linearGradient>
<linearGradient id="paint67_linear_71_23598" x1="53.8513" y1="23.5229" x2="51.0857" y2="46.9759" gradientUnits="userSpaceOnUse">
<stop stop-color="#7437BD"/>
<stop offset="1" stop-color="#B862D6"/>
</linearGradient>
<linearGradient id="paint68_linear_71_23598" x1="37.3854" y1="38.9176" x2="37.3854" y2="72.6595" gradientUnits="userSpaceOnUse">
<stop stop-color="#7437BD"/>
<stop offset="1" stop-color="#2E0AA3"/>
</linearGradient>
<linearGradient id="paint69_linear_71_23598" x1="51.2956" y1="31.9809" x2="34.8355" y2="25.3061" gradientUnits="userSpaceOnUse">
<stop stop-color="#FCFCFC"/>
<stop offset="1" stop-color="#BABDE8"/>
</linearGradient>
<linearGradient id="paint70_linear_71_23598" x1="53.8671" y1="25.6428" x2="37.4062" y2="18.9678" gradientUnits="userSpaceOnUse">
<stop stop-color="#FCFCFC"/>
<stop offset="1" stop-color="#BABDE8"/>
</linearGradient>
<linearGradient id="paint71_linear_71_23598" x1="54.3765" y1="24.3861" x2="37.9158" y2="17.7111" gradientUnits="userSpaceOnUse">
<stop stop-color="#FCFCFC"/>
<stop offset="1" stop-color="#BABDE8"/>
</linearGradient>
<linearGradient id="paint72_linear_71_23598" x1="54.0568" y1="25.1697" x2="37.5977" y2="18.4954" gradientUnits="userSpaceOnUse">
<stop stop-color="#FCFCFC"/>
<stop offset="1" stop-color="#BABDE8"/>
</linearGradient>
<linearGradient id="paint73_linear_71_23598" x1="53.9113" y1="25.5345" x2="37.4506" y2="18.8594" gradientUnits="userSpaceOnUse">
<stop stop-color="#FCFCFC"/>
<stop offset="1" stop-color="#BABDE8"/>
</linearGradient>
<linearGradient id="paint74_linear_71_23598" x1="53.7865" y1="25.8398" x2="37.326" y2="19.1648" gradientUnits="userSpaceOnUse">
<stop stop-color="#FCFCFC"/>
<stop offset="1" stop-color="#BABDE8"/>
</linearGradient>
<linearGradient id="paint75_linear_71_23598" x1="53.6722" y1="26.1201" x2="37.2127" y2="19.4457" gradientUnits="userSpaceOnUse">
<stop stop-color="#FCFCFC"/>
<stop offset="1" stop-color="#BABDE8"/>
</linearGradient>
<linearGradient id="paint76_linear_71_23598" x1="53.5652" y1="26.3847" x2="37.105" y2="19.7099" gradientUnits="userSpaceOnUse">
<stop stop-color="#FCFCFC"/>
<stop offset="1" stop-color="#BABDE8"/>
</linearGradient>
<linearGradient id="paint77_linear_71_23598" x1="53.465" y1="26.6353" x2="37.0036" y2="19.9601" gradientUnits="userSpaceOnUse">
<stop stop-color="#FCFCFC"/>
<stop offset="1" stop-color="#BABDE8"/>
</linearGradient>
<linearGradient id="paint78_linear_71_23598" x1="53.3655" y1="26.8779" x2="36.9055" y2="20.2032" gradientUnits="userSpaceOnUse">
<stop stop-color="#FCFCFC"/>
<stop offset="1" stop-color="#BABDE8"/>
</linearGradient>
<linearGradient id="paint79_linear_71_23598" x1="53.2671" y1="27.1148" x2="36.8085" y2="20.4407" gradientUnits="userSpaceOnUse">
<stop stop-color="#FCFCFC"/>
<stop offset="1" stop-color="#BABDE8"/>
</linearGradient>
<linearGradient id="paint80_linear_71_23598" x1="53.1732" y1="27.3492" x2="36.7139" y2="20.6748" gradientUnits="userSpaceOnUse">
<stop stop-color="#FCFCFC"/>
<stop offset="1" stop-color="#BABDE8"/>
</linearGradient>
<linearGradient id="paint81_linear_71_23598" x1="53.123" y1="27.4736" x2="36.6634" y2="20.799" gradientUnits="userSpaceOnUse">
<stop stop-color="#FCFCFC"/>
<stop offset="1" stop-color="#BABDE8"/>
</linearGradient>
<linearGradient id="paint82_linear_71_23598" x1="34.5376" y1="13.3739" x2="47.2715" y2="31.94" gradientUnits="userSpaceOnUse">
<stop stop-color="#FCFCFC"/>
<stop offset="1" stop-color="#BABDE8"/>
</linearGradient>
<linearGradient id="paint83_linear_71_23598" x1="36.3257" y1="12.1473" x2="49.0594" y2="30.7133" gradientUnits="userSpaceOnUse">
<stop stop-color="#FCFCFC"/>
<stop offset="1" stop-color="#BABDE8"/>
</linearGradient>
<linearGradient id="paint84_linear_71_23598" x1="35.0481" y1="13.0231" x2="47.7836" y2="31.5918" gradientUnits="userSpaceOnUse">
<stop stop-color="#FCFCFC"/>
<stop offset="1" stop-color="#BABDE8"/>
</linearGradient>
<linearGradient id="paint85_linear_71_23598" x1="35.4839" y1="12.7235" x2="48.2221" y2="31.2963" gradientUnits="userSpaceOnUse">
<stop stop-color="#FCFCFC"/>
<stop offset="1" stop-color="#BABDE8"/>
</linearGradient>
<linearGradient id="paint86_linear_71_23598" x1="35.8203" y1="12.4931" x2="48.5561" y2="31.0619" gradientUnits="userSpaceOnUse">
<stop stop-color="#FCFCFC"/>
<stop offset="1" stop-color="#BABDE8"/>
</linearGradient>
<linearGradient id="paint87_linear_71_23598" x1="36.0898" y1="12.3095" x2="48.8231" y2="30.8747" gradientUnits="userSpaceOnUse">
<stop stop-color="#FCFCFC"/>
<stop offset="1" stop-color="#BABDE8"/>
</linearGradient>
<linearGradient id="paint88_linear_71_23598" x1="36.3172" y1="12.152" x2="49.054" y2="30.7226" gradientUnits="userSpaceOnUse">
<stop stop-color="#FCFCFC"/>
<stop offset="1" stop-color="#BABDE8"/>
</linearGradient>
<linearGradient id="paint89_linear_71_23598" x1="36.5182" y1="12.0151" x2="49.2527" y2="30.5824" gradientUnits="userSpaceOnUse">
<stop stop-color="#FCFCFC"/>
<stop offset="1" stop-color="#BABDE8"/>
</linearGradient>
<linearGradient id="paint90_linear_71_23598" x1="36.7019" y1="11.889" x2="49.4363" y2="30.4559" gradientUnits="userSpaceOnUse">
<stop stop-color="#FCFCFC"/>
<stop offset="1" stop-color="#BABDE8"/>
</linearGradient>
<linearGradient id="paint91_linear_71_23598" x1="36.8709" y1="11.7739" x2="49.6032" y2="30.3377" gradientUnits="userSpaceOnUse">
<stop stop-color="#FCFCFC"/>
<stop offset="1" stop-color="#BABDE8"/>
</linearGradient>
<linearGradient id="paint92_linear_71_23598" x1="37.0277" y1="11.6668" x2="49.7596" y2="30.2302" gradientUnits="userSpaceOnUse">
<stop stop-color="#FCFCFC"/>
<stop offset="1" stop-color="#BABDE8"/>
</linearGradient>
<linearGradient id="paint93_linear_71_23598" x1="37.1745" y1="11.5648" x2="49.9085" y2="30.1312" gradientUnits="userSpaceOnUse">
<stop stop-color="#FCFCFC"/>
<stop offset="1" stop-color="#BABDE8"/>
</linearGradient>
<linearGradient id="paint94_linear_71_23598" x1="37.3149" y1="11.4694" x2="50.0479" y2="30.0344" gradientUnits="userSpaceOnUse">
<stop stop-color="#FCFCFC"/>
<stop offset="1" stop-color="#BABDE8"/>
</linearGradient>
<linearGradient id="paint95_linear_71_23598" x1="37.4482" y1="11.3784" x2="50.1794" y2="29.9407" gradientUnits="userSpaceOnUse">
<stop stop-color="#FCFCFC"/>
<stop offset="1" stop-color="#BABDE8"/>
</linearGradient>
<linearGradient id="paint96_linear_71_23598" x1="37.5757" y1="11.2901" x2="50.3094" y2="29.8562" gradientUnits="userSpaceOnUse">
<stop stop-color="#FCFCFC"/>
<stop offset="1" stop-color="#BABDE8"/>
</linearGradient>
<linearGradient id="paint97_linear_71_23598" x1="37.6985" y1="11.2065" x2="50.4304" y2="29.7696" gradientUnits="userSpaceOnUse">
<stop stop-color="#FCFCFC"/>
<stop offset="1" stop-color="#BABDE8"/>
</linearGradient>
<linearGradient id="paint98_linear_71_23598" x1="37.8048" y1="11.1355" x2="50.5338" y2="29.6945" gradientUnits="userSpaceOnUse">
<stop stop-color="#FCFCFC"/>
<stop offset="1" stop-color="#BABDE8"/>
</linearGradient>
<linearGradient id="paint99_linear_71_23598" x1="37.886" y1="11.0772" x2="50.6197" y2="29.6433" gradientUnits="userSpaceOnUse">
<stop stop-color="#FCFCFC"/>
<stop offset="1" stop-color="#BABDE8"/>
</linearGradient>
<linearGradient id="paint100_linear_71_23598" x1="37.8626" y1="11.0953" x2="50.5926" y2="29.6558" gradientUnits="userSpaceOnUse">
<stop stop-color="#FCFCFC"/>
<stop offset="1" stop-color="#BABDE8"/>
</linearGradient>
<linearGradient id="paint101_linear_71_23598" x1="37.932" y1="11.0466" x2="50.6645" y2="29.611" gradientUnits="userSpaceOnUse">
<stop stop-color="#FCFCFC"/>
<stop offset="1" stop-color="#BABDE8"/>
</linearGradient>
<linearGradient id="paint102_linear_71_23598" x1="38.0401" y1="10.9716" x2="50.7732" y2="29.5367" gradientUnits="userSpaceOnUse">
<stop stop-color="#FCFCFC"/>
<stop offset="1" stop-color="#BABDE8"/>
</linearGradient>
<linearGradient id="paint103_linear_71_23598" x1="38.1434" y1="10.8991" x2="50.8794" y2="29.4683" gradientUnits="userSpaceOnUse">
<stop stop-color="#FCFCFC"/>
<stop offset="1" stop-color="#BABDE8"/>
</linearGradient>
<linearGradient id="paint104_linear_71_23598" x1="38.2428" y1="10.8322" x2="50.9765" y2="29.3983" gradientUnits="userSpaceOnUse">
<stop stop-color="#FCFCFC"/>
<stop offset="1" stop-color="#BABDE8"/>
</linearGradient>
<linearGradient id="paint105_linear_71_23598" x1="38.3343" y1="10.7671" x2="51.0712" y2="29.3379" gradientUnits="userSpaceOnUse">
<stop stop-color="#FCFCFC"/>
<stop offset="1" stop-color="#BABDE8"/>
</linearGradient>
<linearGradient id="paint106_linear_71_23598" x1="38.4219" y1="10.7097" x2="51.1561" y2="29.2763" gradientUnits="userSpaceOnUse">
<stop stop-color="#FCFCFC"/>
<stop offset="1" stop-color="#BABDE8"/>
</linearGradient>
<linearGradient id="paint107_linear_71_23598" x1="38.4981" y1="10.6552" x2="51.2347" y2="29.2257" gradientUnits="userSpaceOnUse">
<stop stop-color="#FCFCFC"/>
<stop offset="1" stop-color="#BABDE8"/>
</linearGradient>
<linearGradient id="paint108_linear_71_23598" x1="38.5664" y1="10.6101" x2="51.3009" y2="29.1769" gradientUnits="userSpaceOnUse">
<stop stop-color="#FCFCFC"/>
<stop offset="1" stop-color="#BABDE8"/>
</linearGradient>
<linearGradient id="paint109_linear_71_23598" x1="38.6248" y1="10.5718" x2="51.3572" y2="29.1358" gradientUnits="userSpaceOnUse">
<stop stop-color="#FCFCFC"/>
<stop offset="1" stop-color="#BABDE8"/>
</linearGradient>
<linearGradient id="paint110_linear_71_23598" x1="38.6714" y1="10.538" x2="51.4055" y2="29.1046" gradientUnits="userSpaceOnUse">
<stop stop-color="#FCFCFC"/>
<stop offset="1" stop-color="#BABDE8"/>
</linearGradient>
<linearGradient id="paint111_linear_71_23598" x1="38.7107" y1="10.511" x2="51.4453" y2="29.0783" gradientUnits="userSpaceOnUse">
<stop stop-color="#FCFCFC"/>
<stop offset="1" stop-color="#BABDE8"/>
</linearGradient>
<linearGradient id="paint112_linear_71_23598" x1="38.7417" y1="10.4903" x2="51.4756" y2="29.0565" gradientUnits="userSpaceOnUse">
<stop stop-color="#FCFCFC"/>
<stop offset="1" stop-color="#BABDE8"/>
</linearGradient>
<linearGradient id="paint113_linear_71_23598" x1="38.7651" y1="10.474" x2="51.4989" y2="29.0402" gradientUnits="userSpaceOnUse">
<stop stop-color="#FCFCFC"/>
<stop offset="1" stop-color="#BABDE8"/>
</linearGradient>
<linearGradient id="paint114_linear_71_23598" x1="38.7785" y1="10.4638" x2="51.5134" y2="29.0313" gradientUnits="userSpaceOnUse">
<stop stop-color="#FCFCFC"/>
<stop offset="1" stop-color="#BABDE8"/>
</linearGradient>
<linearGradient id="paint115_linear_71_23598" x1="38.7669" y1="10.4735" x2="51.5005" y2="29.0394" gradientUnits="userSpaceOnUse">
<stop stop-color="#FCFCFC"/>
<stop offset="1" stop-color="#BABDE8"/>
</linearGradient>
<linearGradient id="paint116_linear_71_23598" x1="38.7256" y1="10.5016" x2="51.4594" y2="29.0677" gradientUnits="userSpaceOnUse">
<stop stop-color="#FCFCFC"/>
<stop offset="1" stop-color="#BABDE8"/>
</linearGradient>
<linearGradient id="paint117_linear_71_23598" x1="38.6766" y1="10.534" x2="51.4114" y2="29.1015" gradientUnits="userSpaceOnUse">
<stop stop-color="#FCFCFC"/>
<stop offset="1" stop-color="#BABDE8"/>
</linearGradient>
<linearGradient id="paint118_linear_71_23598" x1="38.63" y1="10.5687" x2="51.3626" y2="29.133" gradientUnits="userSpaceOnUse">
<stop stop-color="#FCFCFC"/>
<stop offset="1" stop-color="#BABDE8"/>
</linearGradient>
<linearGradient id="paint119_linear_71_23598" x1="38.58" y1="10.6035" x2="51.3123" y2="29.1671" gradientUnits="userSpaceOnUse">
<stop stop-color="#FCFCFC"/>
<stop offset="1" stop-color="#BABDE8"/>
</linearGradient>
<linearGradient id="paint120_linear_71_23598" x1="38.5249" y1="10.6395" x2="51.2582" y2="29.2048" gradientUnits="userSpaceOnUse">
<stop stop-color="#FCFCFC"/>
<stop offset="1" stop-color="#BABDE8"/>
</linearGradient>
<linearGradient id="paint121_linear_71_23598" x1="38.4657" y1="10.6806" x2="51.199" y2="29.2458" gradientUnits="userSpaceOnUse">
<stop stop-color="#FCFCFC"/>
<stop offset="1" stop-color="#BABDE8"/>
</linearGradient>
<linearGradient id="paint122_linear_71_23598" x1="38.3974" y1="10.7236" x2="51.1333" y2="29.2926" gradientUnits="userSpaceOnUse">
<stop stop-color="#FCFCFC"/>
<stop offset="1" stop-color="#BABDE8"/>
</linearGradient>
<linearGradient id="paint123_linear_71_23598" x1="38.326" y1="10.7786" x2="51.0577" y2="29.3416" gradientUnits="userSpaceOnUse">
<stop stop-color="#FCFCFC"/>
<stop offset="1" stop-color="#BABDE8"/>
</linearGradient>
<linearGradient id="paint124_linear_71_23598" x1="38.2412" y1="10.8327" x2="50.9758" y2="29.3998" gradientUnits="userSpaceOnUse">
<stop stop-color="#FCFCFC"/>
<stop offset="1" stop-color="#BABDE8"/>
</linearGradient>
<linearGradient id="paint125_linear_71_23598" x1="38.1477" y1="10.8925" x2="50.8848" y2="29.4633" gradientUnits="userSpaceOnUse">
<stop stop-color="#FCFCFC"/>
<stop offset="1" stop-color="#BABDE8"/>
</linearGradient>
<linearGradient id="paint126_linear_71_23598" x1="38.0523" y1="10.9653" x2="50.7849" y2="29.5294" gradientUnits="userSpaceOnUse">
<stop stop-color="#FCFCFC"/>
<stop offset="1" stop-color="#BABDE8"/>
</linearGradient>
<linearGradient id="paint127_linear_71_23598" x1="37.9449" y1="11.0361" x2="50.6791" y2="29.6028" gradientUnits="userSpaceOnUse">
<stop stop-color="#FCFCFC"/>
<stop offset="1" stop-color="#BABDE8"/>
</linearGradient>
<linearGradient id="paint128_linear_71_23598" x1="37.8329" y1="11.1127" x2="50.5672" y2="29.6796" gradientUnits="userSpaceOnUse">
<stop stop-color="#FCFCFC"/>
<stop offset="1" stop-color="#BABDE8"/>
</linearGradient>
<linearGradient id="paint129_linear_71_23598" x1="37.7193" y1="11.1978" x2="50.4494" y2="29.7585" gradientUnits="userSpaceOnUse">
<stop stop-color="#FCFCFC"/>
<stop offset="1" stop-color="#BABDE8"/>
</linearGradient>
<linearGradient id="paint130_linear_71_23598" x1="37.5947" y1="11.278" x2="50.3279" y2="29.8431" gradientUnits="userSpaceOnUse">
<stop stop-color="#FCFCFC"/>
<stop offset="1" stop-color="#BABDE8"/>
</linearGradient>
<linearGradient id="paint131_linear_71_23598" x1="37.4666" y1="11.3634" x2="50.2011" y2="29.9305" gradientUnits="userSpaceOnUse">
<stop stop-color="#FCFCFC"/>
<stop offset="1" stop-color="#BABDE8"/>
</linearGradient>
<linearGradient id="paint132_linear_71_23598" x1="37.3341" y1="11.4524" x2="50.0696" y2="30.0211" gradientUnits="userSpaceOnUse">
<stop stop-color="#FCFCFC"/>
<stop offset="1" stop-color="#BABDE8"/>
</linearGradient>
<linearGradient id="paint133_linear_71_23598" x1="37.197" y1="11.5478" x2="49.9319" y2="30.1156" gradientUnits="userSpaceOnUse">
<stop stop-color="#FCFCFC"/>
<stop offset="1" stop-color="#BABDE8"/>
</linearGradient>
<linearGradient id="paint134_linear_71_23598" x1="37.0607" y1="11.6494" x2="49.791" y2="30.2104" gradientUnits="userSpaceOnUse">
<stop stop-color="#FCFCFC"/>
<stop offset="1" stop-color="#BABDE8"/>
</linearGradient>
<linearGradient id="paint135_linear_71_23598" x1="26.9055" y1="22.6248" x2="40.579" y2="26.4482" gradientUnits="userSpaceOnUse">
<stop stop-color="#FCFCFC"/>
<stop offset="1" stop-color="#BABDE8"/>
</linearGradient>
<linearGradient id="paint136_linear_71_23598" x1="24.2685" y1="51.4238" x2="35.0544" y2="48.9348" gradientUnits="userSpaceOnUse">
<stop stop-color="#00FFED"/>
<stop offset="0.9112" stop-color="#8C74E1"/>
<stop offset="1" stop-color="#9E62DF"/>
</linearGradient>
<linearGradient id="paint137_linear_71_23598" x1="10.3891" y1="35.1415" x2="19.2155" y2="35.1415" gradientUnits="userSpaceOnUse">
<stop stop-color="#7437BD"/>
<stop offset="1" stop-color="#2E0AA3"/>
</linearGradient>
</defs>
</svg>
