<svg width="43" height="97" viewBox="0 0 43 97" fill="none" xmlns="http://www.w3.org/2000/svg">
<path d="M0.594711 64.6108L2.28471 65.5928C2.00271 65.4288 1.82772 65.0798 1.82672 64.5848L0.136719 63.6028C0.137719 64.0978 0.311711 64.4468 0.594711 64.6108Z" fill="#ABAFD6"/>
<mask id="mask0_71_24102" style="mask-type:luminance" maskUnits="userSpaceOnUse" x="0" y="63" width="3" height="3">
<path d="M0.594711 64.6108L2.28471 65.5928C2.00271 65.4288 1.82772 65.0798 1.82672 64.5848L0.136719 63.6028C0.137719 64.0978 0.311711 64.4468 0.594711 64.6108Z" fill="white"/>
</mask>
<g mask="url(#mask0_71_24102)">
<path d="M1.82675 64.5848L0.135742 63.6028V63.6068L1.82675 64.5898V64.5848Z" fill="#ABAFD6"/>
<path d="M1.82672 64.5898L0.136719 63.6078C0.137719 63.7458 0.151719 63.8718 0.177719 63.9858L1.86772 64.9678C1.84072 64.8528 1.82672 64.7268 1.82672 64.5898Z" fill="#ABAFD6"/>
<path d="M1.86676 64.9668L0.176758 63.9848C0.243758 64.2798 0.391765 64.4928 0.593765 64.6108L2.28377 65.5928C2.08177 65.4748 1.93476 65.2618 1.86676 64.9668Z" fill="#ABAFD6"/>
</g>
<path d="M26.2856 1.0878L24.5956 0.105803C24.3096 -0.0601974 23.9146 -0.0362121 23.4766 0.215788L25.1666 1.19778C25.6046 0.944782 26.0006 0.920797 26.2856 1.0878Z" fill="#ABAFD6"/>
<mask id="mask1_71_24102" style="mask-type:luminance" maskUnits="userSpaceOnUse" x="23" y="0" width="4" height="2">
<path d="M26.2856 1.0878L24.5956 0.105803C24.3096 -0.0601974 23.9146 -0.0362121 23.4766 0.215788L25.1666 1.19778C25.6046 0.944782 26.0006 0.920797 26.2856 1.0878Z" fill="white"/>
</mask>
<g mask="url(#mask1_71_24102)">
<path d="M26.2853 1.0878L24.5953 0.105809C24.4573 0.0258091 24.2943 -0.0101877 24.1133 0.0028123L25.8033 0.984807C25.9843 0.970807 26.1483 1.0068 26.2853 1.0878Z" fill="#ABAFD6"/>
<path d="M25.8032 0.983795L24.1132 0.00180054C24.0082 0.00880054 23.8972 0.0327915 23.7822 0.0737915L25.4722 1.05579C25.5872 1.01479 25.6982 0.990795 25.8032 0.983795Z" fill="#ABAFD6"/>
<path d="M25.4725 1.05579L23.7825 0.0737915C23.6835 0.108792 23.5815 0.15579 23.4775 0.21579L25.1675 1.19778C25.2715 1.13778 25.3735 1.08979 25.4725 1.05579Z" fill="#ABAFD6"/>
</g>
<path d="M1.69 16.5608L0 15.5788L0.136002 63.6028L1.82701 64.5848L1.69 16.5608Z" fill="#ABAFD6"/>
<path d="M25.1684 1.19778L23.4774 0.21579L1.56641 12.8658L3.25641 13.8478L25.1684 1.19778Z" fill="#ABAFD6"/>
<path d="M3.25602 13.8478L1.56602 12.8658C0.697019 13.3678 -0.00299039 14.5808 9.60677e-06 15.5788L1.69001 16.5608C1.68801 15.5618 2.38802 14.3498 3.25602 13.8478Z" fill="#ABAFD6"/>
<mask id="mask2_71_24102" style="mask-type:luminance" maskUnits="userSpaceOnUse" x="0" y="12" width="4" height="5">
<path d="M3.25602 13.8478L1.56602 12.8658C0.697019 13.3678 -0.00299039 14.5808 9.60677e-06 15.5788L1.69001 16.5608C1.68801 15.5618 2.38802 14.3498 3.25602 13.8478Z" fill="white"/>
</mask>
<g mask="url(#mask2_71_24102)">
<path d="M3.25578 13.8478L1.56578 12.8658C1.56078 12.8688 1.55578 12.8718 1.55078 12.8748L3.24077 13.8568C3.24577 13.8538 3.25078 13.8508 3.25578 13.8478Z" fill="#ABAFD6"/>
<path d="M3.24095 13.8568L1.55096 12.8748C1.43296 12.9438 1.31896 13.0258 1.20996 13.1188L2.89996 14.1008C3.00996 14.0078 3.12395 13.9258 3.24095 13.8568Z" fill="#ABAFD6"/>
<path d="M2.89992 14.1008L1.20992 13.1188C1.09392 13.2168 0.982906 13.3258 0.878906 13.4448L2.56891 14.4268C2.67291 14.3078 2.78392 14.1988 2.89992 14.1008Z" fill="#ABAFD6"/>
<path d="M2.56946 14.4268L0.879456 13.4448C0.634456 13.7238 0.425461 14.0538 0.272461 14.3988L1.96246 15.3808C2.11546 15.0358 2.32446 14.7058 2.56946 14.4268Z" fill="#ABAFD6"/>
<path d="M1.96198 15.3808L0.271973 14.3988C0.215973 14.5268 0.165977 14.6578 0.125977 14.7878L1.81598 15.7698C1.85698 15.6398 1.90498 15.5088 1.96198 15.3808Z" fill="#ABAFD6"/>
<path d="M1.81725 15.7698L0.127243 14.7878C0.085243 14.9248 0.05325 15.0628 0.03125 15.1978L1.72125 16.1798C1.74225 16.0448 1.77525 15.9068 1.81725 15.7698Z" fill="#ABAFD6"/>
<path d="M1.72104 16.1808L0.0310381 15.1988C0.0110381 15.3278 3.92874e-05 15.4548 0.00103929 15.5788L1.69104 16.5608C1.69004 16.4368 1.70004 16.3098 1.72104 16.1808Z" fill="#ABAFD6"/>
</g>
<path d="M3.25645 13.8478C2.38745 14.3498 1.68744 15.5618 1.69044 16.5608L1.82644 64.5848C1.82944 65.5808 2.53444 65.9848 3.40244 65.4828L25.3134 52.8318C26.1824 52.3298 26.8824 51.1158 26.8794 50.1188L26.7434 2.09479C26.7404 1.09679 26.0354 0.69481 25.1664 1.19681L3.25645 13.8478Z" fill="url(#paint0_linear_71_24102)"/>
<path d="M13.1284 9.57979C12.9104 9.70579 12.7314 10.0128 12.7324 10.2638C12.7334 10.5168 12.9124 10.6178 13.1314 10.4908L17.7794 7.80779C17.9974 7.68179 18.1764 7.37479 18.1754 7.12179C18.1744 6.87079 17.9954 6.77078 17.7764 6.89678L13.1284 9.57979Z" fill="url(#paint1_linear_71_24102)"/>
<path d="M11.8008 10.2368C11.5018 10.4088 11.2588 10.8298 11.2598 11.1728C11.2608 11.5188 11.5048 11.6578 11.8038 11.4848C12.1048 11.3108 12.3478 10.8908 12.3468 10.5448C12.3458 10.2028 12.1018 10.0628 11.8008 10.2368Z" fill="url(#paint2_linear_71_24102)"/>
<path d="M24.2565 5.05978C25.1065 4.56878 25.7975 4.96779 25.8005 5.94479L25.9225 49.1398C25.9255 50.1168 25.2385 51.3108 24.3885 51.8018L4.31555 63.3908C3.46055 63.8838 2.77054 63.4858 2.76754 62.5088L2.64454 19.3128C2.64154 18.3358 3.32854 17.1418 4.18254 16.6488L24.2565 5.05978Z" fill="url(#paint3_linear_71_24102)"/>
<path d="M14.6137 22.4478C19.4047 19.7098 23.2987 21.9058 23.3137 27.3508C23.3297 32.8008 19.4607 39.4338 14.6697 42.1718C9.88268 44.9078 5.98968 42.7108 5.97368 37.2618C5.95868 31.8158 9.82668 25.1838 14.6137 22.4478Z" fill="white"/>
<path d="M15.912 27.5391C18.08 26.2871 19.844 27.2901 19.85 29.7821C19.857 32.2721 18.105 35.3061 15.937 36.5581C13.77 37.8091 12.007 36.8041 12 34.3151C11.993 31.8231 13.745 28.7901 15.912 27.5391ZM18.237 28.7991C18.294 28.6731 18.274 28.5561 18.192 28.5371C18.16 28.5291 18.124 28.5381 18.088 28.5591C18.031 28.5921 17.975 28.6551 17.941 28.7331L15.545 34.0851L13.869 33.5151C13.836 33.5031 13.796 33.5111 13.756 33.5341C13.703 33.5641 13.651 33.6211 13.616 33.6931C13.554 33.8181 13.566 33.9421 13.644 33.9681L15.623 34.6391L18.237 28.7991Z" fill="#FFD438"/>
<path d="M18.0877 28.5591C18.1237 28.5381 18.1597 28.5301 18.1917 28.5371C18.2727 28.5551 18.2927 28.6731 18.2367 28.7991L15.6227 34.6401L13.6437 33.9691C13.5657 33.9431 13.5537 33.8191 13.6157 33.6941C13.6507 33.6231 13.7027 33.5651 13.7557 33.5351C13.7957 33.5121 13.8357 33.5041 13.8687 33.5161L15.5447 34.0861L17.9407 28.7341C17.9747 28.6551 18.0307 28.5921 18.0877 28.5591Z" fill="url(#paint4_linear_71_24102)"/>
<path d="M19.9565 32.9018C19.9565 32.9018 19.6615 32.3848 19.1605 32.1228C18.6595 31.8608 16.8655 31.4008 16.9945 30.9088C17.1125 30.4568 18.0795 31.1498 18.1765 30.9208C18.3795 30.4438 15.7395 29.1818 15.8325 28.7788C15.9445 28.2998 17.2005 29.5268 17.2805 29.3408C17.3595 29.1538 17.6015 28.9878 17.7765 29.0368C17.9515 29.0868 17.9215 28.9268 18.1075 28.8348C18.2935 28.7428 18.3675 28.9548 18.4585 28.8738C18.5375 28.8028 18.7005 28.6998 18.9115 28.8158C19.1595 28.9518 20.2425 29.7178 20.4345 30.4488C20.7245 31.5538 21.2625 31.6698 21.2625 31.6698L19.9565 32.9018Z" fill="#F4AD9A"/>
<path d="M31.0802 41.9588C30.9972 42.2638 30.3282 43.0018 28.9122 42.5528C25.3892 41.4338 20.9632 36.6008 19.5522 33.1138C19.2822 32.4468 21.1332 30.9808 21.4292 31.4498C24.2022 35.8428 28.0952 37.9988 28.0952 37.9988C28.0952 37.9988 32.0602 38.3658 31.0802 41.9588Z" fill="#FFD438"/>
<path d="M33.3911 61.3638C35.8471 61.2728 36.5751 64.9118 36.1201 68.0958C35.6651 71.2798 34.6671 77.2798 35.1801 79.1948C35.8011 81.5148 35.7201 86.7438 35.2101 89.9748C34.6641 93.4318 36.3161 94.5138 35.2781 95.6608C34.4141 96.6158 28.7051 94.3188 28.7051 94.3188L29.2281 92.7948C29.2281 92.7948 31.5361 93.4428 32.1171 92.9318C33.0941 92.0698 30.8131 85.0778 30.7521 80.7408C30.6921 76.4808 30.7521 71.5528 31.2981 68.4598C31.8451 65.3668 33.3911 61.3638 33.3911 61.3638Z" fill="#F4AD9A"/>
<path d="M35.3933 93.6138C35.0373 93.6198 34.8443 94.0448 33.9753 94.3338C33.3843 94.5308 31.3223 94.5308 30.5333 94.1978C29.7453 93.8638 28.8603 93.0908 29.4283 92.8468C29.4613 92.8558 29.5033 92.8648 29.5623 92.8798C29.2403 92.6448 27.1253 92.4288 26.9783 92.6018C26.7203 92.9048 27.3723 94.5078 28.4113 94.8718C29.1813 95.1418 29.9603 95.0808 31.7853 95.4478C33.0283 95.6978 33.4763 96.2668 34.7723 96.1608C35.8043 96.0768 35.7803 95.1978 35.7273 94.4928C35.6673 93.6988 35.5193 93.6118 35.3933 93.6138Z" fill="url(#paint5_linear_71_24102)"/>
<path d="M28.7518 62.0458C31.2078 61.9548 31.9358 65.5938 31.4808 68.7778C31.0258 71.9618 30.0278 77.9618 30.5408 79.8768C31.1628 82.1968 31.0818 87.4258 30.5708 90.6568C30.0248 94.1138 31.6768 95.1958 30.6388 96.3428C29.7748 97.2978 24.0658 95.0008 24.0658 95.0008L24.0068 93.9188L24.5888 93.4768C24.5888 93.4768 26.8978 94.1248 27.4768 93.6138C28.4538 92.7518 26.1728 85.7598 26.1118 81.4228C26.0518 77.1628 26.1118 72.2348 26.6578 69.1408C27.2048 66.0488 28.7518 62.0458 28.7518 62.0458Z" fill="#FFC4B0"/>
<path d="M30.7531 94.2958C30.3961 94.3018 30.2041 94.7268 29.3351 95.0158C28.7441 95.2128 26.7281 95.0698 25.8931 94.8788C24.2521 94.5378 24.1731 93.4948 24.7881 93.5328C24.8181 93.5348 24.8641 93.5478 24.9231 93.5618C24.6001 93.3268 22.5351 93.2568 22.4381 93.4628C22.1881 93.9938 22.7921 95.0978 23.8311 95.4618C24.6011 95.7318 25.3191 95.7618 27.1441 96.1288C28.3871 96.3788 28.8351 96.9478 30.1311 96.8418C31.1631 96.7568 31.1391 95.8788 31.0861 95.1738C31.0271 94.3808 30.8791 94.2938 30.7531 94.2958Z" fill="url(#paint6_linear_71_24102)"/>
<path d="M26.8634 27.3988C25.6594 27.7928 25.1734 28.9458 25.1734 29.6128C25.1734 30.2798 25.3094 30.9778 25.2494 31.4628C25.1884 31.9478 25.0864 32.6788 25.0214 33.4188C24.9604 34.1168 25.3704 36.5328 26.9164 36.5428C28.1254 36.5508 27.3124 39.1258 27.3124 39.1258C27.3124 39.1258 28.5154 40.4168 29.9104 40.4168C31.3054 40.4168 32.6324 39.3178 32.6324 39.3178C32.6324 39.3178 31.3644 36.5948 31.6954 34.9848C32.0264 33.3748 31.6624 28.5228 31.6624 28.5228L26.8634 27.3988Z" fill="#FFC4B0"/>
<path d="M32.3889 43.6438C32.3479 43.5038 32.8859 43.3128 33.0109 43.3218C33.1359 43.3298 33.1729 43.5198 32.8439 43.6538C32.5189 43.7858 32.4149 43.7338 32.3889 43.6438Z" fill="#E2E2E2"/>
<path d="M25.7675 56.7018C25.3575 58.9608 24.8916 61.1068 25.1616 66.4218C25.3646 70.4298 25.5796 78.6148 24.9196 83.1868C24.2596 87.7588 35.4946 87.4578 36.5696 85.2388C37.6356 83.0388 35.7005 77.8288 35.7675 74.5118C35.9085 67.4778 38.6646 63.3498 36.1736 58.2888C34.8856 55.6728 34.8105 53.7018 34.8105 53.7018L25.7675 56.7018Z" fill="#FFB700"/>
<path d="M25.4694 55.6838C24.9574 57.5888 25.7244 58.5448 27.2784 58.9478C29.7244 59.5828 34.2144 58.9018 35.3194 58.0878C36.4334 57.2668 35.7074 55.2638 34.6794 54.9908C34.0554 54.8258 25.4694 55.6838 25.4694 55.6838Z" fill="#FBDCFC"/>
<path d="M34.8987 51.3558C34.8427 47.7998 35.2817 46.8248 35.2707 45.6788C35.1927 37.6978 33.0727 37.0318 32.3007 37.4928C31.8957 37.7348 31.7817 38.8628 30.3447 39.1318C29.3677 39.3138 27.9167 39.2318 27.2747 38.9498C26.8307 38.7548 25.6557 40.2228 23.8747 41.1788C22.9427 41.6788 24.0607 47.2628 24.0677 48.5818C24.0827 51.1448 25.9157 50.3748 25.3757 54.0828C25.2417 56.0178 25.7687 56.7028 27.0737 57.0838C28.7667 57.5788 33.3757 57.4778 34.9877 55.9588C35.8317 55.1618 34.9127 52.2258 34.8987 51.3558Z" fill="#FFB700"/>
<path d="M18.4823 60.1428C18.4823 60.1428 17.8053 61.6168 17.5203 61.8358C17.2353 62.0548 14.8543 64.4768 15.0583 64.7198C15.2063 64.8958 16.0273 64.0968 16.1433 64.1548C16.2593 64.2128 14.9173 65.2248 15.3253 65.5358C15.6503 65.7838 16.5733 64.2348 16.6593 64.3628C16.7453 64.4908 15.7423 65.4608 16.0413 65.6848C16.3613 65.9248 17.1443 64.3888 17.2903 64.4748C17.4373 64.5628 16.7953 65.1948 16.9383 65.3278C17.1383 65.5138 17.7263 65.0828 18.6493 63.4518C19.5103 61.9288 20.4053 61.0938 20.4053 61.0938L18.4823 60.1428Z" fill="#FFC4B0"/>
<path d="M22.5298 44.7188C22.6158 42.1828 23.6328 40.2938 25.4468 40.8298C27.5838 41.4608 26.7598 46.8688 26.3618 50.8238C26.2888 51.5488 26.1138 53.1548 25.3098 54.5998C24.1688 56.6528 20.5998 63.3568 19.1798 63.1238C18.4058 62.9968 17.1048 62.2258 17.2528 61.3618C17.8008 59.5588 22.0168 54.5608 22.2738 52.4978C22.5328 50.4348 22.4998 45.6148 22.5298 44.7188Z" fill="#FFD438"/>
<path d="M27.1318 33.3948C26.9938 32.9628 26.9388 32.5968 27.2048 32.4558C27.9648 32.0448 28.1718 30.9388 27.5438 30.7768C27.0568 30.6508 26.7918 31.3588 25.8888 31.1578C24.0588 30.7508 23.4298 28.4878 24.6678 27.1358C25.9578 25.7288 27.4168 26.5068 28.4448 26.6388C29.8548 26.8208 33.9498 25.3278 34.0468 30.3798C34.1368 35.0388 32.6298 36.7498 31.5458 36.9448C30.5118 37.1318 28.2258 36.8078 27.1318 33.3948Z" fill="#FA3A8C"/>
<path d="M33.1789 26.9118C33.1789 26.9118 31.4989 25.1918 30.5679 27.8208C29.9269 29.6318 30.6869 31.3968 31.5959 32.0998C32.5049 32.8028 33.3059 33.0178 34.3019 32.5098C35.2989 32.0018 33.1789 26.9118 33.1789 26.9118Z" fill="#FFD438"/>
<path d="M31.4252 29.0418C31.5842 26.7248 33.2322 24.9388 36.1882 25.6418C37.9282 26.0558 40.0342 28.4608 39.4122 32.3538C38.8992 35.5628 41.4432 36.8228 42.0602 39.4368C43.1542 44.0748 39.8522 46.7448 41.1612 49.3238C42.8052 52.5618 42.5642 56.5698 39.2362 56.9148C36.1292 57.2368 34.5822 53.9558 35.5332 51.8438C36.8132 49.0008 35.9632 46.3918 34.5942 44.6728C32.7812 42.3968 32.9922 39.6748 33.7262 37.7028C34.8102 34.7858 34.2332 33.3878 32.6122 31.8548C32.0702 31.3428 31.3372 30.3268 31.4252 29.0418Z" fill="#FA3A8C"/>
<defs>
<linearGradient id="paint0_linear_71_24102" x1="-8.51076" y1="10.3706" x2="32.8479" y2="52.0426" gradientUnits="userSpaceOnUse">
<stop stop-color="#FCFCFC"/>
<stop offset="1" stop-color="#BABDE8"/>
</linearGradient>
<linearGradient id="paint1_linear_71_24102" x1="11.1854" y1="6.08878" x2="21.9877" y2="12.6814" gradientUnits="userSpaceOnUse">
<stop stop-color="#7437BD"/>
<stop offset="1" stop-color="#2E0AA3"/>
</linearGradient>
<linearGradient id="paint2_linear_71_24102" x1="9.30539" y1="9.33658" x2="19.9594" y2="15.8386" gradientUnits="userSpaceOnUse">
<stop stop-color="#7437BD"/>
<stop offset="1" stop-color="#2E0AA3"/>
</linearGradient>
<linearGradient id="paint3_linear_71_24102" x1="-20.8166" y1="18.0483" x2="36.2867" y2="44.3675" gradientUnits="userSpaceOnUse">
<stop stop-color="#7437BD"/>
<stop offset="1" stop-color="#2E0AA3"/>
</linearGradient>
<linearGradient id="paint4_linear_71_24102" x1="11.5107" y1="30.8301" x2="18.7475" y2="31.8468" gradientUnits="userSpaceOnUse">
<stop stop-color="#7437BD"/>
<stop offset="1" stop-color="#2E0AA3"/>
</linearGradient>
<linearGradient id="paint5_linear_71_24102" x1="29.4281" y1="82.1951" x2="31.997" y2="97.6864" gradientUnits="userSpaceOnUse">
<stop stop-color="#7437BD"/>
<stop offset="1" stop-color="#2E0AA3"/>
</linearGradient>
<linearGradient id="paint6_linear_71_24102" x1="24.8309" y1="82.9572" x2="27.3998" y2="98.4488" gradientUnits="userSpaceOnUse">
<stop stop-color="#7437BD"/>
<stop offset="1" stop-color="#2E0AA3"/>
</linearGradient>
</defs>
</svg>
