<svg width="94" height="89" viewBox="0 0 94 89" fill="none" xmlns="http://www.w3.org/2000/svg">
<path d="M69.868 57.1266C69.862 57.1466 69.858 57.1676 69.85 57.1876C69.788 57.3646 69.696 57.5396 69.583 57.7096C69.563 57.7406 69.543 57.7706 69.521 57.8016C69.398 57.9706 69.25 58.1356 69.076 58.2926C68.963 58.3946 68.818 58.4876 68.683 58.5836C68.567 58.6666 68.468 58.7546 68.335 58.8316L39.072 75.8376C38.736 76.0326 38.359 76.1876 37.968 76.3226C37.83 76.3706 37.689 76.4116 37.546 76.4516C37.362 76.5036 37.176 76.5516 36.985 76.5916C36.76 76.6376 36.533 76.6806 36.301 76.7096C36.246 76.7166 36.192 76.7266 36.137 76.7326C35.825 76.7656 35.509 76.7826 35.193 76.7846C35.143 76.7846 35.093 76.7856 35.043 76.7856C34.731 76.7836 34.419 76.7656 34.111 76.7336C34.065 76.7286 34.019 76.7236 33.973 76.7186C33.667 76.6816 33.365 76.6306 33.071 76.5636C33.017 76.5516 32.965 76.5376 32.911 76.5246C32.643 76.4586 32.384 76.3786 32.133 76.2876C32.088 76.2716 32.04 76.2586 31.995 76.2416C31.694 76.1256 31.407 75.9916 31.141 75.8386L1.69099 58.8346C0.859989 58.3546 0.340989 57.7626 0.134989 57.1436C0.0659895 56.9376 0.0319883 56.7276 0.0329883 56.5186L0.000988681 67.8936C-0.00201132 68.7316 0.551989 69.5706 1.65999 70.2096L31.11 87.2126C31.363 87.3586 31.634 87.4876 31.918 87.5996C31.933 87.6056 31.949 87.6096 31.964 87.6156C32.009 87.6326 32.057 87.6456 32.102 87.6626C32.265 87.7216 32.428 87.7816 32.599 87.8306C32.691 87.8566 32.787 87.8766 32.881 87.8996C32.934 87.9126 32.986 87.9266 33.04 87.9386C33.089 87.9496 33.135 87.9636 33.184 87.9736C33.367 88.0116 33.553 88.0436 33.74 88.0706C33.806 88.0796 33.874 88.0846 33.941 88.0926C33.988 88.0986 34.034 88.1036 34.082 88.1086C34.15 88.1156 34.218 88.1256 34.286 88.1316C34.469 88.1466 34.654 88.1566 34.839 88.1616C34.896 88.1626 34.953 88.1606 35.011 88.1606C35.063 88.1606 35.114 88.1606 35.165 88.1596C35.248 88.1586 35.331 88.1616 35.414 88.1586C35.622 88.1516 35.83 88.1376 36.036 88.1176C36.059 88.1156 36.082 88.1106 36.105 88.1076C36.161 88.1016 36.216 88.0916 36.272 88.0846C36.432 88.0646 36.594 88.0466 36.751 88.0176C36.82 88.0056 36.884 87.9816 36.953 87.9676C37.145 87.9276 37.33 87.8796 37.515 87.8276C37.613 87.7996 37.717 87.7846 37.812 87.7536C37.857 87.7396 37.892 87.7146 37.936 87.6986C38.327 87.5636 38.703 87.4086 39.04 87.2136L68.303 70.2076C68.326 70.1946 68.349 70.1806 68.371 70.1676C68.478 70.1036 68.554 70.0286 68.65 69.9606C68.785 69.8646 68.93 69.7716 69.043 69.6696C69.054 69.6596 69.07 69.6516 69.08 69.6416C69.211 69.5206 69.327 69.3956 69.428 69.2676C69.451 69.2386 69.467 69.2076 69.488 69.1786C69.51 69.1476 69.53 69.1176 69.55 69.0866C69.584 69.0356 69.624 68.9856 69.653 68.9336C69.712 68.8286 69.762 68.7216 69.802 68.6146C69.808 68.5986 69.81 68.5816 69.816 68.5656C69.823 68.5446 69.827 68.5246 69.834 68.5036C69.855 68.4356 69.879 68.3676 69.893 68.2996C69.914 68.1926 69.927 68.0846 69.93 67.9776C69.931 67.9616 69.931 67.9446 69.931 67.9286L69.963 56.5536C69.964 56.7436 69.928 56.9366 69.868 57.1266Z" fill="url(#paint0_linear_71_22951)"/>
<path d="M68.3099 54.2376C70.5059 55.5056 70.5179 57.5636 68.3359 58.8316L39.0729 75.8376C36.8909 77.1056 33.3389 77.1056 31.1429 75.8376L1.69089 58.8346C-0.510112 57.5636 -0.521113 55.5066 1.66089 54.2386L30.9239 37.2326C33.1059 35.9646 36.6579 35.9646 38.8589 37.2356L68.3099 54.2376Z" fill="url(#paint1_linear_71_22951)"/>
<path d="M8.12121 67.6046C8.46121 67.8006 8.73421 68.2746 8.73321 68.6646L8.73121 69.5256C8.73021 69.9156 8.45421 70.0726 8.11521 69.8766L4.89521 68.0176C4.55521 67.8216 4.28221 67.3476 4.28321 66.9576L4.28521 66.0966C4.28621 65.7066 4.56221 65.5496 4.90121 65.7456L8.12121 67.6046Z" fill="#FCFCFC"/>
<path d="M26.8302 78.1216C27.1702 78.3176 27.4432 78.7916 27.4422 79.1816L27.4402 80.0426C27.4392 80.4326 27.1632 80.5896 26.8242 80.3936L23.6042 78.5346C23.2642 78.3386 22.9912 77.8646 22.9922 77.4746L22.9942 76.6136C22.9952 76.2236 23.2712 76.0666 23.6102 76.2626L26.8302 78.1216Z" fill="#FCFCFC"/>
<path d="M15.4809 70.6716C16.6139 71.3256 17.5349 72.9206 17.5309 74.2226C17.5269 75.5256 16.6009 76.0466 15.4669 75.3926C14.3329 74.7376 13.4179 73.1536 13.4219 71.8506C13.4259 70.5486 14.3469 70.0166 15.4809 70.6716Z" fill="#FCFCFC"/>
<path d="M11.0703 56.0466L35.0133 69.9606L59.1123 56.0476L35.1693 42.1336L11.0703 56.0466Z" fill="#FFD438"/>
<path d="M35.1693 44.4226L13.0463 57.1956L11.0703 56.0466L35.1693 42.1336L59.1123 56.0476L57.1363 57.1886L35.1693 44.4226Z" fill="#2E0AA3"/>
<g opacity="0.01">
<path opacity="0.9974" d="M10.6631 31.3506L35.0111 45.5006L59.5191 31.3516L35.1711 17.2016L10.6631 31.3506Z" fill="#FFFFFE"/>
</g>
<g opacity="0.0132">
<path opacity="0.9947" d="M10.666 31.5156L35.011 45.6636L59.516 31.5156L35.171 17.3676L10.666 31.5156Z" fill="#FFFEFC"/>
</g>
<g opacity="0.0199">
<path opacity="0.9921" d="M10.668 31.6806L35.011 45.8266L59.514 31.6806L35.171 17.5336L10.668 31.6806Z" fill="#FFFEFB"/>
</g>
<g opacity="0.0265">
<path opacity="0.9894" d="M10.6709 31.8446L35.0109 45.9896L59.5109 31.8456L35.1709 17.6996L10.6709 31.8446Z" fill="#FFFEFA"/>
</g>
<g opacity="0.0331">
<path opacity="0.9868" d="M10.6738 32.0096L35.0108 46.1526L59.5078 32.0096L35.1708 17.8666L10.6738 32.0096Z" fill="#FFFEF8"/>
</g>
<g opacity="0.0397">
<path opacity="0.9841" d="M10.6768 32.1746L35.0108 46.3156L59.5048 32.1746L35.1708 18.0326L10.6768 32.1746Z" fill="#FFFDF7"/>
</g>
<g opacity="0.0464">
<path opacity="0.9815" d="M10.6787 32.3386L35.0107 46.4796L59.5027 32.3396L35.1707 18.1986L10.6787 32.3386Z" fill="#FFFDF6"/>
</g>
<g opacity="0.053">
<path opacity="0.9788" d="M10.6826 32.5036L35.0116 46.6426L59.5006 32.5036L35.1716 18.3646L10.6826 32.5036Z" fill="#FFFDF4"/>
</g>
<g opacity="0.0596">
<path opacity="0.9762" d="M10.6855 32.6686L35.0115 46.8056L59.4975 32.6686L35.1715 18.5316L10.6855 32.6686Z" fill="#FFFCF3"/>
</g>
<g opacity="0.0662">
<path opacity="0.9735" d="M10.6875 32.8326L35.0115 46.9686L59.4955 32.8326L35.1715 18.6976L10.6875 32.8326Z" fill="#FFFCF2"/>
</g>
<g opacity="0.0728">
<path opacity="0.9709" d="M10.6904 32.9976L35.0114 47.1316L59.4924 32.9976L35.1714 18.8636L10.6904 32.9976Z" fill="#FFFCF1"/>
</g>
<g opacity="0.0795">
<path opacity="0.9682" d="M10.6934 33.1626L35.0114 47.2946L59.4894 33.1626L35.1714 19.0296L10.6934 33.1626Z" fill="#FFFCEF"/>
</g>
<g opacity="0.0861">
<path opacity="0.9656" d="M10.6963 33.3266L35.0113 47.4576L59.4873 33.3266L35.1713 19.1956L10.6963 33.3266Z" fill="#FFFBEE"/>
</g>
<g opacity="0.0927">
<path opacity="0.9629" d="M10.6982 33.4916L35.0112 47.6206L59.4842 33.4916L35.1712 19.3626L10.6982 33.4916Z" fill="#FFFBED"/>
</g>
<g opacity="0.0993">
<path opacity="0.9603" d="M10.7012 33.6556L35.0112 47.7836L59.4812 33.6566L35.1712 19.5286L10.7012 33.6556Z" fill="#FFFBEB"/>
</g>
<g opacity="0.106">
<path opacity="0.9576" d="M10.7041 33.8206L35.0111 47.9466L59.4781 33.8206L35.1711 19.6946L10.7041 33.8206Z" fill="#FFFAEA"/>
</g>
<g opacity="0.1126">
<path opacity="0.955" d="M10.7061 33.9856L35.0111 48.1096L59.4761 33.9856L35.1711 19.8606L10.7061 33.9856Z" fill="#FFFAE9"/>
</g>
<g opacity="0.1192">
<path opacity="0.9523" d="M10.709 34.1496L35.011 48.2726L59.473 34.1496L35.171 20.0276L10.709 34.1496Z" fill="#FFFAE7"/>
</g>
<g opacity="0.1258">
<path opacity="0.9497" d="M10.7119 34.3146L35.0109 48.4356L59.4699 34.3146L35.1699 20.1936L10.7119 34.3146Z" fill="#FFFAE6"/>
</g>
<g opacity="0.1324">
<path opacity="0.947" d="M10.7139 34.4796L35.0109 48.5986L59.4669 34.4796L35.1699 20.3596L10.7139 34.4796Z" fill="#FFF9E5"/>
</g>
<g opacity="0.1391">
<path opacity="0.9444" d="M10.7168 34.6436L35.0108 48.7626L59.4648 34.6436L35.1698 20.5256L10.7168 34.6436Z" fill="#FFF9E3"/>
</g>
<g opacity="0.1457">
<path opacity="0.9417" d="M10.7197 34.8086L35.0107 48.9256L59.4617 34.8086L35.1697 20.6916L10.7197 34.8086Z" fill="#FFF9E2"/>
</g>
<g opacity="0.1523">
<path opacity="0.9391" d="M10.7236 34.9736L35.0116 49.0886L59.4596 34.9736L35.1706 20.8586L10.7236 34.9736Z" fill="#FFF8E1"/>
</g>
<g opacity="0.1589">
<path opacity="0.9364" d="M10.7256 35.1376L35.0126 49.2516L59.4576 35.1376L35.1706 21.0246L10.7256 35.1376Z" fill="#FFF8DF"/>
</g>
<g opacity="0.1656">
<path opacity="0.9338" d="M10.7285 35.3026L35.0125 49.4146L59.4545 35.3026L35.1705 21.1906L10.7285 35.3026Z" fill="#FFF8DE"/>
</g>
<g opacity="0.1722">
<path opacity="0.9311" d="M10.7314 35.4666L35.0124 49.5776L59.4514 35.4676L35.1704 21.3566L10.7314 35.4666Z" fill="#FFF8DD"/>
</g>
<g opacity="0.1788">
<path opacity="0.9285" d="M10.7334 35.6316L35.0124 49.7406L59.4484 35.6316L35.1704 21.5226L10.7334 35.6316Z" fill="#FFF7DB"/>
</g>
<g opacity="0.1854">
<path opacity="0.9258" d="M10.7363 35.7966L35.0123 49.9036L59.4463 35.7966L35.1703 21.6896L10.7363 35.7966Z" fill="#FFF7DA"/>
</g>
<g opacity="0.1921">
<path opacity="0.9232" d="M10.7393 35.9606L35.0123 50.0666L59.4433 35.9616L35.1703 21.8556L10.7393 35.9606Z" fill="#FFF7D9"/>
</g>
<g opacity="0.1987">
<path opacity="0.9205" d="M10.7422 36.1256L35.0122 50.2296L59.4402 36.1256L35.1702 22.0216L10.7422 36.1256Z" fill="#FFF6D7"/>
</g>
<g opacity="0.2053">
<path opacity="0.9179" d="M10.7441 36.2906L35.0121 50.3926L59.4381 36.2906L35.1701 22.1876L10.7441 36.2906Z" fill="#FFF6D6"/>
</g>
<g opacity="0.2119">
<path opacity="0.9152" d="M10.7471 36.4546L35.0121 50.5556L59.4351 36.4556L35.1701 22.3546L10.7471 36.4546Z" fill="#FFF6D5"/>
</g>
<g opacity="0.2185">
<path opacity="0.9126" d="M10.75 36.6196L35.012 50.7186L59.432 36.6196L35.17 22.5206L10.75 36.6196Z" fill="#FFF6D4"/>
</g>
<g opacity="0.2252">
<path opacity="0.9099" d="M10.7529 36.7836L35.0119 50.8816L59.4299 36.7846L35.1699 22.6866L10.7529 36.7836Z" fill="#FFF5D2"/>
</g>
<g opacity="0.2318">
<path opacity="0.9073" d="M10.7549 36.9486L35.0119 51.0446L59.4269 36.9486L35.1699 22.8526L10.7549 36.9486Z" fill="#FFF5D1"/>
</g>
<g opacity="0.2384">
<path opacity="0.9046" d="M10.7578 37.1136L35.0118 51.2086L59.4238 37.1136L35.1698 23.0186L10.7578 37.1136Z" fill="#FFF5D0"/>
</g>
<g opacity="0.245">
<path opacity="0.902" d="M10.7607 37.2776L35.0117 51.3716L59.4207 37.2786L35.1697 23.1846L10.7607 37.2776Z" fill="#FFF4CE"/>
</g>
<g opacity="0.2517">
<path opacity="0.8993" d="M10.7627 37.4426L35.0117 51.5346L59.4187 37.4426L35.1697 23.3516L10.7627 37.4426Z" fill="#FFF4CD"/>
</g>
<g opacity="0.2583">
<path opacity="0.8967" d="M10.7666 37.6076L35.0126 51.6976L59.4166 37.6076L35.1706 23.5176L10.7666 37.6076Z" fill="#FFF4CC"/>
</g>
<g opacity="0.2649">
<path opacity="0.894" d="M10.7695 37.7716L35.0125 51.8606L59.4135 37.7726L35.1705 23.6836L10.7695 37.7716Z" fill="#FFF4CA"/>
</g>
<g opacity="0.2715">
<path opacity="0.8914" d="M10.7725 37.9366L35.0125 52.0236L59.4105 37.9366L35.1705 23.8496L10.7725 37.9366Z" fill="#FFF3C9"/>
</g>
<g opacity="0.2781">
<path opacity="0.8887" d="M10.7744 38.1016L35.0124 52.1866L59.4084 38.1016L35.1704 24.0166L10.7744 38.1016Z" fill="#FFF3C8"/>
</g>
<g opacity="0.2848">
<path opacity="0.8861" d="M10.7773 38.2656L35.0123 52.3496L59.4053 38.2666L35.1703 24.1826L10.7773 38.2656Z" fill="#FFF3C6"/>
</g>
<g opacity="0.2914">
<path opacity="0.8834" d="M10.7803 38.4306L35.0123 52.5126L59.4023 38.4306L35.1703 24.3486L10.7803 38.4306Z" fill="#FFF2C5"/>
</g>
<g opacity="0.298">
<path opacity="0.8808" d="M10.7822 38.5956L35.0122 52.6756L59.4002 38.5956L35.1702 24.5146L10.7822 38.5956Z" fill="#FFF2C4"/>
</g>
<g opacity="0.3046">
<path opacity="0.8781" d="M10.7852 38.7596L35.0122 52.8386L59.3972 38.7596L35.1702 24.6806L10.7852 38.7596Z" fill="#FFF2C2"/>
</g>
<g opacity="0.3113">
<path opacity="0.8755" d="M10.7881 38.9246L35.0121 53.0016L59.3941 38.9246L35.1701 24.8476L10.7881 38.9246Z" fill="#FFF2C1"/>
</g>
<g opacity="0.3179">
<path opacity="0.8728" d="M10.79 39.0896L35.012 53.1646L59.392 39.0896L35.17 25.0136L10.79 39.0896Z" fill="#FFF1C0"/>
</g>
<g opacity="0.3245">
<path opacity="0.8702" d="M10.793 39.2536L35.012 53.3286L59.389 39.2536L35.17 25.1796L10.793 39.2536Z" fill="#FFF1BE"/>
</g>
<g opacity="0.3311">
<path opacity="0.8676" d="M10.7959 39.4186L35.0119 53.4906L59.3859 39.4186L35.1699 25.3456L10.7959 39.4186Z" fill="#FFF1BD"/>
</g>
<g opacity="0.3377">
<path opacity="0.8649" d="M10.7988 39.5826L35.0118 53.6546L59.3828 39.5836L35.1698 25.5126L10.7988 39.5826Z" fill="#FFF0BC"/>
</g>
<g opacity="0.3444">
<path opacity="0.8623" d="M10.8008 39.7476L35.0118 53.8176L59.3808 39.7476L35.1698 25.6786L10.8008 39.7476Z" fill="#FFF0BA"/>
</g>
<g opacity="0.351">
<path opacity="0.8596" d="M10.8037 39.9126L35.0117 53.9806L59.3777 39.9126L35.1697 25.8446L10.8037 39.9126Z" fill="#FFF0B9"/>
</g>
<g opacity="0.3576">
<path opacity="0.857" d="M10.8076 40.0766L35.0126 54.1436L59.3756 40.0776L35.1706 26.0106L10.8076 40.0766Z" fill="#FFF0B8"/>
</g>
<g opacity="0.3642">
<path opacity="0.8543" d="M10.8096 40.2416L35.0126 54.3066L59.3736 40.2416L35.1706 26.1766L10.8096 40.2416Z" fill="#FFEFB7"/>
</g>
<g opacity="0.3709">
<path opacity="0.8517" d="M10.8125 40.4066L35.0125 54.4696L59.3705 40.4066L35.1705 26.3436L10.8125 40.4066Z" fill="#FFEFB5"/>
</g>
<g opacity="0.3775">
<path opacity="0.849" d="M10.8154 40.5706L35.0124 54.6326L59.3674 40.5706L35.1704 26.5096L10.8154 40.5706Z" fill="#FFEFB4"/>
</g>
<g opacity="0.3841">
<path opacity="0.8464" d="M10.8184 40.7356L35.0124 54.7956L59.3644 40.7356L35.1704 26.6756L10.8184 40.7356Z" fill="#FFEEB3"/>
</g>
<g opacity="0.3907">
<path opacity="0.8437" d="M10.8203 40.8996L35.0123 54.9586L59.3623 40.9006L35.1703 26.8416L10.8203 40.8996Z" fill="#FFEEB1"/>
</g>
<g opacity="0.3974">
<path opacity="0.8411" d="M10.8232 41.0646L35.0122 55.1216L59.3592 41.0646L35.1702 27.0076L10.8232 41.0646Z" fill="#FFEEB0"/>
</g>
<g opacity="0.404">
<path opacity="0.8384" d="M10.8262 41.2296L35.0122 55.2846L59.3562 41.2296L35.1702 27.1746L10.8262 41.2296Z" fill="#FFEEAF"/>
</g>
<g opacity="0.4106">
<path opacity="0.8358" d="M10.8291 41.3936L35.0121 55.4476L59.3541 41.3946L35.1701 27.3406L10.8291 41.3936Z" fill="#FFEDAD"/>
</g>
<g opacity="0.4172">
<path opacity="0.8331" d="M10.8311 41.5586L35.0121 55.6106L59.3511 41.5586L35.1701 27.5066L10.8311 41.5586Z" fill="#FFEDAC"/>
</g>
<g opacity="0.4238">
<path opacity="0.8305" d="M10.834 41.7236L35.012 55.7746L59.348 41.7236L35.17 27.6726L10.834 41.7236Z" fill="#FFEDAB"/>
</g>
<g opacity="0.4305">
<path opacity="0.8278" d="M10.8369 41.8876L35.0119 55.9376L59.3449 41.8886L35.1699 27.8396L10.8369 41.8876Z" fill="#FFECA9"/>
</g>
<g opacity="0.4371">
<path opacity="0.8252" d="M10.8389 42.0526L35.0119 56.1006L59.3429 42.0526L35.1699 28.0056L10.8389 42.0526Z" fill="#FFECA8"/>
</g>
<g opacity="0.4437">
<path opacity="0.8225" d="M10.8418 42.2176L35.0118 56.2636L59.3398 42.2176L35.1698 28.1716L10.8418 42.2176Z" fill="#FFECA7"/>
</g>
<g opacity="0.4503">
<path opacity="0.8199" d="M10.8447 42.3816L35.0117 56.4266L59.3367 42.3826L35.1697 28.3376L10.8447 42.3816Z" fill="#FFECA5"/>
</g>
<g opacity="0.457">
<path opacity="0.8172" d="M10.8486 42.5466L35.0126 56.5896L59.3356 42.5466L35.1706 28.5036L10.8486 42.5466Z" fill="#FFEBA4"/>
</g>
<g opacity="0.4636">
<path opacity="0.8146" d="M10.8506 42.7116L35.0126 56.7526L59.3326 42.7116L35.1706 28.6706L10.8506 42.7116Z" fill="#FFEBA3"/>
</g>
<g opacity="0.4702">
<path opacity="0.8119" d="M10.8535 42.8756L35.0125 56.9156L59.3295 42.8756L35.1705 28.8366L10.8535 42.8756Z" fill="#FFEBA1"/>
</g>
<g opacity="0.4768">
<path opacity="0.8093" d="M10.8564 43.0406L35.0124 57.0786L59.3264 43.0406L35.1704 29.0026L10.8564 43.0406Z" fill="#FFEAA0"/>
</g>
<g opacity="0.4834">
<path opacity="0.8066" d="M10.8584 43.2056L35.0124 57.2416L59.3244 43.2056L35.1704 29.1686L10.8584 43.2056Z" fill="#FFEA9F"/>
</g>
<g opacity="0.4901">
<path opacity="0.804" d="M10.8613 43.3696L35.0123 57.4046L59.3213 43.3696L35.1703 29.3356L10.8613 43.3696Z" fill="#FFEA9D"/>
</g>
<g opacity="0.4967">
<path opacity="0.8013" d="M10.8643 43.5346L35.0123 57.5676L59.3183 43.5346L35.1703 29.5016L10.8643 43.5346Z" fill="#FFEA9C"/>
</g>
<g opacity="0.5033">
<path opacity="0.7987" d="M10.8662 43.6986L35.0122 57.7306L59.3162 43.6996L35.1702 29.6676L10.8662 43.6986Z" fill="#FFE99B"/>
</g>
<g opacity="0.5099">
<path opacity="0.796" d="M10.8691 43.8636L35.0121 57.8936L59.3131 43.8636L35.1701 29.8336L10.8691 43.8636Z" fill="#FFE99A"/>
</g>
<g opacity="0.5166">
<path opacity="0.7934" d="M10.8721 44.0286L35.0121 58.0576L59.3101 44.0286L35.1701 29.9996L10.8721 44.0286Z" fill="#FFE998"/>
</g>
<g opacity="0.5232">
<path opacity="0.7907" d="M10.875 44.1926L35.012 58.2206L59.307 44.1936L35.17 30.1656L10.875 44.1926Z" fill="#FFE997"/>
</g>
<g opacity="0.5298">
<path opacity="0.7881" d="M10.877 44.3576L35.012 58.3836L59.305 44.3576L35.17 30.3326L10.877 44.3576Z" fill="#FFE896"/>
</g>
<g opacity="0.5364">
<path opacity="0.7854" d="M10.8799 44.5226L35.0119 58.5466L59.3019 44.5226L35.1699 30.4986L10.8799 44.5226Z" fill="#FFE894"/>
</g>
<g opacity="0.543">
<path opacity="0.7828" d="M10.8828 44.6866L35.0118 58.7096L59.2988 44.6866L35.1698 30.6646L10.8828 44.6866Z" fill="#FFE893"/>
</g>
<g opacity="0.5497">
<path opacity="0.7801" d="M10.8848 44.8516L35.0118 58.8726L59.2968 44.8516L35.1698 30.8306L10.8848 44.8516Z" fill="#FFE792"/>
</g>
<g opacity="0.5563">
<path opacity="0.7775" d="M10.8877 45.0166L35.0117 59.0356L59.2937 45.0166L35.1697 30.9976L10.8877 45.0166Z" fill="#FFE790"/>
</g>
<g opacity="0.5629">
<path opacity="0.7748" d="M10.8916 45.1806L35.0126 59.1986L59.2916 45.1806L35.1706 31.1636L10.8916 45.1806Z" fill="#FFE78F"/>
</g>
<g opacity="0.5695">
<path opacity="0.7722" d="M10.8945 45.3456L35.0125 59.3616L59.2895 45.3456L35.1705 31.3296L10.8945 45.3456Z" fill="#FFE78E"/>
</g>
<g opacity="0.5762">
<path opacity="0.7695" d="M10.8965 45.5096L35.0125 59.5246L59.2865 45.5106L35.1705 31.4956L10.8965 45.5096Z" fill="#FFE68C"/>
</g>
<g opacity="0.5828">
<path opacity="0.7669" d="M10.8994 45.6746L35.0124 59.6876L59.2834 45.6746L35.1704 31.6626L10.8994 45.6746Z" fill="#FFE68B"/>
</g>
<g opacity="0.5894">
<path opacity="0.7642" d="M10.9023 45.8396L35.0123 59.8506L59.2803 45.8396L35.1703 31.8286L10.9023 45.8396Z" fill="#FFE68A"/>
</g>
<g opacity="0.596">
<path opacity="0.7616" d="M10.9043 46.0036L35.0123 60.0136L59.2783 46.0046L35.1703 31.9946L10.9043 46.0036Z" fill="#FFE588"/>
</g>
<g opacity="0.6026">
<path opacity="0.7589" d="M10.9072 46.1686L35.0122 60.1766L59.2752 46.1686L35.1702 32.1606L10.9072 46.1686Z" fill="#FFE587"/>
</g>
<g opacity="0.6093">
<path opacity="0.7563" d="M10.9102 46.3336L35.0122 60.3396L59.2722 46.3336L35.1702 32.3266L10.9102 46.3336Z" fill="#FFE586"/>
</g>
<g opacity="0.6159">
<path opacity="0.7536" d="M10.9131 46.4976L35.0121 60.5036L59.2691 46.4976L35.1701 32.4926L10.9131 46.4976Z" fill="#FFE584"/>
</g>
<g opacity="0.6225">
<path opacity="0.751" d="M10.915 46.6626L35.012 60.6666L59.267 46.6626L35.17 32.6596L10.915 46.6626Z" fill="#FFE483"/>
</g>
<g opacity="0.6291">
<path opacity="0.7483" d="M10.918 46.8276L35.012 60.8296L59.264 46.8276L35.17 32.8256L10.918 46.8276Z" fill="#FFE482"/>
</g>
<g opacity="0.6358">
<path opacity="0.7457" d="M10.9209 46.9916L35.0119 60.9926L59.2609 46.9916L35.1699 32.9916L10.9209 46.9916Z" fill="#FFE480"/>
</g>
<g opacity="0.6424">
<path opacity="0.743" d="M10.9229 47.1566L35.0119 61.1556L59.2589 47.1566L35.1699 33.1576L10.9229 47.1566Z" fill="#FFE37F"/>
</g>
<g opacity="0.649">
<path opacity="0.7404" d="M10.9258 47.3206L35.0118 61.3186L59.2558 47.3216L35.1698 33.3246L10.9258 47.3206Z" fill="#FFE37E"/>
</g>
<g opacity="0.6556">
<path opacity="0.7377" d="M10.9287 47.4856L35.0117 61.4816L59.2527 47.4856L35.1697 33.4906L10.9287 47.4856Z" fill="#FFE37D"/>
</g>
<g opacity="0.6623">
<path opacity="0.7351" d="M10.9326 47.6506L35.0126 61.6446L59.2516 47.6506L35.1706 33.6566L10.9326 47.6506Z" fill="#FFE37B"/>
</g>
<g opacity="0.6689">
<path opacity="0.7325" d="M10.9346 47.8146L35.0126 61.8076L59.2486 47.8156L35.1706 33.8226L10.9346 47.8146Z" fill="#FFE27A"/>
</g>
<g opacity="0.6755">
<path opacity="0.7298" d="M10.9375 47.9796L35.0125 61.9706L59.2455 47.9796L35.1705 33.9886L10.9375 47.9796Z" fill="#FFE279"/>
</g>
<g opacity="0.6821">
<path opacity="0.7272" d="M10.9404 48.1446L35.0124 62.1336L59.2424 48.1446L35.1704 34.1556L10.9404 48.1446Z" fill="#FFE277"/>
</g>
<g opacity="0.6887">
<path opacity="0.7245" d="M10.9424 48.3086L35.0124 62.2966L59.2404 48.3096L35.1704 34.3216L10.9424 48.3086Z" fill="#FFE176"/>
</g>
<g opacity="0.6954">
<path opacity="0.7219" d="M10.9453 48.4736L35.0123 62.4596L59.2373 48.4736L35.1703 34.4876L10.9453 48.4736Z" fill="#FFE175"/>
</g>
<g opacity="0.702">
<path opacity="0.7192" d="M10.9482 48.6386L35.0122 62.6226L59.2342 48.6386L35.1702 34.6536L10.9482 48.6386Z" fill="#FFE173"/>
</g>
<g opacity="0.7086">
<path opacity="0.7166" d="M10.9512 48.8026L35.0122 62.7856L59.2312 48.8026L35.1702 34.8206L10.9512 48.8026Z" fill="#FFE172"/>
</g>
<g opacity="0.7152">
<path opacity="0.7139" d="M10.9531 48.9676L35.0121 62.9496L59.2291 48.9676L35.1701 34.9866L10.9531 48.9676Z" fill="#FFE071"/>
</g>
<g opacity="0.7219">
<path opacity="0.7113" d="M10.9561 49.1326L35.0121 63.1126L59.2261 49.1326L35.1701 35.1526L10.9561 49.1326Z" fill="#FFE06F"/>
</g>
<g opacity="0.7285">
<path opacity="0.7086" d="M10.959 49.2966L35.012 63.2756L59.223 49.2966L35.17 35.3186L10.959 49.2966Z" fill="#FFE06E"/>
</g>
<g opacity="0.7351">
<path opacity="0.706" d="M10.9609 49.4616L35.0119 63.4386L59.2209 49.4616L35.1699 35.4846L10.9609 49.4616Z" fill="#FFDF6D"/>
</g>
<g opacity="0.7417">
<path opacity="0.7033" d="M10.9639 49.6266L35.0119 63.6016L59.2179 49.6266L35.1699 35.6516L10.9639 49.6266Z" fill="#FFDF6B"/>
</g>
<g opacity="0.7483">
<path opacity="0.7007" d="M10.9668 49.7906L35.0118 63.7646L59.2148 49.7906L35.1698 35.8176L10.9668 49.7906Z" fill="#FFDF6A"/>
</g>
<g opacity="0.755">
<path opacity="0.698" d="M10.9697 49.9556L35.0117 63.9276L59.2117 49.9556L35.1697 35.9836L10.9697 49.9556Z" fill="#FFDF69"/>
</g>
<g opacity="0.7616">
<path opacity="0.6954" d="M10.9717 50.1196L35.0117 64.0906L59.2097 50.1206L35.1697 36.1496L10.9717 50.1196Z" fill="#FFDE67"/>
</g>
<g opacity="0.7682">
<path opacity="0.6927" d="M10.9756 50.2846L35.0126 64.2536L59.2076 50.2846L35.1706 36.3156L10.9756 50.2846Z" fill="#FFDE66"/>
</g>
<g opacity="0.7748">
<path opacity="0.6901" d="M10.9785 50.4496L35.0125 64.4166L59.2045 50.4496L35.1705 36.4826L10.9785 50.4496Z" fill="#FFDE65"/>
</g>
<g opacity="0.7815">
<path opacity="0.6874" d="M10.9805 50.6136L35.0125 64.5796L59.2025 50.6136L35.1705 36.6486L10.9805 50.6136Z" fill="#FFDD63"/>
</g>
<g opacity="0.7881">
<path opacity="0.6848" d="M10.9834 50.7786L35.0124 64.7426L59.1994 50.7786L35.1704 36.8146L10.9834 50.7786Z" fill="#FFDD62"/>
</g>
<g opacity="0.7947">
<path opacity="0.6821" d="M10.9863 50.9436L35.0123 64.9056L59.1963 50.9436L35.1703 36.9806L10.9863 50.9436Z" fill="#FFDD61"/>
</g>
<g opacity="0.8013">
<path opacity="0.6795" d="M10.9893 51.1076L35.0123 65.0686L59.1943 51.1076L35.1703 37.1476L10.9893 51.1076Z" fill="#FFDD60"/>
</g>
<g opacity="0.8079">
<path opacity="0.6768" d="M10.9912 51.2726L35.0122 65.2316L59.1912 51.2726L35.1702 37.3136L10.9912 51.2726Z" fill="#FFDC5E"/>
</g>
<g opacity="0.8146">
<path opacity="0.6742" d="M10.9941 51.4366L35.0121 65.3956L59.1881 51.4376L35.1701 37.4796L10.9941 51.4366Z" fill="#FFDC5D"/>
</g>
<g opacity="0.8212">
<path opacity="0.6715" d="M10.9971 51.6016L35.0121 65.5586L59.1851 51.6016L35.1701 37.6456L10.9971 51.6016Z" fill="#FFDC5C"/>
</g>
<g opacity="0.8278">
<path opacity="0.6689" d="M10.999 51.7666L35.012 65.7216L59.183 51.7666L35.17 37.8116L10.999 51.7666Z" fill="#FFDB5A"/>
</g>
<g opacity="0.8344">
<path opacity="0.6662" d="M11.002 51.9306L35.012 65.8846L59.18 51.9316L35.17 37.9786L11.002 51.9306Z" fill="#FFDB59"/>
</g>
<g opacity="0.8411">
<path opacity="0.6636" d="M11.0049 52.0956L35.0119 66.0476L59.1769 52.0956L35.1699 38.1446L11.0049 52.0956Z" fill="#FFDB58"/>
</g>
<g opacity="0.8477">
<path opacity="0.6609" d="M11.0078 52.2606L35.0118 66.2106L59.1738 52.2606L35.1698 38.3106L11.0078 52.2606Z" fill="#FFDB56"/>
</g>
<g opacity="0.8543">
<path opacity="0.6583" d="M11.0098 52.4246L35.0118 66.3736L59.1718 52.4256L35.1698 38.4766L11.0098 52.4246Z" fill="#FFDA55"/>
</g>
<g opacity="0.8609">
<path opacity="0.6556" d="M11.0127 52.5896L35.0117 66.5366L59.1687 52.5896L35.1697 38.6436L11.0127 52.5896Z" fill="#FFDA54"/>
</g>
<g opacity="0.8676">
<path opacity="0.653" d="M11.0166 52.7546L35.0126 66.6996L59.1666 52.7546L35.1706 38.8096L11.0166 52.7546Z" fill="#FFDA52"/>
</g>
<g opacity="0.8742">
<path opacity="0.6503" d="M11.0186 52.9186L35.0126 66.8626L59.1646 52.9196L35.1706 38.9756L11.0186 52.9186Z" fill="#FFD951"/>
</g>
<g opacity="0.8808">
<path opacity="0.6477" d="M11.0215 53.0836L35.0125 67.0256L59.1615 53.0836L35.1705 39.1416L11.0215 53.0836Z" fill="#FFD950"/>
</g>
<g opacity="0.8874">
<path opacity="0.645" d="M11.0244 53.2476L35.0134 67.1886L59.1584 53.2486L35.1704 39.3076L11.0244 53.2476Z" fill="#FFD94E"/>
</g>
<g opacity="0.894">
<path opacity="0.6424" d="M11.0273 53.4126L35.0133 67.3516L59.1563 53.4126L35.1703 39.4736L11.0273 53.4126Z" fill="#FFD94D"/>
</g>
<g opacity="0.9007">
<path opacity="0.6397" d="M11.0293 53.5776L35.0133 67.5146L59.1533 53.5776L35.1703 39.6406L11.0293 53.5776Z" fill="#FFD84C"/>
</g>
<g opacity="0.9073">
<path opacity="0.6371" d="M11.0322 53.7426L35.0132 67.6776L59.1502 53.7426L35.1702 39.8066L11.0322 53.7426Z" fill="#FFD84A"/>
</g>
<g opacity="0.9139">
<path opacity="0.6344" d="M11.0352 53.9066L35.0132 67.8416L59.1472 53.9066L35.1702 39.9726L11.0352 53.9066Z" fill="#FFD849"/>
</g>
<g opacity="0.9205">
<path opacity="0.6318" d="M11.0371 54.0716L35.0131 68.0046L59.1451 54.0716L35.1701 40.1386L11.0371 54.0716Z" fill="#FFD748"/>
</g>
<g opacity="0.9272">
<path opacity="0.6291" d="M11.04 54.2356L35.013 68.1676L59.142 54.2366L35.17 40.3056L11.04 54.2356Z" fill="#FFD746"/>
</g>
<g opacity="0.9338">
<path opacity="0.6265" d="M11.043 54.4006L35.013 68.3306L59.139 54.4006L35.17 40.4716L11.043 54.4006Z" fill="#FFD745"/>
</g>
<g opacity="0.9404">
<path opacity="0.6238" d="M11.0459 54.5656L35.0129 68.4936L59.1369 54.5656L35.1699 40.6376L11.0459 54.5656Z" fill="#FFD744"/>
</g>
<g opacity="0.947">
<path opacity="0.6212" d="M11.0479 54.7296L35.0129 68.6566L59.1339 54.7296L35.1699 40.8036L11.0479 54.7296Z" fill="#FFD643"/>
</g>
<g opacity="0.9536">
<path opacity="0.6185" d="M11.0508 54.8946L35.0128 68.8196L59.1308 54.8946L35.1698 40.9706L11.0508 54.8946Z" fill="#FFD641"/>
</g>
<g opacity="0.9603">
<path opacity="0.6159" d="M11.0537 55.0596L35.0127 68.9826L59.1277 55.0596L35.1697 41.1366L11.0537 55.0596Z" fill="#FFD640"/>
</g>
<g opacity="0.9669">
<path opacity="0.6132" d="M11.0566 55.2236L35.0136 69.1456L59.1266 55.2236L35.1706 41.3026L11.0566 55.2236Z" fill="#FFD53F"/>
</g>
<g opacity="0.9735">
<path opacity="0.6106" d="M11.0596 55.3886L35.0136 69.3086L59.1236 55.3886L35.1706 41.4686L11.0596 55.3886Z" fill="#FFD53D"/>
</g>
<g opacity="0.9801">
<path opacity="0.6079" d="M11.0625 55.5526L35.0135 69.4716L59.1205 55.5536L35.1705 41.6346L11.0625 55.5526Z" fill="#FFD53C"/>
</g>
<g opacity="0.9868">
<path opacity="0.6053" d="M11.0654 55.7176L35.0134 69.6346L59.1184 55.7176L35.1694 41.8006L11.0654 55.7176Z" fill="#FFD53B"/>
</g>
<g opacity="0.9934">
<path opacity="0.6026" d="M11.0674 55.8826L35.0134 69.7976L59.1154 55.8826L35.1694 41.9676L11.0674 55.8826Z" fill="#FFD439"/>
</g>
<path opacity="0.6" d="M11.0703 56.0466L35.0133 69.9606L59.1123 56.0476L35.1693 42.1336L11.0703 56.0466Z" fill="#FFD438"/>
<path d="M69.868 20.8446C69.862 20.8646 69.858 20.8856 69.85 20.9056C69.788 21.0826 69.696 21.2576 69.583 21.4276C69.563 21.4586 69.543 21.4896 69.521 21.5196C69.398 21.6886 69.25 21.8526 69.076 22.0106C68.963 22.1126 68.818 22.2056 68.683 22.3016C68.567 22.3846 68.468 22.4726 68.335 22.5496L39.072 39.5556C38.736 39.7506 38.359 39.9056 37.969 40.0406C37.831 40.0886 37.689 40.1296 37.546 40.1696C37.361 40.2216 37.175 40.2706 36.983 40.3096C36.758 40.3556 36.531 40.3976 36.3 40.4266C36.246 40.4336 36.192 40.4436 36.137 40.4496C35.825 40.4826 35.509 40.4996 35.193 40.5026C35.143 40.5026 35.093 40.5036 35.043 40.5036C34.731 40.5016 34.419 40.4846 34.111 40.4516C34.065 40.4466 34.019 40.4416 33.973 40.4366C33.667 40.3996 33.365 40.3486 33.071 40.2816C33.017 40.2696 32.964 40.2556 32.911 40.2426C32.644 40.1766 32.386 40.0976 32.136 40.0066C32.09 39.9896 32.041 39.9766 31.995 39.9586C31.695 39.8426 31.407 39.7096 31.142 39.5556L1.69101 22.5526C0.583012 21.9126 0.0300117 21.0736 0.0320117 20.2366L1.21185e-05 31.6116C-0.00298788 32.4496 0.551013 33.2886 1.65901 33.9276L31.109 50.9306C31.362 51.0766 31.633 51.2056 31.917 51.3186C31.932 51.3246 31.948 51.3286 31.963 51.3346C32.007 51.3516 32.054 51.3636 32.099 51.3806C32.263 51.4396 32.426 51.5006 32.598 51.5486C32.69 51.5746 32.786 51.5946 32.88 51.6176C32.933 51.6306 32.985 51.6446 33.038 51.6566C33.087 51.6676 33.133 51.6816 33.183 51.6916C33.366 51.7296 33.552 51.7616 33.739 51.7886C33.806 51.7986 33.873 51.8026 33.94 51.8116C33.987 51.8176 34.032 51.8226 34.079 51.8276C34.147 51.8346 34.215 51.8446 34.284 51.8506C34.467 51.8656 34.652 51.8756 34.837 51.8796C34.895 51.8806 34.952 51.8786 35.01 51.8786C35.061 51.8786 35.111 51.8786 35.162 51.8776C35.245 51.8766 35.329 51.8796 35.412 51.8766C35.62 51.8696 35.828 51.8556 36.034 51.8356C36.058 51.8336 36.081 51.8286 36.104 51.8256C36.16 51.8196 36.214 51.8096 36.27 51.8026C36.431 51.7826 36.592 51.7646 36.75 51.7356C36.819 51.7236 36.882 51.6996 36.951 51.6856C37.144 51.6456 37.329 51.5976 37.515 51.5456C37.612 51.5186 37.717 51.5026 37.812 51.4716C37.857 51.4566 37.893 51.4316 37.937 51.4166C38.328 51.2816 38.704 51.1266 39.04 50.9316L68.303 33.9256C68.326 33.9126 68.349 33.8986 68.371 33.8846C68.478 33.8206 68.554 33.7456 68.65 33.6776C68.785 33.5816 68.93 33.4886 69.043 33.3866C69.054 33.3766 69.07 33.3686 69.08 33.3586C69.211 33.2376 69.327 33.1126 69.428 32.9846C69.451 32.9556 69.466 32.9256 69.488 32.8956C69.51 32.8646 69.53 32.8336 69.551 32.8026C69.585 32.7516 69.625 32.7016 69.654 32.6496C69.713 32.5446 69.763 32.4376 69.803 32.3306C69.809 32.3146 69.811 32.2976 69.817 32.2816C69.824 32.2606 69.828 32.2396 69.835 32.2196C69.856 32.1516 69.88 32.0836 69.894 32.0156C69.915 31.9086 69.928 31.8016 69.931 31.6936C69.932 31.6776 69.932 31.6606 69.932 31.6446L69.964 20.2696C69.964 20.4616 69.928 20.6546 69.868 20.8446Z" fill="url(#paint2_linear_71_22951)"/>
<path d="M68.3099 17.9556C70.5059 19.2236 70.5179 21.2816 68.3359 22.5496L39.0729 39.5556C36.8909 40.8236 33.3389 40.8236 31.1429 39.5556L1.69089 22.5526C-0.510112 21.2816 -0.521113 19.2246 1.66089 17.9566L30.9239 0.950622C33.1059 -0.317378 36.6579 -0.317372 38.8589 0.953628L68.3099 17.9556Z" fill="url(#paint3_linear_71_22951)"/>
<path d="M68.3099 17.9556C70.5059 19.2236 70.5179 21.2816 68.3359 22.5496L39.0729 39.5556C36.8909 40.8236 33.3389 40.8236 31.1429 39.5556L1.69089 22.5526C-0.510112 21.2816 -0.521113 19.2246 1.66089 17.9566L30.9239 0.950622C33.1059 -0.317378 36.6579 -0.317372 38.8589 0.953628L68.3099 17.9556Z" fill="url(#paint4_linear_71_22951)"/>
<path d="M57.7614 17.6606L57.7524 20.6756C57.7434 23.9826 55.5684 27.2846 51.2264 29.8076C42.4944 34.8826 28.2844 34.8856 19.4894 29.8076C15.0624 27.2516 12.8524 23.8966 12.8614 20.5476L12.8704 17.5326C12.8604 20.8826 15.0714 24.2376 19.4984 26.7936C28.2934 31.8716 42.5024 31.8686 51.2354 26.7936C55.5774 24.2696 57.7514 20.9676 57.7614 17.6606Z" fill="#7437BD"/>
<mask id="mask0_71_22951" style="mask-type:luminance" maskUnits="userSpaceOnUse" x="12" y="17" width="46" height="17">
<path d="M57.7614 17.6606L57.7524 20.6756C57.7434 23.9826 55.5684 27.2846 51.2264 29.8076C42.4944 34.8826 28.2844 34.8856 19.4894 29.8076C15.0624 27.2516 12.8524 23.8966 12.8614 20.5476L12.8704 17.5326C12.8604 20.8826 15.0714 24.2376 19.4984 26.7936C28.2934 31.8716 42.5024 31.8686 51.2354 26.7936C55.5774 24.2696 57.7514 20.9676 57.7614 17.6606Z" fill="white"/>
</mask>
<g mask="url(#mask0_71_22951)">
<path d="M57.761 17.6606L57.752 20.6756C57.752 20.7416 57.751 20.8066 57.749 20.8726L57.758 17.8576C57.759 17.7926 57.76 17.7266 57.761 17.6606Z" fill="#7437BD"/>
<path d="M57.7576 17.8576L57.7486 20.8726C57.7366 21.3026 57.6866 21.7326 57.6016 22.1606L57.6096 19.1456C57.6966 18.7176 57.7456 18.2876 57.7576 17.8576Z" fill="#7437BD"/>
<path d="M57.6103 19.1456L57.6023 22.1606C57.5173 22.5846 57.3963 23.0066 57.2393 23.4246L57.2483 20.4096C57.4053 19.9906 57.5253 19.5696 57.6103 19.1456Z" fill="#7437BD"/>
<path d="M57.2486 20.4096L57.2396 23.4246C57.0786 23.8546 56.8786 24.2806 56.6416 24.7006L56.6506 21.6856C56.8876 21.2646 57.0866 20.8396 57.2486 20.4096Z" fill="#7437BD"/>
<path d="M56.6503 21.6856L56.6413 24.7006C56.3843 25.1556 56.0833 25.6036 55.7373 26.0426L55.7463 23.0276C56.0923 22.5886 56.3933 22.1406 56.6503 21.6856Z" fill="#7437BD"/>
<path d="M55.7467 23.0276L55.7377 26.0426C55.3337 26.5556 54.8697 27.0556 54.3447 27.5406L54.3527 24.5256C54.8787 24.0406 55.3427 23.5396 55.7467 23.0276Z" fill="#7437BD"/>
<path d="M54.353 24.5246L54.345 27.5396C53.54 28.2836 52.591 28.9896 51.5 29.6456L51.508 26.6306C52.599 25.9746 53.548 25.2686 54.353 24.5246Z" fill="#7437BD"/>
<path d="M51.5086 26.6306L51.5006 29.6456C51.4106 29.6996 51.3186 29.7536 51.2266 29.8076C49.7306 30.6776 48.0726 31.3976 46.3096 31.9696L46.3186 28.9546C48.0816 28.3826 49.7396 27.6626 51.2356 26.7926C51.3266 26.7396 51.4186 26.6856 51.5086 26.6306Z" fill="#7437BD"/>
<path d="M46.3176 28.9556L46.3086 31.9706C44.9466 32.4116 43.5226 32.7646 42.0596 33.0286L42.0686 30.0146C43.5316 29.7496 44.9556 29.3966 46.3176 28.9556Z" fill="#7437BD"/>
<path d="M42.0683 30.0136L42.0593 33.0276C41.1183 33.1976 40.1623 33.3306 39.1963 33.4266L39.2053 30.4116C40.1703 30.3156 41.1273 30.1826 42.0683 30.0136Z" fill="#7437BD"/>
<path d="M39.205 30.4116L39.196 33.4266C38.372 33.5086 37.541 33.5636 36.707 33.5926L36.715 30.5776C37.549 30.5496 38.38 30.4946 39.205 30.4116Z" fill="#7437BD"/>
<path d="M36.7162 30.5776L36.7082 33.5926C35.9432 33.6186 35.1752 33.6226 34.4092 33.6036L34.4172 30.5886C35.1832 30.6076 35.9512 30.6036 36.7162 30.5776Z" fill="#7437BD"/>
<path d="M34.4172 30.5886L34.4092 33.6036C33.6702 33.5856 32.9322 33.5456 32.1992 33.4856L32.2082 30.4706C32.9412 30.5306 33.6782 30.5706 34.4172 30.5886Z" fill="#7437BD"/>
<path d="M32.2076 30.4706L32.1986 33.4856C31.4666 33.4256 30.7386 33.3446 30.0166 33.2416L30.0256 30.2276C30.7466 30.3286 31.4756 30.4096 32.2076 30.4706Z" fill="#7437BD"/>
<path d="M30.025 30.2266L30.016 33.2406C29.266 33.1346 28.523 33.0056 27.791 32.8536L27.799 29.8386C28.532 29.9916 29.275 30.1196 30.025 30.2266Z" fill="#7437BD"/>
<path d="M27.8011 29.8396L27.7931 32.8546C26.9991 32.6906 26.2171 32.4986 25.4521 32.2806L25.4611 29.2656C26.2251 29.4836 27.0061 29.6746 27.8011 29.8396Z" fill="#7437BD"/>
<path d="M25.4606 29.2656L25.4516 32.2806C24.5156 32.0136 23.6046 31.7076 22.7266 31.3606L22.7356 28.3456C23.6136 28.6926 24.5246 28.9996 25.4606 29.2656Z" fill="#7437BD"/>
<path d="M22.7354 28.3456L22.7264 31.3606C21.5864 30.9106 20.5014 30.3936 19.4884 29.8086C15.0614 27.2526 12.8514 23.8976 12.8604 20.5486L12.8694 17.5336C12.8594 20.8836 15.0704 24.2386 19.4974 26.7946C20.5104 27.3786 21.5954 27.8956 22.7354 28.3456Z" fill="#7437BD"/>
</g>
<path d="M51.1361 8.40661C59.9321 13.4846 59.9721 21.7156 51.2341 26.7936C42.5021 31.8686 28.2931 31.8716 19.4971 26.7936C10.7011 21.7156 10.6551 13.4816 19.3881 8.40661C28.1261 3.32861 42.3411 3.32861 51.1361 8.40661Z" fill="url(#paint5_linear_71_22951)"/>
<path d="M49.6585 9.26562C57.6315 13.8686 57.6685 21.3306 49.7475 25.9346C41.8315 30.5356 28.9495 30.5386 20.9765 25.9346C13.0025 21.3306 12.9605 13.8666 20.8775 9.26562C28.7985 4.66262 41.6855 4.66262 49.6585 9.26562Z" fill="url(#paint6_linear_71_22951)"/>
<path d="M20.8763 11.3586C28.7983 6.75462 41.6843 6.75462 49.6583 11.3586C53.2023 13.4046 55.1743 16.0166 55.5803 18.6896C56.1003 15.3216 54.1253 11.8446 49.6583 9.26462C41.6843 4.66061 28.7983 4.66061 20.8763 9.26462C16.4813 11.8186 14.5433 15.2546 15.0493 18.5946C15.4573 15.9546 17.3983 13.3806 20.8763 11.3586Z" fill="#230A99"/>
<path d="M43.1945 9.18462L43.1925 9.97063L36.3145 17.9396L36.3165 17.1546L43.1945 9.18462Z" fill="#D1D7E2"/>
<path d="M34.3349 17.2376L34.3319 18.0226L26.1709 11.2986L26.1729 10.5136L34.3349 17.2376Z" fill="#D1D7E2"/>
<path d="M51.3536 14.1826L51.3516 14.9676L37.2266 18.4986L37.2286 17.7126L51.3536 14.1826Z" fill="#D1D7E2"/>
<path d="M33.5789 17.8666L33.5769 18.6526L19.8779 16.5276L19.8799 15.7416L33.5789 17.8666Z" fill="#D1D7E2"/>
<path d="M35.6132 17.0396L35.6112 17.8246L35.4482 18.9426L35.4502 18.1576L35.6132 17.0396Z" fill="#D1D7E2"/>
<path d="M43.1942 9.18462L36.3162 17.1546L35.4502 18.1576L35.6132 17.0396L36.8022 8.86162L43.1942 9.18462Z" fill="#D1D7E2"/>
<path d="M36.3162 17.1546L36.3142 17.9396L35.4482 18.9426L35.4502 18.1576L36.3162 17.1546Z" fill="#D1D7E2"/>
<path d="M36.3162 17.1546C36.4972 17.2066 36.6662 17.2766 36.8162 17.3636L35.4502 18.1576L36.3162 17.1546Z" fill="#D1D7E2"/>
<path d="M36.8162 17.3636L36.8142 18.1486L35.4482 18.9426L35.4502 18.1576L36.8162 17.3636Z" fill="#D1D7E2"/>
<path d="M37.2282 17.7126L37.2262 18.4986L35.4482 18.9426L35.4502 18.1576L37.2282 17.7126Z" fill="#D1D7E2"/>
<path d="M37.3812 18.0596L37.3792 18.8446L35.4482 18.9426L35.4502 18.1576L37.3812 18.0596Z" fill="#D1D7E2"/>
<path d="M37.2282 17.7126C37.3112 17.8236 37.3622 17.9406 37.3812 18.0596L35.4502 18.1576L37.2282 17.7126Z" fill="#D1D7E2"/>
<path d="M34.998 17.0656C35.199 17.0386 35.407 17.0296 35.613 17.0396L35.45 18.1576L34.998 17.0656Z" fill="#D1D7E2"/>
<path d="M35.4501 18.1576L35.4481 18.9426L34.9961 17.8506L34.9981 17.0656L35.4501 18.1576Z" fill="#D1D7E2"/>
<path d="M35.4501 18.1576L35.4481 18.9426L34.3311 18.0226L34.3341 17.2376L35.4501 18.1576Z" fill="#D1D7E2"/>
<path d="M34.0756 17.3636C34.1566 17.3166 34.2426 17.2746 34.3336 17.2376L35.4506 18.1576L33.8926 17.4866C33.9486 17.4436 34.0086 17.4026 34.0756 17.3636Z" fill="#D1D7E2"/>
<path d="M35.4506 18.1576L35.4486 18.9426L33.8906 18.2716L33.8936 17.4866L35.4506 18.1576Z" fill="#D1D7E2"/>
<path d="M35.4509 18.1576L33.5789 17.8666L19.8799 15.7416L21.5189 12.1566L33.8939 17.4866L35.4509 18.1576Z" fill="#FCFCFC"/>
<path d="M35.4502 18.1576L35.4482 18.9426L33.5762 18.6526L33.5782 17.8666L35.4502 18.1576Z" fill="#D1D7E2"/>
<path d="M31.4069 8.38362L34.9989 17.0656L35.4509 18.1576L34.3349 17.2376L26.1729 10.5136L31.4069 8.38362Z" fill="#FCFCFC"/>
<path d="M51.3532 14.1826L37.2282 17.7126L35.4502 18.1576L36.8162 17.3636L46.8072 11.5576L51.3532 14.1826Z" fill="#FCFCFC"/>
<path d="M33.5204 18.2216C33.5074 18.1026 33.5275 17.9826 33.5795 17.8666L35.4514 18.1566L33.5204 18.2216Z" fill="#D1D7E2"/>
<path d="M33.5137 18.9346L33.5157 18.1496C33.5157 18.1736 33.5167 18.1986 33.5197 18.2226L33.5177 19.0076C33.5157 18.9836 33.5137 18.9586 33.5137 18.9346Z" fill="#D1D7E2"/>
<mask id="mask1_71_22951" style="mask-type:luminance" maskUnits="userSpaceOnUse" x="33" y="18" width="1" height="2">
<path d="M33.5137 18.9346L33.5157 18.1496C33.5157 18.1736 33.5167 18.1986 33.5197 18.2226L33.5177 19.0076C33.5157 18.9836 33.5137 18.9586 33.5137 18.9346Z" fill="white"/>
</mask>
<g mask="url(#mask1_71_22951)">
<path d="M33.5206 18.2216L33.5186 19.0066C33.5156 18.9826 33.5146 18.9576 33.5146 18.9336L33.5166 18.1486C33.5166 18.1736 33.5176 18.1976 33.5206 18.2216Z" fill="#D1D7E2"/>
</g>
<path d="M35.4506 18.1576L35.4486 18.9426L33.5176 19.0076L33.5206 18.2216L35.4506 18.1576Z" fill="#D1D7E2"/>
<path d="M37.3092 18.4796L37.3072 19.2656L35.4482 18.9426L35.4502 18.1576L37.3092 18.4796Z" fill="#D1D7E2"/>
<path d="M35.4502 18.1576L35.4482 18.9426L33.6982 19.4166L33.7002 18.6306L35.4502 18.1576Z" fill="#D1D7E2"/>
<path d="M37.309 18.4796L37.307 19.2646C37.249 19.3776 37.16 19.4856 37.04 19.5856L37.042 18.8006C37.163 18.7016 37.252 18.5926 37.309 18.4796Z" fill="#D1D7E2"/>
<mask id="mask2_71_22951" style="mask-type:luminance" maskUnits="userSpaceOnUse" x="37" y="18" width="1" height="2">
<path d="M37.309 18.4796L37.307 19.2646C37.249 19.3776 37.16 19.4856 37.04 19.5856L37.042 18.8006C37.163 18.7016 37.252 18.5926 37.309 18.4796Z" fill="white"/>
</mask>
<g mask="url(#mask2_71_22951)">
<path d="M37.309 18.4796L37.307 19.2646C37.302 19.2746 37.297 19.2846 37.291 19.2946L37.293 18.5086C37.299 18.4996 37.304 18.4896 37.309 18.4796Z" fill="#D1D7E2"/>
<path d="M37.2929 18.5096L37.2909 19.2956C37.2689 19.3346 37.2429 19.3726 37.2139 19.4106L37.2159 18.6256C37.2449 18.5876 37.2709 18.5486 37.2929 18.5096Z" fill="#D1D7E2"/>
<path d="M37.2158 18.6246L37.2137 19.4096C37.1787 19.4536 37.1398 19.4966 37.0938 19.5386L37.0957 18.7526C37.1407 18.7126 37.1808 18.6686 37.2158 18.6246Z" fill="#D1D7E2"/>
<path d="M37.096 18.7536L37.094 19.5396C37.077 19.5556 37.059 19.5716 37.04 19.5866L37.042 18.8016C37.061 18.7856 37.079 18.7696 37.096 18.7536Z" fill="#D1D7E2"/>
</g>
<path d="M37.0422 18.8016L37.0402 19.5866L35.4482 18.9426L35.4502 18.1576L37.0422 18.8016Z" fill="#D1D7E2"/>
<path d="M37.3092 18.4796C37.2512 18.5926 37.1622 18.7006 37.0422 18.8006L35.4502 18.1566L37.3092 18.4796Z" fill="#D1D7E2"/>
<path d="M35.4509 18.1576L35.4489 18.9426L34.0459 19.7106L34.0479 18.9256L35.4509 18.1576Z" fill="#D1D7E2"/>
<path d="M34.0472 18.9256L34.0452 19.7106C33.8992 19.6216 33.7832 19.5216 33.6982 19.4156L33.7002 18.6306C33.7862 18.7366 33.9022 18.8366 34.0472 18.9256Z" fill="#D1D7E2"/>
<mask id="mask3_71_22951" style="mask-type:luminance" maskUnits="userSpaceOnUse" x="33" y="18" width="2" height="2">
<path d="M34.0472 18.9256L34.0452 19.7106C33.8992 19.6216 33.7832 19.5216 33.6982 19.4156L33.7002 18.6306C33.7862 18.7366 33.9022 18.8366 34.0472 18.9256Z" fill="white"/>
</mask>
<g mask="url(#mask3_71_22951)">
<path d="M34.0472 18.9256L34.0452 19.7106C33.8992 19.6216 33.7832 19.5216 33.6982 19.4156L33.7002 18.6306C33.7862 18.7366 33.9022 18.8366 34.0472 18.9256Z" fill="#D1D7E2"/>
</g>
<path d="M35.4504 18.1576L33.7004 18.6306L20.8754 22.1016L18.1484 18.7366L33.5204 18.2216L35.4504 18.1576Z" fill="#FCFCFC"/>
<path d="M34.0472 18.9256C33.9012 18.8366 33.7862 18.7366 33.7002 18.6306L35.4502 18.1566L34.0472 18.9256Z" fill="#D1D7E2"/>
<path d="M36.5202 19.0956L36.5182 19.8806L35.4482 18.9426L35.4502 18.1576L36.5202 19.0956Z" fill="#D1D7E2"/>
<path d="M35.4507 18.1576L35.4487 18.9426L34.6367 19.9586L34.6387 19.1736L35.4507 18.1576Z" fill="#D1D7E2"/>
<path d="M35.9582 19.2406L35.9562 20.0266L35.4482 18.9426L35.4502 18.1576L35.9582 19.2406Z" fill="#D1D7E2"/>
<path d="M35.9582 19.2406L35.4502 18.1566L36.5202 19.0946C36.3452 19.1626 36.1552 19.2106 35.9582 19.2406Z" fill="#D1D7E2"/>
<path d="M36.5201 19.0956L36.5181 19.8806C36.3431 19.9476 36.1531 19.9956 35.9561 20.0266L35.9581 19.2406C36.1551 19.2106 36.3451 19.1626 36.5201 19.0956Z" fill="#D1D7E2"/>
<mask id="mask4_71_22951" style="mask-type:luminance" maskUnits="userSpaceOnUse" x="35" y="19" width="2" height="2">
<path d="M36.5201 19.0956L36.5181 19.8806C36.3431 19.9476 36.1531 19.9956 35.9561 20.0266L35.9581 19.2406C36.1551 19.2106 36.3451 19.1626 36.5201 19.0956Z" fill="white"/>
</mask>
<g mask="url(#mask4_71_22951)">
<path d="M36.5196 19.0956L36.5176 19.8806C36.4766 19.8966 36.4346 19.9106 36.3926 19.9246L36.3946 19.1386C36.4366 19.1256 36.4786 19.1116 36.5196 19.0956Z" fill="#D1D7E2"/>
<path d="M36.3952 19.1396L36.3932 19.9256C36.2782 19.9626 36.1582 19.9916 36.0352 20.0146L36.0372 19.2286C36.1602 19.2056 36.2802 19.1766 36.3952 19.1396Z" fill="#D1D7E2"/>
<path d="M36.037 19.2276L36.035 20.0136C36.009 20.0186 35.983 20.0226 35.957 20.0266L35.959 19.2406C35.984 19.2366 36.01 19.2326 36.037 19.2276Z" fill="#D1D7E2"/>
</g>
<path d="M35.2327 19.2706L35.2307 20.0566C35.0277 20.0426 34.8267 20.0096 34.6377 19.9586L34.6397 19.1736C34.8287 19.2246 35.0287 19.2566 35.2327 19.2706Z" fill="#D1D7E2"/>
<mask id="mask5_71_22951" style="mask-type:luminance" maskUnits="userSpaceOnUse" x="34" y="19" width="2" height="2">
<path d="M35.2327 19.2706L35.2307 20.0566C35.0277 20.0426 34.8267 20.0096 34.6377 19.9586L34.6397 19.1736C34.8287 19.2246 35.0287 19.2566 35.2327 19.2706Z" fill="white"/>
</mask>
<g mask="url(#mask5_71_22951)">
<path d="M35.2325 19.2706L35.2305 20.0566C35.2155 20.0556 35.2005 20.0546 35.1855 20.0536L35.1875 19.2686C35.2015 19.2686 35.2165 19.2696 35.2325 19.2706Z" fill="#D1D7E2"/>
<path d="M35.1871 19.2676L35.1851 20.0526C35.1221 20.0476 35.0591 20.0406 34.9971 20.0316L34.9991 19.2466C35.0611 19.2556 35.1241 19.2626 35.1871 19.2676Z" fill="#D1D7E2"/>
<path d="M34.9987 19.2466L34.9967 20.0316C34.9327 20.0226 34.8687 20.0116 34.8057 19.9986L34.8077 19.2136C34.8707 19.2256 34.9337 19.2366 34.9987 19.2466Z" fill="#D1D7E2"/>
<path d="M34.8077 19.2126L34.8057 19.9976C34.7487 19.9856 34.6927 19.9726 34.6377 19.9576L34.6397 19.1726C34.6947 19.1876 34.7507 19.2016 34.8077 19.2126Z" fill="#D1D7E2"/>
</g>
<path d="M35.2326 19.2706C35.0296 19.2566 34.8286 19.2246 34.6396 19.1726L35.4516 18.1566L35.2326 19.2706Z" fill="#D1D7E2"/>
<path d="M35.4505 18.1576L35.4485 18.9426L35.2295 20.0566L35.2325 19.2706L35.4505 18.1576Z" fill="#D1D7E2"/>
<path d="M52.0766 21.0436L52.0746 21.8286L37.3076 19.2656L37.3096 18.4796L52.0766 21.0436Z" fill="#D1D7E2"/>
<path d="M51.4942 17.3436L52.0762 21.0436L37.3092 18.4796L35.4502 18.1576L37.3812 18.0596L51.4942 17.3436Z" fill="#FCFCFC"/>
<path d="M33.7001 18.6306L33.6981 19.4166L20.8721 22.8876L20.8751 22.1016L33.7001 18.6306Z" fill="#D1D7E2"/>
<path d="M20.8755 22.1016L20.8725 22.8876L18.1465 19.5216L18.1485 18.7366L20.8755 22.1016Z" fill="#D1D7E2"/>
<path d="M48.6802 23.5086L45.0212 26.5506L36.5202 19.0956L35.4502 18.1576L37.0422 18.8016L48.6802 23.5086Z" fill="#FCFCFC"/>
<path d="M48.6805 23.5086L48.6785 24.2936L45.0195 27.3366L45.0215 26.5506L48.6805 23.5086Z" fill="#D1D7E2"/>
<path d="M45.0216 26.5506L45.0196 27.3366L36.5186 19.8806L36.5206 19.0956L45.0216 26.5506Z" fill="#D1D7E2"/>
<path d="M28.691 26.6146L28.689 27.4006L22.873 25.8306L22.875 25.0446L28.691 26.6146Z" fill="#D1D7E2"/>
<path d="M34.6385 19.1736L34.6365 19.9586L28.6895 27.4006L28.6915 26.6146L34.6385 19.1736Z" fill="#D1D7E2"/>
<path d="M35.45 18.1576L34.638 19.1736L28.691 26.6146L22.875 25.0446L34.047 18.9256L35.45 18.1576Z" fill="#FCFCFC"/>
<path d="M39.6743 27.1706L39.6723 27.9556L33.4873 28.9166L33.4893 28.1316L39.6743 27.1706Z" fill="#D1D7E2"/>
<path d="M35.4503 18.1576L35.9583 19.2406L39.6743 27.1706L33.4893 28.1316L35.2323 19.2706L35.4503 18.1576Z" fill="#FCFCFC"/>
<path d="M91.3967 74.4826C90.2767 74.8506 88.7487 70.0166 87.7467 70.7026C86.5817 71.5006 91.8147 78.4256 93.4827 77.1366C94.9817 75.9776 90.2297 69.6656 88.8677 70.3176C87.5067 70.9696 91.3967 74.4826 91.3967 74.4826Z" fill="#320C7E"/>
<path d="M78.8523 76.0026C78.8523 76.0026 77.9733 77.2106 78.4133 78.1616C78.8523 79.1136 79.4953 79.1476 80.3353 80.1386C81.7073 81.7576 83.2453 83.0076 84.2883 82.2436C85.2403 81.5456 83.2453 78.4186 81.7443 76.4296C79.9153 74.0046 78.8523 76.0026 78.8523 76.0026Z" fill="#320C7E"/>
<path d="M72.7463 49.8936C72.7463 49.8936 84.0833 55.7006 84.0743 56.9696C84.0643 58.3066 81.1553 74.0126 81.7153 75.8506C82.4153 78.1496 84.6843 81.0426 83.6843 81.6146C82.6593 82.2006 81.7723 80.8766 80.3903 79.6666C79.3453 78.7516 78.2183 78.5416 78.7803 76.2966C79.1373 74.8686 79.3913 73.9146 79.0003 70.5856C78.1463 63.3306 78.6103 61.1666 78.8053 59.3126C73.6323 58.1416 68.0693 49.8946 68.0693 49.8946H72.7463V49.8936Z" fill="#F7AF8F"/>
<path d="M77.9751 60.6156C78.2141 60.8906 78.4412 61.1956 78.6722 61.5436C80.8032 64.7676 84.0211 67.1096 85.9891 69.4516C87.9571 71.7946 87.3521 71.4316 88.5851 73.0146C89.3101 73.9446 91.2092 75.9936 92.1631 75.0556C92.8731 74.3576 90.6342 71.5216 88.1992 67.9656C85.7642 64.4096 84.9011 61.9556 83.7881 59.8716C83.2641 58.8906 82.6062 57.9546 81.6192 56.9646C80.5122 55.8526 76.7171 59.1726 77.9751 60.6156Z" fill="#F9C0AA"/>
<path d="M63.6133 28.2216C63.7103 28.4146 64.5253 31.1046 64.1653 33.7216C65.8353 34.6336 67.8153 36.7556 68.8593 36.6556C70.0383 36.5436 70.1773 34.2526 70.1773 34.1366C70.1773 33.9176 68.7553 30.8926 68.6583 29.4636C68.5663 28.0906 63.6133 28.2216 63.6133 28.2216Z" fill="#F7AF8F"/>
<path d="M74.371 37.5526C74.556 41.0116 73.602 45.1166 73.822 47.6056C74.042 50.0946 74.151 51.7046 74.151 51.7046L71.333 50.7526L71.809 42.5906L73.529 37.2016L74.371 37.5526Z" fill="#E8A489"/>
<path d="M70.002 31.2136C70.002 31.2136 71.166 30.9586 72.484 32.5746C73.467 33.7816 74.942 37.3526 74.559 37.9886C73.765 38.7786 72.4 38.6926 72.4 38.6926L70.002 31.2136Z" fill="#FCFCFC"/>
<path d="M63.0307 50.8346C63.0307 50.8346 61.6887 53.0746 62.3967 56.1136C63.2847 59.9226 70.8997 61.2096 74.6067 60.9596C77.7177 61.3986 78.3587 63.5946 78.3587 63.5946C78.3587 63.5946 79.7687 63.9856 81.2197 60.5326C81.9277 58.8486 83.7817 60.3866 84.2457 57.4096C83.4647 53.4076 72.9587 49.8826 72.9477 49.8876L63.0307 50.8346Z" fill="#FA3A8C"/>
<path d="M68.7872 35.9236C68.7872 35.9236 69.6542 32.7656 68.8052 31.0516C69.6752 31.0516 70.9012 31.1646 71.2302 32.0256C71.5782 32.9336 71.9892 33.6676 72.4292 34.5146C72.8962 35.4156 74.0942 36.3146 74.0942 37.9736C74.0942 39.7316 73.7252 39.8986 73.4352 42.2316C73.1452 44.5646 73.2282 49.0516 73.4212 50.2326C73.6142 51.4136 64.3312 51.0276 63.0302 50.8346C63.2602 47.4166 64.3212 46.2096 63.0302 41.9096C61.9862 38.4336 61.2332 38.8956 60.9902 35.6676C61.0632 34.6306 62.4272 33.6906 64.2022 33.4066C65.3832 33.8746 68.7872 35.9236 68.7872 35.9236Z" fill="#D1D7E2"/>
<path d="M66.2715 21.3416C68.9775 21.4576 70.6105 22.9406 70.3065 24.4766C69.7755 27.1586 71.1645 27.8116 70.6325 28.1346C70.0305 28.4996 70.2315 28.2556 70.1255 29.0176C69.9675 30.1496 69.8255 31.6906 67.9145 31.0726C65.7255 30.3646 63.4405 29.4056 62.6475 27.1086C61.8255 24.7286 63.3695 21.2176 66.2715 21.3416Z" fill="#F9C0AA"/>
<path d="M65.594 21.4586C65.594 21.4586 66.397 20.1916 65.401 18.7136C64.222 16.9646 61.669 17.4806 60.714 18.8866C59.723 20.3456 59.911 22.6206 62.526 23.1166C65.141 23.6116 65.594 21.4586 65.594 21.4586Z" fill="#FA3A8C"/>
<path d="M63.0306 23.7286C62.9366 23.7996 61.2526 23.5576 62.4276 22.2036C63.7826 20.6416 66.3196 19.8956 66.3196 21.5786C66.3196 22.5646 63.0306 23.7286 63.0306 23.7286Z" fill="#FCFCFC"/>
<path d="M70.4737 24.8156C70.1067 25.8806 67.0927 25.6126 66.2707 24.9366C66.0287 26.4826 64.9657 26.7246 64.9657 26.7246C64.9657 26.7246 64.4667 25.4846 63.8217 26.2706C63.3187 26.8846 64.0157 27.4906 64.4157 27.8526C64.4357 28.3156 64.4257 28.7576 63.8947 29.0176C62.4277 28.8026 60.8547 25.9996 62.4277 23.4876C63.9997 20.9756 66.5587 20.9746 68.3007 21.5546C70.1427 22.1676 70.7407 24.0426 70.4737 24.8156Z" fill="#FA3A8C"/>
<path d="M59.9658 39.2206C59.9658 39.2206 59.6098 47.4616 62.0158 48.1856C66.1528 49.4296 75.0978 43.3136 76.3138 43.9156C77.1798 44.0576 77.7398 43.8826 78.0738 43.7806C78.6718 43.5976 78.7508 43.4706 78.8238 42.7056C78.8798 42.1166 78.6428 41.8176 79.1928 41.6716C80.1368 41.4216 80.7768 41.2796 80.6658 40.9366C80.5458 40.5646 78.4038 41.4576 78.3628 41.2536C78.3218 41.0496 78.9608 40.1596 78.5788 40.0036C78.0628 39.7926 78.0088 40.9676 77.2928 40.9676C76.6488 40.9676 76.3838 41.8586 75.6878 42.2006C74.9928 42.5426 64.1338 44.9266 64.1338 44.9266L63.9548 39.5036L59.9658 39.2206Z" fill="#F9C0AA"/>
<path d="M62.3652 34.2806C59.6012 33.9766 59.1242 40.2366 59.8042 40.7136C60.4842 41.1916 63.9252 41.7506 64.2072 40.9446C64.4882 40.1376 65.2312 34.5956 62.3652 34.2806Z" fill="#FCFCFC"/>
<path d="M78.8524 76.0026C78.8524 76.0026 78.8774 76.7766 79.2954 77.4386C79.9134 78.4176 80.9864 80.0896 82.0914 80.5046C83.5394 81.0486 83.7754 80.3946 83.2444 78.8316C83.0994 78.4036 84.1594 80.7606 84.1594 80.7606V81.9686C84.1594 81.9686 83.1724 82.3116 82.3294 81.7576C81.4864 81.2036 80.1514 79.4246 79.3644 79.0766C78.3444 78.6266 77.5894 77.6136 78.8524 76.0026Z" fill="#320C7E"/>
<path opacity="0.8" d="M74.1817 59.8326L74.0938 28.8906L91.9027 18.6086L91.9908 49.5506L74.1817 59.8326Z" fill="url(#paint7_linear_71_22951)"/>
<g opacity="0.79">
<path d="M91.0254 22.7756L91.0404 28.2656L75.5824 37.1906L75.5674 31.7006L91.0254 22.7756Z" fill="white"/>
</g>
<g opacity="0.79">
<path d="M91.0254 32.0136L91.0404 37.5036L75.5824 46.4286L75.5674 40.9386L91.0254 32.0136Z" fill="white"/>
</g>
<g opacity="0.79">
<path d="M91.0254 40.7256L91.0414 46.2156L75.5834 55.1406L75.5674 49.6506L91.0254 40.7256Z" fill="white"/>
</g>
<g opacity="0.37">
<path d="M90.3345 24.7236L90.3375 25.5826L80.0215 31.5386L80.0195 30.6786L90.3345 24.7236Z" fill="#602BA1"/>
</g>
<g opacity="0.37">
<path d="M90.3651 26.7556L90.3681 27.6196L81.1651 32.9326L81.1621 32.0686L90.3651 26.7556Z" fill="#602BA1"/>
</g>
<g opacity="0.37">
<path d="M79.33 31.0506L79.337 33.6876C79.338 33.9436 79.202 34.1796 78.98 34.3076L76.67 35.6416C76.524 35.7256 76.341 35.6206 76.34 35.4516L76.332 32.7246C76.331 32.5186 76.441 32.3286 76.619 32.2256L78.991 30.8556C79.142 30.7696 79.33 30.8776 79.33 31.0506Z" fill="#602BA1"/>
</g>
<g opacity="0.37">
<path d="M90.5308 33.7476L90.5328 34.6066L80.2178 40.5626L80.2148 39.7026L90.5308 33.7476Z" fill="#602BA1"/>
</g>
<g opacity="0.37">
<path d="M90.5604 35.7786L90.5624 36.6436L81.3604 41.9566L81.3574 41.0926L90.5604 35.7786Z" fill="#602BA1"/>
</g>
<g opacity="0.37">
<path d="M79.5254 40.0746L79.5324 42.7116C79.5334 42.9676 79.3974 43.2036 79.1754 43.3316L76.8654 44.6656C76.7194 44.7496 76.5364 44.6446 76.5354 44.4756L76.5274 41.7486C76.5264 41.5426 76.6364 41.3526 76.8144 41.2496L79.1864 39.8796C79.3374 39.7936 79.5254 39.9016 79.5254 40.0746Z" fill="#602BA1"/>
</g>
<g opacity="0.37">
<path d="M90.2886 42.6166L90.2916 43.4766L79.9756 49.4326L79.9736 48.5726L90.2886 42.6166Z" fill="#602BA1"/>
</g>
<g opacity="0.37">
<path d="M90.3192 44.6486L90.3222 45.5126L81.1192 50.8256L81.1172 49.9616L90.3192 44.6486Z" fill="#602BA1"/>
</g>
<g opacity="0.37">
<path d="M79.2851 48.9436L79.2921 51.5806C79.2931 51.8366 79.1571 52.0726 78.9351 52.2006L76.6251 53.5346C76.4791 53.6196 76.2961 53.5136 76.2951 53.3446L76.2871 50.6176C76.2871 50.4116 76.3961 50.2216 76.5741 50.1186L78.9461 48.7486C79.0971 48.6626 79.2841 48.7706 79.2851 48.9436Z" fill="#602BA1"/>
</g>
<defs>
<linearGradient id="paint0_linear_71_22951" x1="18.6339" y1="53.4623" x2="68.8768" y2="82.4701" gradientUnits="userSpaceOnUse">
<stop stop-color="#7437BD"/>
<stop offset="1" stop-color="#2E0AA3"/>
</linearGradient>
<linearGradient id="paint1_linear_71_22951" x1="63.584" y1="56.5349" x2="-0.411114" y2="56.5349" gradientUnits="userSpaceOnUse">
<stop stop-color="#7437BD"/>
<stop offset="1" stop-color="#B862D6"/>
</linearGradient>
<linearGradient id="paint2_linear_71_22951" x1="18.6339" y1="17.1804" x2="68.8768" y2="46.1882" gradientUnits="userSpaceOnUse">
<stop stop-color="#7437BD"/>
<stop offset="1" stop-color="#2E0AA3"/>
</linearGradient>
<linearGradient id="paint3_linear_71_22951" x1="63.584" y1="20.253" x2="-0.411114" y2="20.253" gradientUnits="userSpaceOnUse">
<stop stop-color="#7437BD"/>
<stop offset="1" stop-color="#B862D6"/>
</linearGradient>
<linearGradient id="paint4_linear_71_22951" x1="70.2037" y1="20.253" x2="-6.37301" y2="20.253" gradientUnits="userSpaceOnUse">
<stop stop-color="#7437BD"/>
<stop offset="1" stop-color="#B862D6"/>
</linearGradient>
<linearGradient id="paint5_linear_71_22951" x1="-4.18235" y1="-4.36489" x2="86.9674" y2="46.3221" gradientUnits="userSpaceOnUse">
<stop stop-color="#D69EDA"/>
<stop offset="1" stop-color="#7437BD"/>
</linearGradient>
<linearGradient id="paint6_linear_71_22951" x1="12.0778" y1="-1.87898" x2="50.1246" y2="30.0114" gradientUnits="userSpaceOnUse">
<stop stop-color="#7437BD"/>
<stop offset="1" stop-color="#2E0AA3"/>
</linearGradient>
<linearGradient id="paint7_linear_71_22951" x1="83.0421" y1="24.1902" x2="83.0421" y2="61.3539" gradientUnits="userSpaceOnUse">
<stop stop-color="#FCFCFC"/>
<stop offset="1" stop-color="#BABDE8"/>
</linearGradient>
</defs>
</svg>
