<svg width="54" height="81" viewBox="0 0 54 81" fill="none" xmlns="http://www.w3.org/2000/svg">
<path d="M36.257 67.058C41.55 70.114 41.577 75.066 36.319 78.122C31.061 81.178 22.512 81.178 17.219 78.122C11.93 75.068 11.898 70.114 17.157 67.058C22.415 64.003 30.967 64.005 36.257 67.058Z" fill="#FFD438"/>
<path d="M17.1561 69.735C22.4141 66.679 30.9671 66.681 36.2561 69.735C38.3221 70.928 39.5821 72.409 40.0421 73.954C40.7671 71.526 39.5061 68.935 36.2561 67.058C30.9671 64.004 22.4141 64.002 17.1561 67.058C13.9511 68.921 12.7151 71.489 13.4331 73.902C13.8891 72.376 15.1271 70.914 17.1561 69.735Z" fill="#7437BD"/>
<g opacity="0.01">
<path opacity="0.9974" d="M45.5203 18.544C55.9633 24.573 56.0193 34.346 45.6433 40.375C35.2763 46.4 18.3963 46.405 7.95327 40.375C-2.48973 34.346 -2.53673 24.568 7.83027 18.544C18.2053 12.515 35.0773 12.515 45.5203 18.544Z" fill="#FFFFFE"/>
</g>
<g opacity="0.0132">
<path opacity="0.9947" d="M45.4582 18.868C55.8672 24.878 55.9222 34.618 45.5812 40.628C35.2482 46.633 18.4242 46.638 8.01516 40.628C-2.39384 34.619 -2.43985 24.873 7.89315 18.869C18.2342 12.859 35.0492 12.858 45.4582 18.868Z" fill="#FFFEFC"/>
</g>
<g opacity="0.0199">
<path opacity="0.9921" d="M45.3962 19.192C55.7712 25.182 55.8252 34.89 45.5182 40.88C35.2192 46.865 18.4512 46.87 8.0762 40.88C-2.2978 34.89 -2.3448 25.177 7.9542 19.192C18.2622 13.202 35.0222 13.202 45.3962 19.192Z" fill="#FFFEFB"/>
</g>
<g opacity="0.0265">
<path opacity="0.9894" d="M45.3352 19.515C55.6752 25.485 55.7302 35.161 45.4572 41.131C35.1922 47.096 18.4802 47.101 8.13919 41.131C-2.20081 35.161 -2.24681 25.48 8.01719 19.515C18.2902 13.545 34.9942 13.545 45.3352 19.515Z" fill="#FFFEFA"/>
</g>
<g opacity="0.0331">
<path opacity="0.9868" d="M45.2735 19.839C55.5795 25.789 55.6335 35.433 45.3945 41.383C35.1645 47.328 18.5065 47.333 8.20048 41.383C-2.10552 35.433 -2.15152 25.784 8.07948 19.839C18.3185 13.889 34.9675 13.889 45.2735 19.839Z" fill="#FFFEF8"/>
</g>
<g opacity="0.0397">
<path opacity="0.9841" d="M45.2111 20.162C55.4821 26.092 55.5371 35.704 45.3321 41.634C35.1361 47.559 18.5341 47.565 8.26212 41.634C-2.00888 35.704 -2.05488 26.087 8.14112 20.162C18.3461 14.232 34.9401 14.232 45.2111 20.162Z" fill="#FFFDF7"/>
</g>
<g opacity="0.0464">
<path opacity="0.9815" d="M45.1494 20.486C55.3864 26.396 55.4404 35.976 45.2694 41.886C35.1074 47.792 18.5614 47.797 8.32438 41.886C-1.91262 35.976 -1.95861 26.391 8.20439 20.486C18.3744 14.576 34.9124 14.576 45.1494 20.486Z" fill="#FFFDF6"/>
</g>
<g opacity="0.053">
<path opacity="0.9788" d="M45.087 20.809C55.29 26.699 55.344 36.247 45.207 42.137C35.079 48.023 18.589 48.028 8.38602 42.137C-1.81598 36.246 -1.86197 26.694 8.26603 20.809C18.402 14.919 34.885 14.919 45.087 20.809Z" fill="#FFFDF4"/>
</g>
<g opacity="0.0596">
<path opacity="0.9762" d="M45.025 21.133C55.193 27.003 55.247 36.519 45.145 42.389C35.051 48.255 18.616 48.26 8.44805 42.389C-1.71995 36.519 -1.76497 26.999 8.32804 21.133C18.43 15.262 34.857 15.262 45.025 21.133Z" fill="#FFFCF3"/>
</g>
<g opacity="0.0662">
<path opacity="0.9735" d="M44.9633 21.457C55.0973 27.308 55.1503 36.791 45.0823 42.641C35.0223 48.487 18.6433 48.492 8.50932 42.641C-1.62468 36.79 -1.66967 27.303 8.39033 21.457C18.4583 15.606 34.8303 15.606 44.9633 21.457Z" fill="#FFFCF2"/>
</g>
<g opacity="0.0728">
<path opacity="0.9709" d="M44.902 21.78C55.001 27.611 55.055 37.062 45.021 42.892C34.996 48.718 18.6719 48.723 8.57195 42.892C-1.52705 37.061 -1.57206 27.606 8.45294 21.78C18.4869 15.949 34.802 15.949 44.902 21.78Z" fill="#FFFCF1"/>
</g>
<g opacity="0.0795">
<path opacity="0.9682" d="M44.8402 22.104C54.9052 27.915 54.9582 37.334 44.9582 43.145C34.9672 48.951 18.6982 48.956 8.63323 43.145C-1.43177 37.334 -1.47676 27.911 8.51523 22.105C18.5152 16.293 34.7752 16.293 44.8402 22.104Z" fill="#FFFCEF"/>
</g>
<g opacity="0.0861">
<path opacity="0.9656" d="M44.7783 22.427C54.8093 28.218 54.8623 37.604 44.8963 43.396C34.9393 49.182 18.7262 49.187 8.69525 43.396C-1.33575 37.605 -1.37975 28.214 8.57725 22.427C18.5432 16.636 34.7473 16.636 44.7783 22.427Z" fill="#FFFBEE"/>
</g>
<g opacity="0.0927">
<path opacity="0.9629" d="M44.7162 22.751C54.7122 28.522 54.7652 37.877 44.8342 43.648C34.9112 49.415 18.7542 49.42 8.75824 43.648C-1.23776 37.877 -1.28276 28.518 8.64024 22.751C18.5712 16.98 34.7202 16.98 44.7162 22.751Z" fill="#FFFBED"/>
</g>
<g opacity="0.0993">
<path opacity="0.9603" d="M44.6541 23.074C54.6161 28.825 54.6682 38.147 44.7712 43.899C34.8822 49.646 18.7812 49.651 8.81916 43.899C-1.14284 38.148 -1.18685 28.821 8.70215 23.074C18.5992 17.323 34.6921 17.323 44.6541 23.074Z" fill="#FFFBEB"/>
</g>
<g opacity="0.106">
<path opacity="0.9576" d="M44.5922 23.398C54.5192 29.129 54.5722 38.419 44.7092 44.151C34.8542 49.878 18.8082 49.883 8.88117 44.151C-1.04583 38.419 -1.09083 29.125 8.76417 23.398C18.6272 17.667 34.6652 17.666 44.5922 23.398Z" fill="#FFFAEA"/>
</g>
<g opacity="0.1126">
<path opacity="0.955" d="M44.5301 23.722C54.4231 29.434 54.4751 38.691 44.6461 44.403C34.8251 50.11 18.8351 50.115 8.94208 44.403C-0.950918 38.691 -0.994916 29.429 8.82608 23.722C18.6551 18.01 34.6371 18.01 44.5301 23.722Z" fill="#FFFAE9"/>
</g>
<g opacity="0.1192">
<path opacity="0.9523" d="M44.4681 24.045C54.3271 29.737 54.3791 38.962 44.5841 44.654C34.7981 50.341 18.8631 50.346 9.0041 44.654C-0.854904 38.962 -0.897902 29.732 8.8881 24.045C18.6831 18.353 34.6101 18.353 44.4681 24.045Z" fill="#FFFAE7"/>
</g>
<g opacity="0.1258">
<path opacity="0.9497" d="M44.4071 24.369C54.2311 30.041 54.2831 39.234 44.5231 44.906C34.7711 50.573 18.8921 50.578 9.06709 44.906C-0.75691 39.234 -0.800907 30.036 8.95109 24.369C18.7111 18.697 34.5821 18.697 44.4071 24.369Z" fill="#FFFAE6"/>
</g>
<g opacity="0.1324">
<path opacity="0.947" d="M44.345 24.692C54.135 30.344 54.187 39.505 44.46 45.157C34.742 50.805 18.918 50.809 9.128 45.157C-0.662002 39.505 -0.704993 30.339 9.01301 24.692C18.739 19.04 34.555 19.04 44.345 24.692Z" fill="#FFF9E5"/>
</g>
<g opacity="0.1391">
<path opacity="0.9444" d="M44.283 25.016C54.038 30.648 54.09 39.777 44.398 45.409C34.714 51.037 18.946 51.042 9.191 45.409C-0.564001 39.777 -0.608006 30.643 9.07599 25.016C18.768 19.384 34.528 19.384 44.283 25.016Z" fill="#FFF9E3"/>
</g>
<g opacity="0.1457">
<path opacity="0.9417" d="M44.2209 25.339C53.9419 30.951 53.9929 40.048 44.3349 45.661C34.6849 51.269 18.9729 51.274 9.25191 45.661C-0.469092 40.049 -0.512091 30.947 9.13791 25.34C18.7959 19.727 34.4999 19.727 44.2209 25.339Z" fill="#FFF9E2"/>
</g>
<g opacity="0.1523">
<path opacity="0.9391" d="M44.1589 25.663C53.8459 31.256 53.8969 40.32 44.2729 45.913C34.6569 51.501 19.0009 51.506 9.31393 45.913C-0.372075 40.321 -0.416073 31.251 9.19993 25.663C18.8239 20.071 34.4729 20.07 44.1589 25.663Z" fill="#FFF8E1"/>
</g>
<g opacity="0.1589">
<path opacity="0.9364" d="M44.0969 25.987C53.7489 31.56 53.7999 40.592 44.2109 46.165C34.6289 51.733 19.0279 51.738 9.37594 46.165C-0.276061 40.592 -0.319059 31.555 9.26194 25.987C18.8519 20.414 34.4449 20.414 44.0969 25.987Z" fill="#FFF8DF"/>
</g>
<g opacity="0.1656">
<path opacity="0.9338" d="M44.0352 26.31C53.6532 31.863 53.7042 40.863 44.1482 46.416C34.6002 51.964 19.0552 51.969 9.43723 46.416C-0.180768 40.863 -0.223775 31.859 9.32423 26.31C18.8802 20.757 34.4182 20.757 44.0352 26.31Z" fill="#FFF8DE"/>
</g>
<g opacity="0.1722">
<path opacity="0.9311" d="M43.9738 26.634C53.5568 32.167 53.6078 41.135 44.0868 46.668C34.5738 52.197 19.0838 52.201 9.49985 46.668C-0.0831509 41.135 -0.126157 32.163 9.38684 26.634C18.9078 21.101 34.3898 21.101 43.9738 26.634Z" fill="#FFF8DD"/>
</g>
<g opacity="0.1788">
<path opacity="0.9285" d="M43.9127 26.957C53.4617 32.47 53.5127 41.406 44.0247 46.919C34.5457 52.428 19.1117 52.432 9.56173 46.919C0.0127339 41.406 -0.0292659 32.466 9.44973 26.957C18.9367 21.444 34.3637 21.444 43.9127 26.957Z" fill="#FFF7DB"/>
</g>
<g opacity="0.1854">
<path opacity="0.9258" d="M43.8501 27.281C53.3651 32.774 53.4151 41.678 43.9621 47.171C34.5171 52.66 19.1381 52.665 9.62413 47.171C0.109125 41.678 0.0671258 32.77 9.51213 27.281C18.9641 21.788 34.3351 21.788 43.8501 27.281Z" fill="#FFF7DA"/>
</g>
<g opacity="0.1921">
<path opacity="0.9232" d="M43.7878 27.605C53.2678 33.078 53.3178 41.95 43.8998 47.423C34.4888 52.892 19.1658 52.897 9.68577 47.423C0.205766 41.95 0.163766 33.074 9.57377 27.605C18.9918 22.131 34.3078 22.131 43.7878 27.605Z" fill="#FFF7D9"/>
</g>
<g opacity="0.1987">
<path opacity="0.9205" d="M43.7261 27.928C53.1721 33.382 53.2221 42.221 43.8371 47.674C34.4601 53.123 19.1931 53.128 9.74706 47.674C0.301058 42.221 0.25905 33.377 9.63605 27.928C19.0201 22.475 34.2801 22.475 43.7261 27.928Z" fill="#FFF6D7"/>
</g>
<g opacity="0.2053">
<path opacity="0.9179" d="M43.6647 28.252C53.0757 33.686 53.1257 42.493 43.7757 47.926C34.4327 53.355 19.2207 53.36 9.80967 47.926C0.398668 42.492 0.356676 33.681 9.69868 28.252C19.0497 22.818 34.2537 22.818 43.6647 28.252Z" fill="#FFF6D6"/>
</g>
<g opacity="0.2119">
<path opacity="0.9152" d="M43.603 28.575C52.98 33.989 53.03 42.764 43.713 48.177C34.404 53.587 19.248 53.591 9.87096 48.177C0.49396 42.763 0.451959 33.984 9.76096 28.575C19.077 23.162 34.226 23.161 43.603 28.575Z" fill="#FFF6D5"/>
</g>
<g opacity="0.2185">
<path opacity="0.9126" d="M43.541 28.899C52.884 34.293 52.933 43.036 43.651 48.43C34.377 53.82 19.276 53.824 9.93297 48.43C0.589974 43.036 0.548974 34.289 9.82297 28.899C19.105 23.505 34.198 23.505 43.541 28.899Z" fill="#FFF6D4"/>
</g>
<g opacity="0.2252">
<path opacity="0.9099" d="M43.4789 29.222C52.7869 34.596 52.8359 43.307 43.5889 48.681C34.3489 54.051 19.3039 54.055 9.99487 48.681C0.68687 43.307 0.644861 34.592 9.88586 29.222C19.1329 23.848 34.1709 23.848 43.4789 29.222Z" fill="#FFF5D2"/>
</g>
<g opacity="0.2318">
<path opacity="0.9073" d="M43.4169 29.546C52.6909 34.9 52.7399 43.578 43.5259 48.933C34.3199 54.283 19.3299 54.288 10.0569 48.933C0.782876 43.579 0.741883 34.896 9.94788 29.546C19.1609 24.192 34.1429 24.192 43.4169 29.546Z" fill="#FFF5D1"/>
</g>
<g opacity="0.2384">
<path opacity="0.9046" d="M43.3549 29.87C52.5949 35.204 52.6429 43.85 43.4639 49.185C34.2919 54.515 19.3579 54.52 10.1189 49.185C0.879894 43.851 0.837901 35.2 10.0099 29.87C19.1889 24.535 34.1159 24.535 43.3549 29.87Z" fill="#FFF5D0"/>
</g>
<g opacity="0.245">
<path opacity="0.902" d="M43.2928 30.193C52.4978 35.507 52.5468 44.121 43.4008 49.436C34.2628 54.746 19.3848 54.751 10.1798 49.436C0.97481 44.122 0.933808 35.503 10.0718 30.193C19.2168 24.879 34.0878 24.879 43.2928 30.193Z" fill="#FFF4CE"/>
</g>
<g opacity="0.2517">
<path opacity="0.8993" d="M43.2308 30.517C52.4018 35.812 52.4498 44.393 43.3388 49.688C34.2348 54.978 19.4128 54.983 10.2418 49.688C1.07082 44.393 1.03082 35.807 10.1338 30.517C19.2448 25.222 34.0608 25.222 43.2308 30.517Z" fill="#FFF4CD"/>
</g>
<g opacity="0.2583">
<path opacity="0.8967" d="M43.1707 30.84C52.3067 36.115 52.3547 44.664 43.2777 49.939C34.2077 55.21 19.4407 55.214 10.3047 49.939C1.16869 44.664 1.12769 36.11 10.1977 30.84C19.2737 25.565 34.0337 25.565 43.1707 30.84Z" fill="#FFF4CC"/>
</g>
<g opacity="0.2649">
<path opacity="0.894" d="M43.1087 31.164C52.2107 36.419 52.2587 44.936 43.2157 50.191C34.1807 55.442 19.4687 55.446 10.3667 50.191C1.26471 44.936 1.2247 36.414 10.2597 31.164C19.3017 25.909 34.0067 25.909 43.1087 31.164Z" fill="#FFF4CA"/>
</g>
<g opacity="0.2715">
<path opacity="0.8914" d="M43.0467 31.488C52.1137 36.723 52.1617 45.208 43.1537 50.443C34.1527 55.674 19.4967 55.678 10.4287 50.443C1.36172 45.208 1.32073 36.718 10.3217 31.488C19.3307 26.252 33.9787 26.252 43.0467 31.488Z" fill="#FFF3C9"/>
</g>
<g opacity="0.2781">
<path opacity="0.8887" d="M42.984 31.811C52.017 37.026 52.065 45.479 43.09 50.694C34.123 55.905 19.523 55.91 10.489 50.694C1.45503 45.478 1.41603 37.021 10.383 31.811C19.358 26.596 33.951 26.596 42.984 31.811Z" fill="#FFF3C8"/>
</g>
<g opacity="0.2848">
<path opacity="0.8861" d="M42.922 32.135C51.921 37.33 51.968 45.751 43.028 50.946C34.095 56.137 19.55 56.142 10.552 50.946C1.55302 45.751 1.51303 37.326 10.446 32.134C19.386 26.939 33.923 26.939 42.922 32.135Z" fill="#FFF3C6"/>
</g>
<g opacity="0.2914">
<path opacity="0.8834" d="M42.8605 32.458C51.8245 37.634 51.8725 46.022 42.9655 51.198C34.0665 56.369 19.5775 56.374 10.6135 51.198C1.64954 46.022 1.60954 37.63 10.5085 32.458C19.4145 27.283 33.8965 27.283 42.8605 32.458Z" fill="#FFF2C5"/>
</g>
<g opacity="0.298">
<path opacity="0.8808" d="M42.798 32.782C51.728 37.938 51.775 46.294 42.903 51.45C34.038 56.602 19.605 56.606 10.675 51.45C1.74495 46.294 1.70496 37.934 10.57 32.782C19.442 27.626 33.868 27.626 42.798 32.782Z" fill="#FFF2C4"/>
</g>
<g opacity="0.3046">
<path opacity="0.8781" d="M42.7366 33.105C51.6326 38.241 51.6786 46.565 42.8416 51.701C34.0106 56.833 19.6336 56.837 10.7376 51.701C1.84258 46.565 1.80257 38.237 10.6326 33.105C19.4706 27.97 33.8416 27.97 42.7366 33.105Z" fill="#FFF2C2"/>
</g>
<g opacity="0.3113">
<path opacity="0.8755" d="M42.6755 33.429C51.5365 38.545 51.5835 46.837 42.7795 51.953C33.9835 57.065 19.6605 57.069 10.7995 51.953C1.93846 46.837 1.89946 38.541 10.6955 33.429C19.4985 28.313 33.8135 28.313 42.6755 33.429Z" fill="#FFF2C1"/>
</g>
<g opacity="0.3179">
<path opacity="0.8728" d="M42.6129 33.753C51.4399 38.849 51.4859 47.109 42.7169 52.205C33.9549 57.297 19.6879 57.301 10.8609 52.205C2.03388 47.109 1.99487 38.845 10.7569 33.753C19.5259 28.656 33.7859 28.656 42.6129 33.753Z" fill="#FFF1C0"/>
</g>
<g opacity="0.3245">
<path opacity="0.8702" d="M42.5514 34.076C51.3434 39.152 51.3904 47.38 42.6554 52.456C33.9274 57.528 19.7164 57.532 10.9234 52.456C2.13136 47.38 2.09237 39.148 10.8204 34.076C19.5544 29 33.7594 29 42.5514 34.076Z" fill="#FFF1BE"/>
</g>
<g opacity="0.3311">
<path opacity="0.8676" d="M42.4888 34.4C51.2468 39.456 51.2928 47.652 42.5918 52.708C33.8978 57.76 19.7418 57.765 10.9848 52.708C2.22679 47.652 2.18777 39.452 10.8818 34.4C19.5828 29.343 33.7308 29.343 42.4888 34.4Z" fill="#FFF1BD"/>
</g>
<g opacity="0.3377">
<path opacity="0.8649" d="M42.4273 34.723C51.1503 39.76 51.1973 47.923 42.5303 52.959C33.8703 57.992 19.7703 57.996 11.0473 52.959C2.32427 47.923 2.28527 39.755 10.9453 34.723C19.6113 29.687 33.7043 29.687 42.4273 34.723Z" fill="#FFF0BC"/>
</g>
<g opacity="0.3444">
<path opacity="0.8623" d="M42.3657 35.047C51.0547 40.064 51.1007 48.195 42.4677 53.211C33.8417 58.224 19.7977 58.228 11.1087 53.211C2.41968 48.194 2.38069 40.059 11.0067 35.047C19.6397 30.03 33.6767 30.03 42.3657 35.047Z" fill="#FFF0BA"/>
</g>
<g opacity="0.351">
<path opacity="0.8596" d="M42.3037 35.37C50.9587 40.367 51.0047 48.466 42.4057 53.462C33.8147 58.455 19.8257 58.459 11.1707 53.462C2.5157 48.465 2.4777 40.362 11.0687 35.37C19.6677 30.374 33.6497 30.374 42.3037 35.37Z" fill="#FFF0B9"/>
</g>
<g opacity="0.3576">
<path opacity="0.857" d="M42.2426 35.694C50.8626 40.671 50.9086 48.738 42.3446 53.715C33.7876 58.688 19.8536 58.692 11.2336 53.715C2.61357 48.738 2.57457 40.667 11.1326 35.695C19.6956 30.717 33.6216 30.717 42.2426 35.694Z" fill="#FFF0B8"/>
</g>
<g opacity="0.3642">
<path opacity="0.8543" d="M42.1806 36.018C50.7666 40.975 50.8116 49.01 42.2816 53.967C33.7586 58.92 19.8806 58.924 11.2946 53.967C2.7086 49.01 2.67061 40.971 11.1936 36.018C19.7236 31.061 33.5946 31.06 42.1806 36.018Z" fill="#FFEFB7"/>
</g>
<g opacity="0.3709">
<path opacity="0.8517" d="M42.118 36.341C50.67 41.278 50.715 49.28 42.219 54.218C33.73 59.151 19.908 59.156 11.356 54.218C2.80402 49.281 2.76602 41.274 11.255 36.341C19.751 31.404 33.566 31.404 42.118 36.341Z" fill="#FFEFB5"/>
</g>
<g opacity="0.3775">
<path opacity="0.849" d="M42.0565 36.665C50.5735 41.582 50.6185 49.552 42.1565 54.47C33.7015 59.383 19.9355 59.388 11.4185 54.47C2.90151 49.553 2.86351 41.579 11.3185 36.665C19.7795 31.747 33.5395 31.747 42.0565 36.665Z" fill="#FFEFB4"/>
</g>
<g opacity="0.3841">
<path opacity="0.8464" d="M41.9945 36.988C50.4775 41.886 50.5225 49.823 42.0945 54.721C33.6735 59.615 19.9625 59.619 11.4805 54.721C2.99753 49.823 2.96052 41.881 11.3805 36.988C19.8075 32.091 33.5115 32.091 41.9945 36.988Z" fill="#FFEEB3"/>
</g>
<g opacity="0.3907">
<path opacity="0.8437" d="M41.9324 37.312C50.3804 42.19 50.4254 50.095 42.0314 54.973C33.6444 59.847 19.9894 59.851 11.5414 54.973C3.09345 50.095 3.05543 42.186 11.4424 37.312C19.8364 32.434 33.4844 32.434 41.9324 37.312Z" fill="#FFEEB1"/>
</g>
<g opacity="0.3974">
<path opacity="0.8411" d="M41.8705 37.635C50.2845 42.493 50.3285 50.366 41.9695 55.224C33.6175 60.078 20.0175 60.082 11.6035 55.224C3.18946 50.366 3.15246 42.489 11.5045 37.635C19.8645 32.778 33.4565 32.778 41.8705 37.635Z" fill="#FFEEB0"/>
</g>
<g opacity="0.404">
<path opacity="0.8384" d="M41.8097 37.959C50.1897 42.797 50.2337 50.638 41.9087 55.476C33.5907 60.31 20.0467 60.314 11.6667 55.476C3.2867 50.638 3.24969 42.793 11.5687 37.959C19.8927 33.121 33.4297 33.121 41.8097 37.959Z" fill="#FFEEAF"/>
</g>
<g opacity="0.4106">
<path opacity="0.8358" d="M41.7474 38.283C50.0924 43.101 50.1364 50.91 41.8454 55.728C33.5614 60.542 20.0724 60.546 11.7274 55.728C3.38236 50.91 3.34536 43.097 11.6294 38.283C19.9204 33.464 33.4024 33.464 41.7474 38.283Z" fill="#FFEDAD"/>
</g>
<g opacity="0.4172">
<path opacity="0.8331" d="M41.6848 38.606C49.9958 43.404 50.0398 51.181 41.7828 55.979C33.5328 60.773 20.0998 60.778 11.7888 55.979C3.47777 51.181 3.44078 43.4 11.6908 38.605C19.9478 33.808 33.3738 33.808 41.6848 38.606Z" fill="#FFEDAC"/>
</g>
<g opacity="0.4238">
<path opacity="0.8305" d="M41.6233 38.93C49.8993 43.708 49.9433 51.453 41.7203 56.231C33.5043 61.006 20.1273 61.01 11.8513 56.231C3.57527 51.453 3.53827 43.704 11.7543 38.93C19.9763 34.151 33.3473 34.151 41.6233 38.93Z" fill="#FFEDAB"/>
</g>
<g opacity="0.4305">
<path opacity="0.8278" d="M41.5617 39.253C49.8037 44.011 49.8477 51.724 41.6587 56.483C33.4767 61.238 20.1557 61.242 11.9137 56.483C3.67166 51.725 3.63466 44.008 11.8167 39.253C20.0047 34.495 33.3197 34.495 41.5617 39.253Z" fill="#FFECA9"/>
</g>
<g opacity="0.4371">
<path opacity="0.8252" d="M41.4997 39.577C49.7077 44.316 49.7507 51.996 41.5967 56.735C33.4487 61.47 20.1827 61.474 11.9757 56.735C3.76767 51.996 3.73167 44.312 11.8787 39.577C20.0327 34.838 33.2927 34.838 41.4997 39.577Z" fill="#FFECA8"/>
</g>
<g opacity="0.4437">
<path opacity="0.8225" d="M41.4372 39.9C49.6102 44.619 49.6532 52.267 41.5332 56.986C33.4202 61.701 20.2092 61.705 12.0362 56.986C3.86321 52.267 3.82721 44.615 11.9402 39.9C20.0602 35.182 33.2642 35.182 41.4372 39.9Z" fill="#FFECA7"/>
</g>
<g opacity="0.4503">
<path opacity="0.8199" d="M41.3756 40.224C49.5146 44.923 49.5576 52.539 41.4716 57.238C33.3926 61.933 20.2376 61.937 12.0986 57.238C3.9596 52.539 3.9236 44.919 12.0026 40.224C20.0886 35.525 33.2376 35.525 41.3756 40.224Z" fill="#FFECA5"/>
</g>
<g opacity="0.457">
<path opacity="0.8172" d="M41.3141 40.548C49.4181 45.227 49.4611 52.811 41.4091 57.49C33.3641 62.165 20.2641 62.169 12.1601 57.49C4.05612 52.811 4.02011 45.223 12.0651 40.548C20.1161 35.869 33.2091 35.869 41.3141 40.548Z" fill="#FFEBA4"/>
</g>
<g opacity="0.4636">
<path opacity="0.8146" d="M41.2525 40.871C49.3225 45.53 49.3655 53.082 41.3475 57.741C33.3365 62.397 20.2925 62.401 12.2225 57.741C4.15251 53.082 4.11651 45.526 12.1275 40.871C20.1455 36.212 33.1825 36.212 41.2525 40.871Z" fill="#FFEBA3"/>
</g>
<g opacity="0.4702">
<path opacity="0.8119" d="M41.1904 41.195C49.2264 45.834 49.2684 53.354 41.2854 57.993C33.3084 62.629 20.3204 62.633 12.2844 57.993C4.2484 53.354 4.21339 45.83 12.1904 41.195C20.1734 36.555 33.1544 36.555 41.1904 41.195Z" fill="#FFEBA1"/>
</g>
<g opacity="0.4768">
<path opacity="0.8093" d="M41.1284 41.518C49.1294 46.138 49.1714 53.625 41.2224 58.244C33.2794 62.86 20.3474 62.864 12.3464 58.244C4.34541 53.625 4.30941 46.133 12.2524 41.518C20.2014 36.899 33.1274 36.899 41.1284 41.518Z" fill="#FFEAA0"/>
</g>
<g opacity="0.4834">
<path opacity="0.8066" d="M41.0664 41.842C49.0334 46.442 49.0754 53.897 41.1604 58.496C33.2524 63.092 20.3744 63.096 12.4084 58.496C4.44142 53.896 4.40643 46.437 12.3144 41.842C20.2294 37.242 33.0994 37.242 41.0664 41.842Z" fill="#FFEA9F"/>
</g>
<g opacity="0.4901">
<path opacity="0.804" d="M41.0043 42.165C48.9363 46.745 48.9783 54.168 41.0973 58.747C33.2223 63.323 20.4013 63.327 12.4693 58.747C4.53734 54.167 4.50134 46.74 12.3763 42.165C20.2573 37.586 33.0723 37.586 41.0043 42.165Z" fill="#FFEA9D"/>
</g>
<g opacity="0.4967">
<path opacity="0.8013" d="M46.8877 50.7947C46.9057 44.3468 37.8962 39.0945 26.7644 39.0633C15.6325 39.0321 6.59371 44.2339 6.57566 50.6819C6.5576 57.1298 15.5671 62.3821 26.699 62.4133C37.8308 62.4445 46.8696 57.2427 46.8877 50.7947Z" fill="#FFEA9C"/>
</g>
<g opacity="0.5033">
<path opacity="0.7987" d="M40.8812 42.813C48.7452 47.353 48.7862 54.712 40.9742 59.252C33.1682 63.788 20.4582 63.792 12.5942 59.252C4.73022 54.712 4.69622 47.35 12.5022 42.813C20.3132 38.273 33.0172 38.272 40.8812 42.813Z" fill="#FFE99B"/>
</g>
<g opacity="0.5099">
<path opacity="0.796" d="M40.8193 43.136C48.6483 47.656 48.6893 54.982 40.9113 59.503C33.1393 64.02 20.4843 64.023 12.6553 59.503C4.82627 54.983 4.79126 47.653 12.5633 43.136C20.3413 38.616 32.9903 38.616 40.8193 43.136Z" fill="#FFE99A"/>
</g>
<g opacity="0.5166">
<path opacity="0.7934" d="M40.7573 43.46C48.5523 47.96 48.5933 55.255 40.8493 59.755C33.1113 64.252 20.5123 64.256 12.7173 59.755C4.92227 55.255 4.88828 47.957 12.6253 43.46C20.3693 38.96 32.9623 38.959 40.7573 43.46Z" fill="#FFE998"/>
</g>
<g opacity="0.5232">
<path opacity="0.7907" d="M40.6952 43.783C48.4552 48.263 48.4962 55.526 40.7862 60.006C33.0822 64.483 20.5392 64.487 12.7782 60.006C5.01819 55.526 4.98319 48.26 12.6872 43.783C20.3982 39.303 32.9352 39.303 40.6952 43.783Z" fill="#FFE997"/>
</g>
<g opacity="0.5298">
<path opacity="0.7881" d="M40.6332 44.107C48.3592 48.568 48.4002 55.797 40.7242 60.258C33.0542 64.715 20.5672 64.719 12.8412 60.258C5.11518 55.797 5.08119 48.564 12.7502 44.107C20.4262 39.646 32.9072 39.646 40.6332 44.107Z" fill="#FFE896"/>
</g>
<g opacity="0.5364">
<path opacity="0.7854" d="M40.5715 44.43C48.2635 48.871 48.3035 56.068 40.6615 60.509C33.0265 64.946 20.5935 64.95 12.9025 60.509C5.21047 56.068 5.17647 48.867 12.8125 44.43C20.4545 39.99 32.8805 39.99 40.5715 44.43Z" fill="#FFE894"/>
</g>
<g opacity="0.543">
<path opacity="0.7828" d="M40.5091 44.754C48.1661 49.175 48.2071 56.34 40.5991 60.761C32.9981 65.178 20.6211 65.182 12.9641 60.761C5.30711 56.34 5.27311 49.171 12.8741 44.754C20.4821 40.333 32.8521 40.333 40.5091 44.754Z" fill="#FFE893"/>
</g>
<g opacity="0.5497">
<path opacity="0.7801" d="M40.4485 45.078C48.0715 49.479 48.1115 56.612 40.5385 61.013C32.9715 65.41 20.6505 65.414 13.0275 61.013C5.40448 56.612 5.37048 49.475 12.9375 45.078C20.5105 40.677 32.8255 40.677 40.4485 45.078Z" fill="#FFE792"/>
</g>
<g opacity="0.5563">
<path opacity="0.7775" d="M40.3864 45.401C47.9754 49.782 48.0144 56.883 40.4754 61.264C32.9424 65.642 20.6774 65.645 13.0884 61.264C5.49939 56.883 5.46639 49.778 12.9994 45.401C20.5384 41.02 32.7974 41.02 40.3864 45.401Z" fill="#FFE790"/>
</g>
<g opacity="0.5629">
<path opacity="0.7748" d="M40.324 45.725C47.878 50.086 47.918 57.155 40.413 61.517C32.914 65.875 20.704 65.878 13.15 61.517C5.59603 57.156 5.56303 50.083 13.061 45.725C20.566 41.363 32.77 41.363 40.324 45.725Z" fill="#FFE78F"/>
</g>
<g opacity="0.5695">
<path opacity="0.7722" d="M45.9219 53.9559C45.939 47.8172 37.3613 42.8168 26.763 42.7872C16.1646 42.7575 7.55905 47.7098 7.54186 53.8484C7.52468 59.9871 16.1024 64.9875 26.7007 65.0172C37.2991 65.0468 45.9047 60.0945 45.9219 53.9559Z" fill="#FFE78E"/>
</g>
<g opacity="0.5762">
<path opacity="0.7695" d="M40.2003 46.372C47.6853 50.694 47.7253 57.698 40.2883 62.02C32.8583 66.338 20.7593 66.342 13.2743 62.02C5.78931 57.698 5.75531 50.69 13.1863 46.372C20.6223 42.05 32.7153 42.05 40.2003 46.372Z" fill="#FFE68C"/>
</g>
<g opacity="0.5828">
<path opacity="0.7669" d="M40.1383 46.695C47.5893 50.997 47.6283 57.969 40.2263 62.271C32.8303 66.569 20.7873 66.573 13.3363 62.271C5.88533 57.969 5.85232 50.993 13.2483 46.695C20.6503 42.394 32.6873 42.394 40.1383 46.695Z" fill="#FFE68B"/>
</g>
<g opacity="0.5894">
<path opacity="0.7642" d="M40.0759 47.019C47.4929 51.301 47.5319 58.241 40.1629 62.523C32.8009 66.802 20.8129 66.805 13.3969 62.523C5.98086 58.241 5.94787 51.297 13.3099 47.019C20.6789 42.737 32.6599 42.737 40.0759 47.019Z" fill="#FFE68A"/>
</g>
<g opacity="0.596">
<path opacity="0.7616" d="M40.0152 47.343C47.3972 51.605 47.4362 58.513 40.1022 62.775C32.7742 67.034 20.8422 67.037 13.4602 62.775C6.07824 58.513 6.04523 51.601 13.3732 47.343C20.7072 43.081 32.6332 43.081 40.0152 47.343Z" fill="#FFE588"/>
</g>
<g opacity="0.6026">
<path opacity="0.7589" d="M39.9531 47.666C47.3011 51.908 47.3391 58.784 40.0401 63.026C32.7461 67.265 20.8701 67.268 13.5221 63.026C6.17412 58.784 6.14212 51.905 13.4361 47.666C20.7351 43.424 32.6051 43.424 39.9531 47.666Z" fill="#FFE587"/>
</g>
<g opacity="0.6093">
<path opacity="0.7563" d="M39.8912 47.99C47.2042 52.212 47.2432 59.056 39.9772 63.278C32.7172 67.497 20.8962 67.501 13.5832 63.278C6.27016 59.056 6.23716 52.209 13.4972 47.99C20.7632 43.768 32.5782 43.768 39.8912 47.99Z" fill="#FFE586"/>
</g>
<g opacity="0.6159">
<path opacity="0.7536" d="M39.8292 48.313C47.1082 52.515 47.1462 59.327 39.9152 63.529C32.6892 67.728 20.9242 67.732 13.6452 63.529C6.36618 59.327 6.33418 52.512 13.5592 48.313C20.7912 44.111 32.5502 44.111 39.8292 48.313Z" fill="#FFE584"/>
</g>
<g opacity="0.6225">
<path opacity="0.751" d="M39.7671 48.637C47.0121 52.82 47.0501 59.599 39.8521 63.782C32.6601 67.961 20.9511 67.965 13.7061 63.782C6.46209 59.599 6.42909 52.817 13.6211 48.638C20.8191 44.454 32.5231 44.454 39.7671 48.637Z" fill="#FFE483"/>
</g>
<g opacity="0.6291">
<path opacity="0.7483" d="M39.7051 48.96C46.9151 53.123 46.9531 59.87 39.7901 64.033C32.6331 68.193 20.9791 68.196 13.7691 64.033C6.55908 59.87 6.52708 53.12 13.6841 48.96C20.8471 44.798 32.4951 44.798 39.7051 48.96Z" fill="#FFE482"/>
</g>
<g opacity="0.6358">
<path opacity="0.7457" d="M39.6443 49.284C46.8203 53.427 46.8583 60.142 39.7293 64.285C32.6063 68.425 21.0073 68.428 13.8323 64.285C6.65632 60.142 6.62432 53.424 13.7483 49.284C20.8753 45.141 32.4683 45.141 39.6443 49.284Z" fill="#FFE480"/>
</g>
<g opacity="0.6424">
<path opacity="0.743" d="M39.582 49.608C46.723 53.731 46.761 60.414 39.666 64.537C32.577 68.657 21.034 68.66 13.893 64.537C6.75199 60.414 6.71999 53.728 13.809 49.608C20.903 45.485 32.44 45.485 39.582 49.608Z" fill="#FFE37F"/>
</g>
<g opacity="0.649">
<path opacity="0.7404" d="M39.52 49.931C46.627 54.034 46.664 60.685 39.604 64.788C32.549 68.888 21.062 68.891 13.955 64.788C6.848 60.685 6.817 54.031 13.871 49.931C20.931 45.828 32.413 45.828 39.52 49.931Z" fill="#FFE37E"/>
</g>
<g opacity="0.6556">
<path opacity="0.7377" d="M39.4579 50.255C46.5309 54.338 46.5679 60.957 39.5409 65.04C32.5199 69.12 21.0889 69.123 14.0159 65.04C6.94391 60.957 6.91192 54.335 13.9329 50.255C20.9599 46.172 32.3849 46.172 39.4579 50.255Z" fill="#FFE37D"/>
</g>
<g opacity="0.6623">
<path opacity="0.7351" d="M39.3959 50.578C46.4339 54.641 46.4709 61.228 39.4789 65.291C32.4919 69.351 21.1159 69.355 14.0779 65.291C7.03993 61.228 7.00893 54.638 13.9949 50.578C20.9879 46.515 32.3579 46.515 39.3959 50.578Z" fill="#FFE37B"/>
</g>
<g opacity="0.6689">
<path opacity="0.7325" d="M39.3342 50.902C46.3382 54.946 46.3752 61.5 39.4162 65.543C32.4632 69.583 21.1432 69.587 14.1392 65.543C7.13522 61.499 7.10422 54.942 14.0572 50.902C21.0162 46.859 32.3302 46.858 39.3342 50.902Z" fill="#FFE27A"/>
</g>
<g opacity="0.6755">
<path opacity="0.7298" d="M39.2718 51.225C46.2408 55.249 46.2778 61.771 39.3538 65.794C32.4358 69.815 21.1708 69.818 14.2018 65.794C7.23284 61.77 7.20184 55.245 14.1198 51.225C21.0438 47.202 32.3028 47.202 39.2718 51.225Z" fill="#FFE279"/>
</g>
<g opacity="0.6821">
<path opacity="0.7272" d="M39.2112 51.549C46.1462 55.553 46.1822 62.042 39.2932 66.046C32.4092 70.047 21.2002 70.05 14.2652 66.046C7.3302 62.042 7.2992 55.549 14.1832 51.549C21.0722 47.545 32.2762 47.545 39.2112 51.549Z" fill="#FFE277"/>
</g>
<g opacity="0.6887">
<path opacity="0.7245" d="M39.1497 51.873C46.0497 55.857 46.0867 62.314 39.2307 66.298C32.3807 70.279 21.2267 70.282 14.3267 66.298C7.42671 62.314 7.39572 55.853 14.2457 51.873C21.1007 47.889 32.2487 47.889 39.1497 51.873Z" fill="#FFE176"/>
</g>
<g opacity="0.6954">
<path opacity="0.7219" d="M39.0871 52.196C45.9531 56.16 45.9891 62.585 39.1681 66.549C32.3521 70.51 21.2541 70.513 14.3881 66.549C7.52214 62.585 7.49113 56.156 14.3071 52.196C21.1281 48.232 32.2211 48.232 39.0871 52.196Z" fill="#FFE175"/>
</g>
<g opacity="0.702">
<path opacity="0.7192" d="M39.025 52.52C45.857 56.464 45.8931 62.857 39.1051 66.802C32.3231 70.743 21.281 70.746 14.449 66.802C7.61705 62.858 7.58704 56.461 14.369 52.52C21.156 48.576 32.193 48.576 39.025 52.52Z" fill="#FFE173"/>
</g>
<g opacity="0.7086">
<path opacity="0.7166" d="M38.9637 52.843C45.7607 56.767 45.7967 63.128 39.0437 67.053C32.2957 70.974 21.3097 70.978 14.5117 67.053C7.71466 63.129 7.68467 56.765 14.4317 52.843C21.1857 48.919 32.1667 48.919 38.9637 52.843Z" fill="#FFE172"/>
</g>
<g opacity="0.7152">
<path opacity="0.7139" d="M38.9009 53.167C45.6639 57.072 45.6999 63.4 38.9809 67.305C32.2669 71.206 21.336 71.21 14.573 67.305C7.80996 63.4 7.77994 57.069 14.4939 53.167C21.2129 49.262 32.1379 49.262 38.9009 53.167Z" fill="#FFE071"/>
</g>
<g opacity="0.7219">
<path opacity="0.7113" d="M38.839 53.491C45.568 57.376 45.603 63.672 38.918 67.557C32.239 71.439 21.363 71.442 14.635 67.557C7.90596 63.672 7.87697 57.373 14.556 53.491C21.241 49.606 32.111 49.606 38.839 53.491Z" fill="#FFE06F"/>
</g>
<g opacity="0.7285">
<path opacity="0.7086" d="M38.777 53.814C45.471 57.679 45.506 63.943 38.856 67.808C32.211 71.67 21.391 71.673 14.697 67.808C8.00298 63.943 7.97298 57.676 14.618 53.814C21.269 49.949 32.083 49.949 38.777 53.814Z" fill="#FFE06E"/>
</g>
<g opacity="0.7351">
<path opacity="0.706" d="M38.7159 54.138C45.3759 57.983 45.4109 64.215 38.7939 68.06C32.1829 71.902 21.4189 71.905 14.7589 68.06C8.09886 64.215 8.06988 57.98 14.6809 54.138C21.2969 50.293 32.0559 50.293 38.7159 54.138Z" fill="#FFDF6D"/>
</g>
<g opacity="0.7417">
<path opacity="0.7033" d="M38.6539 54.461C45.2789 58.286 45.3139 64.486 38.7319 68.311C32.1549 72.133 21.4459 72.136 14.8209 68.311C8.19589 64.486 8.16589 58.283 14.7429 54.461C21.3249 50.636 32.0279 50.636 38.6539 54.461Z" fill="#FFDF6B"/>
</g>
<g opacity="0.7483">
<path opacity="0.7007" d="M38.5918 54.785C45.1828 58.59 45.2178 64.758 38.6698 68.563C32.1268 72.365 21.4738 72.368 14.8828 68.563C8.29177 64.758 8.26278 58.587 14.8058 54.785C21.3528 50.98 32.0008 50.98 38.5918 54.785Z" fill="#FFDF6A"/>
</g>
<g opacity="0.755">
<path opacity="0.698" d="M38.5302 55.108C45.0872 58.893 45.1212 65.029 38.6072 68.814C32.0982 72.596 21.5012 72.599 14.9442 68.814C8.3872 65.028 8.35818 58.89 14.8672 55.108C21.3812 51.323 31.9732 51.323 38.5302 55.108Z" fill="#FFDF69"/>
</g>
<g opacity="0.7616">
<path opacity="0.6954" d="M38.4678 55.432C44.9898 59.198 45.0248 65.301 38.5448 69.067C32.0698 72.829 21.5278 72.833 15.0058 69.067C8.48384 65.301 8.45483 59.195 14.9288 55.433C21.4088 51.667 31.9458 51.667 38.4678 55.432Z" fill="#FFDE67"/>
</g>
<g opacity="0.7682">
<path opacity="0.6927" d="M38.4067 55.756C44.8947 59.502 44.9287 65.573 38.4827 69.319C32.0427 73.062 21.5557 73.065 15.0677 69.319C8.57971 65.573 8.55172 59.499 14.9917 55.756C21.4377 52.01 31.9187 52.01 38.4067 55.756Z" fill="#FFDE66"/>
</g>
<g opacity="0.7748">
<path opacity="0.6901" d="M38.3447 56.079C44.7977 59.805 44.8317 65.844 38.4207 69.57C32.0147 73.293 21.5837 73.296 15.1307 69.57C8.67772 65.844 8.64871 59.802 15.0547 56.079C21.4657 52.353 31.8917 52.353 38.3447 56.079Z" fill="#FFDE65"/>
</g>
<g opacity="0.7815">
<path opacity="0.6874" d="M38.2837 56.403C44.7027 60.109 44.7367 66.116 38.3597 69.822C31.9877 73.525 21.6127 73.528 15.1937 69.822C8.77471 66.116 8.7467 60.106 15.1177 56.403C21.4947 52.697 31.8647 52.697 38.2837 56.403Z" fill="#FFDD63"/>
</g>
<g opacity="0.7881">
<path opacity="0.6848" d="M38.221 56.726C44.606 60.412 44.639 66.387 38.296 70.073C31.958 73.756 21.638 73.759 15.254 70.073C8.86902 66.387 8.84101 60.409 15.179 56.726C21.522 53.04 31.836 53.04 38.221 56.726Z" fill="#FFDD62"/>
</g>
<g opacity="0.7947">
<path opacity="0.6821" d="M38.1596 57.05C44.5096 60.716 44.5436 66.659 38.2346 70.325C31.9306 73.988 21.6666 73.991 15.3166 70.325C8.96663 66.659 8.93863 60.713 15.2416 57.05C21.5506 53.384 31.8096 53.384 38.1596 57.05Z" fill="#FFDD61"/>
</g>
<g opacity="0.8013">
<path opacity="0.6795" d="M38.0969 57.374C44.4129 61.02 44.4459 66.931 38.1709 70.577C31.9009 74.221 21.6929 74.223 15.3769 70.577C9.06095 66.931 9.03294 61.017 15.3029 57.374C21.5779 53.727 31.7809 53.727 38.0969 57.374Z" fill="#FFDD60"/>
</g>
<g opacity="0.8079">
<path opacity="0.6768" d="M38.0356 57.697C44.3166 61.323 44.3496 67.202 38.1096 70.828C31.8736 74.452 21.7216 74.455 15.4396 70.828C9.15857 67.201 9.13056 61.321 15.3656 57.697C21.6066 54.071 31.7546 54.071 38.0356 57.697Z" fill="#FFDC5E"/>
</g>
<g opacity="0.8146">
<path opacity="0.6742" d="M37.9728 58.021C44.2198 61.628 44.2529 67.473 38.0469 71.08C31.8459 74.684 21.7478 74.687 15.5008 71.08C9.25385 67.473 9.22585 61.624 15.4279 58.021C21.6339 54.414 31.7258 54.414 37.9728 58.021Z" fill="#FFDC5D"/>
</g>
<g opacity="0.8212">
<path opacity="0.6715" d="M37.9109 58.344C44.1239 61.931 44.1559 67.744 37.9839 71.331C31.8169 74.915 21.7749 74.918 15.5629 71.331C9.34986 67.744 9.32287 61.927 15.4899 58.344C21.6619 54.757 31.6989 54.757 37.9109 58.344Z" fill="#FFDC5C"/>
</g>
<g opacity="0.8278">
<path opacity="0.6689" d="M37.8489 58.668C44.0269 62.235 44.0599 68.016 37.9219 71.583C31.7889 75.147 21.8029 75.15 15.6249 71.583C9.44689 68.016 9.41888 62.232 15.5519 58.668C21.6899 55.101 31.6709 55.101 37.8489 58.668Z" fill="#FFDB5A"/>
</g>
<g opacity="0.8344">
<path opacity="0.6662" d="M37.7878 58.991C43.9318 62.538 43.9638 68.287 37.8598 71.835C31.7608 75.379 21.8308 75.382 15.6868 71.835C9.54277 68.288 9.51577 62.536 15.6148 58.992C21.7178 55.444 31.6438 55.444 37.7878 58.991Z" fill="#FFDB59"/>
</g>
<g opacity="0.8411">
<path opacity="0.6636" d="M37.7264 59.315C43.8354 62.842 43.8684 68.559 37.7984 72.087C31.7334 75.611 21.8584 75.614 15.7494 72.087C9.64039 68.56 9.61338 62.84 15.6774 59.315C21.7464 55.788 31.6164 55.788 37.7264 59.315Z" fill="#FFDB58"/>
</g>
<g opacity="0.8477">
<path opacity="0.6609" d="M37.6646 59.639C43.7396 63.146 43.7717 68.831 37.7367 72.339C31.7057 75.844 21.8867 75.847 15.8117 72.339C9.73665 68.832 9.70965 63.144 15.7407 59.639C21.7757 56.131 31.5896 56.131 37.6646 59.639Z" fill="#FFDB56"/>
</g>
<g opacity="0.8543">
<path opacity="0.6583" d="M37.6027 59.962C43.6437 63.45 43.6747 69.102 37.6737 72.59C31.6777 76.075 21.9137 76.078 15.8727 72.59C9.83169 69.102 9.80569 63.447 15.8017 59.962C21.8037 56.475 31.5617 56.475 37.6027 59.962Z" fill="#FFDA55"/>
</g>
<g opacity="0.8609">
<path opacity="0.6556" d="M37.5407 60.286C43.5467 63.754 43.5787 69.374 37.6117 72.842C31.6497 76.307 21.9417 76.31 15.9347 72.842C9.92871 69.374 9.90171 63.751 15.8637 60.286C21.8317 56.818 31.5347 56.818 37.5407 60.286Z" fill="#FFDA54"/>
</g>
<g opacity="0.8676">
<path opacity="0.653" d="M37.4786 60.609C43.4506 64.057 43.4816 69.645 37.5486 73.093C31.6206 76.538 21.9676 76.541 15.9956 73.093C10.0236 69.645 9.99762 64.054 15.9256 60.609C21.8596 57.162 31.5076 57.162 37.4786 60.609Z" fill="#FFDA52"/>
</g>
<g opacity="0.8742">
<path opacity="0.6503" d="M37.416 60.933C43.354 64.361 43.385 69.917 37.486 73.345C31.592 76.77 21.995 76.773 16.058 73.345C10.12 69.917 10.094 64.358 15.988 60.933C21.887 57.505 31.479 57.505 37.416 60.933Z" fill="#FFD951"/>
</g>
<g opacity="0.8808">
<path opacity="0.6477" d="M37.3555 61.256C43.2585 64.664 43.2895 70.188 37.4255 73.596C31.5655 77.001 22.0245 77.004 16.1215 73.596C10.2185 70.188 10.1925 64.661 16.0525 61.256C21.9155 57.848 31.4525 57.848 37.3555 61.256Z" fill="#FFD950"/>
</g>
<g opacity="0.8874">
<path opacity="0.645" d="M37.2929 61.58C43.1619 64.968 43.1929 70.46 37.3619 73.848C31.5359 77.234 22.0509 77.236 16.1819 73.848C10.3129 70.46 10.2869 64.965 16.1129 61.58C21.9429 58.192 31.4239 58.192 37.2929 61.58Z" fill="#FFD94E"/>
</g>
<g opacity="0.894">
<path opacity="0.6424" d="M37.2315 61.904C43.0655 65.272 43.0965 70.732 37.3005 74.1C31.5085 77.466 22.0785 77.468 16.2445 74.1C10.4105 70.732 10.3845 65.269 16.1755 61.904C21.9715 58.535 31.3975 58.535 37.2315 61.904Z" fill="#FFD94D"/>
</g>
<g opacity="0.9007">
<path opacity="0.6397" d="M37.1688 62.227C42.9688 65.576 42.9988 71.003 37.2368 74.351C31.4798 77.697 22.1048 77.7 16.3048 74.351C10.5048 71.003 10.4788 65.572 16.2368 62.227C21.9988 58.879 31.3688 58.879 37.1688 62.227Z" fill="#FFD84C"/>
</g>
<g opacity="0.9073">
<path opacity="0.6371" d="M37.1075 62.551C42.8725 65.88 42.9035 71.275 37.1755 74.603C31.4525 77.929 22.1335 77.932 16.3675 74.603C10.6025 71.274 10.5765 65.876 16.2995 62.55C22.0285 59.222 31.3425 59.222 37.1075 62.551Z" fill="#FFD84A"/>
</g>
<g opacity="0.9139">
<path opacity="0.6344" d="M37.0454 62.874C42.7764 66.183 42.8064 71.546 37.1124 74.855C31.4234 78.161 22.1604 78.164 16.4284 74.855C10.6974 71.546 10.6724 66.18 16.3614 62.874C22.0564 59.565 31.3144 59.565 37.0454 62.874Z" fill="#FFD849"/>
</g>
<g opacity="0.9205">
<path opacity="0.6318" d="M36.9828 63.198C42.6798 66.487 42.7098 71.818 37.0498 75.107C31.3948 78.393 22.1868 78.396 16.4908 75.107C10.7938 71.818 10.7688 66.484 16.4238 63.198C22.0838 59.909 31.2868 59.909 36.9828 63.198Z" fill="#FFD748"/>
</g>
<g opacity="0.9272">
<path opacity="0.6291" d="M36.9222 63.521C42.5842 66.79 42.6142 72.089 36.9892 75.358C31.3682 78.625 22.2162 78.627 16.5542 75.358C10.8922 72.089 10.8672 66.788 16.4882 63.521C22.1122 60.252 31.2592 60.252 36.9222 63.521Z" fill="#FFD746"/>
</g>
<g opacity="0.9338">
<path opacity="0.6265" d="M36.8607 63.845C42.4887 67.094 42.5186 72.361 36.9266 75.61C31.3396 78.857 22.2436 78.859 16.6156 75.61C10.9876 72.361 10.9627 67.092 16.5497 63.845C22.1407 60.596 31.2327 60.596 36.8607 63.845Z" fill="#FFD745"/>
</g>
<g opacity="0.9404">
<path opacity="0.6238" d="M36.7987 64.169C42.3927 67.398 42.4217 72.633 36.8647 75.862C31.3117 79.089 22.2717 79.091 16.6777 75.862C11.0837 72.633 11.0597 67.396 16.6117 64.169C22.1687 60.939 31.2047 60.939 36.7987 64.169Z" fill="#FFD744"/>
</g>
<g opacity="0.947">
<path opacity="0.6212" d="M36.7366 64.492C42.2956 67.702 42.3246 72.904 36.8016 76.113C31.2836 79.32 22.2976 79.323 16.7386 76.113C11.1796 72.903 11.1546 67.699 16.6736 64.492C22.1966 61.283 31.1776 61.283 36.7366 64.492Z" fill="#FFD643"/>
</g>
<g opacity="0.9536">
<path opacity="0.6185" d="M36.6746 64.816C42.1996 68.006 42.2286 73.175 36.7396 76.365C31.2556 79.552 22.3256 79.555 16.8006 76.365C11.2756 73.175 11.2516 68.003 16.7356 64.816C22.2246 61.626 31.1496 61.626 36.6746 64.816Z" fill="#FFD641"/>
</g>
<g opacity="0.9603">
<path opacity="0.6159" d="M36.6126 65.139C42.1026 68.309 42.1316 73.446 36.6776 76.616C31.2276 79.783 22.3536 79.786 16.8626 76.616C11.3726 73.446 11.3476 68.306 16.7976 65.139C22.2526 61.97 31.1226 61.97 36.6126 65.139Z" fill="#FFD640"/>
</g>
<g opacity="0.9669">
<path opacity="0.6132" d="M36.5505 65.463C42.0065 68.613 42.0355 73.718 36.6145 76.868C31.1985 80.015 22.3795 80.018 16.9245 76.868C11.4685 73.718 11.4445 68.61 16.8605 65.463C22.2805 62.313 31.0955 62.313 36.5505 65.463Z" fill="#FFD53F"/>
</g>
<g opacity="0.9735">
<path opacity="0.6106" d="M36.4891 65.786C41.9111 68.916 41.9391 73.989 36.5531 77.12C31.1711 80.248 22.4081 80.25 16.9871 77.12C11.5661 73.99 11.5421 68.914 16.9231 65.786C22.3091 62.656 31.0671 62.656 36.4891 65.786Z" fill="#FFD53D"/>
</g>
<g opacity="0.9801">
<path opacity="0.6079" d="M36.4274 66.11C41.8144 69.22 41.8424 74.261 36.4904 77.372C31.1424 80.48 22.4354 80.482 17.0484 77.372C11.6614 74.262 11.6374 69.218 16.9854 66.11C22.3374 63 31.0404 63 36.4274 66.11Z" fill="#FFD53C"/>
</g>
<g opacity="0.9868">
<path opacity="0.6053" d="M40.3929 72.0599C40.4052 67.6902 34.2993 64.1308 26.7551 64.1097C19.2109 64.0886 13.0852 67.6138 13.0729 71.9834C13.0607 76.3531 19.1666 79.9126 26.7108 79.9337C34.255 79.9548 40.3807 76.4296 40.3929 72.0599Z" fill="#FFD53B"/>
</g>
<g opacity="0.9934">
<path opacity="0.6026" d="M36.3033 66.757C41.6213 69.827 41.6493 74.804 36.3663 77.875C31.0863 80.943 22.4903 80.945 17.1723 77.875C11.8543 74.805 11.8303 69.825 17.1103 66.757C22.3933 63.687 30.9853 63.687 36.3033 66.757Z" fill="#FFD439"/>
</g>
<path opacity="0.6" d="M36.2414 67.081C41.5254 70.132 41.5534 75.076 36.3034 78.127C31.0584 81.175 22.5173 81.178 17.2333 78.127C11.9493 75.076 11.9263 70.129 17.1713 67.081C22.4213 64.03 30.9574 64.03 36.2414 67.081Z" fill="#FFD438"/>
<path d="M27.0918 50.968C40.9227 50.968 52.1348 39.5584 52.1348 25.484C52.1348 11.4096 40.9227 0 27.0918 0C13.261 0 2.04883 11.4096 2.04883 25.484C2.04883 39.5584 13.261 50.968 27.0918 50.968Z" fill="#E9F0FC"/>
<path d="M44.5038 33.973C42.4708 32.143 42.5118 31.655 38.0198 34.014C33.5278 36.373 29.5798 29.333 31.0288 28.006C32.4778 26.679 35.8108 29.665 38.5278 27.748C41.6498 25.546 40.8698 18.769 35.8108 17.095C31.3548 15.62 24.4728 25.484 22.7698 23.73C21.5478 22.471 23.8208 19.343 22.4798 17.832C21.3788 16.591 17.2638 20.486 15.9598 18.864C14.6558 17.242 16.8838 14.52 18.6758 13.576C22.0698 11.787 20.7898 8.617 24.9428 8.985C28.4548 9.297 31.7528 12.966 31.3178 10.017C30.9898 7.791 31.0838 3.413 32.8258 0.679001C30.9838 0.240001 29.0658 0 27.0918 0C23.3088 0 19.7248 0.859002 16.5098 2.386C17.7418 3.242 20.2088 5.00899 19.8228 6.52699C19.1468 9.18099 16.1188 6.31899 13.0128 8.54199C10.1628 10.582 9.18083 9.444 7.42383 9.718C4.06083 14.056 2.04883 19.529 2.04883 25.483C2.04883 35.416 7.63683 44.016 15.7858 48.22C14.9948 46.194 14.2878 43.362 15.0898 40.833C16.5388 36.262 17.8428 35.23 17.1188 31.986C16.3938 28.742 17.2638 22.697 19.2918 23.729C21.3208 24.761 21.6098 29.479 25.2328 28.595C28.8548 27.71 30.4698 35.82 35.7488 36.41C39.3748 36.815 38.0188 44.318 36.8148 48.975C42.9158 46.357 47.7788 41.349 50.2838 35.105C48.6338 36.742 46.3518 35.636 44.5038 33.973ZM11.4668 31.569C11.2708 33.231 10.9718 33.559 10.0538 33.953C9.13583 34.346 8.10984 33.29 9.00284 32.233C9.96684 31.094 8.87883 30.695 9.14783 28.375C9.42583 25.979 12.2388 27.023 12.2388 28.485C12.2398 29.546 11.5398 30.955 11.4668 31.569ZM44.9928 40.318C43.5918 41.055 42.9168 43.66 41.6958 42.511C40.9708 41.829 41.9918 40.244 42.1848 39.359C42.3778 38.474 43.2008 36.476 44.4668 37.166C45.8198 37.903 46.3938 39.58 44.9928 40.318Z" fill="#320C7E"/>
</svg>
