<svg width="65" height="83" viewBox="0 0 65 83" fill="none" xmlns="http://www.w3.org/2000/svg">
<path d="M59.3259 37.5843L59.2918 49.7653C59.2868 51.4503 58.7198 53.1333 57.5898 54.7133L57.6248 42.5323C58.7538 40.9523 59.3209 39.2693 59.3259 37.5843Z" fill="url(#paint0_linear_71_24891)"/>
<mask id="mask0_71_24891" style="mask-type:luminance" maskUnits="userSpaceOnUse" x="57" y="37" width="3" height="18">
<path d="M59.3259 37.5843L59.2918 49.7653C59.2868 51.4503 58.7198 53.1333 57.5898 54.7133L57.6248 42.5323C58.7538 40.9523 59.3209 39.2693 59.3259 37.5843Z" fill="white"/>
</mask>
<g mask="url(#mask0_71_24891)">
<path d="M59.3261 37.5843L59.2921 49.7653C59.2921 49.8313 59.2911 49.8973 59.2891 49.9633L59.3241 37.7823C59.3251 37.7163 59.3261 37.6503 59.3261 37.5843Z" fill="url(#paint1_linear_71_24891)"/>
<path d="M59.3226 37.7813L59.2876 49.9623C59.2756 50.3923 59.2266 50.8213 59.1406 51.2493L59.1756 39.0683C59.2616 38.6413 59.3106 38.2113 59.3226 37.7813Z" fill="url(#paint2_linear_71_24891)"/>
<path d="M59.1763 39.0693L59.1413 51.2503C59.0563 51.6733 58.9363 52.0943 58.7793 52.5113L58.8143 40.3303C58.9713 39.9123 59.0913 39.4913 59.1763 39.0693Z" fill="url(#paint3_linear_71_24891)"/>
<path d="M58.8136 40.3293L58.7786 52.5103C58.6176 52.9403 58.4186 53.3653 58.1816 53.7853L58.2166 41.6043C58.4536 41.1853 58.6526 40.7593 58.8136 40.3293Z" fill="url(#paint4_linear_71_24891)"/>
<path d="M58.2169 41.6053L58.1819 53.7863C58.0059 54.0993 57.8079 54.4083 57.5889 54.7143L57.6238 42.5333C57.8428 42.2273 58.0399 41.9173 58.2169 41.6053Z" fill="url(#paint5_linear_71_24891)"/>
</g>
<path d="M63.1663 49.6563C63.1513 49.8083 63.1424 49.9593 63.1144 50.1113C63.0884 50.2503 63.0443 50.3883 63.0073 50.5263C62.9663 50.6773 62.9314 50.8293 62.8774 50.9803C62.8314 51.1083 62.7684 51.2353 62.7124 51.3633C62.6404 51.5283 62.5703 51.6933 62.4813 51.8563C62.3563 52.0863 62.2184 52.3153 62.0604 52.5413C62.0314 52.5833 61.9993 52.6243 61.9693 52.6653C61.8033 52.8943 61.6204 53.1193 61.4204 53.3423C61.3964 53.3693 61.3754 53.3963 61.3514 53.4233C61.1464 53.6463 60.9164 53.8643 60.6774 54.0793C60.5164 54.2243 60.3383 54.3643 60.1623 54.5053C60.0173 54.6213 59.8783 54.7383 59.7223 54.8503C59.5313 54.9893 59.3214 55.1223 59.1134 55.2563C58.9154 55.3843 58.7283 55.5163 58.5163 55.6393C58.1773 55.8363 57.8243 56.0193 57.4643 56.1943C57.3623 56.2443 57.2584 56.2913 57.1554 56.3403C56.8704 56.4723 56.5793 56.5993 56.2833 56.7183C56.1913 56.7553 56.1003 56.7953 56.0073 56.8313C55.6333 56.9763 55.2514 57.1103 54.8634 57.2353C54.4614 57.3633 54.0523 57.4783 53.6373 57.5853C53.5713 57.6023 53.5083 57.6233 53.4423 57.6403C52.9593 57.7603 52.4694 57.8643 51.9744 57.9553C51.8994 57.9693 51.8224 57.9773 51.7474 57.9903C51.2204 58.0823 50.6874 58.1543 50.1514 58.2133C49.9624 58.2343 49.7734 58.2533 49.5834 58.2693C49.2504 58.2983 48.9174 58.3193 48.5834 58.3363C48.3784 58.3463 48.1733 58.3573 47.9683 58.3623C47.6823 58.3693 47.3974 58.3683 47.1124 58.3663C46.8934 58.3643 46.6743 58.3653 46.4553 58.3583C46.2023 58.3503 45.9514 58.3333 45.6994 58.3183C45.4674 58.3043 45.2354 58.2913 45.0054 58.2713C44.7624 58.2493 44.5224 58.2193 44.2814 58.1903C44.0504 58.1623 43.8184 58.1373 43.5904 58.1023C43.3344 58.0643 43.0833 58.0163 42.8303 57.9703C42.6173 57.9313 42.4034 57.8953 42.1944 57.8503C41.8604 57.7793 41.5353 57.6953 41.2103 57.6093C41.0673 57.5713 40.9214 57.5403 40.7804 57.4993C40.2564 57.3483 39.7494 57.1753 39.2564 56.9853C39.0104 56.8903 38.7714 56.7883 38.5344 56.6833C38.4114 56.6293 38.2843 56.5783 38.1633 56.5213C37.7983 56.3493 37.4423 56.1673 37.1023 55.9703L5.04134 37.4603C2.23734 35.8413 0.848359 33.6973 0.854359 31.5173L0.819355 35.8213C0.813355 38.0013 2.20237 40.1453 5.00637 41.7643L37.0673 60.2753C37.4073 60.4723 37.7633 60.6543 38.1283 60.8263C38.2483 60.8823 38.3733 60.9323 38.4953 60.9863C38.6923 61.0733 38.8863 61.1643 39.0893 61.2453C39.1313 61.2623 39.1774 61.2733 39.2204 61.2893C39.7144 61.4793 40.2214 61.6533 40.7453 61.8043C40.7623 61.8093 40.7783 61.8163 40.7963 61.8213C40.9193 61.8563 41.0494 61.8803 41.1734 61.9133C41.4984 61.9993 41.8234 62.0833 42.1564 62.1543C42.2024 62.1643 42.2454 62.1773 42.2904 62.1873C42.4584 62.2223 42.6314 62.2453 42.8013 62.2763C43.0513 62.3223 43.2994 62.3693 43.5524 62.4063C43.6094 62.4143 43.6644 62.4273 43.7214 62.4353C43.8964 62.4603 44.0764 62.4733 44.2524 62.4943C44.4904 62.5223 44.7274 62.5523 44.9674 62.5743C45.0284 62.5793 45.0874 62.5893 45.1484 62.5943C45.3224 62.6083 45.4984 62.6113 45.6734 62.6223C45.9214 62.6373 46.1694 62.6543 46.4194 62.6623C46.4844 62.6643 46.5484 62.6713 46.6134 62.6723C46.7694 62.6763 46.9264 62.6693 47.0824 62.6703C47.3664 62.6723 47.6503 62.6733 47.9343 62.6663C48.0133 62.6643 48.0914 62.6673 48.1704 62.6653C48.2974 62.6613 48.4233 62.6463 48.5503 62.6403C48.8843 62.6243 49.2174 62.6023 49.5513 62.5733C49.6573 62.5643 49.7644 62.5623 49.8703 62.5523C49.9534 62.5443 50.0354 62.5273 50.1184 62.5173C50.6524 62.4593 51.1833 62.3863 51.7093 62.2953C51.7693 62.2853 51.8324 62.2803 51.8924 62.2693C51.9094 62.2663 51.9263 62.2613 51.9433 62.2583C52.4383 62.1673 52.9274 62.0633 53.4094 61.9443C53.4804 61.9263 53.5474 61.9043 53.6174 61.8853C54.0274 61.7793 54.4324 61.6663 54.8294 61.5393C54.8534 61.5313 54.8793 61.5263 54.9033 61.5183C55.2673 61.4003 55.6234 61.2713 55.9744 61.1353C56.0674 61.0993 56.1584 61.0603 56.2504 61.0223C56.5464 60.9023 56.8374 60.7763 57.1224 60.6443C57.2264 60.5963 57.3294 60.5483 57.4324 60.4983C57.7924 60.3223 58.1454 60.1403 58.4844 59.9433C58.5524 59.9033 58.6204 59.8633 58.6864 59.8233C58.8254 59.7393 58.9434 59.6493 59.0754 59.5633C59.2844 59.4283 59.4963 59.2933 59.6894 59.1533C59.8443 59.0413 59.9834 58.9243 60.1274 58.8093C60.3044 58.6683 60.4824 58.5283 60.6434 58.3833C60.6804 58.3503 60.7253 58.3193 60.7613 58.2853C60.9593 58.1023 61.1434 57.9163 61.3164 57.7283C61.3424 57.7003 61.3644 57.6713 61.3894 57.6433C61.5174 57.5013 61.6444 57.3583 61.7584 57.2133C61.8214 57.1333 61.8764 57.0523 61.9354 56.9713C61.9664 56.9293 61.9984 56.8873 62.0274 56.8453C62.1634 56.6513 62.2904 56.4553 62.4024 56.2583C62.4204 56.2263 62.4303 56.1933 62.4473 56.1623C62.5363 55.9993 62.6063 55.8333 62.6793 55.6683C62.7243 55.5663 62.7834 55.4663 62.8214 55.3643C62.8314 55.3383 62.8344 55.3113 62.8443 55.2853C62.8983 55.1353 62.9344 54.9833 62.9744 54.8323C63.0054 54.7173 63.0504 54.6033 63.0734 54.4883C63.0784 54.4643 63.0773 54.4403 63.0813 54.4163C63.1093 54.2643 63.1194 54.1133 63.1334 53.9613C63.1444 53.8443 63.1704 53.7283 63.1734 53.6113C63.1744 53.5663 63.1753 53.5223 63.1753 53.4773L63.2093 49.1733C63.2083 49.3333 63.1823 49.4943 63.1663 49.6563Z" fill="url(#paint6_linear_71_24891)"/>
<path d="M52.7038 28.3333C59.3508 32.1703 60.9988 37.8133 57.6228 42.5323C58.1098 42.7463 58.5758 42.9733 59.0218 43.2303C64.7938 46.5623 64.5718 52.1203 58.5158 55.6393C52.4648 59.1553 42.8718 59.3023 37.0998 55.9703L5.03883 37.4603C-0.733171 34.1273 -0.511165 28.5703 5.53984 25.0543C11.5958 21.5353 21.1888 21.3883 26.9608 24.7203C27.4058 24.9773 27.7988 25.2463 28.1698 25.5283C36.3048 23.5563 46.0518 24.4933 52.7038 28.3333Z" fill="url(#paint7_linear_71_24891)"/>
<path d="M47.297 59.2113C43.404 59.2113 39.574 58.3813 36.674 56.7073L4.61301 38.1973C1.64201 36.4813 0.0030066 34.1173 6.59748e-06 31.5403C-0.0039934 28.8013 1.81101 26.2363 5.11201 24.3173C11.392 20.6663 21.385 20.5173 27.387 23.9823C27.714 24.1703 28.034 24.3773 28.358 24.6093C36.885 22.6443 46.566 23.8053 53.13 27.5973C56.933 29.7933 59.303 32.6143 59.983 35.7573C60.454 37.9343 60.068 40.1363 58.868 42.1793C59.07 42.2823 59.263 42.3863 59.446 42.4923C62.418 44.2083 64.056 46.5723 64.059 49.1503C64.063 51.8903 62.246 54.4583 58.943 56.3773C55.699 58.2613 51.462 59.2113 47.297 59.2113ZM16.766 23.1563C12.909 23.1563 8.97999 24.0393 5.96799 25.7893C3.25499 27.3663 1.70101 29.4613 1.70301 31.5373C1.70601 33.4813 3.042 35.3233 5.465 36.7223L37.526 55.2323C43.056 58.4253 52.28 58.2773 58.088 54.9033C60.804 53.3243 62.359 51.2283 62.357 49.1513C62.354 47.2073 61.018 45.3663 58.596 43.9673C58.213 43.7473 57.783 43.5323 57.281 43.3113L56.32 42.8883L56.931 42.0353C58.271 40.1623 58.751 38.1153 58.318 36.1153C57.742 33.4553 55.654 31.0183 52.278 29.0693C45.973 25.4283 36.589 24.3653 28.371 26.3533L27.978 26.4483L27.656 26.2043C27.27 25.9113 26.914 25.6733 26.535 25.4543C23.871 23.9183 20.349 23.1563 16.766 23.1563Z" fill="url(#paint8_linear_71_24891)"/>
<path d="M26.6492 19.4083L25.7822 1.66627C25.8232 0.179268 27.6952 -0.302733 28.5322 0.181267C35.0632 3.95227 54.6582 15.2653 54.6582 15.2653C55.4812 15.7413 55.9892 16.6193 55.9892 17.5703V35.6403C55.9892 37.4073 54.6132 37.9373 53.6632 37.2943L27.5632 20.9913C26.9972 20.6653 26.6492 20.0613 26.6492 19.4083Z" fill="#ABAFD6"/>
<path d="M7.86087 31.2423L24.9859 22.3403C25.4459 22.0743 26.0129 22.0743 26.4729 22.3403L53.9799 38.2223C54.4659 38.5023 54.4669 39.2033 53.9829 39.4853L37.2749 49.2233C36.4139 49.7203 35.3519 49.7203 34.4909 49.2233L7.94287 33.8963C7.13787 33.4143 6.78787 32.0483 7.86087 31.2423Z" fill="#ABAFD6"/>
<path d="M54.3439 37.8323L54.3419 38.9023L53.7119 39.3773L54.3439 37.8323Z" fill="#ABAFD6"/>
<path d="M7.94118 31.1903L24.9852 21.3493C25.4452 21.0833 26.0122 21.0833 26.4722 21.3493L53.9792 37.2313C54.4652 37.5113 54.4662 38.2123 53.9822 38.4943L37.2742 48.2323C36.4132 48.7293 35.3512 48.7293 34.4902 48.2323L7.94215 32.9043C7.28115 32.5233 7.28118 31.5713 7.94118 31.1903Z" fill="url(#paint9_linear_71_24891)"/>
<path d="M31.6957 38.1133C32.1557 38.3783 32.1577 38.8113 31.7007 39.0773L27.1737 41.7073C26.7167 41.9723 25.9737 41.9703 25.5137 41.7053L18.7157 37.7803C18.2557 37.5153 18.2497 37.0843 18.7057 36.8193L23.2327 34.1883C23.6897 33.9233 24.4367 33.9233 24.8967 34.1883L31.6957 38.1133Z" fill="url(#paint10_linear_71_24891)"/>
<path d="M25.7822 19.9183V1.77828C25.7822 0.81228 26.8282 0.208289 27.6652 0.691289L53.7912 15.7753C54.6152 16.2503 55.1222 17.1293 55.1222 18.0803V36.1503C55.1222 36.9343 54.2732 37.4243 53.5952 37.0323L26.6962 21.5013C26.1312 21.1753 25.7822 20.5713 25.7822 19.9183Z" fill="url(#paint11_linear_71_24891)"/>
<path d="M26.5596 19.8623V2.68428C26.5596 1.76928 27.5506 1.19728 28.3426 1.65428L53.0826 15.9383C53.8626 16.3883 54.3426 17.2203 54.3426 18.1213V35.2333C54.3426 35.9753 53.5386 36.4393 52.8966 36.0683L27.4246 21.3613C26.8896 21.0513 26.5596 20.4803 26.5596 19.8623Z" fill="#FA3A8C"/>
<path d="M40.4536 9.14028C40.6926 9.27828 40.8865 9.61328 40.8855 9.88828C40.8845 10.1633 40.6895 10.2743 40.4505 10.1363C40.2115 9.99828 40.0176 9.66328 40.0186 9.38828C40.0196 9.11328 40.2146 9.00228 40.4536 9.14028Z" fill="url(#paint12_linear_71_24891)"/>
<path d="M16.3716 27.7213L43.6026 43.4433C43.8566 43.5893 44.1686 43.5893 44.4226 43.4433L52.0276 39.0533C52.3006 38.8953 52.3006 38.5013 52.0276 38.3433L24.7966 22.6213C24.5426 22.4753 24.2306 22.4753 23.9766 22.6213L16.3726 27.0113C16.0986 27.1693 16.0986 27.5633 16.3716 27.7213Z" fill="#ABAFD6"/>
<path d="M49.3665 38.3273L50.6225 39.0523C50.6635 39.0763 50.7355 39.0733 50.7825 39.0453L51.1566 38.8293C51.2046 38.8013 51.2225 38.7203 51.1815 38.6963L49.9115 38.0113C49.8705 37.9873 49.7986 37.9903 49.7516 38.0183L49.3755 38.1923C49.3285 38.2193 49.3255 38.3033 49.3665 38.3273Z" fill="#3F3F3F"/>
<path d="M49.3724 38.2803L50.6294 39.0053C50.6704 39.0293 50.7424 39.0263 50.7894 38.9983L51.1634 38.7823C51.2104 38.7553 51.2164 38.7133 51.1754 38.6903L49.9184 37.9653C49.8774 37.9413 49.8054 37.9443 49.7584 37.9723L49.3844 38.1883C49.3364 38.2153 49.3314 38.2563 49.3724 38.2803Z" fill="#FCFCFC"/>
<path d="M48.1237 39.2553L49.1987 39.8763C49.2487 39.9053 49.3367 39.9013 49.3947 39.8683L50.0977 39.4623C50.1557 39.4283 50.1717 39.3263 50.1217 39.2973L49.0367 38.7273C48.9867 38.6983 48.8987 38.7023 48.8407 38.7353L48.1187 39.0973C48.0607 39.1313 48.0727 39.2263 48.1237 39.2553Z" fill="#3F3F3F"/>
<path d="M48.1241 39.1913L49.1991 39.8123C49.2491 39.8413 49.3371 39.8373 49.3951 39.8043L50.0981 39.3983C50.1561 39.3643 50.1631 39.3143 50.1121 39.2853L49.0371 38.6643C48.9871 38.6353 48.8991 38.6393 48.8411 38.6723L48.1381 39.0783C48.0801 39.1113 48.0731 39.1623 48.1241 39.1913Z" fill="#FCFCFC"/>
<path d="M42.8937 42.2783L43.9687 42.8993C44.0187 42.9283 44.1067 42.9243 44.1647 42.8913L44.8677 42.4853C44.9257 42.4513 44.9437 42.3433 44.8937 42.3143L43.8067 41.7513C43.7567 41.7223 43.6687 41.7263 43.6107 41.7593L42.8907 42.1123C42.8327 42.1443 42.8437 42.2493 42.8937 42.2783Z" fill="#3F3F3F"/>
<path d="M42.8971 42.2093L43.9721 42.8303C44.0221 42.8593 44.1101 42.8553 44.1681 42.8223L44.8711 42.4163C44.9291 42.3823 44.9351 42.3323 44.8851 42.3033L43.8101 41.6823C43.7601 41.6533 43.6721 41.6573 43.6141 41.6903L42.9111 42.0963C42.8531 42.1293 42.8471 42.1793 42.8971 42.2093Z" fill="#FCFCFC"/>
<path d="M41.1114 41.2613L42.1865 41.8823C42.2365 41.9113 42.3244 41.9083 42.3824 41.8743L43.0854 41.4683C43.1434 41.4343 43.1715 41.3213 43.1215 41.2913L42.0244 40.7333C41.9744 40.7043 41.8865 40.7073 41.8285 40.7413L41.1215 41.0783C41.0645 41.1123 41.0614 41.2323 41.1114 41.2613Z" fill="#3F3F3F"/>
<path d="M41.1217 41.1843L42.1967 41.8053C42.2467 41.8343 42.3347 41.8303 42.3927 41.7973L43.0957 41.3913C43.1537 41.3573 43.1597 41.3073 43.1097 41.2783L42.0347 40.6573C41.9847 40.6283 41.8967 40.6323 41.8387 40.6653L41.1357 41.0713C41.0777 41.1043 41.0717 41.1553 41.1217 41.1843Z" fill="#FCFCFC"/>
<path d="M39.3532 40.2363L40.4282 40.8573C40.4782 40.8863 40.5662 40.8823 40.6242 40.8493L41.3272 40.4433C41.3852 40.4093 41.4022 40.2953 41.3522 40.2663L40.2662 39.7093C40.2162 39.6803 40.1282 39.6843 40.0702 39.7173L39.3362 40.0673C39.2782 40.0993 39.3032 40.2073 39.3532 40.2363Z" fill="#3F3F3F"/>
<path d="M39.3468 40.1593L40.4218 40.7803C40.4718 40.8093 40.5598 40.8053 40.6178 40.7723L41.3208 40.3663C41.3788 40.3333 41.3858 40.2823 41.3348 40.2533L40.2598 39.6323C40.2098 39.6033 40.1218 39.6073 40.0638 39.6403L39.3608 40.0463C39.3028 40.0793 39.2958 40.1303 39.3468 40.1593Z" fill="#FCFCFC"/>
<path d="M37.1747 38.9683L38.6298 39.8083C38.6878 39.8413 38.7887 39.8373 38.8557 39.7993L39.5277 39.4113C39.5947 39.3723 39.6188 39.2633 39.5608 39.2303L38.0897 38.4413C38.0317 38.4083 37.9308 38.4123 37.8638 38.4503L37.1807 38.7943C37.1137 38.8323 37.1167 38.9353 37.1747 38.9683Z" fill="#3F3F3F"/>
<path d="M37.1776 38.9073L38.6326 39.7473C38.6906 39.7803 38.7916 39.7763 38.8586 39.7383L39.5306 39.3503C39.5976 39.3113 39.6046 39.2533 39.5466 39.2203L38.0916 38.3803C38.0336 38.3473 37.9326 38.3513 37.8656 38.3893L37.1936 38.7773C37.1276 38.8153 37.1196 38.8733 37.1776 38.9073Z" fill="#FCFCFC"/>
<path d="M26.7612 32.9783L36.4203 38.5553C36.4943 38.5983 36.6242 38.5933 36.7102 38.5433L37.3132 38.1953C37.3992 38.1463 37.4332 38.0073 37.3582 37.9643L27.6742 32.4513C27.6002 32.4083 27.4702 32.4133 27.3842 32.4633L26.7662 32.7413C26.6812 32.7903 26.6872 32.9363 26.7612 32.9783Z" fill="#3F3F3F"/>
<path d="M26.7643 32.8943L36.4233 38.4713C36.4973 38.5143 36.6273 38.5093 36.7133 38.4593L37.3163 38.1113C37.4023 38.0613 37.4113 37.9863 37.3373 37.9433L27.6783 32.3663C27.6043 32.3233 27.4743 32.3293 27.3883 32.3783L26.7853 32.7263C26.6993 32.7763 26.6893 32.8513 26.7643 32.8943Z" fill="#FCFCFC"/>
<path d="M44.1421 39.9853L46.5402 41.3693C46.6132 41.4113 46.7411 41.4063 46.8261 41.3573L47.4341 41.0063C47.5191 40.9573 47.5572 40.8343 47.4842 40.7923L45.0572 39.4573C44.9842 39.4153 44.8561 39.4203 44.7711 39.4693L44.1451 39.7673C44.0591 39.8163 44.0691 39.9423 44.1421 39.9853Z" fill="#3F3F3F"/>
<path d="M44.1469 39.9123L46.5449 41.2963C46.6179 41.3383 46.7459 41.3333 46.8299 41.2843L47.4379 40.9333C47.5229 40.8843 47.5319 40.8103 47.4579 40.7683L45.0599 39.3843C44.9869 39.3423 44.8589 39.3473 44.7739 39.3963L44.1659 39.7473C44.0819 39.7963 44.0729 39.8703 44.1469 39.9123Z" fill="#FCFCFC"/>
<path d="M42.2962 40.4293L45.2152 42.1143C45.2952 42.1603 45.4362 42.1553 45.5292 42.1013L46.1072 41.7683C46.2002 41.7143 46.2352 41.5873 46.1552 41.5413L43.2112 39.9023C43.1312 39.8563 42.9902 39.8613 42.8972 39.9153L42.3112 40.2003C42.2172 40.2533 42.2162 40.3823 42.2962 40.4293Z" fill="#3F3F3F"/>
<path d="M42.3058 40.3583L45.2248 42.0433C45.3048 42.0893 45.4458 42.0833 45.5388 42.0303L46.1168 41.6973C46.2098 41.6433 46.2198 41.5623 46.1388 41.5163L43.2198 39.8303C43.1398 39.7843 42.9988 39.7903 42.9058 39.8433L42.3278 40.1773C42.2348 40.2313 42.2248 40.3123 42.3058 40.3583Z" fill="#FCFCFC"/>
<path d="M45.7803 39.4273L47.8554 40.6253C47.9234 40.6643 48.0434 40.6603 48.1224 40.6143L48.7503 40.2513C48.8293 40.2053 48.8423 40.0593 48.7743 40.0203L46.6943 38.8993C46.6263 38.8593 46.5063 38.8643 46.4273 38.9103L45.7793 39.2203C45.7003 39.2663 45.7123 39.3873 45.7803 39.4273Z" fill="#3F3F3F"/>
<path d="M45.7848 39.3493L47.8598 40.5473C47.9278 40.5863 48.0478 40.5823 48.1268 40.5363L48.7548 40.1733C48.8338 40.1273 48.8418 40.0593 48.7738 40.0193L46.6988 38.8213C46.6308 38.7823 46.5108 38.7873 46.4318 38.8323L45.8038 39.1953C45.7248 39.2413 45.7158 39.3103 45.7848 39.3493Z" fill="#FCFCFC"/>
<path d="M46.3453 38.2243L47.4203 38.8453C47.4703 38.8743 47.5583 38.8703 47.6163 38.8373L48.3193 38.4313C48.3773 38.3973 48.4003 38.3043 48.3503 38.2753L47.2583 37.6973C47.2083 37.6683 47.1203 37.6713 47.0623 37.7053L46.3523 38.0663C46.2953 38.0993 46.2953 38.1953 46.3453 38.2243Z" fill="#3F3F3F"/>
<path d="M46.3487 38.1663L47.4237 38.7873C47.4737 38.8163 47.5617 38.8123 47.6197 38.7793L48.3227 38.3733C48.3807 38.3393 48.3867 38.2893 48.3367 38.2603L47.2617 37.6393C47.2117 37.6103 47.1237 37.6133 47.0657 37.6473L46.3627 38.0533C46.3047 38.0863 46.2977 38.1373 46.3487 38.1663Z" fill="#FCFCFC"/>
<path d="M44.5734 37.2183L45.6484 37.8393C45.6984 37.8683 45.7864 37.8643 45.8444 37.8313L46.5484 37.4253C46.6064 37.3913 46.6264 37.2753 46.5764 37.2463L45.4874 36.6913C45.4374 36.6623 45.3494 36.6663 45.2914 36.6993L44.5704 37.0473C44.5124 37.0803 44.5234 37.1893 44.5734 37.2183Z" fill="#3F3F3F"/>
<path d="M44.5728 37.1413L45.6478 37.7623C45.6978 37.7913 45.7858 37.7873 45.8438 37.7543L46.5478 37.3483C46.6058 37.3143 46.6118 37.2643 46.5618 37.2353L45.4868 36.6143C45.4368 36.5853 45.3488 36.5893 45.2908 36.6223L44.5878 37.0283C44.5288 37.0613 44.5228 37.1123 44.5728 37.1413Z" fill="#FCFCFC"/>
<path d="M43.9732 38.3783L45.0482 38.9993C45.0982 39.0283 45.1862 39.0243 45.2442 38.9913L45.9472 38.5853C46.0052 38.5513 46.0303 38.4423 45.9803 38.4133L44.8862 37.8503C44.8362 37.8213 44.7482 37.8253 44.6902 37.8583L43.9742 38.2163C43.9172 38.2513 43.9232 38.3493 43.9732 38.3783Z" fill="#3F3F3F"/>
<path d="M43.9796 38.3113L45.0546 38.9323C45.1046 38.9613 45.1926 38.9573 45.2506 38.9243L45.9536 38.5183C46.0116 38.4843 46.0176 38.4343 45.9676 38.4053L44.8926 37.7843C44.8426 37.7553 44.7546 37.7593 44.6966 37.7923L43.9936 38.1983C43.9356 38.2313 43.9286 38.2823 43.9796 38.3113Z" fill="#FCFCFC"/>
<path d="M42.3345 38.9443L43.4095 39.5653C43.4595 39.5943 43.5475 39.5903 43.6055 39.5573L44.3085 39.1513C44.3665 39.1173 44.3905 39.0123 44.3405 38.9833L43.2475 38.4173C43.1975 38.3883 43.1095 38.3923 43.0515 38.4253L42.3315 38.7843C42.2735 38.8163 42.2835 38.9153 42.3345 38.9443Z" fill="#3F3F3F"/>
<path d="M42.335 38.8763L43.41 39.4973C43.46 39.5263 43.548 39.5233 43.606 39.4893L44.309 39.0833C44.367 39.0493 44.373 38.9993 44.323 38.9703L43.248 38.3493C43.198 38.3203 43.11 38.3233 43.052 38.3573L42.349 38.7633C42.291 38.7963 42.284 38.8473 42.335 38.8763Z" fill="#FCFCFC"/>
<path d="M40.477 39.3763L41.552 39.9973C41.602 40.0263 41.69 40.0223 41.748 39.9893L42.451 39.5833C42.509 39.5493 42.529 39.4453 42.479 39.4163L41.39 38.8493C41.34 38.8203 41.252 38.8233 41.194 38.8573L40.47 39.2073C40.412 39.2413 40.427 39.3473 40.477 39.3763Z" fill="#3F3F3F"/>
<path d="M40.4737 39.3063L41.5487 39.9273C41.5987 39.9563 41.6867 39.9523 41.7447 39.9193L42.4477 39.5133C42.5057 39.4793 42.5117 39.4293 42.4617 39.4003L41.3867 38.7793C41.3367 38.7503 41.2487 38.7543 41.1907 38.7873L40.4877 39.1933C40.4297 39.2263 40.4227 39.2773 40.4737 39.3063Z" fill="#FCFCFC"/>
<path d="M38.7061 38.3363L39.7811 38.9573C39.8311 38.9863 39.9191 38.9823 39.9771 38.9493L40.6801 38.5433C40.7381 38.5093 40.7511 38.4133 40.7011 38.3833L39.6191 37.8083C39.5691 37.7793 39.4811 37.7833 39.4231 37.8163L38.6971 38.1783C38.6391 38.2123 38.6551 38.3073 38.7061 38.3363Z" fill="#3F3F3F"/>
<path d="M38.6976 38.2813L39.7726 38.9023C39.8226 38.9313 39.9106 38.9273 39.9686 38.8943L40.6716 38.4883C40.7296 38.4543 40.7366 38.4043 40.6856 38.3753L39.6106 37.7543C39.5606 37.7253 39.4726 37.7293 39.4146 37.7623L38.7116 38.1683C38.6546 38.2013 38.6476 38.2523 38.6976 38.2813Z" fill="#FCFCFC"/>
<path d="M36.9278 37.3193L38.0028 37.9403C38.0528 37.9693 38.1408 37.9663 38.1988 37.9323L38.9018 37.5263C38.9598 37.4923 38.9758 37.3933 38.9248 37.3643L37.8398 36.7923C37.7898 36.7633 37.7018 36.7663 37.6438 36.8003L36.9158 37.1543C36.8588 37.1873 36.8778 37.2903 36.9278 37.3193Z" fill="#3F3F3F"/>
<path d="M36.9226 37.2563L37.9976 37.8773C38.0476 37.9063 38.1356 37.9023 38.1936 37.8693L38.8966 37.4633C38.9546 37.4293 38.9606 37.3793 38.9106 37.3503L37.8356 36.7293C37.7856 36.7003 37.6976 36.7043 37.6396 36.7373L36.9356 37.1433C36.8786 37.1763 36.8726 37.2273 36.9226 37.2563Z" fill="#FCFCFC"/>
<path d="M35.148 36.2953L36.223 36.9163C36.273 36.9453 36.361 36.9413 36.419 36.9083L37.122 36.5023C37.18 36.4683 37.201 36.3623 37.151 36.3333L36.061 35.7683C36.011 35.7393 35.923 35.7433 35.865 35.7763L35.148 36.1303C35.09 36.1643 35.098 36.2663 35.148 36.2953Z" fill="#3F3F3F"/>
<path d="M35.1482 36.2313L36.2232 36.8523C36.2732 36.8813 36.3612 36.8773 36.4192 36.8443L37.1222 36.4383C37.1802 36.4043 37.1872 36.3543 37.1362 36.3253L36.0612 35.7043C36.0112 35.6753 35.9232 35.6793 35.8652 35.7123L35.1612 36.1183C35.1042 36.1513 35.0982 36.2023 35.1482 36.2313Z" fill="#FCFCFC"/>
<path d="M33.373 35.2733L34.448 35.8943C34.498 35.9233 34.586 35.9193 34.644 35.8863L35.347 35.4803C35.405 35.4463 35.421 35.3383 35.371 35.3083L34.286 34.7453C34.236 34.7163 34.148 34.7203 34.09 34.7533L33.376 35.1033C33.319 35.1383 33.322 35.2453 33.373 35.2733Z" fill="#3F3F3F"/>
<path d="M33.3731 35.2063L34.4481 35.8273C34.4981 35.8563 34.5861 35.8533 34.6441 35.8193L35.3471 35.4133C35.4051 35.3803 35.4111 35.3293 35.3611 35.3003L34.2861 34.6793C34.2361 34.6503 34.1481 34.6543 34.0901 34.6873L33.3871 35.0933C33.3291 35.1263 33.3221 35.1773 33.3731 35.2063Z" fill="#FCFCFC"/>
<path d="M31.5982 34.2533L32.6733 34.8743C32.7233 34.9033 32.8112 34.8993 32.8692 34.8663L33.5722 34.4603C33.6302 34.4263 33.6482 34.3143 33.5982 34.2843L32.5112 33.7253C32.4612 33.6963 32.3732 33.7003 32.3152 33.7333L31.5883 34.0903C31.5303 34.1243 31.5472 34.2243 31.5982 34.2533Z" fill="#3F3F3F"/>
<path d="M31.5977 34.1813L32.6727 34.8023C32.7227 34.8313 32.8107 34.8273 32.8687 34.7943L33.5717 34.3883C33.6297 34.3543 33.6357 34.3043 33.5857 34.2753L32.5107 33.6543C32.4607 33.6253 32.3727 33.6293 32.3147 33.6623L31.6117 34.0683C31.5537 34.1013 31.5467 34.1523 31.5977 34.1813Z" fill="#FCFCFC"/>
<path d="M29.8218 33.2213L30.8968 33.8423C30.9468 33.8713 31.0347 33.8673 31.0927 33.8343L31.7958 33.4283C31.8538 33.3943 31.8728 33.2883 31.8228 33.2593L30.7347 32.6943C30.6847 32.6653 30.5968 32.6693 30.5388 32.7023L29.8148 33.0633C29.7568 33.0973 29.7718 33.1923 29.8218 33.2213Z" fill="#3F3F3F"/>
<path d="M29.8219 33.1563L30.8969 33.7773C30.9469 33.8063 31.0349 33.8023 31.0929 33.7693L31.7959 33.3633C31.8539 33.3293 31.8599 33.2793 31.8099 33.2503L30.7349 32.6293C30.6849 32.6003 30.5969 32.6043 30.5389 32.6373L29.8359 33.0433C29.7779 33.0763 29.7719 33.1273 29.8219 33.1563Z" fill="#FCFCFC"/>
<path d="M28.04 32.2043L29.115 32.8253C29.165 32.8543 29.253 32.8503 29.311 32.8173L30.014 32.4113C30.072 32.3773 30.094 32.2603 30.044 32.2313L28.953 31.6773C28.903 31.6483 28.815 31.6523 28.757 31.6853L28.043 32.0343C27.985 32.0673 27.99 32.1743 28.04 32.2043Z" fill="#3F3F3F"/>
<path d="M28.0465 32.1313L29.1216 32.7523C29.1716 32.7813 29.2595 32.7773 29.3175 32.7443L30.0205 32.3383C30.0785 32.3053 30.0845 32.2543 30.0345 32.2253L28.9595 31.6043C28.9095 31.5753 28.8215 31.5793 28.7635 31.6123L28.0605 32.0183C28.0025 32.0513 27.9965 32.1023 28.0465 32.1313Z" fill="#FCFCFC"/>
<path d="M26.27 31.1793L27.345 31.8003C27.395 31.8293 27.483 31.8253 27.541 31.7923L28.244 31.3863C28.302 31.3533 28.324 31.2443 28.274 31.2143L27.1831 30.6513C27.1331 30.6223 27.045 30.6263 26.987 30.6593L26.266 31.0063C26.207 31.0403 26.219 31.1493 26.27 31.1793Z" fill="#3F3F3F"/>
<path d="M26.2715 31.1063L27.3465 31.7273C27.3965 31.7563 27.4845 31.7523 27.5425 31.7193L28.2465 31.3133C28.3045 31.2793 28.3105 31.2293 28.2605 31.2003L27.1855 30.5793C27.1355 30.5503 27.0475 30.5533 26.9895 30.5873L26.2865 30.9933C26.2275 31.0263 26.2205 31.0773 26.2715 31.1063Z" fill="#FCFCFC"/>
<path d="M24.5139 31.6753L26.0129 32.5413C26.0719 32.5753 26.1739 32.5713 26.2419 32.5313L26.9099 32.1453C26.9779 32.1063 27.0018 31.9843 26.9428 31.9503L25.4269 31.1483C25.3679 31.1143 25.2658 31.1183 25.1978 31.1583L24.5089 31.4823C24.4419 31.5203 24.4549 31.6413 24.5139 31.6753Z" fill="#3F3F3F"/>
<path d="M24.5143 31.5983L26.0133 32.4643C26.0723 32.4983 26.1743 32.4943 26.2423 32.4543L26.9103 32.0683C26.9783 32.0293 26.9853 31.9703 26.9263 31.9363L25.4273 31.0703C25.3683 31.0363 25.2663 31.0403 25.1983 31.0793L24.5303 31.4653C24.4633 31.5053 24.4553 31.5643 24.5143 31.5983Z" fill="#FCFCFC"/>
<path d="M24.4982 30.1593L25.5732 30.7803C25.6232 30.8093 25.7112 30.8053 25.7692 30.7723L26.4722 30.3663C26.5302 30.3323 26.5512 30.2193 26.5012 30.1903L25.4112 29.6323C25.3612 29.6033 25.2732 29.6073 25.2152 29.6403L24.4982 29.9803C24.4412 30.0123 24.4482 30.1293 24.4982 30.1593Z" fill="#3F3F3F"/>
<path d="M24.4964 30.0813L25.5714 30.7023C25.6214 30.7313 25.7094 30.7273 25.7674 30.6943L26.4704 30.2883C26.5284 30.2553 26.5344 30.2043 26.4844 30.1753L25.4094 29.5543C25.3594 29.5253 25.2714 29.5293 25.2134 29.5623L24.5104 29.9683C24.4534 30.0013 24.4464 30.0523 24.4964 30.0813Z" fill="#FCFCFC"/>
<path d="M22.7313 30.6513L23.8063 31.2723C23.8563 31.3013 23.9443 31.2983 24.0023 31.2643L24.7053 30.8583C24.7633 30.8243 24.7793 30.7053 24.7293 30.6763L23.6443 30.1243C23.5943 30.0953 23.5063 30.0993 23.4483 30.1323L22.7213 30.4713C22.6643 30.5043 22.6813 30.6223 22.7313 30.6513Z" fill="#3F3F3F"/>
<path d="M22.7252 30.5673L23.8002 31.1883C23.8502 31.2173 23.9382 31.2133 23.9962 31.1803L24.6992 30.7743C24.7572 30.7403 24.7643 30.6903 24.7133 30.6613L23.6382 30.0403C23.5882 30.0113 23.5002 30.0153 23.4422 30.0483L22.7393 30.4543C22.6813 30.4873 22.6752 30.5383 22.7252 30.5673Z" fill="#FCFCFC"/>
<path d="M20.9402 29.6163L22.0152 30.2373C22.0652 30.2663 22.1532 30.2623 22.2112 30.2293L22.9142 29.8233C22.9722 29.7903 23.0042 29.6803 22.9532 29.6513L21.8522 29.0893C21.8022 29.0603 21.7142 29.0643 21.6562 29.0973L20.9372 29.4513C20.8802 29.4843 20.8902 29.5873 20.9402 29.6163Z" fill="#3F3F3F"/>
<path d="M20.9503 29.5423L22.0253 30.1633C22.0753 30.1923 22.1633 30.1893 22.2213 30.1553L22.9243 29.7493C22.9823 29.7153 22.9883 29.6653 22.9383 29.6363L21.8633 29.0153C21.8133 28.9863 21.7253 28.9903 21.6673 29.0233L20.9643 29.4293C20.9063 29.4623 20.8993 29.5133 20.9503 29.5423Z" fill="#FCFCFC"/>
<path d="M19.1736 28.5853L20.2486 29.2063C20.2986 29.2353 20.3866 29.2313 20.4446 29.1983L21.1476 28.7923C21.2056 28.7583 21.2266 28.6523 21.1766 28.6233L20.0866 28.0583C20.0366 28.0293 19.9486 28.0333 19.8906 28.0663L19.1696 28.4173C19.1116 28.4503 19.1236 28.5563 19.1736 28.5853Z" fill="#3F3F3F"/>
<path d="M19.1735 28.5173L20.2485 29.1383C20.2985 29.1673 20.3865 29.1633 20.4445 29.1303L21.1475 28.7243C21.2055 28.6903 21.2125 28.6403 21.1615 28.6113L20.0865 27.9903C20.0365 27.9613 19.9485 27.9653 19.8905 27.9983L19.1875 28.4043C19.1295 28.4373 19.1235 28.4883 19.1735 28.5173Z" fill="#FCFCFC"/>
<path d="M17.1899 27.4393L18.4599 28.1723C18.5139 28.2033 18.6089 28.2003 18.6719 28.1633L19.3579 27.7673C19.4209 27.7313 19.4449 27.6213 19.3909 27.5903L18.1029 26.9113C18.0489 26.8803 17.9539 26.8843 17.8909 26.9203L17.1939 27.2683C17.1319 27.3043 17.1359 27.4083 17.1899 27.4393Z" fill="#3F3F3F"/>
<path d="M17.1972 27.3763L18.4682 28.1093C18.5222 28.1403 18.6172 28.1363 18.6802 28.1003L19.3672 27.7043C19.4302 27.6683 19.4372 27.6133 19.3822 27.5823L18.1122 26.8483C18.0582 26.8173 17.9632 26.8213 17.9002 26.8573L17.2132 27.2533C17.1492 27.2893 17.1422 27.3443 17.1972 27.3763Z" fill="#FCFCFC"/>
<path d="M22.7135 29.1263L23.7885 29.7473C23.8385 29.7763 23.9265 29.7723 23.9845 29.7393L24.6875 29.3333C24.7455 29.3003 24.7755 29.1913 24.7255 29.1623L23.6265 28.5993C23.5765 28.5703 23.4885 28.5743 23.4305 28.6073L22.7115 28.9583C22.6535 28.9913 22.6635 29.0973 22.7135 29.1263Z" fill="#3F3F3F"/>
<path d="M22.7214 29.0563L23.7963 29.6773C23.8463 29.7063 23.9344 29.7023 23.9924 29.6693L24.6954 29.2633C24.7534 29.2293 24.7603 29.1793 24.7093 29.1503L23.6344 28.5293C23.5834 28.5003 23.4963 28.5043 23.4383 28.5373L22.7353 28.9433C22.6773 28.9773 22.6714 29.0273 22.7214 29.0563Z" fill="#FCFCFC"/>
<path d="M18.5547 26.7413L21.9497 28.7013C22.0357 28.7513 22.1867 28.7453 22.2867 28.6873L22.8387 28.3683C22.9387 28.3113 22.9707 28.1513 22.8837 28.1013L19.4677 26.2143C19.3817 26.1643 19.2307 26.1703 19.1307 26.2283L18.5587 26.4843C18.4597 26.5413 18.4687 26.6913 18.5547 26.7413Z" fill="#3F3F3F"/>
<path d="M18.561 26.6553L21.956 28.6153C22.042 28.6653 22.193 28.6593 22.293 28.6013L22.845 28.2823C22.945 28.2243 22.956 28.1373 22.869 28.0873L19.474 26.1273C19.388 26.0773 19.237 26.0833 19.137 26.1413L18.584 26.4603C18.486 26.5183 18.475 26.6053 18.561 26.6553Z" fill="#FCFCFC"/>
<path d="M40.5593 37.9283L41.6344 38.5493C41.6844 38.5783 41.7723 38.5743 41.8303 38.5413L42.5333 38.1353C42.5913 38.1023 42.6074 37.9813 42.5574 37.9523L41.4723 37.4013C41.4223 37.3723 41.3344 37.3763 41.2764 37.4093L40.5564 37.7523C40.4994 37.7853 40.5093 37.8993 40.5593 37.9283Z" fill="#3F3F3F"/>
<path d="M40.5589 37.8513L41.6339 38.4723C41.6839 38.5013 41.7719 38.4973 41.8299 38.4643L42.5329 38.0583C42.5909 38.0243 42.5969 37.9743 42.5469 37.9453L41.4719 37.3243C41.4219 37.2953 41.3339 37.2993 41.2759 37.3323L40.5729 37.7383C40.5159 37.7713 40.5089 37.8223 40.5589 37.8513Z" fill="#FCFCFC"/>
<path d="M38.7914 36.8943L39.8664 37.5153C39.9164 37.5443 40.0044 37.5403 40.0624 37.5073L40.7654 37.1013C40.8234 37.0673 40.8414 36.9643 40.7914 36.9353L39.7044 36.3673C39.6544 36.3383 39.5664 36.3423 39.5084 36.3753L38.7834 36.7263C38.7254 36.7593 38.7404 36.8653 38.7914 36.8943Z" fill="#3F3F3F"/>
<path d="M38.7837 36.8263L39.8597 37.4473C39.9097 37.4763 39.9978 37.4723 40.0558 37.4393L40.7588 37.0333C40.8168 36.9993 40.8228 36.9493 40.7728 36.9203L39.6977 36.2993C39.6477 36.2703 39.5598 36.2743 39.5018 36.3073L38.7988 36.7133C38.7398 36.7463 38.7337 36.7973 38.7837 36.8263Z" fill="#FCFCFC"/>
<path d="M37.0058 35.8723L38.0808 36.4933C38.1308 36.5223 38.2188 36.5183 38.2768 36.4853L38.9798 36.0793C39.0378 36.0453 39.0598 35.9313 39.0088 35.9023L37.9178 35.3453C37.8678 35.3163 37.7798 35.3203 37.7218 35.3533L37.0088 35.6933C36.9518 35.7263 36.9548 35.8433 37.0058 35.8723Z" fill="#3F3F3F"/>
<path d="M37.0085 35.8013L38.0834 36.4223C38.1334 36.4513 38.2214 36.4473 38.2794 36.4143L38.9825 36.0083C39.0405 35.9743 39.0465 35.9243 38.9965 35.8953L37.9214 35.2743C37.8714 35.2453 37.7835 35.2493 37.7255 35.2823L37.0225 35.6883C36.9645 35.7213 36.9585 35.7723 37.0085 35.8013Z" fill="#FCFCFC"/>
<path d="M35.2313 34.8443L36.3063 35.4653C36.3563 35.4943 36.4443 35.4903 36.5023 35.4573L37.2053 35.0513C37.2633 35.0173 37.2883 34.9153 37.2383 34.8863L36.1443 34.3163C36.0943 34.2873 36.0063 34.2913 35.9483 34.3243L35.2353 34.6763C35.1773 34.7103 35.1803 34.8153 35.2313 34.8443Z" fill="#3F3F3F"/>
<path d="M35.2335 34.7763L36.3085 35.3973C36.3585 35.4263 36.4465 35.4233 36.5045 35.3893L37.2075 34.9833C37.2655 34.9493 37.2715 34.8993 37.2215 34.8703L36.1465 34.2493C36.0965 34.2203 36.0085 34.2243 35.9505 34.2573L35.2475 34.6633C35.1895 34.6963 35.1825 34.7473 35.2335 34.7763Z" fill="#FCFCFC"/>
<path d="M33.4581 33.8123L34.5331 34.4333C34.5831 34.4623 34.6711 34.4583 34.7291 34.4253L35.4321 34.0193C35.4901 33.9853 35.5101 33.8843 35.4601 33.8553L34.3711 33.2853C34.3211 33.2563 34.2331 33.2603 34.1751 33.2933L33.4511 33.6523C33.3941 33.6853 33.4081 33.7833 33.4581 33.8123Z" fill="#3F3F3F"/>
<path d="M33.4577 33.7513L34.5327 34.3723C34.5827 34.4013 34.6707 34.3973 34.7287 34.3643L35.4317 33.9583C35.4897 33.9243 35.4957 33.8743 35.4457 33.8453L34.3707 33.2243C34.3207 33.1953 34.2327 33.1993 34.1747 33.2323L33.4717 33.6383C33.4137 33.6723 33.4077 33.7223 33.4577 33.7513Z" fill="#FCFCFC"/>
<path d="M31.6858 32.8033L32.7608 33.4243C32.8108 33.4533 32.8988 33.4493 32.9568 33.4163L33.6598 33.0103C33.7178 32.9763 33.7328 32.8583 33.6818 32.8293L32.5978 32.2763C32.5478 32.2473 32.4598 32.2513 32.4018 32.2843L31.6728 32.6363C31.6168 32.6703 31.6358 32.7743 31.6858 32.8033Z" fill="#3F3F3F"/>
<path d="M31.6832 32.7263L32.7592 33.3473C32.8092 33.3763 32.8971 33.3723 32.9551 33.3393L33.6582 32.9333C33.7162 32.8993 33.7222 32.8493 33.6722 32.8203L32.5971 32.1993C32.5471 32.1703 32.4592 32.1743 32.4012 32.2073L31.6982 32.6133C31.6392 32.6473 31.6332 32.6973 31.6832 32.7263Z" fill="#FCFCFC"/>
<path d="M29.9027 31.7643L30.9788 32.3853C31.0288 32.4143 31.1167 32.4103 31.1747 32.3773L31.8777 31.9713C31.9357 31.9373 31.9548 31.8303 31.9048 31.8013L30.8167 31.2373C30.7667 31.2083 30.6788 31.2123 30.6208 31.2453L29.9068 31.5983C29.8488 31.6313 29.8527 31.7353 29.9027 31.7643Z" fill="#3F3F3F"/>
<path d="M29.9079 31.7023L30.9829 32.3233C31.0329 32.3523 31.1209 32.3483 31.1789 32.3153L31.8819 31.9093C31.9399 31.8763 31.9459 31.8253 31.8959 31.7963L30.8209 31.1753C30.7709 31.1463 30.6829 31.1493 30.6249 31.1833L29.9219 31.5893C29.8639 31.6223 29.8579 31.6723 29.9079 31.7023Z" fill="#FCFCFC"/>
<path d="M28.1295 30.7393L29.2045 31.3603C29.2545 31.3893 29.3425 31.3853 29.4005 31.3523L30.1035 30.9463C30.1615 30.9123 30.1845 30.8133 30.1345 30.7843L29.0425 30.2113C28.9925 30.1823 28.9045 30.1863 28.8465 30.2193L28.1305 30.5733C28.0735 30.6073 28.0795 30.7103 28.1295 30.7393Z" fill="#3F3F3F"/>
<path d="M28.1329 30.6763L29.2079 31.2973C29.2579 31.3263 29.3459 31.3233 29.4039 31.2893L30.1069 30.8833C30.1649 30.8493 30.1709 30.7993 30.1209 30.7703L29.0459 30.1493C28.9959 30.1203 28.9079 30.1243 28.8499 30.1573L28.1469 30.5633C28.0889 30.5973 28.0819 30.6473 28.1329 30.6763Z" fill="#FCFCFC"/>
<path d="M26.3512 29.7323L27.4262 30.3533C27.4762 30.3823 27.5642 30.3783 27.6222 30.3453L28.3252 29.9393C28.3832 29.9053 28.4162 29.7933 28.3662 29.7643L27.2642 29.2053C27.2142 29.1763 27.1262 29.1803 27.0682 29.2133L26.3502 29.5563C26.2932 29.5893 26.3012 29.7033 26.3512 29.7323Z" fill="#3F3F3F"/>
<path d="M26.3572 29.6523L27.4322 30.2733C27.4822 30.3023 27.5702 30.2983 27.6282 30.2653L28.3312 29.8593C28.3892 29.8263 28.3952 29.7753 28.3452 29.7463L27.2702 29.1253C27.2202 29.0963 27.1322 29.1003 27.0742 29.1333L26.3702 29.5393C26.3132 29.5723 26.3072 29.6233 26.3572 29.6523Z" fill="#FCFCFC"/>
<path d="M24.576 28.7013L25.651 29.3223C25.701 29.3513 25.789 29.3473 25.847 29.3143L26.55 28.9083C26.608 28.8753 26.633 28.7603 26.583 28.7303L25.489 28.1733C25.439 28.1443 25.351 28.1483 25.293 28.1813L24.582 28.5223C24.524 28.5563 24.525 28.6723 24.576 28.7013Z" fill="#3F3F3F"/>
<path d="M24.5817 28.6273L25.6567 29.2483C25.7067 29.2773 25.7947 29.2733 25.8527 29.2403L26.5557 28.8343C26.6137 28.8003 26.6197 28.7503 26.5697 28.7213L25.4947 28.1003C25.4447 28.0713 25.3567 28.0753 25.2987 28.1083L24.5957 28.5143C24.5377 28.5473 24.5317 28.5983 24.5817 28.6273Z" fill="#FCFCFC"/>
<path d="M22.801 27.6923L23.876 28.3133C23.927 28.3423 24.014 28.3383 24.072 28.3053L24.775 27.8993C24.833 27.8653 24.864 27.7423 24.813 27.7133L23.714 27.1653C23.664 27.1363 23.576 27.1403 23.518 27.1733L22.795 27.5103C22.737 27.5433 22.75 27.6633 22.801 27.6923Z" fill="#3F3F3F"/>
<path d="M22.8073 27.6023L23.8823 28.2233C23.9323 28.2523 24.0203 28.2483 24.0783 28.2153L24.7813 27.8093C24.8393 27.7753 24.8453 27.7253 24.7953 27.6963L23.7203 27.0753C23.6693 27.0463 23.5823 27.0493 23.5243 27.0833L22.8213 27.4893C22.7633 27.5223 22.7573 27.5733 22.8073 27.6023Z" fill="#FCFCFC"/>
<path d="M19.829 25.9733L22.063 27.2633C22.134 27.3043 22.258 27.2993 22.339 27.2513L22.957 26.8953C23.039 26.8483 23.074 26.7083 23.003 26.6673L20.743 25.4463C20.672 25.4053 20.548 25.4103 20.467 25.4573L19.82 25.7603C19.738 25.8073 19.758 25.9323 19.829 25.9733Z" fill="#3F3F3F"/>
<path d="M19.836 25.8863L22.07 27.1763C22.141 27.2173 22.264 27.2123 22.346 27.1643L22.964 26.8073C23.046 26.7603 23.055 26.6883 22.984 26.6483L20.75 25.3583C20.679 25.3173 20.556 25.3223 20.474 25.3703L19.856 25.7273C19.774 25.7743 19.765 25.8453 19.836 25.8863Z" fill="#FCFCFC"/>
<path d="M42.1951 37.3533L43.2701 37.9743C43.3201 38.0033 43.4081 37.9993 43.4661 37.9663L44.1691 37.5603C44.2271 37.5263 44.2581 37.4213 44.2071 37.3923L43.1081 36.8253C43.0581 36.7963 42.9701 36.8003 42.9121 36.8333L42.2011 37.1863C42.1431 37.2213 42.1441 37.3243 42.1951 37.3533Z" fill="#3F3F3F"/>
<path d="M42.2038 37.2863L43.2788 37.9073C43.3288 37.9363 43.4168 37.9323 43.4748 37.8993L44.1778 37.4933C44.2358 37.4593 44.2418 37.4093 44.1918 37.3803L43.1168 36.7593C43.0668 36.7303 42.9788 36.7333 42.9208 36.7673L42.2178 37.1733C42.1598 37.2063 42.1538 37.2573 42.2038 37.2863Z" fill="#FCFCFC"/>
<path d="M40.4321 36.3223L41.5071 36.9433C41.5571 36.9723 41.6451 36.9683 41.7031 36.9353L42.4061 36.5293C42.4641 36.4953 42.4771 36.3983 42.4271 36.3683L41.3451 35.7943C41.2951 35.7653 41.2071 35.7693 41.1491 35.8023L40.4201 36.1633C40.3621 36.1973 40.3821 36.2933 40.4321 36.3223Z" fill="#3F3F3F"/>
<path d="M40.4294 36.2613L41.5044 36.8823C41.5544 36.9113 41.6424 36.9073 41.7004 36.8743L42.4034 36.4683C42.4614 36.4343 42.4684 36.3843 42.4174 36.3553L41.3424 35.7343C41.2924 35.7053 41.2044 35.7083 41.1464 35.7423L40.4434 36.1483C40.3854 36.1813 40.3794 36.2323 40.4294 36.2613Z" fill="#FCFCFC"/>
<path d="M38.657 35.3103L39.732 35.9313C39.782 35.9603 39.87 35.9563 39.928 35.9233L40.631 35.5173C40.689 35.4843 40.702 35.3693 40.652 35.3403L39.57 34.7833C39.52 34.7543 39.432 34.7583 39.374 34.7913L38.643 35.1443C38.585 35.1773 38.607 35.2813 38.657 35.3103Z" fill="#3F3F3F"/>
<path d="M38.6541 35.2363L39.7291 35.8573C39.7791 35.8863 39.8671 35.8833 39.9251 35.8493L40.6281 35.4433C40.6861 35.4093 40.6921 35.3593 40.6421 35.3303L39.5671 34.7093C39.5171 34.6803 39.4291 34.6833 39.3711 34.7173L38.6671 35.1233C38.6101 35.1563 38.6041 35.2073 38.6541 35.2363Z" fill="#FCFCFC"/>
<path d="M36.8786 34.2783L37.9536 34.8993C38.0036 34.9283 38.0916 34.9253 38.1496 34.8913L38.8536 34.4853C38.9116 34.4513 38.9316 34.3463 38.8816 34.3163L37.7926 33.7503C37.7426 33.7213 37.6546 33.7253 37.5966 33.7583L36.8726 34.1103C36.8136 34.1443 36.8276 34.2493 36.8786 34.2783Z" fill="#3F3F3F"/>
<path d="M36.8789 34.2113L37.9539 34.8323C38.0039 34.8613 38.0919 34.8573 38.1499 34.8243L38.8539 34.4183C38.9119 34.3843 38.9179 34.3343 38.8679 34.3053L37.7929 33.6843C37.7429 33.6553 37.6549 33.6593 37.5969 33.6923L36.8939 34.0983C36.8349 34.1313 36.8279 34.1823 36.8789 34.2113Z" fill="#FCFCFC"/>
<path d="M35.1072 33.2603L36.1823 33.8813C36.2323 33.9103 36.3202 33.9063 36.3782 33.8733L37.0812 33.4673C37.1392 33.4343 37.1562 33.3193 37.1062 33.2903L36.0202 32.7333C35.9702 32.7043 35.8823 32.7083 35.8243 32.7413L35.1013 33.0823C35.0443 33.1153 35.0562 33.2313 35.1072 33.2603Z" fill="#3F3F3F"/>
<path d="M35.1032 33.1863L36.1782 33.8073C36.2282 33.8363 36.3162 33.8323 36.3742 33.7993L37.0772 33.3933C37.1352 33.3593 37.1422 33.3093 37.0912 33.2803L36.0162 32.6593C35.9662 32.6303 35.8782 32.6343 35.8202 32.6673L35.1172 33.0733C35.0592 33.1063 35.0532 33.1573 35.1032 33.1863Z" fill="#FCFCFC"/>
<path d="M33.3198 32.2243L34.3947 32.8453C34.4447 32.8743 34.5328 32.8703 34.5908 32.8373L35.2938 32.4313C35.3518 32.3983 35.3717 32.2973 35.3217 32.2683L34.2327 31.6973C34.1827 31.6683 34.0947 31.6723 34.0367 31.7053L33.3307 32.0583C33.2727 32.0913 33.2688 32.1953 33.3198 32.2243Z" fill="#3F3F3F"/>
<path d="M33.3278 32.1613L34.4028 32.7823C34.4528 32.8113 34.5408 32.8073 34.5988 32.7743L35.3018 32.3683C35.3598 32.3343 35.3658 32.2843 35.3158 32.2553L34.2408 31.6343C34.1908 31.6053 34.1028 31.6083 34.0448 31.6423L33.3418 32.0483C33.2838 32.0813 33.2778 32.1323 33.3278 32.1613Z" fill="#FCFCFC"/>
<path d="M31.5478 31.2043L32.6227 31.8253C32.6727 31.8543 32.7608 31.8503 32.8188 31.8173L33.5218 31.4113C33.5798 31.3783 33.6018 31.2673 33.5508 31.2383L32.4597 30.6773C32.4097 30.6483 32.3218 30.6523 32.2638 30.6853L31.5428 31.0433C31.4858 31.0763 31.4978 31.1753 31.5478 31.2043Z" fill="#3F3F3F"/>
<path d="M31.5534 31.1363L32.6284 31.7573C32.6784 31.7863 32.7664 31.7823 32.8244 31.7493L33.5274 31.3433C33.5854 31.3093 33.5914 31.2593 33.5414 31.2303L32.4664 30.6093C32.4164 30.5803 32.3284 30.5843 32.2704 30.6173L31.5674 31.0233C31.5094 31.0563 31.5034 31.1073 31.5534 31.1363Z" fill="#FCFCFC"/>
<path d="M29.7734 30.1813L30.8483 30.8023C30.8983 30.8313 30.9864 30.8273 31.0444 30.7943L31.7474 30.3883C31.8054 30.3543 31.8344 30.2493 31.7844 30.2203L30.6864 29.6543C30.6364 29.6253 30.5483 29.6293 30.4903 29.6623L29.7804 30.0033C29.7224 30.0363 29.7234 30.1523 29.7734 30.1813Z" fill="#3F3F3F"/>
<path d="M29.7784 30.1113L30.8534 30.7323C30.9034 30.7613 30.9914 30.7583 31.0494 30.7243L31.7524 30.3183C31.8104 30.2843 31.8164 30.2343 31.7664 30.2053L30.6914 29.5843C30.6414 29.5553 30.5534 29.5593 30.4954 29.5923L29.7924 29.9983C29.7344 30.0313 29.7274 30.0823 29.7784 30.1113Z" fill="#FCFCFC"/>
<path d="M28.0002 29.1613L29.0753 29.7823C29.1253 29.8113 29.2132 29.8083 29.2712 29.7743L29.9742 29.3683C30.0322 29.3353 30.0582 29.2253 30.0072 29.1963L28.9122 28.6353C28.8622 28.6063 28.7742 28.6103 28.7162 28.6433L27.9912 28.9963C27.9342 29.0283 27.9502 29.1323 28.0002 29.1613Z" fill="#3F3F3F"/>
<path d="M28.0033 29.0863L29.0783 29.7073C29.1283 29.7363 29.2163 29.7323 29.2743 29.6993L29.9773 29.2933C30.0353 29.2593 30.0413 29.2093 29.9913 29.1803L28.9163 28.5593C28.8663 28.5303 28.7783 28.5343 28.7203 28.5673L28.0173 28.9733C27.9583 29.0063 27.9523 29.0573 28.0033 29.0863Z" fill="#FCFCFC"/>
<path d="M26.2223 28.1413L27.2973 28.7623C27.3473 28.7913 27.4353 28.7873 27.4933 28.7543L28.1963 28.3483C28.2543 28.3143 28.2803 28.2003 28.2303 28.1713L27.1353 27.6143C27.0853 27.5853 26.9973 27.5883 26.9393 27.6223L26.2313 27.9563C26.1743 27.9893 26.1723 28.1123 26.2223 28.1413Z" fill="#3F3F3F"/>
<path d="M26.2272 28.0613L27.3022 28.6823C27.3522 28.7113 27.4402 28.7083 27.4982 28.6743L28.2012 28.2683C28.2592 28.2353 28.2652 28.1843 28.2152 28.1553L27.1402 27.5343C27.0902 27.5053 27.0022 27.5083 26.9442 27.5423L26.2412 27.9483C26.1832 27.9823 26.1772 28.0323 26.2272 28.0613Z" fill="#FCFCFC"/>
<path d="M24.4389 27.1043L25.514 27.7253C25.564 27.7543 25.6519 27.7513 25.7099 27.7173L26.4129 27.3113C26.4709 27.2783 26.513 27.1763 26.462 27.1473L25.3519 26.5773C25.3019 26.5483 25.214 26.5513 25.156 26.5853L24.449 26.9363C24.391 26.9693 24.3889 27.0753 24.4389 27.1043Z" fill="#3F3F3F"/>
<path d="M24.4518 27.0363L25.5268 27.6573C25.5768 27.6863 25.6648 27.6823 25.7228 27.6493L26.4258 27.2433C26.4838 27.2093 26.4898 27.1593 26.4398 27.1303L25.3648 26.5093C25.3148 26.4803 25.2268 26.4843 25.1688 26.5173L24.4658 26.9233C24.4078 26.9573 24.4018 27.0073 24.4518 27.0363Z" fill="#FCFCFC"/>
<path d="M21.1486 25.2243L23.7026 26.6993C23.7776 26.7433 23.9096 26.7373 23.9966 26.6873L24.5946 26.3423C24.6816 26.2923 24.7066 26.1323 24.6306 26.0883L22.0616 24.6973C21.9866 24.6533 21.8546 24.6593 21.7676 24.7093L21.1496 24.9803C21.0626 25.0313 21.0726 25.1813 21.1486 25.2243Z" fill="#3F3F3F"/>
<path d="M21.1524 25.1313L23.7064 26.6063C23.7824 26.6493 23.9134 26.6443 24.0004 26.5943L24.5984 26.2493C24.6854 26.1993 24.6954 26.1233 24.6194 26.0793L22.0644 24.6043C21.9894 24.5603 21.8574 24.5663 21.7704 24.6163L21.1724 24.9613C21.0864 25.0123 21.0774 25.0883 21.1524 25.1313Z" fill="#FCFCFC"/>
<path d="M42.7978 36.1933L43.8727 36.8143C43.9227 36.8433 44.0108 36.8393 44.0688 36.8063L44.7718 36.4003C44.8298 36.3663 44.8528 36.2543 44.8028 36.2253L43.7108 35.6663C43.6608 35.6373 43.5727 35.6413 43.5147 35.6743L42.7917 36.0153C42.7337 36.0493 42.7478 36.1643 42.7978 36.1933Z" fill="#3F3F3F"/>
<path d="M42.7975 36.1163L43.8725 36.7373C43.9225 36.7663 44.0105 36.7623 44.0685 36.7293L44.7715 36.3233C44.8295 36.2903 44.8355 36.2393 44.7855 36.2103L43.7105 35.5893C43.6605 35.5603 43.5725 35.5643 43.5145 35.5973L42.8115 36.0033C42.7535 36.0363 42.7475 36.0873 42.7975 36.1163Z" fill="#FCFCFC"/>
<path d="M41.0256 35.1623L42.1006 35.7833C42.1506 35.8123 42.2386 35.8083 42.2966 35.7753L42.9996 35.3693C43.0576 35.3363 43.0666 35.2223 43.0166 35.1933L41.9386 34.6353C41.8886 34.6063 41.8006 34.6103 41.7426 34.6433L41.0226 34.9923C40.9646 35.0253 40.9756 35.1333 41.0256 35.1623Z" fill="#3F3F3F"/>
<path d="M41.0231 35.0913L42.0981 35.7123C42.1481 35.7413 42.2361 35.7373 42.2941 35.7043L42.9971 35.2983C43.0551 35.2643 43.0611 35.2143 43.0111 35.1853L41.9361 34.5643C41.8861 34.5353 41.7981 34.5393 41.7401 34.5723L41.0371 34.9783C40.9791 35.0113 40.9731 35.0623 41.0231 35.0913Z" fill="#FCFCFC"/>
<path d="M39.2507 34.1323L40.3257 34.7533C40.3757 34.7823 40.4637 34.7783 40.5217 34.7453L41.2247 34.3393C41.2827 34.3053 41.2907 34.1973 41.2407 34.1683L40.1637 33.6053C40.1137 33.5763 40.0257 33.5803 39.9677 33.6133L39.2467 33.9683C39.1887 34.0013 39.2007 34.1033 39.2507 34.1323Z" fill="#3F3F3F"/>
<path d="M39.2481 34.0663L40.3231 34.6873C40.3731 34.7163 40.4611 34.7123 40.5191 34.6793L41.2221 34.2733C41.2801 34.2393 41.2861 34.1893 41.2361 34.1603L40.1611 33.5393C40.1111 33.5103 40.0231 33.5143 39.9651 33.5473L39.2621 33.9533C39.2041 33.9873 39.1971 34.0373 39.2481 34.0663Z" fill="#FCFCFC"/>
<path d="M37.4772 33.1073L38.5523 33.7283C38.6023 33.7573 38.6902 33.7533 38.7482 33.7203L39.4512 33.3143C39.5092 33.2803 39.5173 33.1743 39.4673 33.1453L38.3902 32.5803C38.3402 32.5513 38.2523 32.5553 38.1943 32.5883L37.4642 32.9523C37.4072 32.9853 37.4272 33.0783 37.4772 33.1073Z" fill="#3F3F3F"/>
<path d="M37.4714 33.0413L38.5465 33.6623C38.5965 33.6913 38.6845 33.6873 38.7425 33.6543L39.4455 33.2483C39.5035 33.2143 39.5094 33.1643 39.4594 33.1353L38.3845 32.5143C38.3345 32.4853 38.2464 32.4883 38.1874 32.5223L37.4844 32.9283C37.4274 32.9623 37.4214 33.0123 37.4714 33.0413Z" fill="#FCFCFC"/>
<path d="M35.6848 32.0823L36.7598 32.7033C36.8098 32.7323 36.8978 32.7283 36.9558 32.6953L37.6588 32.2893C37.7168 32.2553 37.7408 32.1483 37.6908 32.1193L36.5978 31.5553C36.5478 31.5263 36.4598 31.5303 36.4018 31.5633L35.7038 31.9123C35.6468 31.9443 35.6348 32.0533 35.6848 32.0823Z" fill="#3F3F3F"/>
<path d="M35.6969 32.0163L36.7719 32.6373C36.8219 32.6663 36.9099 32.6633 36.9679 32.6293L37.6709 32.2233C37.7289 32.1903 37.7349 32.1393 37.6849 32.1103L36.6099 31.4893C36.5599 31.4603 36.4719 31.4643 36.4139 31.4973L35.7109 31.9033C35.6529 31.9373 35.6469 31.9873 35.6969 32.0163Z" fill="#FCFCFC"/>
<path d="M33.9081 31.0523L34.9831 31.6733C35.0331 31.7023 35.1211 31.6983 35.1791 31.6653L35.8821 31.2593C35.9401 31.2263 35.9601 31.1323 35.9091 31.1033L34.8211 30.5253C34.7711 30.4963 34.6831 30.5003 34.6251 30.5333L33.9181 30.9013C33.8601 30.9333 33.8571 31.0233 33.9081 31.0523Z" fill="#3F3F3F"/>
<path d="M33.9216 30.9923L34.9966 31.6133C35.0466 31.6423 35.1346 31.6383 35.1926 31.6053L35.8956 31.1993C35.9536 31.1653 35.9606 31.1153 35.9096 31.0863L34.8346 30.4653C34.7846 30.4363 34.6966 30.4393 34.6386 30.4733L33.9346 30.8793C33.8776 30.9123 33.8716 30.9623 33.9216 30.9923Z" fill="#FCFCFC"/>
<path d="M32.1392 30.0243L33.2142 30.6453C33.2642 30.6743 33.3522 30.6703 33.4102 30.6373L34.1132 30.2313C34.1712 30.1973 34.2002 30.1073 34.1502 30.0783L33.0522 29.4973C33.0022 29.4683 32.9142 29.4713 32.8562 29.5053L32.1422 29.8683C32.0852 29.9013 32.0892 29.9953 32.1392 30.0243Z" fill="#3F3F3F"/>
<path d="M32.1465 29.9673L33.2215 30.5883C33.2715 30.6173 33.3595 30.6133 33.4175 30.5803L34.1215 30.1743C34.1795 30.1403 34.1855 30.0903 34.1355 30.0613L33.0605 29.4403C33.0105 29.4113 32.9225 29.4153 32.8645 29.4483L32.1615 29.8543C32.1025 29.8873 32.0955 29.9383 32.1465 29.9673Z" fill="#FCFCFC"/>
<path d="M30.3679 29.0033L31.4429 29.6243C31.4929 29.6533 31.5809 29.6493 31.6389 29.6163L32.3429 29.2103C32.4009 29.1763 32.4109 29.0793 32.3599 29.0503L31.2819 28.4753C31.2319 28.4463 31.1439 28.4503 31.0859 28.4833L30.3579 28.8533C30.2989 28.8873 30.3179 28.9743 30.3679 29.0033Z" fill="#3F3F3F"/>
<path d="M30.3708 28.9423L31.4458 29.5633C31.4958 29.5923 31.5838 29.5883 31.6418 29.5553L32.3448 29.1493C32.4028 29.1163 32.4088 29.0653 32.3588 29.0363L31.2838 28.4153C31.2338 28.3863 31.1458 28.3893 31.0878 28.4233L30.3848 28.8293C30.3268 28.8623 30.3208 28.9133 30.3708 28.9423Z" fill="#FCFCFC"/>
<path d="M28.5962 27.9793L29.6711 28.6003C29.7211 28.6293 29.8092 28.6253 29.8672 28.5923L30.5702 28.1863C30.6282 28.1523 30.6481 28.0563 30.5971 28.0273L29.5092 27.4523C29.4592 27.4233 29.3711 27.4273 29.3131 27.4603L28.5981 27.8123C28.5401 27.8453 28.5462 27.9503 28.5962 27.9793Z" fill="#3F3F3F"/>
<path d="M28.5964 27.9173L29.6713 28.5383C29.7213 28.5673 29.8094 28.5633 29.8674 28.5303L30.5704 28.1243C30.6284 28.0903 30.6353 28.0403 30.5843 28.0113L29.5094 27.3903C29.4594 27.3613 29.3713 27.3653 29.3133 27.3983L28.6103 27.8043C28.5523 27.8373 28.5464 27.8883 28.5964 27.9173Z" fill="#FCFCFC"/>
<path d="M26.8143 26.9663L27.8893 27.5873C27.9393 27.6163 28.0273 27.6123 28.0853 27.5793L28.7883 27.1733C28.8463 27.1393 28.8723 27.0223 28.8223 26.9923L27.7273 26.4393C27.6773 26.4103 27.5893 26.4143 27.5313 26.4473L26.8343 26.7793C26.7773 26.8123 26.7643 26.9373 26.8143 26.9663Z" fill="#3F3F3F"/>
<path d="M26.821 26.8923L27.8959 27.5133C27.9459 27.5423 28.034 27.5393 28.092 27.5053L28.795 27.0993C28.853 27.0663 28.8589 27.0153 28.8089 26.9863L27.734 26.3653C27.684 26.3363 27.5959 26.3403 27.5379 26.3733L26.8349 26.7793C26.7769 26.8123 26.771 26.8633 26.821 26.8923Z" fill="#FCFCFC"/>
<path d="M22.4783 24.4623L26.0093 26.5013C26.0973 26.5523 26.2513 26.5463 26.3523 26.4873L26.8983 26.1723C27.0003 26.1133 27.0333 25.9633 26.9453 25.9123L23.3913 23.9353C23.3033 23.8843 23.1493 23.8913 23.0473 23.9493L22.4973 24.2013C22.3973 24.2593 22.3903 24.4113 22.4783 24.4623Z" fill="#3F3F3F"/>
<path d="M22.4844 24.3883L26.0154 26.4273C26.1034 26.4783 26.2574 26.4713 26.3584 26.4133L26.9044 26.0983C27.0064 26.0393 27.0174 25.9513 26.9294 25.9003L23.3984 23.8613C23.3104 23.8103 23.1564 23.8173 23.0554 23.8753L22.5094 24.1903C22.4084 24.2483 22.3974 24.3373 22.4844 24.3883Z" fill="#FCFCFC"/>
<path d="M47.2417 37.0993L48.4987 37.8243C48.5397 37.8483 48.6117 37.8453 48.6587 37.8173L49.0326 37.6013C49.0796 37.5743 49.0927 37.4903 49.0517 37.4663L47.7877 36.7833C47.7467 36.7593 47.6746 36.7623 47.6276 36.7903L47.2377 36.9703C47.1897 36.9973 47.2007 37.0753 47.2417 37.0993Z" fill="#3F3F3F"/>
<path d="M47.2415 37.0503L48.4985 37.7753C48.5395 37.7993 48.6115 37.7963 48.6585 37.7683L49.0325 37.5523C49.0795 37.5253 49.0856 37.4833 49.0436 37.4593L47.7875 36.7343C47.7465 36.7103 47.6745 36.7133 47.6275 36.7413L47.2535 36.9573C47.2055 36.9853 47.2005 37.0273 47.2415 37.0503Z" fill="#FCFCFC"/>
<path d="M45.108 35.8663L46.365 36.5913C46.406 36.6153 46.478 36.6123 46.526 36.5843L46.9 36.3683C46.947 36.3413 46.964 36.2623 46.923 36.2383L45.655 35.5503C45.614 35.5263 45.542 35.5293 45.495 35.5573L45.113 35.7383C45.065 35.7653 45.067 35.8423 45.108 35.8663Z" fill="#3F3F3F"/>
<path d="M45.1114 35.8203L46.3684 36.5453C46.4094 36.5693 46.4814 36.5663 46.5284 36.5383L46.9024 36.3223C46.9494 36.2953 46.9554 36.2533 46.9134 36.2293L45.6574 35.5043C45.6164 35.4803 45.5444 35.4833 45.4964 35.5113L45.1224 35.7273C45.0764 35.7553 45.0704 35.7973 45.1114 35.8203Z" fill="#FCFCFC"/>
<path d="M42.9786 34.6443L44.2356 35.3693C44.2766 35.3933 44.3486 35.3903 44.3956 35.3623L44.7696 35.1463C44.8176 35.1193 44.8397 35.0353 44.7987 35.0123L43.5246 34.3283C43.4836 34.3043 43.4116 34.3073 43.3646 34.3353L42.9826 34.5093C42.9346 34.5373 42.9376 34.6203 42.9786 34.6443Z" fill="#3F3F3F"/>
<path d="M42.9808 34.5913L44.2378 35.3163C44.2788 35.3403 44.3508 35.3373 44.3978 35.3093L44.7718 35.0933C44.8198 35.0663 44.8248 35.0243 44.7838 35.0013L43.5268 34.2763C43.4858 34.2523 43.4138 34.2553 43.3668 34.2833L42.9928 34.4993C42.9448 34.5253 42.9398 34.5673 42.9808 34.5913Z" fill="#FCFCFC"/>
<path d="M40.8478 33.4153L42.1048 34.1413C42.1458 34.1653 42.2178 34.1623 42.2648 34.1343L42.6388 33.9183C42.6858 33.8913 42.7028 33.8053 42.6618 33.7813L41.3938 33.1003C41.3528 33.0763 41.2808 33.0793 41.2338 33.1073L40.8538 33.2813C40.8058 33.3083 40.8068 33.3923 40.8478 33.4153Z" fill="#3F3F3F"/>
<path d="M40.8508 33.3613L42.1078 34.0863C42.1488 34.1103 42.2208 34.1073 42.2678 34.0793L42.6418 33.8633C42.6898 33.8363 42.6948 33.7943 42.6538 33.7703L41.3978 33.0453C41.3568 33.0213 41.2848 33.0243 41.2378 33.0523L40.8638 33.2683C40.8148 33.2953 40.8098 33.3373 40.8508 33.3613Z" fill="#FCFCFC"/>
<path d="M38.7237 32.1953L39.9807 32.9203C40.0217 32.9443 40.0937 32.9413 40.1407 32.9133L40.5147 32.6973C40.5627 32.6703 40.5747 32.5733 40.5337 32.5493L39.2697 31.8793C39.2287 31.8553 39.1567 31.8583 39.1087 31.8863L38.7197 32.0513C38.6727 32.0793 38.6827 32.1713 38.7237 32.1953Z" fill="#3F3F3F"/>
<path d="M38.721 32.1313L39.978 32.8563C40.019 32.8803 40.091 32.8773 40.138 32.8493L40.512 32.6333C40.559 32.6063 40.565 32.5643 40.524 32.5403L39.267 31.8153C39.226 31.7913 39.154 31.7943 39.107 31.8223L38.733 32.0383C38.685 32.0663 38.68 32.1073 38.721 32.1313Z" fill="#FCFCFC"/>
<path d="M36.5897 30.9683L37.8458 31.6933C37.8868 31.7173 37.9588 31.7143 38.0058 31.6863L38.3798 31.4703C38.4278 31.4433 38.4397 31.3403 38.3987 31.3163L37.1348 30.6513C37.0938 30.6273 37.0218 30.6303 36.9748 30.6583L36.5908 30.8173C36.5448 30.8463 36.5487 30.9453 36.5897 30.9683Z" fill="#3F3F3F"/>
<path d="M36.5902 30.9013L37.8462 31.6263C37.8872 31.6503 37.9592 31.6473 38.0062 31.6193L38.3802 31.4033C38.4282 31.3763 38.4332 31.3343 38.3922 31.3113L37.1362 30.5863C37.0952 30.5623 37.0232 30.5653 36.9762 30.5933L36.6022 30.8093C36.5542 30.8363 36.5492 30.8773 36.5902 30.9013Z" fill="#FCFCFC"/>
<path d="M34.4645 29.7483L35.7205 30.4733C35.7615 30.4973 35.8335 30.4943 35.8815 30.4663L36.2556 30.2503C36.3026 30.2233 36.3125 30.1133 36.2715 30.0893L35.0105 29.4323C34.9695 29.4083 34.8976 29.4113 34.8506 29.4393L34.4535 29.5943C34.4055 29.6223 34.4235 29.7243 34.4645 29.7483Z" fill="#3F3F3F"/>
<path d="M34.4603 29.6713L35.7173 30.3963C35.7583 30.4203 35.8303 30.4173 35.8773 30.3893L36.2523 30.1733C36.2993 30.1463 36.3043 30.1043 36.2633 30.0813L35.0063 29.3563C34.9653 29.3323 34.8933 29.3353 34.8463 29.3633L34.4723 29.5793C34.4243 29.6063 34.4193 29.6473 34.4603 29.6713Z" fill="#FCFCFC"/>
<path d="M32.3246 28.4943L33.5806 29.2193C33.6216 29.2433 33.6936 29.2403 33.7406 29.2123L34.1146 28.9963C34.1616 28.9693 34.1786 28.8803 34.1376 28.8573L32.8696 28.1783C32.8286 28.1543 32.7566 28.1573 32.7096 28.1853L32.3246 28.3583C32.2786 28.3863 32.2836 28.4703 32.3246 28.4943Z" fill="#3F3F3F"/>
<path d="M32.3304 28.4413L33.5864 29.1663C33.6274 29.1903 33.6994 29.1873 33.7474 29.1593L34.1214 28.9433C34.1684 28.9163 34.1744 28.8743 34.1334 28.8503L32.8764 28.1253C32.8354 28.1013 32.7634 28.1043 32.7164 28.1323L32.3424 28.3483C32.2944 28.3763 32.2894 28.4173 32.3304 28.4413Z" fill="#FCFCFC"/>
<path d="M30.197 27.2643L31.454 27.9893C31.495 28.0133 31.567 28.0103 31.614 27.9823L31.988 27.7663C32.036 27.7393 32.048 27.6533 32.007 27.6293L30.743 26.9483C30.702 26.9243 30.63 26.9273 30.583 26.9553L30.201 27.1263C30.154 27.1533 30.156 27.2403 30.197 27.2643Z" fill="#3F3F3F"/>
<path d="M30.1991 27.2113L31.4561 27.9363C31.4971 27.9603 31.5691 27.9573 31.6161 27.9293L31.9901 27.7133C32.0371 27.6863 32.0431 27.6443 32.0021 27.6203L30.7461 26.8953C30.7051 26.8713 30.6331 26.8743 30.5861 26.9023L30.2121 27.1183C30.1641 27.1463 30.1581 27.1873 30.1991 27.2113Z" fill="#FCFCFC"/>
<path d="M28.0669 26.0343L29.3239 26.7593C29.3649 26.7833 29.4369 26.7803 29.4839 26.7523L29.8579 26.5363C29.9049 26.5093 29.9189 26.4213 29.8779 26.3973L28.6129 25.7183C28.5719 25.6943 28.4999 25.6973 28.4519 25.7253L28.0639 25.9013C28.0169 25.9283 28.0259 26.0103 28.0669 26.0343Z" fill="#3F3F3F"/>
<path d="M28.0687 25.9813L29.3257 26.7063C29.3667 26.7303 29.4387 26.7273 29.4857 26.6993L29.8597 26.4833C29.9067 26.4563 29.9127 26.4143 29.8717 26.3903L28.6157 25.6653C28.5747 25.6413 28.5027 25.6443 28.4547 25.6723L28.0807 25.8883C28.0327 25.9163 28.0277 25.9573 28.0687 25.9813Z" fill="#FCFCFC"/>
<path d="M25.929 24.8153L27.186 25.5403C27.227 25.5643 27.299 25.5613 27.346 25.5333L27.72 25.3173C27.767 25.2903 27.796 25.2023 27.755 25.1793L26.474 24.4993C26.433 24.4753 26.361 24.4783 26.314 24.5063L25.932 24.6753C25.885 24.7033 25.888 24.7923 25.929 24.8153Z" fill="#3F3F3F"/>
<path d="M25.9388 24.7513L27.1958 25.4763C27.2368 25.5003 27.3088 25.4973 27.3558 25.4693L27.7298 25.2533C27.7768 25.2263 27.7828 25.1843 27.7418 25.1603L26.4848 24.4353C26.4438 24.4113 26.3718 24.4143 26.3248 24.4423L25.9508 24.6583C25.9028 24.6863 25.8978 24.7273 25.9388 24.7513Z" fill="#FCFCFC"/>
<path d="M23.809 23.5893L25.0661 24.3143C25.1071 24.3383 25.1791 24.3353 25.2261 24.3073L25.6001 24.0913C25.6481 24.0643 25.6621 23.9673 25.6211 23.9433L24.3551 23.2733C24.3141 23.2493 24.2421 23.2523 24.1951 23.2803L23.805 23.4483C23.757 23.4763 23.768 23.5653 23.809 23.5893Z" fill="#3F3F3F"/>
<path d="M23.8089 23.5213L25.0659 24.2463C25.1069 24.2703 25.1789 24.2673 25.2259 24.2393L25.5999 24.0233C25.6479 23.9963 25.6529 23.9543 25.6119 23.9303L24.3549 23.2053C24.3139 23.1813 24.2419 23.1843 24.1949 23.2123L23.8209 23.4283C23.7729 23.4563 23.7679 23.4973 23.8089 23.5213Z" fill="#FCFCFC"/>
<path d="M32.4635 15.0933C32.5205 15.1303 32.5765 15.1653 32.6305 15.1963C35.0605 16.5993 34.4025 11.6433 38.1905 13.7963C42.2455 16.1373 41.9425 21.4863 44.1065 22.7353C46.4655 24.0973 46.7885 20.6943 50.0865 22.2653C50.2055 22.3223 50.3225 22.3843 50.4385 22.4503C52.2325 23.4863 53.5495 25.5653 54.3455 27.1423V18.1213C54.3455 17.2203 53.8655 16.3883 53.0855 15.9383L28.3455 1.65428C27.5525 1.19628 26.5625 1.76828 26.5625 2.68428V4.79428C29.6075 7.35928 30.0185 13.4833 32.4635 15.0933Z" fill="#D12971"/>
<path d="M7.15278 22.2163C3.27878 21.8023 2.3278 29.2413 1.4518 33.3253C0.624796 37.1823 5.22179 38.1383 7.56679 38.2763C9.91179 38.4143 7.15278 22.2163 7.15278 22.2163Z" fill="#F2F2F2"/>
<path d="M11.4484 79.2283C11.1934 80.3113 11.0764 82.4953 12.4204 82.4773C14.8414 82.4453 14.1514 81.1463 15.7174 80.8523C19.2054 80.1993 19.7794 77.7303 19.0464 77.0613C18.2814 76.3623 17.2494 77.0123 16.3064 77.4433C15.7484 77.6983 13.4874 78.5263 13.4874 78.5263L11.4484 79.2283Z" fill="#2A2A66"/>
<path d="M6.56267 77.6073C6.30767 78.6903 6.19068 80.8743 7.53468 80.8573C9.95568 80.8253 9.26668 79.5253 10.8317 79.2323C14.3197 78.5793 14.8937 76.1103 14.1607 75.4413C13.3957 74.7423 12.3647 75.3923 11.4207 75.8233C10.8637 76.0783 8.60167 76.9063 8.60167 76.9063L6.56267 77.6073Z" fill="#15154F"/>
<path d="M5.41687 41.9053C5.41687 41.9053 3.43888 44.4133 4.36688 50.2323C5.29488 56.0513 5.90589 59.2943 5.46289 62.2623C5.01989 65.2303 6.54087 72.1443 6.27887 74.8693C6.01587 77.6043 6.65288 78.2353 7.51388 78.3213C8.37488 78.4073 10.8009 78.6083 10.7869 77.4613C10.7739 76.3143 10.9149 70.8333 11.1509 69.2373C11.3869 67.6413 11.6589 64.5433 11.4389 61.2053C11.2839 58.8493 11.4659 56.6813 11.2899 53.8793C11.0789 50.5263 10.2799 45.6573 10.6869 43.1823C11.3579 39.1123 5.41687 41.9053 5.41687 41.9053Z" fill="#51228A"/>
<path d="M8.13486 42.0493C8.13486 42.0493 6.90486 43.8773 7.41486 49.0153C7.73986 52.2853 10.0499 56.6963 9.95285 59.2463C9.85485 61.7963 9.41984 65.4333 10.0978 68.9293C10.7758 72.4253 10.5188 76.6393 11.2268 79.9763C13.1418 80.2883 14.9809 79.4743 15.0819 79.1003C15.2819 78.3573 15.2849 73.8073 16.0089 70.3583C16.7329 66.9093 17.3878 58.8813 16.9848 54.3383C16.7458 51.6493 17.3759 48.9573 16.8539 43.0853C16.4619 38.6993 8.13486 42.0493 8.13486 42.0493Z" fill="#7437BD"/>
<path d="M15.3021 12.6943C16.7191 12.7393 17.0911 13.8693 17.0981 14.4903C17.1051 15.1103 16.8261 16.1013 16.8871 16.5523C16.9491 17.0033 17.0321 18.0793 16.9001 18.7583C16.7591 19.4823 16.7701 21.5493 15.0321 21.4693C13.7561 21.4103 14.6921 23.8773 14.6921 23.8773C14.6921 23.8773 13.5861 25.0913 12.2891 25.1063C10.9911 25.1213 9.74512 24.1133 9.74512 24.1133C9.74512 24.1133 10.8961 21.5663 10.5701 20.0713C10.2451 18.5763 10.5311 14.0583 10.5311 14.0583L15.3021 12.6943Z" fill="#F9C0AA"/>
<path d="M10.5689 20.0713C10.5259 19.8753 10.4949 19.6263 10.4709 19.3433L11.881 19.2033C11.881 19.2033 12.2469 21.1043 14.4189 21.8963C14.2069 22.5873 14.6929 23.8773 14.6929 23.8773C14.6929 23.8773 14.4979 24.0903 14.1769 24.3383C13.3879 24.3623 10.4189 24.4463 10.3389 24.3943C10.3119 24.3763 10.1259 24.1313 9.87793 23.7953C10.1689 23.0683 10.8249 21.2463 10.5689 20.0713Z" fill="#F7AF8F"/>
<path d="M11.6532 20.2873C12.0722 19.9753 12.6472 19.2643 13.0472 18.5373C13.4472 17.8093 12.3872 16.9823 12.7892 16.4433C13.1912 15.9043 13.7603 16.4393 13.7603 16.4393L13.8022 17.9863C13.7842 18.7253 13.1272 18.9043 13.1192 19.4113C13.1162 19.5803 12.9262 21.2503 13.5732 21.6503C14.2422 22.0643 15.7132 22.2033 16.3112 21.7283C16.9262 21.2403 16.8662 19.5103 16.8352 19.2023C15.8062 19.2523 15.3023 19.4393 14.7563 19.0983C14.3123 18.8213 14.3573 18.7253 14.4153 17.8713H14.4142C14.4162 17.3813 14.4302 17.1703 14.4492 16.9233C14.5032 16.2003 14.9332 16.4543 15.8042 15.9373C18.2072 14.5113 19.4822 10.4543 16.3782 11.2523C15.4942 11.4793 15.0292 11.6733 13.3222 11.2083C11.6152 10.7423 10.1943 10.7343 9.39825 12.4263C8.92525 13.4313 9.49324 13.7113 8.19324 14.4933C7.19924 15.0913 6.96123 16.8403 7.67123 17.7713C8.38023 18.7023 9.16223 19.4173 9.40823 20.0863C9.79123 21.1273 10.1872 21.3813 11.6532 20.2873Z" fill="#320C7E"/>
<path d="M6.51064 22.2363C7.57164 21.9163 8.96566 22.4733 9.84566 22.8493C11.2087 23.4313 12.1487 23.5743 13.2947 23.5893C14.9947 23.6113 18.8506 23.9243 19.8036 25.7753C20.9766 28.0553 17.8817 34.4313 17.3317 36.4773C16.7817 38.5223 17.0907 43.1543 17.0997 43.9193C17.1087 44.6833 11.5966 44.6363 8.21364 44.1663C4.83064 43.6963 4.36366 43.3973 4.20266 40.3423C4.14166 39.1803 4.14167 36.4723 3.68267 32.6223C3.26467 29.1083 4.13764 22.9533 6.51064 22.2363Z" fill="#D1D7E2"/>
<path d="M29.6372 35.4943C29.6372 35.4943 30.2762 35.7133 30.9002 35.5593C31.5232 35.4063 33.3972 34.4503 33.6572 34.9653C33.8962 35.4393 32.5522 35.5763 32.6412 35.8433C32.8272 36.4023 36.0682 35.3413 36.2122 35.7883C36.3252 36.1423 34.5192 36.2973 34.5922 36.5163C34.6652 36.7353 34.5842 37.0583 34.3982 37.1483C34.2112 37.2373 34.3572 37.3503 34.2682 37.5693C34.1792 37.7883 33.9562 37.6633 33.9402 37.8003C33.9262 37.9193 33.8652 38.1303 33.5982 38.1903C33.2842 38.2613 31.7862 38.4223 31.0742 37.9443C29.9962 37.2213 29.4512 37.5263 29.4512 37.5263L29.6372 35.4943Z" fill="#FCC9B4"/>
<path d="M18.4267 24.4873C15.9697 24.4183 16.1827 26.5623 15.9457 31.2763C15.7547 35.0753 16.1327 37.0223 17.7587 37.4093C21.7247 38.3523 30.0326 37.7793 30.0326 37.7793L30.0577 35.0393L20.5737 33.9213C20.5737 33.9213 21.4397 24.5713 18.4267 24.4873Z" fill="#F2F2F2"/>
<defs>
<linearGradient id="paint0_linear_71_24891" x1="18.1806" y1="11.0932" x2="65.6462" y2="52.4063" gradientUnits="userSpaceOnUse">
<stop stop-color="#7437BD"/>
<stop offset="1" stop-color="#2E0AA3"/>
</linearGradient>
<linearGradient id="paint1_linear_71_24891" x1="19.7048" y1="9.32109" x2="67.1733" y2="50.6561" gradientUnits="userSpaceOnUse">
<stop stop-color="#7437BD"/>
<stop offset="1" stop-color="#2E0AA3"/>
</linearGradient>
<linearGradient id="paint2_linear_71_24891" x1="19.3224" y1="9.78101" x2="66.7875" y2="51.0948" gradientUnits="userSpaceOnUse">
<stop stop-color="#7437BD"/>
<stop offset="1" stop-color="#2E0AA3"/>
</linearGradient>
<linearGradient id="paint3_linear_71_24891" x1="18.5832" y1="10.6314" x2="66.0488" y2="51.9443" gradientUnits="userSpaceOnUse">
<stop stop-color="#7437BD"/>
<stop offset="1" stop-color="#2E0AA3"/>
</linearGradient>
<linearGradient id="paint4_linear_71_24891" x1="17.7493" y1="11.5909" x2="65.2142" y2="52.9021" gradientUnits="userSpaceOnUse">
<stop stop-color="#7437BD"/>
<stop offset="1" stop-color="#2E0AA3"/>
</linearGradient>
<linearGradient id="paint5_linear_71_24891" x1="16.9478" y1="12.5123" x2="64.4125" y2="53.8235" gradientUnits="userSpaceOnUse">
<stop stop-color="#7437BD"/>
<stop offset="1" stop-color="#2E0AA3"/>
</linearGradient>
<linearGradient id="paint6_linear_71_24891" x1="15.5954" y1="34.7799" x2="65.2122" y2="63.4262" gradientUnits="userSpaceOnUse">
<stop stop-color="#7437BD"/>
<stop offset="1" stop-color="#2E0AA3"/>
</linearGradient>
<linearGradient id="paint7_linear_71_24891" x1="57.5189" y1="40.3448" x2="0.456032" y2="40.3448" gradientUnits="userSpaceOnUse">
<stop stop-color="#B862D6"/>
<stop offset="1" stop-color="#7437BD"/>
</linearGradient>
<linearGradient id="paint8_linear_71_24891" x1="58.2152" y1="40.3445" x2="-0.406394" y2="40.3445" gradientUnits="userSpaceOnUse">
<stop stop-color="#7437BD"/>
<stop offset="1" stop-color="#B862D6"/>
</linearGradient>
<linearGradient id="paint9_linear_71_24891" x1="34.8723" y1="17.3755" x2="28.7305" y2="44.5017" gradientUnits="userSpaceOnUse">
<stop stop-color="#FCFCFC"/>
<stop offset="1" stop-color="#BABDE8"/>
</linearGradient>
<linearGradient id="paint10_linear_71_24891" x1="26.8082" y1="34.5403" x2="23.2255" y2="42.1536" gradientUnits="userSpaceOnUse">
<stop stop-color="#7437BD"/>
<stop offset="1" stop-color="#2E0AA3"/>
</linearGradient>
<linearGradient id="paint11_linear_71_24891" x1="33.2151" y1="-1.27731" x2="43.9633" y2="28.7279" gradientUnits="userSpaceOnUse">
<stop stop-color="#FCFCFC"/>
<stop offset="1" stop-color="#BABDE8"/>
</linearGradient>
<linearGradient id="paint12_linear_71_24891" x1="40.2302" y1="9.03308" x2="40.6459" y2="10.1683" gradientUnits="userSpaceOnUse">
<stop stop-color="#FCFCFC"/>
<stop offset="1" stop-color="#BABDE8"/>
</linearGradient>
</defs>
</svg>
