<svg width="53" height="106" viewBox="0 0 53 106" fill="none" xmlns="http://www.w3.org/2000/svg">
<path d="M51.3484 82.784C51.3434 82.8 51.3404 82.816 51.3344 82.832C51.2874 82.967 51.2174 83.1 51.1304 83.23C51.1144 83.254 51.0994 83.278 51.0824 83.302C50.9884 83.431 50.8754 83.557 50.7424 83.677C50.6554 83.755 50.5454 83.826 50.4424 83.899C50.3534 83.962 50.2774 84.03 50.1754 84.089L29.1814 96.29C28.9244 96.439 28.6364 96.558 28.3374 96.661C28.2324 96.697 28.1234 96.729 28.0144 96.76C27.8734 96.799 27.7314 96.837 27.5854 96.867C27.4134 96.902 27.2394 96.935 27.0624 96.957C27.0204 96.962 26.9794 96.97 26.9374 96.974C26.6994 96.999 26.4574 97.012 26.2154 97.014C26.1774 97.014 26.1394 97.015 26.1024 97.015C25.8644 97.013 25.6264 97 25.3904 96.975C25.3544 96.971 25.3184 96.967 25.2824 96.963C25.0484 96.935 24.8184 96.895 24.5934 96.845C24.5524 96.836 24.5124 96.825 24.4714 96.815C24.2664 96.765 24.0684 96.704 23.8764 96.634C23.8414 96.621 23.8044 96.612 23.7704 96.598C23.5404 96.509 23.3204 96.407 23.1164 96.29L1.98438 84.089C1.13838 83.601 0.715353 82.96 0.717353 82.319L0.693366 90.709C0.691366 91.349 1.11436 91.99 1.96036 92.478L23.0944 104.678C23.2884 104.79 23.4954 104.889 23.7134 104.975C23.7244 104.979 23.7364 104.982 23.7484 104.987C23.7824 105 23.8174 105.009 23.8514 105.022C23.9774 105.068 24.1034 105.114 24.2344 105.151C24.3044 105.171 24.3764 105.186 24.4474 105.203C24.4884 105.213 24.5294 105.224 24.5704 105.233C24.6084 105.242 24.6444 105.253 24.6814 105.26C24.8214 105.289 24.9634 105.314 25.1064 105.334C25.1564 105.341 25.2074 105.345 25.2574 105.351C25.2934 105.355 25.3294 105.359 25.3654 105.363C25.4184 105.369 25.4704 105.376 25.5234 105.381C25.6634 105.393 25.8044 105.4 25.9454 105.404C25.9894 105.405 26.0324 105.403 26.0764 105.403C26.1144 105.403 26.1524 105.403 26.1894 105.402C26.2544 105.401 26.3184 105.403 26.3834 105.401C26.5424 105.396 26.7014 105.385 26.8584 105.369C26.8764 105.367 26.8934 105.364 26.9114 105.362C26.9534 105.357 26.9934 105.35 27.0354 105.345C27.1594 105.329 27.2834 105.315 27.4044 105.294C27.4574 105.284 27.5064 105.266 27.5594 105.256C27.7054 105.226 27.8454 105.189 27.9864 105.15C28.0614 105.129 28.1424 105.117 28.2154 105.093C28.2494 105.082 28.2774 105.063 28.3114 105.051C28.6104 104.948 28.8974 104.83 29.1544 104.68L50.1484 92.479C50.1664 92.469 50.1834 92.458 50.2004 92.448C50.2834 92.398 50.3424 92.341 50.4164 92.288C50.5194 92.215 50.6284 92.145 50.7144 92.067C50.7224 92.06 50.7344 92.053 50.7424 92.046C50.8424 91.954 50.9314 91.858 51.0084 91.76C51.0254 91.738 51.0374 91.714 51.0544 91.692C51.0714 91.669 51.0864 91.645 51.1024 91.621C51.1284 91.582 51.1584 91.543 51.1814 91.504C51.2264 91.424 51.2644 91.342 51.2954 91.26C51.3004 91.248 51.3014 91.235 51.3064 91.223C51.3114 91.207 51.3154 91.191 51.3204 91.175C51.3364 91.123 51.3544 91.071 51.3654 91.019C51.3814 90.937 51.3914 90.855 51.3934 90.773C51.3934 90.76 51.3944 90.748 51.3944 90.735L51.4184 82.345C51.4214 82.492 51.3944 82.639 51.3484 82.784Z" fill="url(#paint0_linear_71_24511)"/>
<path d="M50.1556 80.575C51.8356 81.545 51.8446 83.118 50.1756 84.088L29.1816 96.289C27.5126 97.259 24.7986 97.258 23.1186 96.288L1.98663 84.088C0.306634 83.118 0.29563 81.546 1.96463 80.576L22.9586 68.375C24.6276 67.405 27.3436 67.405 29.0236 68.375L50.1556 80.575Z" fill="url(#paint1_linear_71_24511)"/>
<path d="M26.155 97.738C24.934 97.738 23.711 97.461 22.758 96.911L1.62601 84.711C0.579008 84.106 1.31587e-06 83.259 1.31587e-06 82.326C-0.000998684 81.397 0.567998 80.555 1.603 79.954L22.597 67.753C24.495 66.651 27.477 66.65 29.384 67.752L50.516 79.953C51.563 80.557 52.141 81.404 52.142 82.338C52.143 83.267 51.573 84.11 50.538 84.711L29.544 96.912C28.595 97.462 27.376 97.738 26.155 97.738ZM25.987 68.368C25.013 68.368 24.041 68.578 23.32 68.997L2.32599 81.198C1.76199 81.526 1.438 81.936 1.439 82.324C1.439 82.717 1.77001 83.133 2.34601 83.465L23.478 95.665C24.93 96.503 27.378 96.506 28.82 95.668L49.814 83.467C50.379 83.139 50.703 82.728 50.702 82.34C50.702 81.947 50.371 81.531 49.796 81.199L28.664 68.998C27.937 68.578 26.962 68.368 25.987 68.368Z" fill="url(#paint2_linear_71_24511)"/>
<path d="M34.9707 94.575L34.9756 96.323L29.1857 99.665L29.1807 97.917L34.9707 94.575Z" fill="#EFF6FE"/>
<path d="M41.5576 90.792L41.5626 92.54L35.7726 95.883L35.7676 94.135L41.5576 90.792Z" fill="#EFF6FE"/>
<path d="M4.20917 88.384C4.88117 88.772 5.4212 89.708 5.41919 90.478C5.41719 91.25 4.87318 91.56 4.20118 91.172C3.53118 90.785 2.99117 89.849 2.99317 89.077C2.99517 88.307 3.53917 87.997 4.20917 88.384Z" fill="#EFF6FE"/>
<path d="M8.01777 90.921C8.68877 91.309 9.22976 92.245 9.22776 93.015C9.22576 93.786 8.68174 94.097 8.00974 93.709C7.33974 93.322 6.79976 92.386 6.80176 91.614C6.80376 90.844 7.34777 90.534 8.01777 90.921Z" fill="#EFF6FE"/>
<path d="M51.3484 71.881C51.3434 71.897 51.3404 71.913 51.3344 71.929C51.2874 72.064 51.2174 72.197 51.1304 72.327C51.1144 72.351 51.0994 72.375 51.0824 72.399C50.9884 72.528 50.8754 72.654 50.7424 72.774C50.6554 72.852 50.5454 72.923 50.4424 72.996C50.3534 73.059 50.2774 73.127 50.1754 73.186L29.1814 85.387C28.9244 85.536 28.6364 85.655 28.3374 85.758C28.2324 85.794 28.1234 85.826 28.0144 85.857C27.8734 85.897 27.7314 85.934 27.5854 85.964C27.4134 85.999 27.2394 86.032 27.0624 86.054C27.0204 86.059 26.9794 86.067 26.9374 86.071C26.6994 86.097 26.4574 86.109 26.2154 86.111C26.1774 86.111 26.1394 86.112 26.1024 86.112C25.8644 86.11 25.6264 86.097 25.3904 86.072C25.3544 86.068 25.3184 86.064 25.2824 86.06C25.0484 86.032 24.8184 85.992 24.5934 85.942C24.5524 85.933 24.5124 85.922 24.4714 85.912C24.2664 85.861 24.0684 85.801 23.8764 85.731C23.8414 85.718 23.8044 85.709 23.7704 85.695C23.5404 85.606 23.3204 85.504 23.1164 85.386L1.98438 73.185C1.13838 72.697 0.715353 72.056 0.717353 71.415L0.693366 79.805C0.691366 80.445 1.11436 81.086 1.96036 81.574L23.0944 93.775C23.2884 93.887 23.4954 93.986 23.7134 94.072C23.7244 94.076 23.7364 94.079 23.7484 94.084C23.7824 94.097 23.8174 94.106 23.8514 94.119C23.9774 94.165 24.1034 94.211 24.2344 94.248C24.3044 94.268 24.3764 94.283 24.4474 94.3C24.4884 94.31 24.5294 94.321 24.5704 94.33C24.6084 94.338 24.6444 94.35 24.6814 94.357C24.8214 94.386 24.9634 94.411 25.1064 94.431C25.1564 94.438 25.2074 94.442 25.2574 94.448C25.2934 94.452 25.3294 94.456 25.3654 94.46C25.4184 94.465 25.4704 94.473 25.5234 94.478C25.6634 94.49 25.8044 94.497 25.9454 94.501C25.9894 94.502 26.0324 94.5 26.0764 94.5C26.1144 94.5 26.1524 94.5 26.1894 94.499C26.2544 94.499 26.3184 94.5 26.3834 94.498C26.5424 94.493 26.7014 94.482 26.8584 94.466C26.8764 94.464 26.8934 94.461 26.9114 94.459C26.9534 94.455 26.9934 94.447 27.0354 94.442C27.1594 94.426 27.2834 94.412 27.4044 94.39C27.4574 94.38 27.5064 94.362 27.5594 94.352C27.7054 94.322 27.8454 94.285 27.9864 94.246C28.0614 94.225 28.1424 94.213 28.2154 94.189C28.2494 94.178 28.2774 94.159 28.3114 94.147C28.6104 94.044 28.8974 93.926 29.1544 93.776L50.1484 81.575C50.1664 81.565 50.1834 81.554 50.2004 81.544C50.2834 81.494 50.3424 81.436 50.4164 81.384C50.5194 81.311 50.6284 81.241 50.7144 81.163C50.7224 81.156 50.7344 81.149 50.7424 81.142C50.8424 81.05 50.9314 80.954 51.0084 80.856C51.0254 80.834 51.0374 80.81 51.0544 80.788C51.0714 80.765 51.0864 80.741 51.1024 80.717C51.1284 80.678 51.1584 80.639 51.1814 80.6C51.2264 80.52 51.2644 80.438 51.2954 80.356C51.3004 80.344 51.3014 80.331 51.3064 80.319C51.3114 80.303 51.3154 80.287 51.3204 80.271C51.3364 80.219 51.3544 80.167 51.3654 80.115C51.3814 80.033 51.3914 79.951 51.3934 79.869C51.3934 79.856 51.3944 79.844 51.3944 79.831L51.4184 71.441C51.4214 71.588 51.3944 71.735 51.3484 71.881Z" fill="url(#paint3_linear_71_24511)"/>
<path d="M50.1556 69.672C51.8356 70.642 51.8446 72.215 50.1756 73.185L29.1816 85.386C27.5126 86.356 24.7986 86.355 23.1186 85.385L1.98663 73.185C0.306634 72.215 0.29563 70.643 1.96463 69.673L22.9586 57.472C24.6276 56.502 27.3436 56.502 29.0236 57.472L50.1556 69.672Z" fill="url(#paint4_linear_71_24511)"/>
<path d="M26.155 86.835C24.934 86.835 23.711 86.558 22.758 86.008L1.62601 73.808C0.579008 73.203 1.31587e-06 72.356 1.31587e-06 71.423C-0.000998684 70.494 0.567998 69.652 1.603 69.051L22.597 56.85C24.495 55.748 27.477 55.747 29.384 56.849L50.516 69.05C51.563 69.654 52.141 70.501 52.142 71.435C52.143 72.364 51.573 73.207 50.538 73.808L29.544 86.009C28.595 86.559 27.376 86.835 26.155 86.835ZM25.987 57.465C25.013 57.465 24.041 57.675 23.32 58.094L2.32599 70.295C1.76199 70.623 1.438 71.033 1.439 71.421C1.439 71.814 1.77001 72.23 2.34601 72.562L23.478 84.762C24.93 85.6 27.378 85.602 28.82 84.765L49.814 72.564C50.379 72.236 50.703 71.825 50.702 71.437C50.702 71.043 50.371 70.628 49.796 70.296L28.664 58.095C27.937 57.675 26.962 57.465 25.987 57.465Z" fill="url(#paint5_linear_71_24511)"/>
<path d="M34.9707 83.672L34.9756 85.42L29.1857 88.762L29.1807 87.014L34.9707 83.672Z" fill="#EFF6FE"/>
<path d="M41.5576 79.889L41.5626 81.637L35.7726 84.979L35.7676 83.231L41.5576 79.889Z" fill="#EFF6FE"/>
<path d="M4.20917 77.48C4.88117 77.868 5.4212 78.804 5.41919 79.574C5.41719 80.346 4.87318 80.656 4.20118 80.268C3.53118 79.881 2.99117 78.945 2.99317 78.173C2.99517 77.404 3.53917 77.094 4.20917 77.48Z" fill="#EFF6FE"/>
<path d="M8.01777 80.017C8.68877 80.405 9.22976 81.341 9.22776 82.111C9.22576 82.882 8.68174 83.193 8.00974 82.805C7.33974 82.418 6.79976 81.482 6.80176 80.71C6.80376 79.941 7.34777 79.631 8.01777 80.017Z" fill="#EFF6FE"/>
<path d="M51.3484 60.978C51.3434 60.994 51.3404 61.01 51.3344 61.026C51.2874 61.161 51.2174 61.294 51.1304 61.424C51.1144 61.448 51.0994 61.472 51.0824 61.495C50.9884 61.624 50.8754 61.75 50.7424 61.87C50.6554 61.948 50.5454 62.019 50.4424 62.092C50.3534 62.155 50.2774 62.223 50.1754 62.282L29.1814 74.483C28.9244 74.632 28.6364 74.751 28.3374 74.854C28.2324 74.89 28.1234 74.922 28.0144 74.953C27.8734 74.993 27.7314 75.03 27.5854 75.06C27.4134 75.095 27.2394 75.128 27.0624 75.15C27.0204 75.155 26.9794 75.163 26.9374 75.167C26.6994 75.193 26.4574 75.205 26.2154 75.207C26.1774 75.207 26.1394 75.208 26.1024 75.208C25.8644 75.206 25.6264 75.193 25.3904 75.168C25.3544 75.164 25.3184 75.16 25.2824 75.156C25.0484 75.128 24.8184 75.088 24.5934 75.038C24.5524 75.029 24.5124 75.018 24.4714 75.008C24.2664 74.957 24.0684 74.897 23.8764 74.827C23.8414 74.814 23.8044 74.805 23.7704 74.791C23.5404 74.702 23.3204 74.6 23.1164 74.483L1.98438 62.282C1.13838 61.794 0.715353 61.152 0.717353 60.512L0.693366 68.902C0.691366 69.542 1.11436 70.183 1.96036 70.671L23.0944 82.872C23.2884 82.984 23.4954 83.083 23.7134 83.169C23.7244 83.173 23.7364 83.176 23.7484 83.181C23.7824 83.194 23.8174 83.203 23.8514 83.216C23.9774 83.262 24.1034 83.308 24.2344 83.345C24.3044 83.365 24.3764 83.38 24.4474 83.397C24.4884 83.407 24.5294 83.418 24.5704 83.427C24.6084 83.436 24.6444 83.447 24.6814 83.454C24.8214 83.483 24.9634 83.508 25.1064 83.528C25.1564 83.535 25.2074 83.539 25.2574 83.545C25.2934 83.549 25.3294 83.553 25.3654 83.557C25.4184 83.562 25.4704 83.57 25.5234 83.575C25.6634 83.587 25.8044 83.594 25.9454 83.598C25.9894 83.599 26.0324 83.597 26.0764 83.597C26.1144 83.597 26.1524 83.597 26.1894 83.596C26.2544 83.595 26.3184 83.597 26.3834 83.595C26.5424 83.59 26.7014 83.579 26.8584 83.563C26.8764 83.561 26.8934 83.558 26.9114 83.556C26.9534 83.552 26.9934 83.544 27.0354 83.539C27.1594 83.523 27.2834 83.509 27.4044 83.487C27.4574 83.477 27.5064 83.459 27.5594 83.449C27.7054 83.419 27.8454 83.382 27.9864 83.343C28.0614 83.322 28.1424 83.31 28.2154 83.286C28.2494 83.275 28.2774 83.255 28.3114 83.244C28.6104 83.141 28.8974 83.023 29.1544 82.873L50.1484 70.672C50.1664 70.662 50.1834 70.651 50.2004 70.641C50.2834 70.591 50.3424 70.533 50.4164 70.481C50.5194 70.408 50.6284 70.338 50.7144 70.26C50.7224 70.253 50.7344 70.246 50.7424 70.239C50.8424 70.147 50.9314 70.051 51.0084 69.953C51.0254 69.931 51.0374 69.907 51.0544 69.885C51.0714 69.861 51.0864 69.838 51.1024 69.814C51.1284 69.775 51.1584 69.736 51.1814 69.697C51.2264 69.617 51.2644 69.535 51.2954 69.453C51.3004 69.441 51.3014 69.428 51.3064 69.416C51.3114 69.4 51.3154 69.384 51.3204 69.368C51.3364 69.316 51.3544 69.264 51.3654 69.212C51.3814 69.13 51.3914 69.048 51.3934 68.966C51.3934 68.953 51.3944 68.941 51.3944 68.928L51.4184 60.538C51.4214 60.685 51.3944 60.832 51.3484 60.978Z" fill="url(#paint6_linear_71_24511)"/>
<path d="M50.1556 58.769C51.8356 59.739 51.8446 61.312 50.1756 62.282L29.1816 74.483C27.5126 75.453 24.7986 75.452 23.1186 74.482L1.98663 62.282C0.306634 61.312 0.29563 59.74 1.96463 58.77L22.9586 46.569C24.6276 45.599 27.3436 45.599 29.0236 46.569L50.1556 58.769Z" fill="url(#paint7_linear_71_24511)"/>
<path d="M26.155 75.932C24.934 75.932 23.711 75.656 22.758 75.105L1.62601 62.905C0.579008 62.3 1.31587e-06 61.453 1.31587e-06 60.52C-0.000998684 59.592 0.567998 58.749 1.603 58.148L22.597 45.947C24.495 44.845 27.477 44.844 29.384 45.946L50.516 58.147C51.563 58.751 52.141 59.598 52.142 60.532C52.143 61.46 51.573 62.304 50.538 62.905L29.544 75.106C28.595 75.656 27.376 75.932 26.155 75.932ZM25.987 46.562C25.013 46.562 24.041 46.772 23.32 47.191L2.32599 59.392C1.76199 59.72 1.438 60.13 1.439 60.518C1.439 60.911 1.77001 61.327 2.34601 61.659L23.478 73.859C24.93 74.697 27.378 74.699 28.82 73.862L49.814 61.661C50.379 61.333 50.703 60.922 50.702 60.534C50.702 60.14 50.371 59.725 49.796 59.393L28.664 47.192C27.937 46.771 26.962 46.562 25.987 46.562Z" fill="url(#paint8_linear_71_24511)"/>
<path d="M34.9707 72.768L34.9756 74.517L29.1857 77.859L29.1807 76.111L34.9707 72.768Z" fill="#EFF6FE"/>
<path d="M41.5576 68.986L41.5626 70.734L35.7726 74.076L35.7676 72.328L41.5576 68.986Z" fill="#EFF6FE"/>
<path d="M4.20917 66.577C4.88117 66.964 5.4212 67.901 5.41919 68.67C5.41719 69.442 4.87318 69.752 4.20118 69.364C3.53118 68.977 2.99117 68.041 2.99317 67.269C2.99517 66.501 3.53917 66.191 4.20917 66.577Z" fill="#EFF6FE"/>
<path d="M8.01777 69.114C8.68877 69.502 9.22976 70.438 9.22776 71.208C9.22576 71.979 8.68174 72.29 8.00974 71.902C7.33974 71.515 6.79976 70.579 6.80176 69.807C6.80376 69.038 7.34777 68.728 8.01777 69.114Z" fill="#EFF6FE"/>
<path d="M40.5353 59.661L26.1823 68.002L11.7363 59.661L26.0883 51.32L40.5353 59.661Z" fill="#FFD438"/>
<path d="M26.0883 52.693L39.3503 60.349L40.5353 59.661L26.0883 51.32L11.7363 59.661L12.9213 60.345L26.0883 52.693Z" fill="#7437BD"/>
<g opacity="0.01">
<path opacity="0.9987" d="M49.4821 13.863L26.2101 27.387L2.78711 13.864L26.0581 0.339996L49.4821 13.863Z" fill="#FFD438"/>
</g>
<g opacity="0.0132">
<path opacity="0.9974" d="M49.4227 14.169L26.2107 27.658L2.84668 14.169L26.0587 0.679016L49.4227 14.169Z" fill="#FFD438"/>
</g>
<g opacity="0.0199">
<path opacity="0.996" d="M49.3633 14.474L26.2103 27.929L2.90625 14.474L26.0593 1.01901L49.3633 14.474Z" fill="#FFD438"/>
</g>
<g opacity="0.0265">
<path opacity="0.9947" d="M49.3038 14.779L26.2108 28.2L2.9668 14.78L26.0598 1.35901L49.3038 14.779Z" fill="#FFD438"/>
</g>
<g opacity="0.0331">
<path opacity="0.9934" d="M49.2434 15.085L26.2104 28.47L3.02539 15.085L26.0594 1.69901L49.2434 15.085Z" fill="#FFD438"/>
</g>
<g opacity="0.0397">
<path opacity="0.9921" d="M49.1849 15.39L26.2109 28.741L3.08594 15.39L26.0599 2.039L49.1849 15.39Z" fill="#FFD438"/>
</g>
<g opacity="0.0464">
<path opacity="0.9907" d="M49.1245 15.695L26.2095 29.012L3.14551 15.695L26.0595 2.379L49.1245 15.695Z" fill="#FFD438"/>
</g>
<g opacity="0.053">
<path opacity="0.9894" d="M49.0641 16.001L26.2091 29.283L3.2041 16.001L26.0601 2.71899L49.0641 16.001Z" fill="#FFD438"/>
</g>
<g opacity="0.0596">
<path opacity="0.9881" d="M49.0056 16.306L26.2097 29.553L3.26465 16.306L26.0607 3.05902L49.0056 16.306Z" fill="#FFD438"/>
</g>
<g opacity="0.0662">
<path opacity="0.9868" d="M48.9452 16.611L26.2092 29.824L3.32422 16.611L26.0602 3.39801L48.9452 16.611Z" fill="#FFD438"/>
</g>
<g opacity="0.0728">
<path opacity="0.9854" d="M48.8858 16.916L26.2098 30.095L3.38379 16.917L26.0608 3.73801L48.8858 16.916Z" fill="#FFD438"/>
</g>
<g opacity="0.0795">
<path opacity="0.9841" d="M48.8264 17.222L26.2083 30.366L3.44336 17.222L26.0604 4.078L48.8264 17.222Z" fill="#FFD438"/>
</g>
<g opacity="0.0861">
<path opacity="0.9828" d="M48.7669 17.527L26.2089 30.636L3.50391 17.527L26.0619 4.418L48.7669 17.527Z" fill="#FFD438"/>
</g>
<g opacity="0.0927">
<path opacity="0.9815" d="M48.7065 17.833L26.2085 30.907L3.5625 17.833L26.0615 4.758L48.7065 17.833Z" fill="#FFD438"/>
</g>
<g opacity="0.0993">
<path opacity="0.9801" d="M48.6471 18.138L26.2081 31.178L3.62207 18.138L26.0611 5.09802L48.6471 18.138Z" fill="#FFD438"/>
</g>
<g opacity="0.106">
<path opacity="0.9788" d="M48.5876 18.443L26.2086 31.449L3.68262 18.443L26.0616 5.43802L48.5876 18.443Z" fill="#FFD438"/>
</g>
<g opacity="0.1126">
<path opacity="0.9775" d="M48.5272 18.748L26.2072 31.72L3.74121 18.749L26.0612 5.77802L48.5272 18.748Z" fill="#FFD438"/>
</g>
<g opacity="0.1192">
<path opacity="0.9762" d="M48.4688 19.054L26.2078 31.99L3.80176 19.054L26.0617 6.11801L48.4688 19.054Z" fill="#FFD438"/>
</g>
<g opacity="0.1258">
<path opacity="0.9748" d="M48.4083 19.359L26.2073 32.261L3.86133 19.359L26.0623 6.457L48.4083 19.359Z" fill="#FFD438"/>
</g>
<g opacity="0.1324">
<path opacity="0.9735" d="M48.3489 19.664L26.2079 32.532L3.9209 19.665L26.0629 6.797L48.3489 19.664Z" fill="#FFD438"/>
</g>
<g opacity="0.1391">
<path opacity="0.9722" d="M48.2895 19.97L26.2075 32.803L3.98047 19.97L26.0625 7.13699L48.2895 19.97Z" fill="#FFD438"/>
</g>
<g opacity="0.1457">
<path opacity="0.9709" d="M48.23 20.275L26.207 33.073L4.04102 20.275L26.063 7.47702L48.23 20.275Z" fill="#FFD438"/>
</g>
<g opacity="0.1523">
<path opacity="0.9695" d="M48.1706 20.58L26.2066 33.344L4.09961 20.581L26.0626 7.81702L48.1706 20.58Z" fill="#FFD438"/>
</g>
<g opacity="0.1589">
<path opacity="0.9682" d="M48.1102 20.886L26.2062 33.615L4.15918 20.886L26.0632 8.15701L48.1102 20.886Z" fill="#FFD438"/>
</g>
<g opacity="0.1656">
<path opacity="0.9669" d="M48.0508 21.191L26.2068 33.886L4.21875 21.191L26.0638 8.49701L48.0508 21.191Z" fill="#FFD438"/>
</g>
<g opacity="0.1722">
<path opacity="0.9656" d="M47.9913 21.496L26.2063 34.156L4.27832 21.497L26.0633 8.83701L47.9913 21.496Z" fill="#FFD438"/>
</g>
<g opacity="0.1788">
<path opacity="0.9642" d="M47.9319 21.802L26.2059 34.427L4.33887 21.802L26.0639 9.17599L47.9319 21.802Z" fill="#FFD438"/>
</g>
<g opacity="0.1854">
<path opacity="0.9629" d="M47.8715 22.107L26.2054 34.698L4.39844 22.107L26.0634 9.51602L47.8715 22.107Z" fill="#FFD438"/>
</g>
<g opacity="0.1921">
<path opacity="0.9616" d="M47.813 22.412L26.206 34.969L4.45801 22.412L26.065 9.85602L47.813 22.412Z" fill="#FFD438"/>
</g>
<g opacity="0.1987">
<path opacity="0.9603" d="M47.7526 22.718L26.2056 35.239L4.51758 22.718L26.0646 10.196L47.7526 22.718Z" fill="#FFD438"/>
</g>
<g opacity="0.2053">
<path opacity="0.9589" d="M47.6922 23.023L26.2052 35.51L4.57617 23.023L26.0642 10.536L47.6922 23.023Z" fill="#FFD438"/>
</g>
<g opacity="0.2119">
<path opacity="0.9576" d="M47.6337 23.328L26.2047 35.781L4.63672 23.328L26.0647 10.876L47.6337 23.328Z" fill="#FFD438"/>
</g>
<g opacity="0.2185">
<path opacity="0.9563" d="M47.5733 23.634L26.2043 36.052L4.69629 23.634L26.0643 11.216L47.5733 23.634Z" fill="#FFD438"/>
</g>
<g opacity="0.2252">
<path opacity="0.955" d="M47.5139 23.939L26.2049 36.323L4.75586 23.939L26.0659 11.555L47.5139 23.939Z" fill="#FFD438"/>
</g>
<g opacity="0.2318">
<path opacity="0.9536" d="M47.4544 24.244L26.2044 36.593L4.81543 24.244L26.0654 11.895L47.4544 24.244Z" fill="#FFD438"/>
</g>
<g opacity="0.2384">
<path opacity="0.9523" d="M47.395 24.549L26.205 36.864L4.87598 24.55L26.0659 12.235L47.395 24.549Z" fill="#FFD438"/>
</g>
<g opacity="0.245">
<path opacity="0.951" d="M47.3346 24.855L26.2046 37.135L4.93457 24.855L26.0656 12.575L47.3346 24.855Z" fill="#FFD438"/>
</g>
<g opacity="0.2517">
<path opacity="0.9497" d="M47.2751 25.16L26.2031 37.406L4.99414 25.16L26.0651 12.915L47.2751 25.16Z" fill="#FFD438"/>
</g>
<g opacity="0.2583">
<path opacity="0.9483" d="M47.2157 25.465L26.2037 37.676L5.05469 25.466L26.0667 13.255L47.2157 25.465Z" fill="#FFD438"/>
</g>
<g opacity="0.2649">
<path opacity="0.947" d="M47.1553 25.771L26.2033 37.947L5.11328 25.771L26.0663 13.595L47.1553 25.771Z" fill="#FFD438"/>
</g>
<g opacity="0.2715">
<path opacity="0.9457" d="M47.0968 26.076L26.2038 38.218L5.17383 26.076L26.0668 13.935L47.0968 26.076Z" fill="#FFD438"/>
</g>
<g opacity="0.2781">
<path opacity="0.9444" d="M47.0364 26.381L26.2034 38.489L5.2334 26.382L26.0664 14.274L47.0364 26.381Z" fill="#FFD438"/>
</g>
<g opacity="0.2848">
<path opacity="0.943" d="M46.977 26.687L26.203 38.759L5.29297 26.687L26.067 14.614L46.977 26.687Z" fill="#FFD438"/>
</g>
<g opacity="0.2914">
<path opacity="0.9417" d="M46.9175 26.992L26.2025 39.03L5.35254 26.992L26.0675 14.954L46.9175 26.992Z" fill="#FFD438"/>
</g>
<g opacity="0.298">
<path opacity="0.9404" d="M46.8571 27.297L26.2021 39.301L5.41211 27.298L26.0671 15.294L46.8571 27.297Z" fill="#FFD438"/>
</g>
<g opacity="0.3046">
<path opacity="0.9391" d="M46.7977 27.603L26.2027 39.572L5.47168 27.603L26.0677 15.634L46.7977 27.603Z" fill="#FFD438"/>
</g>
<g opacity="0.3113">
<path opacity="0.9377" d="M46.7383 27.908L26.2023 39.842L5.53125 27.908L26.0673 15.974L46.7383 27.908Z" fill="#FFD438"/>
</g>
<g opacity="0.3179">
<path opacity="0.9364" d="M46.6788 28.213L26.2018 40.113L5.5918 28.213L26.0678 16.314L46.6788 28.213Z" fill="#FFD438"/>
</g>
<g opacity="0.3245">
<path opacity="0.9351" d="M46.6184 28.519L26.2014 40.384L5.65039 28.519L26.0684 16.653L46.6184 28.519Z" fill="#FFD438"/>
</g>
<g opacity="0.3311">
<path opacity="0.9338" d="M46.5599 28.824L26.2019 40.655L5.71094 28.824L26.0689 16.993L46.5599 28.824Z" fill="#FFD438"/>
</g>
<g opacity="0.3377">
<path opacity="0.9324" d="M46.4995 29.129L26.2015 40.925L5.76953 29.13L26.0685 17.333L46.4995 29.129Z" fill="#FFD438"/>
</g>
<g opacity="0.3444">
<path opacity="0.9311" d="M46.4391 29.435L26.2011 41.196L5.8291 29.435L26.0681 17.673L46.4391 29.435Z" fill="#FFD438"/>
</g>
<g opacity="0.351">
<path opacity="0.9298" d="M46.3806 29.74L26.2007 41.467L5.88965 29.74L26.0687 18.013L46.3806 29.74Z" fill="#FFD438"/>
</g>
<g opacity="0.3576">
<path opacity="0.9285" d="M46.3202 30.045L26.2002 41.738L5.94824 30.045L26.0682 18.353L46.3202 30.045Z" fill="#FFD438"/>
</g>
<g opacity="0.3642">
<path opacity="0.9272" d="M46.2618 30.35L26.2008 42.009L6.00879 30.351L26.0698 18.693L46.2618 30.35Z" fill="#FFD438"/>
</g>
<g opacity="0.3709">
<path opacity="0.9258" d="M46.2014 30.656L26.2003 42.279L6.06836 30.656L26.0694 19.033L46.2014 30.656Z" fill="#FFD438"/>
</g>
<g opacity="0.3775">
<path opacity="0.9245" d="M46.1419 30.961L26.2009 42.55L6.12793 30.961L26.0699 19.372L46.1419 30.961Z" fill="#FFD438"/>
</g>
<g opacity="0.3841">
<path opacity="0.9232" d="M46.0825 31.267L26.1995 42.821L6.1875 31.267L26.0695 19.712L46.0825 31.267Z" fill="#FFD438"/>
</g>
<g opacity="0.3907">
<path opacity="0.9219" d="M46.0221 31.572L26.1991 43.092L6.24707 31.572L26.0701 20.052L46.0221 31.572Z" fill="#FFD438"/>
</g>
<g opacity="0.3974">
<path opacity="0.9205" d="M45.9626 31.877L26.1996 43.362L6.30664 31.877L26.0706 20.392L45.9626 31.877Z" fill="#FFD438"/>
</g>
<g opacity="0.404">
<path opacity="0.9192" d="M45.9032 32.182L26.1992 43.633L6.36621 32.183L26.0702 20.732L45.9032 32.182Z" fill="#FFD438"/>
</g>
<g opacity="0.4106">
<path opacity="0.9179" d="M45.8438 32.488L26.1997 43.904L6.42676 32.488L26.0707 21.072L45.8438 32.488Z" fill="#FFD438"/>
</g>
<g opacity="0.4172">
<path opacity="0.9166" d="M45.7834 32.793L26.1984 44.175L6.48535 32.793L26.0703 21.412L45.7834 32.793Z" fill="#FFD438"/>
</g>
<g opacity="0.4238">
<path opacity="0.9152" d="M45.7249 33.098L26.1989 44.445L6.5459 33.099L26.0709 21.752L45.7249 33.098Z" fill="#FFD438"/>
</g>
<g opacity="0.4305">
<path opacity="0.9139" d="M45.6645 33.404L26.1985 44.716L6.60547 33.404L26.0715 22.092L45.6645 33.404Z" fill="#FFD438"/>
</g>
<g opacity="0.4371">
<path opacity="0.9126" d="M45.604 33.709L26.1981 44.987L6.66406 33.709L26.071 22.431L45.604 33.709Z" fill="#FFD438"/>
</g>
<g opacity="0.4437">
<path opacity="0.9113" d="M45.5456 34.014L26.1986 45.258L6.72461 34.014L26.0716 22.771L45.5456 34.014Z" fill="#FFD438"/>
</g>
<g opacity="0.4503">
<path opacity="0.9099" d="M45.4852 34.32L26.1972 45.528L6.78418 34.32L26.0712 23.111L45.4852 34.32Z" fill="#FFD438"/>
</g>
<g opacity="0.457">
<path opacity="0.9086" d="M45.4258 34.625L26.1978 45.799L6.84375 34.625L26.0717 23.451L45.4258 34.625Z" fill="#FFD438"/>
</g>
<g opacity="0.4636">
<path opacity="0.9073" d="M45.3663 34.93L26.1973 46.07L6.90332 34.931L26.0723 23.791L45.3663 34.93Z" fill="#FFD438"/>
</g>
<g opacity="0.4702">
<path opacity="0.906" d="M45.3069 35.236L26.1979 46.341L6.96387 35.236L26.0729 24.131L45.3069 35.236Z" fill="#FFD438"/>
</g>
<g opacity="0.4768">
<path opacity="0.9046" d="M45.2465 35.541L26.1975 46.612L7.02246 35.541L26.0725 24.471L45.2465 35.541Z" fill="#FFD438"/>
</g>
<g opacity="0.4834">
<path opacity="0.9033" d="M45.188 35.846L26.197 46.882L7.08301 35.846L26.073 24.811L45.188 35.846Z" fill="#FFD438"/>
</g>
<g opacity="0.4901">
<path opacity="0.902" d="M45.1276 36.152L26.1966 47.153L7.14258 36.152L26.0726 25.15L45.1276 36.152Z" fill="#FFD438"/>
</g>
<g opacity="0.4967">
<path opacity="0.9007" d="M45.0672 36.457L26.1962 47.424L7.20117 36.457L26.0732 25.49L45.0672 36.457Z" fill="#FFD438"/>
</g>
<g opacity="0.5033">
<path opacity="0.8993" d="M45.0087 36.762L26.1967 47.695L7.26172 36.762L26.0737 25.83L45.0087 36.762Z" fill="#FFD438"/>
</g>
<g opacity="0.5099">
<path opacity="0.898" d="M44.9483 37.067L26.1963 47.965L7.32129 37.068L26.0733 26.17L44.9483 37.067Z" fill="#FFD438"/>
</g>
<g opacity="0.5166">
<path opacity="0.8967" d="M44.8899 37.373L26.1959 48.236L7.38086 37.373L26.0739 26.51L44.8899 37.373Z" fill="#FFD438"/>
</g>
<g opacity="0.5232">
<path opacity="0.8954" d="M44.8294 37.678L26.1954 48.507L7.44043 37.678L26.0735 26.85L44.8294 37.678Z" fill="#FFD438"/>
</g>
<g opacity="0.5298">
<path opacity="0.894" d="M44.77 37.983L26.196 48.778L7.5 37.984L26.075 27.19L44.77 37.983Z" fill="#FFD438"/>
</g>
<g opacity="0.5364">
<path opacity="0.8927" d="M44.7096 38.289L26.1956 49.048L7.55957 38.289L26.0746 27.529L44.7096 38.289Z" fill="#FFD438"/>
</g>
<g opacity="0.543">
<path opacity="0.8914" d="M44.6501 38.594L26.1951 49.319L7.61914 38.594L26.0741 27.869L44.6501 38.594Z" fill="#FFD438"/>
</g>
<g opacity="0.5497">
<path opacity="0.8901" d="M44.5907 38.899L26.1957 49.59L7.67871 38.9L26.0747 28.209L44.5907 38.899Z" fill="#FFD438"/>
</g>
<g opacity="0.5563">
<path opacity="0.8887" d="M44.5313 39.205L26.1943 49.861L7.73828 39.205L26.0743 28.549L44.5313 39.205Z" fill="#FFD438"/>
</g>
<g opacity="0.5629">
<path opacity="0.8874" d="M44.4718 39.51L26.1949 50.131L7.79883 39.51L26.0758 28.889L44.4718 39.51Z" fill="#FFD438"/>
</g>
<g opacity="0.5695">
<path opacity="0.8861" d="M44.4114 39.815L26.1944 50.402L7.85742 39.816L26.0754 29.229L44.4114 39.815Z" fill="#FFD438"/>
</g>
<g opacity="0.5762">
<path opacity="0.8848" d="M44.353 40.121L26.195 50.673L7.91797 40.121L26.076 29.569L44.353 40.121Z" fill="#FFD438"/>
</g>
<g opacity="0.5828">
<path opacity="0.8834" d="M44.2925 40.426L26.1945 50.944L7.97754 40.426L26.0755 29.909L44.2925 40.426Z" fill="#FFD438"/>
</g>
<g opacity="0.5894">
<path opacity="0.8821" d="M44.2321 40.731L26.1931 51.214L8.03613 40.731L26.0751 30.248L44.2321 40.731Z" fill="#FFD438"/>
</g>
<g opacity="0.596">
<path opacity="0.8808" d="M44.1737 41.037L26.1937 51.485L8.09668 41.037L26.0757 30.588L44.1737 41.037Z" fill="#FFD438"/>
</g>
<g opacity="0.6026">
<path opacity="0.8795" d="M44.1133 41.342L26.1933 51.756L8.15625 41.342L26.0763 30.928L44.1133 41.342Z" fill="#FFD438"/>
</g>
<g opacity="0.6093">
<path opacity="0.8781" d="M44.0538 41.647L26.1938 52.027L8.21582 41.648L26.0768 31.268L44.0538 41.647Z" fill="#FFD438"/>
</g>
<g opacity="0.6159">
<path opacity="0.8768" d="M43.9944 41.953L26.1934 52.298L8.27539 41.953L26.0764 31.608L43.9944 41.953Z" fill="#FFD438"/>
</g>
<g opacity="0.6225">
<path opacity="0.8755" d="M43.9349 42.258L26.1929 52.568L8.33594 42.258L26.0769 31.948L43.9349 42.258Z" fill="#FFD438"/>
</g>
<g opacity="0.6291">
<path opacity="0.8742" d="M43.8745 42.563L26.1925 52.839L8.39453 42.563L26.0765 32.288L43.8745 42.563Z" fill="#FFD438"/>
</g>
<g opacity="0.6358">
<path opacity="0.8728" d="M43.8151 42.868L26.1921 53.11L8.4541 42.869L26.0771 32.627L43.8151 42.868Z" fill="#FFD438"/>
</g>
<g opacity="0.6424">
<path opacity="0.8715" d="M43.7556 43.174L26.1927 53.381L8.51465 43.174L26.0777 32.967L43.7556 43.174Z" fill="#FFD438"/>
</g>
<g opacity="0.649">
<path opacity="0.8702" d="M43.6952 43.479L26.1922 53.651L8.57324 43.479L26.0772 33.307L43.6952 43.479Z" fill="#FFD438"/>
</g>
<g opacity="0.6556">
<path opacity="0.8689" d="M43.6368 43.785L26.1918 53.922L8.63379 43.785L26.0778 33.647L43.6368 43.785Z" fill="#FFD438"/>
</g>
<g opacity="0.6623">
<path opacity="0.8676" d="M43.5764 44.09L26.1913 54.193L8.69336 44.09L26.0774 33.987L43.5764 44.09Z" fill="#FFD438"/>
</g>
<g opacity="0.6689">
<path opacity="0.8662" d="M43.5169 44.395L26.1919 54.464L8.75293 44.395L26.0789 34.327L43.5169 44.395Z" fill="#FFD438"/>
</g>
<g opacity="0.6755">
<path opacity="0.8649" d="M43.4575 44.7L26.1915 54.734L8.8125 44.701L26.0785 34.667L43.4575 44.7Z" fill="#FFD438"/>
</g>
<g opacity="0.6821">
<path opacity="0.8636" d="M43.3971 45.006L26.1911 55.005L8.87207 45.006L26.0781 35.007L43.3971 45.006Z" fill="#FFD438"/>
</g>
<g opacity="0.6887">
<path opacity="0.8623" d="M43.3376 45.311L26.1916 55.276L8.93164 45.311L26.0786 35.346L43.3376 45.311Z" fill="#FFD438"/>
</g>
<g opacity="0.6954">
<path opacity="0.8609" d="M43.2782 45.616L26.1902 55.547L8.99121 45.617L26.0792 35.686L43.2782 45.616Z" fill="#FFD438"/>
</g>
<g opacity="0.702">
<path opacity="0.8596" d="M43.2188 45.922L26.1907 55.817L9.05176 45.922L26.0797 36.026L43.2188 45.922Z" fill="#FFD438"/>
</g>
<g opacity="0.7086">
<path opacity="0.8583" d="M43.1584 46.227L26.1903 56.088L9.11035 46.227L26.0793 36.366L43.1584 46.227Z" fill="#FFD438"/>
</g>
<g opacity="0.7152">
<path opacity="0.857" d="M43.0999 46.532L26.1909 56.359L9.1709 46.532L26.0799 36.706L43.0999 46.532Z" fill="#FFD438"/>
</g>
<g opacity="0.7219">
<path opacity="0.8556" d="M43.0395 46.838L26.1895 56.63L9.23047 46.838L26.0795 37.046L43.0395 46.838Z" fill="#FFD438"/>
</g>
<g opacity="0.7285">
<path opacity="0.8543" d="M42.979 47.143L26.1891 56.901L9.28906 47.143L26.079 37.386L42.979 47.143Z" fill="#FFD438"/>
</g>
<g opacity="0.7351">
<path opacity="0.853" d="M42.9206 47.448L26.1896 57.171L9.34961 47.449L26.0806 37.726L42.9206 47.448Z" fill="#FFD438"/>
</g>
<g opacity="0.7417">
<path opacity="0.8517" d="M42.8602 47.754L26.1892 57.442L9.4082 47.754L26.0802 38.066L42.8602 47.754Z" fill="#FFD438"/>
</g>
<g opacity="0.7483">
<path opacity="0.8503" d="M42.8008 48.059L26.1898 57.713L9.46875 48.059L26.0807 38.405L42.8008 48.059Z" fill="#FFD438"/>
</g>
<g opacity="0.755">
<path opacity="0.849" d="M42.7413 48.364L26.1883 57.984L9.52832 48.364L26.0803 38.745L42.7413 48.364Z" fill="#FFD438"/>
</g>
<g opacity="0.7616">
<path opacity="0.8477" d="M42.6819 48.67L26.1889 58.254L9.58789 48.67L26.0809 39.085L42.6819 48.67Z" fill="#FFD438"/>
</g>
<g opacity="0.7682">
<path opacity="0.8464" d="M42.6225 48.975L26.1885 58.525L9.64746 48.975L26.0815 39.425L42.6225 48.975Z" fill="#FFD438"/>
</g>
<g opacity="0.7748">
<path opacity="0.845" d="M42.563 49.28L26.189 58.796L9.70801 49.28L26.082 39.765L42.563 49.28Z" fill="#FFD438"/>
</g>
<g opacity="0.7815">
<path opacity="0.8437" d="M42.5026 49.586L26.1886 59.067L9.7666 49.586L26.0816 40.105L42.5026 49.586Z" fill="#FFD438"/>
</g>
<g opacity="0.7881">
<path opacity="0.8424" d="M42.4432 49.891L26.1882 59.337L9.82617 49.891L26.0812 40.445L42.4432 49.891Z" fill="#FFD438"/>
</g>
<g opacity="0.7947">
<path opacity="0.8411" d="M42.3837 50.196L26.1877 59.608L9.88672 50.196L26.0817 40.785L42.3837 50.196Z" fill="#FFD438"/>
</g>
<g opacity="0.8013">
<path opacity="0.8397" d="M42.3233 50.501L26.1873 59.879L9.94531 50.502L26.0823 41.124L42.3233 50.501Z" fill="#FFD438"/>
</g>
<g opacity="0.8079">
<path opacity="0.8384" d="M42.2649 50.807L26.1879 60.15L10.0059 50.807L26.0829 41.464L42.2649 50.807Z" fill="#FFD438"/>
</g>
<g opacity="0.8146">
<path opacity="0.8371" d="M42.2044 51.112L26.1874 60.42L10.0654 51.112L26.0825 41.804L42.2044 51.112Z" fill="#FFD438"/>
</g>
<g opacity="0.8212">
<path opacity="0.8358" d="M42.145 51.417L26.188 60.691L10.125 51.418L26.083 42.144L42.145 51.417Z" fill="#FFD438"/>
</g>
<g opacity="0.8278">
<path opacity="0.8344" d="M42.0856 51.723L26.1866 60.962L10.1846 51.723L26.0826 42.484L42.0856 51.723Z" fill="#FFD438"/>
</g>
<g opacity="0.8344">
<path opacity="0.8331" d="M42.0251 52.028L26.1861 61.233L10.2441 52.028L26.0831 42.824L42.0251 52.028Z" fill="#FFD438"/>
</g>
<g opacity="0.8411">
<path opacity="0.8318" d="M41.9657 52.333L26.1867 61.503L10.3037 52.334L26.0837 43.164L41.9657 52.333Z" fill="#FFD438"/>
</g>
<g opacity="0.8477">
<path opacity="0.8305" d="M41.9063 52.639L26.1863 61.774L10.3633 52.639L26.0833 43.504L41.9063 52.639Z" fill="#FFD438"/>
</g>
<g opacity="0.8543">
<path opacity="0.8291" d="M41.8468 52.944L26.1868 62.045L10.4238 52.944L26.0838 43.843L41.8468 52.944Z" fill="#FFD438"/>
</g>
<g opacity="0.8609">
<path opacity="0.8278" d="M41.7864 53.249L26.1854 62.316L10.4824 53.25L26.0834 44.183L41.7864 53.249Z" fill="#FFD438"/>
</g>
<g opacity="0.8676">
<path opacity="0.8265" d="M41.728 53.555L26.186 62.587L10.543 53.555L26.084 44.523L41.728 53.555Z" fill="#FFD438"/>
</g>
<g opacity="0.8742">
<path opacity="0.8252" d="M41.6675 53.86L26.1855 62.857L10.6025 53.86L26.0845 44.863L41.6675 53.86Z" fill="#FFD438"/>
</g>
<g opacity="0.8808">
<path opacity="0.8238" d="M41.6071 54.165L26.1852 63.128L10.6611 54.165L26.0841 45.203L41.6071 54.165Z" fill="#FFD438"/>
</g>
<g opacity="0.8874">
<path opacity="0.8225" d="M41.5487 54.471L26.1857 63.399L10.7217 54.471L26.0847 45.543L41.5487 54.471Z" fill="#FFD438"/>
</g>
<g opacity="0.894">
<path opacity="0.8212" d="M41.4883 54.776L26.1843 63.669L10.7812 54.776L26.0843 45.883L41.4883 54.776Z" fill="#FFD438"/>
</g>
<g opacity="0.9007">
<path opacity="0.8199" d="M41.4288 55.081L26.1848 63.94L10.8408 55.081L26.0848 46.222L41.4288 55.081Z" fill="#FFD438"/>
</g>
<g opacity="0.9073">
<path opacity="0.8185" d="M41.3694 55.386L26.1844 64.211L10.9004 55.387L26.0854 46.562L41.3694 55.386Z" fill="#FFD438"/>
</g>
<g opacity="0.9139">
<path opacity="0.8172" d="M41.31 55.692L26.185 64.482L10.96 55.692L26.086 46.902L41.31 55.692Z" fill="#FFD438"/>
</g>
<g opacity="0.9205">
<path opacity="0.8159" d="M41.2495 55.997L26.1845 64.753L11.0195 55.997L26.0855 47.242L41.2495 55.997Z" fill="#FFD438"/>
</g>
<g opacity="0.9272">
<path opacity="0.8146" d="M41.1901 56.303L26.1831 65.023L11.0791 56.303L26.0851 47.582L41.1901 56.303Z" fill="#FFD438"/>
</g>
<g opacity="0.9338">
<path opacity="0.8132" d="M41.1306 56.608L26.1837 65.294L11.1396 56.608L26.0857 47.922L41.1306 56.608Z" fill="#FFD438"/>
</g>
<g opacity="0.9404">
<path opacity="0.8119" d="M41.0702 56.913L26.1832 65.565L11.1982 56.913L26.0862 48.262L41.0702 56.913Z" fill="#FFD438"/>
</g>
<g opacity="0.947">
<path opacity="0.8106" d="M41.0118 57.218L26.1838 65.836L11.2588 57.219L26.0868 48.601L41.0118 57.218Z" fill="#FFD438"/>
</g>
<g opacity="0.9536">
<path opacity="0.8093" d="M40.9514 57.524L26.1834 66.106L11.3174 57.524L26.0864 48.941L40.9514 57.524Z" fill="#FFD438"/>
</g>
<g opacity="0.9603">
<path opacity="0.8079" d="M40.8919 57.829L26.1829 66.377L11.3779 57.829L26.0869 49.281L40.8919 57.829Z" fill="#FFD438"/>
</g>
<g opacity="0.9669">
<path opacity="0.8066" d="M40.8325 58.134L26.1825 66.648L11.4375 58.135L26.0865 49.621L40.8325 58.134Z" fill="#FFD438"/>
</g>
<g opacity="0.9735">
<path opacity="0.8053" d="M40.7721 58.44L26.1821 66.919L11.4961 58.44L26.0871 49.961L40.7721 58.44Z" fill="#FFD438"/>
</g>
<g opacity="0.9801">
<path opacity="0.804" d="M40.7136 58.745L26.1826 67.19L11.5566 58.745L26.0876 50.301L40.7136 58.745Z" fill="#FFD438"/>
</g>
<g opacity="0.9868">
<path opacity="0.8026" d="M40.6532 59.05L26.1822 67.46L11.6162 59.05L26.0872 50.641L40.6532 59.05Z" fill="#FFD438"/>
</g>
<g opacity="0.9934">
<path opacity="0.8013" d="M40.5938 59.356L26.1828 67.731L11.6758 59.356L26.0878 50.981L40.5938 59.356Z" fill="#FFD438"/>
</g>
<path opacity="0.8" d="M40.5344 59.661L26.1814 68.002L11.7354 59.661L26.0873 51.32L40.5344 59.661Z" fill="#FFD438"/>
<defs>
<linearGradient id="paint0_linear_71_24511" x1="14.1787" y1="80.186" x2="50.6687" y2="101.253" gradientUnits="userSpaceOnUse">
<stop stop-color="#7437BD"/>
<stop offset="1" stop-color="#2E0AA3"/>
</linearGradient>
<linearGradient id="paint1_linear_71_24511" x1="46.7952" y1="82.3316" x2="0.397031" y2="82.3316" gradientUnits="userSpaceOnUse">
<stop stop-color="#B862D6"/>
<stop offset="1" stop-color="#7437BD"/>
</linearGradient>
<linearGradient id="paint2_linear_71_24511" x1="47.3838" y1="82.3317" x2="-0.330999" y2="82.3317" gradientUnits="userSpaceOnUse">
<stop stop-color="#7437BD"/>
<stop offset="1" stop-color="#B862D6"/>
</linearGradient>
<linearGradient id="paint3_linear_71_24511" x1="14.1787" y1="69.2828" x2="50.6687" y2="90.3503" gradientUnits="userSpaceOnUse">
<stop stop-color="#7437BD"/>
<stop offset="1" stop-color="#2E0AA3"/>
</linearGradient>
<linearGradient id="paint4_linear_71_24511" x1="46.7952" y1="71.4284" x2="0.397031" y2="71.4284" gradientUnits="userSpaceOnUse">
<stop stop-color="#B862D6"/>
<stop offset="1" stop-color="#7437BD"/>
</linearGradient>
<linearGradient id="paint5_linear_71_24511" x1="47.3838" y1="71.4285" x2="-0.330999" y2="71.4285" gradientUnits="userSpaceOnUse">
<stop stop-color="#7437BD"/>
<stop offset="1" stop-color="#B862D6"/>
</linearGradient>
<linearGradient id="paint6_linear_71_24511" x1="14.1787" y1="58.3796" x2="50.6687" y2="79.4471" gradientUnits="userSpaceOnUse">
<stop stop-color="#7437BD"/>
<stop offset="1" stop-color="#2E0AA3"/>
</linearGradient>
<linearGradient id="paint7_linear_71_24511" x1="46.7952" y1="60.5252" x2="0.397031" y2="60.5252" gradientUnits="userSpaceOnUse">
<stop stop-color="#B862D6"/>
<stop offset="1" stop-color="#7437BD"/>
</linearGradient>
<linearGradient id="paint8_linear_71_24511" x1="47.3838" y1="60.5253" x2="-0.330999" y2="60.5253" gradientUnits="userSpaceOnUse">
<stop stop-color="#7437BD"/>
<stop offset="1" stop-color="#B862D6"/>
</linearGradient>
</defs>
</svg>
