<svg width="75" height="98" viewBox="0 0 75 98" fill="none" xmlns="http://www.w3.org/2000/svg">
<path d="M44.379 13.1237C44.378 13.1277 44.377 13.1307 44.376 13.1347C44.343 13.2347 44.294 13.3327 44.231 13.4277C44.22 13.4437 44.21 13.4597 44.198 13.4757C44.134 13.5637 44.057 13.6487 43.967 13.7307C43.907 13.7857 43.83 13.8347 43.758 13.8857C43.698 13.9277 43.648 13.9727 43.58 14.0117L24.436 25.1367C24.242 25.2497 24.026 25.3437 23.797 25.4177C23.62 25.4747 23.434 25.5207 23.244 25.5557C23.121 25.5777 22.997 25.5947 22.871 25.6077C22.764 25.6187 22.656 25.6257 22.547 25.6297C22.447 25.6327 22.348 25.6337 22.248 25.6307C22.152 25.6287 22.056 25.6227 21.96 25.6157C21.865 25.6077 21.77 25.5977 21.676 25.5837C21.578 25.5697 21.482 25.5527 21.387 25.5337C21.284 25.5127 21.182 25.4877 21.083 25.4587C20.961 25.4237 20.843 25.3837 20.729 25.3387C20.581 25.2807 20.44 25.2127 20.308 25.1367L1.03701 14.0127C0.605005 13.7637 0.335999 13.4557 0.227999 13.1337C0.191999 13.0267 0.175006 12.9177 0.175006 12.8087L2.60417e-06 74.5927C-0.000997396 75.0277 0.286002 75.4637 0.862002 75.7967L20.131 86.9217C20.263 86.9977 20.404 87.0648 20.552 87.1237C20.666 87.1687 20.785 87.2087 20.906 87.2437C21.005 87.2717 21.107 87.2967 21.21 87.3187C21.305 87.3387 21.402 87.3557 21.499 87.3687C21.593 87.3817 21.688 87.3927 21.783 87.4007C21.878 87.4088 21.974 87.4137 22.071 87.4157C22.171 87.4187 22.27 87.4177 22.37 87.4147C22.478 87.4108 22.587 87.4037 22.694 87.3927C22.82 87.3797 22.944 87.3627 23.067 87.3407C23.257 87.3067 23.443 87.2607 23.62 87.2027C23.849 87.1287 24.065 87.0347 24.259 86.9217L43.403 75.7967C43.415 75.7897 43.427 75.7827 43.439 75.7757C43.494 75.7427 43.533 75.7037 43.583 75.6687C43.655 75.6187 43.73 75.5697 43.79 75.5157C43.796 75.5107 43.804 75.5067 43.81 75.5007C43.878 75.4377 43.939 75.3727 43.991 75.3057C44.003 75.2907 44.011 75.2747 44.022 75.2597C44.034 75.2437 44.044 75.2277 44.054 75.2117C44.072 75.1847 44.093 75.1587 44.108 75.1307C44.139 75.0757 44.165 75.0207 44.186 74.9647C44.206 74.9107 44.222 74.8557 44.233 74.8007C44.244 74.7457 44.25 74.6897 44.252 74.6337C44.252 74.6257 44.252 74.6167 44.252 74.6077L44.427 12.8237C44.428 12.9257 44.411 13.0257 44.379 13.1237Z" fill="url(#paint0_linear_71_23498)"/>
<path d="M43.5663 11.6208C44.7113 12.2818 44.7173 13.3508 43.5793 14.0128L24.4353 25.1377C23.3003 25.7967 21.4513 25.7987 20.3063 25.1377L1.03729 14.0128C-0.107708 13.3518 -0.110708 12.2808 1.02429 11.6208L20.1683 0.49575C21.3063 -0.16525 23.1513 -0.16525 24.2973 0.49575L43.5663 11.6208Z" fill="url(#paint1_linear_71_23498)"/>
<path d="M43.5663 11.6208C44.7113 12.2818 44.7173 13.3508 43.5793 14.0128L24.4353 25.1377C23.3003 25.7967 21.4513 25.7987 20.3063 25.1377L1.03729 14.0128C-0.107708 13.3518 -0.110708 12.2808 1.02429 11.6208L20.1683 0.49575C21.3063 -0.16525 23.1513 -0.16525 24.2973 0.49575L43.5663 11.6208Z" fill="url(#paint2_linear_71_23498)"/>
<path d="M41.6308 47.0197C42.1168 46.7387 42.5158 46.9668 42.5178 47.5298C42.5188 48.0888 42.1228 48.7758 41.6368 49.0568L28.8118 56.4608C28.3258 56.7418 27.9258 56.5138 27.9248 55.9548C27.9228 55.3918 28.3198 54.7047 28.8058 54.4237L41.6308 47.0197Z" fill="#FCFCFC"/>
<path d="M31.3156 52.9797L31.3215 55.0108L29.9825 55.7837L29.9775 53.7518L31.3156 52.9797Z" fill="#FA3A8C"/>
<path d="M33.5011 51.7147L33.5061 53.7468L32.1681 54.5197L32.1621 52.4868L33.5011 51.7147Z" fill="#FA3A8C"/>
<path d="M41.6308 52.0558C42.1168 51.7748 42.5158 52.0028 42.5178 52.5658C42.5188 53.1248 42.1228 53.8117 41.6368 54.0917L28.8118 61.4968C28.3258 61.7778 27.9258 61.5497 27.9248 60.9907C27.9228 60.4277 28.3198 59.7408 28.8058 59.4598L41.6308 52.0558Z" fill="#FCFCFC"/>
<path d="M33.5646 56.7228L33.5706 58.7547L32.2326 59.5278L32.2266 57.4957L33.5646 56.7228Z" fill="#FA3A8C"/>
<path d="M35.7501 55.4578L35.7561 57.4897L34.4181 58.2628L34.4121 56.2307L35.7501 55.4578Z" fill="#FA3A8C"/>
<path d="M41.6308 57.0917C42.1168 56.8107 42.5158 57.0387 42.5178 57.6017C42.5188 58.1607 42.1228 58.8478 41.6368 59.1288L28.8118 66.5337C28.3258 66.8147 27.9258 66.5868 27.9248 66.0278C27.9228 65.4648 28.3198 64.7778 28.8058 64.4968L41.6308 57.0917Z" fill="#FCFCFC"/>
<path d="M32.2638 62.5177L32.2698 64.5497L30.9318 65.3228L30.9258 63.2908L32.2638 62.5177Z" fill="#FA3A8C"/>
<path d="M34.4484 61.2528L34.4544 63.2857L33.1154 64.0578L33.1104 62.0258L34.4484 61.2528Z" fill="#FA3A8C"/>
<path d="M41.6308 62.1278C42.1168 61.8468 42.5158 62.0748 42.5178 62.6378C42.5188 63.1968 42.1228 63.8838 41.6368 64.1648L28.8118 71.5698C28.3258 71.8508 27.9258 71.6227 27.9248 71.0637C27.9228 70.5007 28.3198 69.8137 28.8058 69.5327L41.6308 62.1278Z" fill="#FCFCFC"/>
<path d="M31.3156 68.0877L31.3215 70.1197L29.9825 70.8918L29.9775 68.8598L31.3156 68.0877Z" fill="#FA3A8C"/>
<path d="M33.5011 66.8228L33.5061 68.8547L32.1681 69.6278L32.1621 67.5958L33.5011 66.8228Z" fill="#FA3A8C"/>
<path d="M40.0136 20.2278C41.0226 19.6448 41.8406 20.1118 41.8446 21.2708L41.8916 37.6848C41.8946 38.8438 41.0816 40.2528 40.0726 40.8348L28.8106 47.3368C27.8016 47.9188 26.9836 47.4528 26.9796 46.2938L26.9336 29.8798C26.9306 28.7208 27.7436 27.3118 28.7526 26.7298L40.0136 20.2278Z" fill="#FCFCFC"/>
<path d="M35.555 32.6318V33.1078L35.565 36.5898L33.016 38.0678L32.312 38.4748V37.6518L32.292 34.5168C31.568 34.3578 31.082 33.6538 31.082 32.5528C31.082 31.9678 31.211 31.3428 31.439 30.7378C31.628 30.2518 31.866 29.7858 32.163 29.3588C32.639 28.6448 33.254 28.0398 33.909 27.6528C35.476 26.7398 36.756 27.4738 36.756 29.2698C36.766 30.0338 36.538 30.8768 36.141 31.6508C35.982 31.9968 35.783 32.3238 35.555 32.6318Z" fill="#320C7E"/>
<path d="M45.9415 37.3037L44.3945 38.2067L35.5555 33.1077L31.4385 30.7368C31.6275 30.2508 31.8655 29.7847 32.1625 29.3577L36.1405 31.6497L45.5145 37.0558L45.9415 37.3037Z" fill="#FFB700"/>
<path d="M53.3777 43.4728L51.8257 44.3748C51.5317 44.5458 51.3487 44.9097 51.3467 45.4277C51.3437 46.4697 52.0757 47.7367 52.9827 48.2607L54.5337 47.3587C53.6277 46.8357 52.8957 45.5677 52.8987 44.5257C52.9007 44.0077 53.0837 43.6438 53.3777 43.4728Z" fill="#FFB700"/>
<path d="M54.1514 48.3748L55.7024 47.4728C55.4044 47.6458 54.9914 47.6217 54.5344 47.3577L52.9834 48.2598C53.4404 48.5238 53.8534 48.5478 54.1514 48.3748Z" fill="url(#paint3_linear_71_23498)"/>
<mask id="mask0_71_23498" style="mask-type:luminance" maskUnits="userSpaceOnUse" x="52" y="47" width="4" height="2">
<path d="M54.1514 48.3748L55.7024 47.4728C55.4044 47.6458 54.9914 47.6217 54.5344 47.3577L52.9834 48.2598C53.4404 48.5238 53.8534 48.5478 54.1514 48.3748Z" fill="white"/>
</mask>
<g mask="url(#mask0_71_23498)">
<path d="M55.7036 47.4728L55.6936 47.4788C55.6676 47.4938 55.6406 47.5067 55.6126 47.5187C55.5846 47.5307 55.5556 47.5408 55.5256 47.5498C55.4956 47.5588 55.4646 47.5658 55.4336 47.5708C55.4016 47.5768 55.3686 47.5807 55.3346 47.5827C55.2996 47.5847 55.2626 47.5848 55.2256 47.5838C55.1856 47.5818 55.1446 47.5778 55.1036 47.5718C55.0566 47.5648 55.0076 47.5537 54.9596 47.5407C54.8966 47.5237 54.8316 47.5018 54.7666 47.4738C54.6916 47.4428 54.6146 47.4047 54.5366 47.3597C54.3436 47.2487 54.1596 47.1037 53.9886 46.9347C53.9276 46.8737 53.8676 46.8098 53.8096 46.7438C53.7636 46.6918 53.7196 46.6377 53.6766 46.5817C53.6396 46.5337 53.6026 46.4838 53.5676 46.4338C53.5346 46.3868 53.5036 46.3398 53.4726 46.2918C53.4436 46.2458 53.4156 46.1998 53.3876 46.1528C53.3606 46.1068 53.3356 46.0608 53.3106 46.0148C53.2856 45.9688 53.2626 45.9218 53.2396 45.8758C53.2166 45.8288 53.1946 45.7807 53.1746 45.7337C53.1536 45.6847 53.1336 45.6358 53.1146 45.5868C53.0946 45.5357 53.0766 45.4838 53.0586 45.4318C53.0406 45.3758 53.0226 45.3208 53.0076 45.2648C52.9906 45.2018 52.9746 45.1388 52.9616 45.0768C52.9456 45.0008 52.9326 44.9248 52.9226 44.8498C52.9086 44.7408 52.9016 44.6338 52.9016 44.5288C52.9026 44.0108 53.0856 43.6467 53.3806 43.4757L51.8286 44.3778C51.5336 44.5488 51.3516 44.9128 51.3496 45.4308C51.3496 45.5358 51.3566 45.6438 51.3706 45.7518C51.3806 45.8268 51.3936 45.9028 51.4096 45.9798C51.4226 46.0428 51.4386 46.1048 51.4556 46.1678C51.4706 46.2238 51.4886 46.2798 51.5066 46.3348C51.5236 46.3868 51.5426 46.4377 51.5616 46.4897C51.5806 46.5387 51.6006 46.5877 51.6216 46.6367C51.6426 46.6847 51.6646 46.7318 51.6866 46.7788C51.7096 46.8258 51.7326 46.8718 51.7576 46.9178C51.7826 46.9638 51.8076 47.0098 51.8346 47.0558C51.8616 47.1028 51.8906 47.1488 51.9196 47.1948C51.9506 47.2428 51.9816 47.2898 52.0146 47.3368C52.0496 47.3867 52.0866 47.4367 52.1236 47.4847C52.1666 47.5407 52.2116 47.5948 52.2566 47.6468C52.3146 47.7138 52.3746 47.7767 52.4356 47.8377C52.6066 48.0067 52.7916 48.1517 52.9846 48.2627C53.0626 48.3077 53.1396 48.3458 53.2146 48.3778C53.2806 48.4048 53.3446 48.4267 53.4076 48.4437C53.4566 48.4567 53.5046 48.4678 53.5516 48.4748C53.5926 48.4808 53.6336 48.4848 53.6736 48.4868C53.7106 48.4888 53.7466 48.4878 53.7816 48.4858C53.8156 48.4838 53.8486 48.4798 53.8806 48.4748C53.9116 48.4688 53.9426 48.4618 53.9726 48.4538C54.0026 48.4448 54.0316 48.4347 54.0596 48.4227C54.0876 48.4107 54.1156 48.3978 54.1416 48.3828C54.1446 48.3818 54.1476 48.3798 54.1506 48.3778L55.1826 47.7778L55.6936 47.4808C55.6976 47.4758 55.7006 47.4748 55.7036 47.4728Z" fill="#FFB700"/>
</g>
<path d="M54.2843 52.1337L55.8353 51.2317C56.9463 50.5867 57.6344 49.2138 57.6404 47.2618C57.6514 43.3328 54.8913 38.5528 51.4733 36.5788C49.7563 35.5878 48.2013 35.4968 47.0783 36.1498L45.5273 37.0518C46.6503 36.3988 48.2043 36.4898 49.9223 37.4818C53.3413 39.4558 56.1013 44.2358 56.0903 48.1638C56.0833 50.1158 55.3943 51.4877 54.2843 52.1337Z" fill="url(#paint4_linear_71_23498)"/>
<mask id="mask1_71_23498" style="mask-type:luminance" maskUnits="userSpaceOnUse" x="45" y="35" width="13" height="18">
<path d="M54.2843 52.1337L55.8353 51.2317C56.9463 50.5867 57.6344 49.2138 57.6404 47.2618C57.6514 43.3328 54.8913 38.5528 51.4733 36.5788C49.7563 35.5878 48.2013 35.4968 47.0783 36.1498L45.5273 37.0518C46.6503 36.3988 48.2043 36.4898 49.9223 37.4818C53.3413 39.4558 56.1013 44.2358 56.0903 48.1638C56.0833 50.1158 55.3943 51.4877 54.2843 52.1337Z" fill="white"/>
</mask>
<g mask="url(#mask1_71_23498)">
<path d="M54.2842 52.1337L55.8352 51.2317C56.9462 50.5867 57.6342 49.2137 57.6402 47.2617C57.6412 46.8647 57.6142 46.4598 57.5612 46.0498L56.0092 46.9518C56.0622 47.3618 56.0892 47.7677 56.0882 48.1637C56.0832 50.1157 55.3942 51.4877 54.2842 52.1337Z" fill="#FFB700"/>
<path d="M56.0093 46.9518L57.5613 46.0498C57.5243 45.7658 57.4753 45.4788 57.4143 45.1908L55.8623 46.0928C55.9233 46.3808 55.9723 46.6678 56.0093 46.9518Z" fill="#FFB700"/>
<path d="M55.8615 46.0928L57.4135 45.1908C57.3635 44.9548 57.3055 44.7178 57.2395 44.4808L55.6885 45.3828C55.7535 45.6198 55.8115 45.8568 55.8615 46.0928Z" fill="#FFB700"/>
<path d="M55.6872 45.3828L57.2382 44.4808C57.1802 44.2708 57.1162 44.0598 57.0452 43.8498L55.4941 44.7518C55.5651 44.9618 55.6292 45.1728 55.6872 45.3828Z" fill="#FFB700"/>
<path d="M55.4951 44.7528L57.0461 43.8507C56.9811 43.6557 56.9112 43.4608 56.8362 43.2668L55.2852 44.1688C55.3602 44.3628 55.4301 44.5568 55.4951 44.7528Z" fill="#FFB700"/>
<path d="M55.2856 44.1688L56.8366 43.2668C56.7656 43.0808 56.6896 42.8958 56.6096 42.7118L55.0576 43.6138C55.1386 43.7978 55.2146 43.9828 55.2856 44.1688Z" fill="#FFB700"/>
<path d="M55.0595 43.6138L56.6115 42.7118C56.5335 42.5318 56.4515 42.3528 56.3655 42.1748L54.8135 43.0768C54.8995 43.2548 54.9815 43.4338 55.0595 43.6138Z" fill="#FFB700"/>
<path d="M54.8129 43.0768L56.3649 42.1748C56.2799 41.9978 56.1909 41.8228 56.0979 41.6488L54.5469 42.5508C54.6389 42.7248 54.7279 42.8998 54.8129 43.0768Z" fill="#FFB700"/>
<path d="M54.5468 42.5508L56.0978 41.6488C56.0048 41.4738 55.9079 41.2998 55.8079 41.1278L54.2559 42.0298C54.3559 42.2018 54.4528 42.3758 54.5468 42.5508Z" fill="#FFB700"/>
<path d="M54.2565 42.0308L55.8085 41.1287C55.7055 40.9517 55.5985 40.7778 55.4885 40.6058L53.9375 41.5078C54.0475 41.6788 54.1535 41.8538 54.2565 42.0308Z" fill="#FFB700"/>
<path d="M53.9371 41.5078L55.4881 40.6058C55.3721 40.4248 55.2531 40.2468 55.1301 40.0718L53.5791 40.9738C53.7021 41.1478 53.8211 41.3268 53.9371 41.5078Z" fill="#FFB700"/>
<path d="M53.579 40.9728L55.13 40.0708C54.997 39.8808 54.86 39.6947 54.719 39.5127L53.167 40.4147C53.309 40.5967 53.446 40.7828 53.579 40.9728Z" fill="#FFB700"/>
<path d="M53.167 40.4147L54.719 39.5127C54.557 39.3037 54.389 39.0987 54.217 38.9017L52.666 39.8037C52.838 40.0017 53.005 40.2057 53.167 40.4147Z" fill="#FFB700"/>
<path d="M52.6653 39.8037L54.2163 38.9017C53.9983 38.6507 53.7723 38.4108 53.5403 38.1818L51.9883 39.0838C52.2213 39.3118 52.4473 39.5527 52.6653 39.8037Z" fill="#FFB700"/>
<path d="M51.9898 39.0838L53.5418 38.1818C52.8958 37.5448 52.1988 36.9988 51.4728 36.5798C51.1768 36.4088 50.8868 36.2658 50.6018 36.1468L49.0498 37.0488C49.3348 37.1668 49.6248 37.3108 49.9208 37.4818C50.6478 37.9008 51.3438 38.4468 51.9898 39.0838Z" fill="#FFB700"/>
<path d="M49.0501 37.0488L50.6021 36.1468C50.3561 36.0448 50.1152 35.9618 49.8792 35.8978L48.3271 36.7998C48.5631 36.8638 48.8041 36.9468 49.0501 37.0488Z" fill="#FFB700"/>
<path d="M48.3272 36.7998L49.8792 35.8978C49.6942 35.8478 49.5122 35.8087 49.3342 35.7817L47.7822 36.6838C47.9602 36.7108 48.1422 36.7498 48.3272 36.7998Z" fill="#FFB700"/>
<path d="M47.7822 36.6838L49.3342 35.7817C49.1782 35.7577 49.0252 35.7428 48.8752 35.7358L47.3242 36.6377C47.4732 36.6447 47.6262 36.6598 47.7822 36.6838Z" fill="#FFB700"/>
<path d="M47.324 36.6377L48.875 35.7358C48.736 35.7298 48.6 35.7308 48.466 35.7388L46.915 36.6408C47.048 36.6328 47.185 36.6317 47.324 36.6377Z" fill="#FFB700"/>
<path d="M46.9149 36.6418L48.4659 35.7397C48.3389 35.7477 48.2159 35.7627 48.0949 35.7837L46.5439 36.6857C46.6639 36.6637 46.7879 36.6498 46.9149 36.6418Z" fill="#FFB700"/>
<path d="M46.5433 36.6847L48.0943 35.7827C47.9763 35.8037 47.8603 35.8298 47.7483 35.8628L46.1973 36.7648C46.3103 36.7328 46.4253 36.7057 46.5433 36.6847Z" fill="#FFB700"/>
<path d="M46.1971 36.7648L47.7482 35.8628C47.6362 35.8958 47.5271 35.9337 47.4211 35.9777L45.8691 36.8797C45.9761 36.8357 46.0851 36.7978 46.1971 36.7648Z" fill="#FFB700"/>
<path d="M45.8706 36.8797L47.4226 35.9777C47.3156 36.0227 47.2116 36.0727 47.1116 36.1297L45.5596 37.0317C45.6606 36.9757 45.7646 36.9247 45.8706 36.8797Z" fill="#FFB700"/>
<path d="M45.5603 37.0317L47.1123 36.1297C47.1013 36.1357 47.0893 36.1428 47.0783 36.1488L45.5273 37.0508C45.5373 37.0448 45.5483 37.0387 45.5603 37.0317Z" fill="#FFB700"/>
</g>
<path d="M49.9191 37.4827C48.1931 36.4807 46.6361 36.3917 45.5151 37.0567C45.0691 37.3247 44.6921 37.7117 44.3941 38.2077L35.5551 33.1087L31.438 30.7377C31.21 31.3427 31.0811 31.9677 31.0811 32.5527C31.0811 33.6537 31.5671 34.3577 32.2911 34.5167L32.3111 37.6517L33.0151 38.0687L44.3731 44.6057C45.3851 47.5127 47.4681 50.3097 49.8781 51.6987C53.3001 53.6727 56.0781 52.0957 56.0881 48.1667C56.0991 44.2377 53.3411 39.4567 49.9191 37.4827ZM52.9841 48.2597C52.0771 47.7367 51.3451 46.4687 51.3481 45.4267C51.3511 44.3847 52.088 43.9647 52.994 44.4887C53.901 45.0117 54.6331 46.2797 54.6301 47.3217C54.6271 48.3637 53.8901 48.7837 52.9841 48.2597Z" fill="#FFD438"/>
<path d="M47.7159 48.7248C47.5979 48.4348 47.2899 48.1258 47.2689 47.6768C47.2379 46.9988 47.5209 46.2337 47.3689 45.9427C47.2019 45.6227 46.8139 46.0737 46.7529 46.3507C46.6909 46.6277 46.6079 47.0347 46.2439 47.0597C45.8799 47.0837 45.3689 46.3458 44.6649 45.6418C44.2529 46.2998 44.4779 47.3527 44.6099 47.7837C44.9179 48.7907 46.1899 49.6018 46.5909 50.1258C46.9909 50.6518 47.7159 48.7248 47.7159 48.7248Z" fill="#F9C0AA"/>
<path d="M53.6854 38.9367C52.8394 38.8557 52.4454 38.8687 51.8324 38.8927C51.2914 38.9147 50.5094 39.2807 50.2854 39.0227C50.0654 38.7697 51.2544 38.3588 51.0534 38.2648C49.8534 37.6998 49.3534 37.6418 49.1434 37.4448C48.8324 37.1548 49.2574 36.9137 49.8764 37.1717C50.0284 37.2347 50.1794 37.2978 50.3244 37.3758C50.3714 37.4008 50.6014 37.5587 50.6234 37.4157C50.6494 37.2427 49.2434 37.0008 49.0754 36.5088C48.8704 35.9108 50.8234 36.9467 50.8144 36.8367C50.8094 36.7827 50.4694 36.5598 50.0964 36.3688C49.7114 36.1718 49.2944 36.0017 49.3484 35.7677C49.3834 35.6167 49.8384 35.7498 50.2764 35.9528C50.7574 36.1758 51.2234 36.4748 51.2444 36.3748C51.3094 36.0648 50.4754 36.1467 50.5804 35.9017C50.7414 35.5247 51.6374 36.1217 52.0184 36.2107C52.3994 36.2987 54.0714 37.3418 54.0714 37.3418L53.6854 38.9367Z" fill="#F7AF8F"/>
<path d="M68.8893 43.0247C66.8873 41.3647 64.3593 39.8208 62.1983 38.7868C58.8233 37.1728 53.1863 36.5588 53.1863 36.5588L52.7354 39.1637C52.7354 39.1637 57.7333 40.1927 60.9263 42.3737C63.9533 44.4427 68.5093 48.4888 68.5093 48.4888L68.8423 48.1678L68.8893 43.0247Z" fill="#FA3A8C"/>
<path d="M74.104 94.0718C74.512 95.0278 74.97 97.0208 73.729 97.2188C71.495 97.5768 71.921 96.2698 70.433 96.2498C67.116 96.2068 66.193 94.0248 66.761 93.2918C67.354 92.5258 68.407 92.9598 69.345 93.2058C69.899 93.3518 72.114 93.7518 72.114 93.7518L74.104 94.0718Z" fill="#2A2A66"/>
<path d="M60.3335 32.6128C58.7905 32.6618 58.6624 34.1588 58.6544 34.8348C58.6464 35.5108 58.9654 36.4087 58.8984 36.8997C58.8314 37.3907 58.6314 38.4288 58.7754 39.1678C58.9284 39.9568 58.7964 42.0658 60.6894 41.9788C62.0794 41.9148 61.0605 44.6007 61.0605 44.6007C61.0605 44.6007 62.2645 45.9228 63.6775 45.9388C65.0905 45.9548 66.4474 44.8568 66.4474 44.8568C66.4474 44.8568 65.1945 42.0827 65.5485 40.4557C65.9025 38.8277 65.5915 33.9077 65.5915 33.9077L60.3335 32.6128Z" fill="#F9C0AA"/>
<path d="M65.5486 40.4557C65.5946 40.2417 65.6296 39.9708 65.6556 39.6628L64.1206 39.5098C64.1206 39.5098 63.7216 41.5797 61.3576 42.4427C61.5876 43.1957 61.0596 44.6007 61.0596 44.6007C61.0596 44.6007 61.2726 44.8327 61.6206 45.1027C62.4806 45.1287 65.7136 45.2208 65.7996 45.1628C65.8286 45.1428 66.0316 44.8757 66.3016 44.5107C65.9836 43.7197 65.2706 41.7357 65.5486 40.4557Z" fill="#F7AF8F"/>
<path d="M69.449 61.0118C69.449 61.0118 71.672 63.0048 71.748 68.5118C71.824 74.0188 71.78 77.1028 72.663 79.7648C73.546 82.4268 73.251 89.0368 73.928 91.5038C74.607 93.9798 74.122 94.6628 73.343 94.8798C72.564 95.0968 70.363 95.6698 70.191 94.6108C69 87.2518 67.218 85.2468 66.606 79.5108C66.602 79.4748 63.565 63.3988 63.514 63.2518C62.246 59.6118 69.449 61.0118 69.449 61.0118Z" fill="#51228A"/>
<path d="M60.1692 94.6187C60.5532 95.5997 60.9442 97.6247 59.6412 97.7687C57.2932 98.0287 57.7962 96.7327 56.2432 96.6467C52.7832 96.4547 51.9152 94.2187 52.5392 93.5057C53.1912 92.7617 54.2722 93.2447 55.2402 93.5347C55.8122 93.7057 58.1072 94.2088 58.1072 94.2088L60.1692 94.6187Z" fill="#15154F"/>
<path d="M68.2644 67.2867C69.0764 63.6697 67.5974 60.9977 67.5974 60.9977C67.5974 60.9977 59.7864 57.6217 59.0984 61.7117C58.2094 66.9977 55.3744 75.3367 55.0034 77.9617C54.6324 80.5867 55.8314 92.4667 56.4564 95.1377C56.6904 96.1367 59.2244 96.3727 60.0844 95.6827C60.7434 95.1537 60.4104 93.4257 60.4794 91.6657C60.5004 91.1227 60.5334 89.1507 60.8284 85.6427C61.1234 82.1347 60.1064 79.2877 62.8504 76.0557C66.1994 72.1087 67.7404 69.6197 68.2644 67.2867Z" fill="#7437BD"/>
<path d="M68.1914 42.5808C67.2164 42.2298 66.1564 42.6288 65.3334 42.9788C64.0594 43.5228 63.1804 43.6568 62.1094 43.6708C60.5204 43.6918 57.4294 43.8928 57.0914 45.4888C56.7524 47.0858 57.8234 53.8037 58.3364 55.7157C58.8494 57.6277 58.3474 62.2097 58.7104 62.8257C59.1884 63.6367 63.6964 63.3418 66.8574 62.9018C70.0184 62.4628 70.1954 62.3308 70.0864 59.4178C70.0454 58.3308 69.7434 56.1588 70.1724 52.5608C70.5654 49.2768 70.6084 43.4508 68.1914 42.5808Z" fill="#D12971"/>
<path d="M58.4298 44.2207C60.8578 43.9077 61.8658 48.3087 61.3518 52.3847C60.8998 55.9607 59.5499 57.7597 58.1099 58.4207C54.6619 60.0047 46.1318 50.0217 46.1318 50.0217L47.6928 48.3317L55.8688 53.6177C55.8688 53.6177 55.5008 44.5987 58.4298 44.2207Z" fill="#FA3A8C"/>
<path d="M64.4735 40.3787C64.2075 40.1567 63.2855 39.5778 62.8495 38.7858C62.4135 37.9938 63.5685 37.0917 63.1305 36.5047C62.6925 35.9177 62.0725 36.5008 62.0725 36.5008L62.0265 38.1857C62.0455 38.9907 62.5015 38.8498 62.6555 39.6038C62.6925 39.7838 62.6615 41.3848 61.9565 41.8208C61.2285 42.2718 60.1835 42.2808 59.5325 41.7638C58.8635 41.2318 58.7945 39.8938 58.8275 39.5577C59.9475 39.6117 60.4815 39.6308 60.9885 39.3958C61.5065 39.1558 61.4235 38.9897 61.3605 38.0597H61.3615C61.3595 37.5267 61.3445 37.2968 61.3235 37.0278C61.2645 36.2398 60.6095 36.5347 59.6045 36.0807C58.3695 35.5217 58.2635 35.1378 58.1695 34.3268C58.0765 33.5258 57.4685 32.8848 57.7385 32.2228C57.9095 31.8038 58.4775 31.6188 59.3915 31.7848C60.5585 31.9978 60.6755 31.5927 61.3825 31.4817C62.0895 31.3707 63.3365 31.0807 64.3915 32.0257C65.4615 32.9837 67.1835 32.3958 67.0955 35.0768C67.0275 37.1788 66.3725 37.3778 66.6135 38.3408C66.8545 39.3038 66.0295 40.9728 65.4885 40.9718C64.9465 40.9698 64.6995 40.5667 64.4735 40.3787Z" fill="#420AA3"/>
<defs>
<linearGradient id="paint0_linear_71_23498" x1="5.2941" y1="34.2931" x2="57.5828" y2="64.4821" gradientUnits="userSpaceOnUse">
<stop stop-color="#7437BD"/>
<stop offset="1" stop-color="#2E0AA3"/>
</linearGradient>
<linearGradient id="paint1_linear_71_23498" x1="40.3914" y1="12.8167" x2="-0.105307" y2="12.8167" gradientUnits="userSpaceOnUse">
<stop stop-color="#7437BD"/>
<stop offset="1" stop-color="#B862D6"/>
</linearGradient>
<linearGradient id="paint2_linear_71_23498" x1="43.2008" y1="12.8167" x2="1.91449" y2="12.8167" gradientUnits="userSpaceOnUse">
<stop stop-color="#7437BD"/>
<stop offset="1" stop-color="#B862D6"/>
</linearGradient>
<linearGradient id="paint3_linear_71_23498" x1="66.6987" y1="43.3017" x2="56.5899" y2="47.0416" gradientUnits="userSpaceOnUse">
<stop stop-color="#FCFCFC"/>
<stop offset="1" stop-color="#BABDE8"/>
</linearGradient>
<linearGradient id="paint4_linear_71_23498" x1="47.887" y1="31.0381" x2="53.2933" y2="45.9981" gradientUnits="userSpaceOnUse">
<stop stop-color="#FCFCFC"/>
<stop offset="1" stop-color="#BABDE8"/>
</linearGradient>
</defs>
</svg>
